<?xml version="1.0" encoding="UTF-8"?>
<!-- Generator: Adobe Illustrator 21.1.0, SVG Export Plug-In . SVG Version: 6.00 Build 0)  -->
<svg version="1.1" id="Слой_1" xmlns="http://www.w3.org/2000/svg" xmlns:xlink="http://www.w3.org/1999/xlink" x="0px" y="0px" viewBox="0 0 300 300" style="enable-background:new 0 0 300 300;" xml:space="preserve">
<style type="text/css">
	.st0{fill:#FFFFFF;}
	.st1{fill:#DB1E2C;}
	.st2{fill:#FDCB08;}
</style>
<polygon class="st0" points="19.6,168.6 150,96.8 280.4,168.6 150,240.3 "/>
<path class="st1" d="M74.9,127.2C33.7,149.9,0,168.4,0,168.5c0,0.1,149.6,82.4,149.9,82.5c0.1,0.1,150.1-82.4,150.1-82.5  c0-0.1-149.7-82.4-149.9-82.4C150,86,116.2,104.5,74.9,127.2z M215.6,132.7c35.9,19.7,65.2,35.9,65.2,35.9  c0,0.1-130.1,71.7-130.4,71.7c-0.2,0-130.4-71.6-130.4-71.7c0-0.1,130.2-71.8,130.4-71.8C150.3,96.8,179.7,113,215.6,132.7z"/>
<path class="st1" d="M94.7,138.3c-30.3,16.7-55.1,30.4-55.2,30.4c0,0.1,28.7,16,35.9,19.9l0.7,0.4l12.3-6.8  c6.8-3.7,12.3-6.7,12.4-6.7c0,0,0.2,0.9,0.5,2c1.9,8.5,6.1,15.2,13.1,20.8c2.1,1.6,5.2,3.8,7.3,4.9l1.5,0.8l-4.9,2.7  c-2.7,1.5-4.8,2.7-4.8,2.8c0.1,0.1,36.3,20,36.4,20c0,0,109.8-60.3,110.5-60.7c0.1-0.1-34.5-19.2-36-19.9  c-0.4-0.2-0.4-0.2-23.8,12.7l-23.4,12.9l-0.4,1.4c-1.2,4.8-3.8,9.1-7.5,12.7c-3.6,3.5-7.6,5.8-12.4,7c-2.5,0.6-4.2,0.9-6.9,0.9  c-2.7,0-4.4-0.2-6.9-0.9c-4.8-1.2-8.8-3.5-12.4-7c-4.4-4.3-6.9-9.1-8.1-15.5c-0.3-1.9-0.3-6.8,0-8.6c1.2-6.3,3.7-11.2,8.1-15.5  c4.2-4.1,9.4-6.6,15.3-7.5c1.9-0.3,5.8-0.3,7.7,0c4.1,0.6,8.1,2.2,11.4,4.3c3.2,2.1,6.3,5.3,8.2,8.5l0.5,0.9h2.7h2.7v-11.5v-11.5  l3.5-1.9c2-1.1,3.5-2,3.5-2c0-0.1-36.4-20.1-36.7-20.2C149.9,108,125,121.6,94.7,138.3z M151.2,131.4c7.3,0.7,14.6,3.2,20.3,7.1  c0.6,0.4,1.2,0.8,1.2,0.7c0,0,0.2-0.5,0.4-1.2l0.4-1.1l1.7-0.9l1.7-0.9v8.7v8.6h-0.8h-0.8l-1.1-1.5c-2-2.7-5-5.6-7.5-7.3  c-1.1-0.8-3-1.8-4.8-2.5c-4.7-2-9.5-2.9-13.9-2.5c-6.6,0.6-12.6,3.1-17.4,7.1c-5.8,5-9.6,12-10.5,19.5c-0.3,2.8-0.1,7,0.6,9.8  c1.6,6.5,5.4,13.1,9.5,16.3c5.3,4.1,9.8,6.2,15.3,7.1c1.7,0.3,6.1,0.3,7.9,0.1c5.7-0.8,11.2-3.1,15.3-6.4c1.7-1.4,4-3.9,6-6.6  l0.9-1.1h1.2h1.1v4.6v4.7l-1.2,1.2c-4,4-9.7,7.2-16.2,9.3c-4.5,1.4-8.1,2-13.1,2.1c-12.7,0.3-22.5-2.9-31.8-10.4  c-7.1-5.7-11.2-12.9-12.6-22.2c-0.3-1.9-0.3-7.4-0.1-9.3c1.2-8.6,4.3-15.2,9.6-20.2c6.6-6.3,13.7-10.2,21.8-11.9  C139.6,131.3,146,130.9,151.2,131.4z"/>
<path class="st1" d="M147.7,147.4c-5.1,0.5-10.4,3.2-13.8,7.1c-4.9,5.6-6.6,13.4-4.4,20.4c1.2,3.7,3.4,7.3,6.4,9.8  c5.1,4.4,11.9,6.3,18.4,4.9c2.6-0.5,5.4-1.7,7.8-3.3c1.7-1.2,4.7-4.1,5.8-5.7c3.3-5,4.4-10.6,3.2-16.3c-1.2-5.8-4.6-10.8-9.8-14  C157.4,148,152.6,146.9,147.7,147.4z M153.7,149c1.5,0.3,3.3,0.9,4.8,1.6c1,0.5,1.3,0.7,2.1,1.6l0.9,1l-1.7,1.8  c-2.5,2.6-2.1,2.4-3.2,2.2c-1.1-0.2-5.5-0.4-7.3-0.3l-1.3,0.1l-2.6-2.3c-1.4-1.3-2.6-2.4-2.6-2.4c0-0.1,0.7-0.7,1.5-1.5  c1.6-1.6,1.5-1.5,3.2-1.8C148.6,148.6,152.4,148.8,153.7,149z M145,154.7c1.4,1.3,2.6,2.3,2.6,2.4c0,0-0.6,1.9-1.5,4.2l-1.5,4.1  l-4.2,1.9l-4.2,1.9l-1.5-1.4c-0.8-0.8-1.9-1.8-2.4-2.3l-0.8-0.9l0.2-0.8c0.5-2.3,2.3-6.8,3.2-8.1c0.2-0.3,0.8-0.6,2.1-1.3  c1.7-0.8,5.1-2.2,5.3-2.3C142.4,152.4,143.6,153.4,145,154.7z M163.3,154.2c1.6,0.9,3.2,2.8,4.6,5.7c1.2,2.4,2,5.4,2,7.4v0.7  l-1.2,1.2c-0.6,0.6-1.2,1.1-1.3,1.1c-0.1,0-0.8-0.5-1.6-1c-0.8-0.6-2.3-1.5-3.2-2l-1.7-1l-0.5-1.5c-0.6-1.9-2.1-6.1-2.4-6.7  l-0.2-0.5l2-2.1C162,153.1,161.6,153.3,163.3,154.2z M133.6,157.7c-0.6,1.3-1.6,4-2,5.8c-0.3,1.1-1.3,3.2-1.4,2.8  c-0.1-0.4,0.4-2.5,0.8-3.8c0.5-1.6,1.5-3.7,2.4-5c0.4-0.5,0.7-1,0.7-1C134.1,156.5,133.9,157.1,133.6,157.7z M148.6,168.7  c2,1.5,3.8,2.8,3.8,2.9c0.1,0.1-0.3,9.4-0.4,9.5c0,0-1.9,0.8-4.1,1.7l-4,1.6l-0.7-0.2c-2.3-0.8-5.3-3-6.8-5l-0.4-0.5v-2.8  c0-2.5,0.3-5.5,0.5-6.1c0.1-0.2,7.9-3.9,8.2-3.9C144.8,165.9,146.6,167.2,148.6,168.7z M163,167.8c1.2,0.7,2.7,1.7,3.3,2.1l1.1,0.8  l0.1,1.1c0.1,1.1-0.1,5.4-0.3,6.7c-0.2,1.2-0.7,1.8-2.8,3.3c-1.5,1.1-4.9,3.1-5.3,3.1c-0.1,0-6.4-3.5-6.6-3.7  c-0.1-0.1,0.4-9.3,0.5-9.4c0.1-0.1,7.7-5.3,7.8-5.3C160.8,166.5,161.8,167.1,163,167.8z M136.5,179.9c1.4,1.7,3.3,3.2,5.3,4.1  c0.6,0.3,1.3,0.6,1.4,0.7c0.2,0.1,0.4,0.5,0.8,1.7c0.3,0.9,0.5,1.6,0.5,1.6c-0.1,0.1-2.3-0.8-3.4-1.3c-2.4-1.2-4.3-2.7-6-4.6  c-0.9-1-1.9-2.4-1.9-2.6c0-0.1,0.4-0.2,1-0.2C135.7,178.9,135.6,178.8,136.5,179.9z M163.9,183.1c-0.7,0.7-1.7,1.5-2.2,1.9  c-1.1,0.8-3.1,1.9-3.2,1.8c0,0,0.1-0.4,0.3-0.8c0.3-0.6,0.5-0.7,1.7-1.4c1.5-0.8,3.6-2.1,4.2-2.6c0.2-0.2,0.4-0.3,0.5-0.2  C165.1,181.8,164.6,182.4,163.9,183.1z"/>
<g>
	<path class="st2" d="M110,52.3c-0.9,1.8-1.7,3.3-1.7,3.3c-0.1,0.1-6.9,1.1-7.2,1.1c-0.1,0,1.1,1.2,2.5,2.6l2.6,2.6l-0.6,3.6   c-0.3,2-0.6,3.6-0.6,3.7c0,0,1.5-0.7,3.3-1.6c1.8-0.9,3.3-1.7,3.3-1.7c0,0,1.5,0.8,3.3,1.7c1.8,0.9,3.3,1.7,3.3,1.6   c0,0-0.2-1.7-0.6-3.7l-0.6-3.6l2.6-2.6c1.5-1.5,2.6-2.6,2.6-2.6c-0.1,0-7.3-1.2-7.3-1.2c0,0-0.8-1.5-1.7-3.3   c-0.9-1.8-1.7-3.2-1.7-3.2C111.7,49.1,110.9,50.5,110,52.3z"/>
	<path class="st2" d="M135.5,52.4c-1.6,3.1-1.7,3.3-1.9,3.3c-0.5,0.1-6.9,1-7,1c-0.1,0,1.1,1.2,2.6,2.7l2.7,2.7l-0.6,3.6   c-0.3,2-0.6,3.6-0.6,3.6c0,0,1.5-0.7,3.3-1.6c1.8-0.9,3.3-1.7,3.3-1.7c0,0,1.5,0.8,3.3,1.7c1.8,0.9,3.2,1.7,3.3,1.6   c0,0-0.2-1.6-0.6-3.6l-0.6-3.6l2.7-2.7c1.5-1.5,2.6-2.7,2.5-2.7c-0.2,0-7.2-1.1-7.3-1.2c0,0-0.8-1.5-1.7-3.3   c-0.9-1.8-1.6-3.2-1.7-3.2C137.2,49.1,136.4,50.6,135.5,52.4z"/>
	<path class="st2" d="M161.1,52.3c-0.9,1.8-1.7,3.3-1.7,3.3c-0.1,0.1-6.9,1.1-7.2,1.1c-0.1,0,1.1,1.2,2.5,2.6l2.6,2.6l-0.6,3.6   c-0.3,2-0.6,3.6-0.6,3.7c0,0,1.5-0.7,3.3-1.6c1.8-0.9,3.3-1.7,3.3-1.7c0,0,1.5,0.8,3.3,1.7c1.8,0.9,3.3,1.7,3.3,1.6   c0,0-0.2-1.7-0.6-3.7l-0.6-3.6l2.6-2.6c1.5-1.5,2.6-2.6,2.6-2.6c-0.1,0-7.3-1.2-7.3-1.2c0,0-0.8-1.5-1.7-3.3   c-0.9-1.8-1.7-3.2-1.7-3.2C162.7,49.1,162,50.5,161.1,52.3z"/>
	<path class="st2" d="M186.6,52.4c-1.6,3.1-1.7,3.3-1.9,3.3c-0.5,0.1-6.9,1-7,1c-0.1,0,1.1,1.2,2.6,2.7l2.7,2.7l-0.6,3.6   c-0.3,2-0.6,3.6-0.6,3.6c0,0,1.5-0.7,3.3-1.6c1.8-0.9,3.3-1.7,3.3-1.7c0,0,1.5,0.8,3.3,1.7c1.8,0.9,3.2,1.7,3.3,1.6   c0,0-0.2-1.6-0.6-3.6l-0.6-3.6l2.7-2.7c1.5-1.5,2.6-2.7,2.5-2.7c-0.2,0-7.2-1.1-7.3-1.2c0,0-0.8-1.5-1.7-3.3   c-0.9-1.8-1.6-3.2-1.7-3.2C188.3,49.1,187.5,50.6,186.6,52.4z"/>
</g>
</svg>