<?xml version="1.0" encoding="UTF-8"?>
<!-- Generator: Adobe Illustrator 21.1.0, SVG Export Plug-In . SVG Version: 6.00 Build 0)  -->
<svg version="1.1" id="cska" xmlns="http://www.w3.org/2000/svg" xmlns:xlink="http://www.w3.org/1999/xlink" x="0px" y="0px" viewBox="0 0 300 300" style="enable-background:new 0 0 300 300;" xml:space="preserve">
<style type="text/css">
	.st0{fill-rule:evenodd;clip-rule:evenodd;fill:#F5C400;}
	.st1{fill-rule:evenodd;clip-rule:evenodd;}
	.st2{fill-rule:evenodd;clip-rule:evenodd;fill:#E03A3E;}
	.st3{fill-rule:evenodd;clip-rule:evenodd;fill:#004896;}
	.st4{fill-rule:evenodd;clip-rule:evenodd;fill:#FFFFFF;}
</style>
<g>
	<g>
		<path class="st0" d="M189.9,263.5c-5.8,1.5-22.4-5.4-40.5-5.4c-19.7,0-37.9,8.4-42,4.9c-0.8-0.7-0.3-0.3,0.7,0.7    c1.9,1.9,6.2,5.9,10.5,9.6c3.8,3.3,7.7,6,9.4,7.2c0.7,0.3,1.5,0.5,1.5,0.5s8.3-3,19.8-3c11.5,0,19.8,3,19.8,3s0.8-0.1,1.6-0.5    c1.7-1.2,5.6-3.9,9.4-7.2c4.3-3.7,8.6-7.6,10.5-9.6C191.7,262.7,190.4,263.3,189.9,263.5z"/>
		<path class="st1" d="M168.7,282.2c0,0-0.5-0.2-1.4-0.5c-0.9-0.2-2.3-0.6-4-1c-3.4-0.7-8.2-1.5-13.8-1.5v-2.7    c10.3,0,18,2.3,19.8,2.9c0,0,0,0,0.1,0c0.2-0.1,0.5-0.1,0.7-0.2c1.8-1.2,5.5-3.9,9.2-7c2.9-2.5,6-5.2,8.1-7.2    c-3.9-0.1-9.2-1.5-15.6-2.8c-6.6-1.4-14.3-2.8-22.3-2.8v-2.7c8.2,0,16.1,1.4,22.9,2.8c6.7,1.4,12.3,2.8,15.5,2.8    c0.7,0,1.2-0.1,1.7-0.2c0.1,0,0.3-0.1,0.5-0.1c0.3-0.1,0.5-0.2,0.9-0.2c0.2,0,0.4,0,0.8,0.2c0.4,0.2,0.8,0.8,0.7,1.2    c0,0.6-0.2,0.8-0.3,1c-0.1,0.2-0.3,0.3-0.5,0.5c-1.9,2-6.3,5.9-10.6,9.6c-3.9,3.4-7.8,6.1-9.5,7.3l-0.1,0.1l-0.1,0    c-0.9,0.4-1.8,0.5-1.8,0.5l-0.4,0.1L168.7,282.2z M149.5,279.3C149.5,279.3,149.5,279.3,149.5,279.3c-8.6,0-15.3,1.7-18,2.4    c-1,0.3-1.4,0.5-1.4,0.5l-0.3,0.1l-0.4-0.1c0,0-0.9-0.2-1.8-0.5l-0.1,0l-0.1-0.1c-1.8-1.2-5.7-3.9-9.6-7.3    c-4.3-3.7-8.6-7.6-10.6-9.6c-0.3-0.3-0.6-0.6-0.7-0.7c-0.2-0.2-0.3-0.2-0.4-0.4l0,0c0,0,0,0,0,0c0,0,0,0,0-0.1    c0,0-0.1-0.1-0.1-0.2c0,0,0-0.1,0-0.1c0,0,0-0.1-0.1-0.2c0-0.1,0-0.2,0-0.2c0-0.4,0.1-0.7,0.4-1c0.3-0.3,0.6-0.4,1-0.4    c0,0,0,0,0.1,0c0,0,0,0,0.1,0c0,0,0.1,0,0.2,0c0.1,0,0.1,0,0.2,0.1c0,0,0.1,0,0.1,0c0,0,0,0,0,0c0,0,0.1,0,0.1,0.1    c0,0,0.1,0,0.1,0.1c0,0,0.1,0.1,0.3,0.2c0.3,0.3,1.1,0.6,2.4,0.6c3.2,0,8.8-1.4,15.6-2.9c6.8-1.4,14.8-2.9,23.1-2.9c0,0,0,0,0.1,0    v2.7c0,0,0,0-0.1,0c-8,0-15.8,1.4-22.5,2.9c-6.3,1.3-11.5,2.7-15.3,2.9c2.2,2,5.1,4.6,8,7.1c3.7,3.2,7.4,5.8,9.2,7    c0.2,0.1,0.5,0.1,0.7,0.2c0,0,0,0,0.1,0c1.8-0.6,9.5-2.9,19.9-2.9c0,0,0,0,0.1,0V279.3z"/>
	</g>
	<path class="st1" d="M250.8,127.9c0.2,0.9,0.2,1.8,0.2,2.7c0,0.8,0,1.7-0.2,2.4V127.9L250.8,127.9z M250.8,133.4   c0.1,0.1,0.4,0.3,0.8,0.5c0.2,0.2,0.6,0.4,0.8,1l0.1,0l0,0c0.1,0.4,0.1,0.5,0.1,0.6c0,0.4,0,0.6-0.1,0.8c0,0.3-0.1,0.6-0.2,0.9   c0,0.2-0.1,0.4-0.1,0.5c0.6,0.1,1.3,0.3,2,0.8c0.5,0.4,1,1.1,1,1.9c0,0.1,0,0.3,0,0.5c-0.2,0.9-0.5,2.1-1.3,3.3   c-0.7,1.1-1.8,1.9-2.9,2.7v-3.4c0.3-0.3,0.5-0.6,0.6-0.8c0.6-0.8,0.7-1.4,0.8-2.1c0,0-0.1-0.1-0.2-0.1c-0.4-0.1-0.8-0.2-1.3-0.3   v-1.7l0.2-0.1l-0.1,0.1l0,0h0V133.4L250.8,133.4z M250.8,167.6c0.3,0.5,0.6,1,0.6,1.8c0,0.1,0,0.3,0,0.5l-0.1,0v0.1   c0,0.2-0.2,0.7-0.5,1.4V167.6z M239.1,108.9c0.4,0.1,0.7,0.3,1.2,0.5c1.2,0.6,2.5,1.8,3.1,3.8c0.1,0.4,0.2,0.5,0.2,0.5s0,0,0.2,0.1   c0.3,0.1,1.6,0.7,2,2v0l0,0.1c0.2,0.6,0.3,0.9,0.4,1.3c0,0.2,0.1,0.4,0.1,0.6c0.2,0.2,0.6,0.5,1,0.8c0.9,0.7,2,1.7,2.9,3.3l0.1,0.3   l0,0.3c0,0.6,0,1.3,0,2.1c0,0.4,0,0.7,0,1.2c0.1,0.2,0.1,0.2,0.1,0.3c0.1,0.6,0.2,1.1,0.3,1.7v5.1c0,0.1-0.1,0.2-0.1,0.3l0,0v0l0,0   c0,0,0,0,0.1,0l0,0v5.2l-0.1,0.1l0.1-0.1v1.7c-0.1,0-0.2-0.1-0.4-0.1c-0.2-0.1-0.4,0-0.8-0.6l0,0c0,0,0,0,0,0l0,0l0,0   c-0.4-0.6-0.3-0.8-0.3-1.1c0-0.6,0.1-1.1,0.3-1.7c0.1-0.3,0.1-0.6,0.2-0.8c-0.3-0.2-0.8-0.5-1.2-1c-0.3-0.4-0.5-1-0.5-1.6   c0-0.3,0-0.6,0.1-0.8c0.1-0.6,0.2-1.3,0.2-2c0-0.8-0.1-1.7-0.3-2.7l-0.7,0l0.3-1.7c0.1-0.5,0.1-1,0.1-1.5c0-0.5,0-1.1,0-1.6   c-0.6-0.9-1.2-1.5-1.8-2c-0.6-0.6-1.2-0.9-1.7-1.2c-0.1-0.1-0.3-0.2-0.5-0.6l-0.1-0.3v-0.3c0-0.6,0-0.7,0-0.8c0-0.1-0.1-0.4-0.3-1   c-0.2-0.3-0.1-0.2-0.3-0.4c-0.2-0.1-0.8-0.3-1.5-0.9c-0.4-0.5-0.6-1-0.8-1.7c-0.3-0.9-0.8-1.5-1.5-1.9c0,0-0.1,0-0.1,0v-1.8l0,0   l0,0l0,0v-0.4c0,0,0,0,0,0.1c0-0.1,0-0.1,0-0.1V108.9L239.1,108.9z M250.8,146.9c-1.6,1.2-3.2,2.3-3.5,3.7c-0.1,0.7,0,1.5,0,1.8   c0,0.3,0,0.4,0,0.6l0.4,0c0.2,0,0.4,0,0.5,0c0.1,0,0.1,0,0.4,0.1c0,0.1,0.1,0.1,0.3,0.2c0.1,0.1,0.3,0.1,0.4,0.5   c0.1,0.1,0.1,0.3,0.1,0.6l0,0c0,0,0,0.1,0,0.1c0,0.1,0,0.3,0,0.6c0,0.5,0.1,1.1,0.1,1.8c0,1.5-0.2,3.3-0.9,5.1l0,0   c0.1,0.1,0.5,0.3,0.8,0.6c0.3,0.3,0.6,0.8,0.7,1.5v0l0,0c0,0.9-0.3,1.6-0.6,2.2c0.1,0.1,0.2,0.1,0.3,0.2c0.3,0.3,0.6,0.6,0.9,1v3.8   c-0.7,1.6-2.4,3.9-6,5.6h0l0,0c-0.7,0.3-1.4,0.9-1.8,1.4c0.3,0.4,0.5,1,0.5,1.7c0,0.5-0.1,1-0.4,1.5c0.1,0.6,0.3,1.4,0.3,2.4   c0,2-0.6,4.9-2.4,8.9c-0.7,1.4-1.3,2.8-1.8,4v-6.8c1.2-2.8,1.5-4.9,1.5-6.2c0-1.2-0.3-1.8-0.3-1.9l-0.4-0.8l0.6-0.7   c0-0.1,0.1-0.1,0.1-0.2c0.1-0.2,0.1-0.3,0.1-0.3c0,0,0-0.1-0.1-0.3c-0.1-0.2-0.2-0.3-0.4-0.6c0-0.1-0.2-0.2-0.3-0.8   c0-0.2,0-0.5,0.2-0.6c0-0.1,0-0.1,0.1-0.2c0.1-0.1,0.1-0.2,0.2-0.3c0.2-0.2,0.4-0.6,0.7-0.9c0.6-0.6,1.4-1.4,2.5-1.8   c4-1.9,4.7-4.3,5-5.2c0,0,0,0,0,0c-0.1-0.1-0.2-0.2-0.3-0.4c-0.3-0.3-0.6-0.6-0.9-0.8c-0.1-0.1-0.2-0.1-0.2-0.1l-1.2-0.7l0.7-1.2   c0,0,0,0,0.1-0.2c0.1-0.1,0.2-0.3,0.3-0.6c0.1-0.3,0.2-0.6,0.3-0.9c-0.2-0.1-0.6-0.3-0.9-0.7c-0.3-0.4-0.6-1-0.6-1.6   c0-0.4,0.1-0.8,0.3-1.2c0.6-1.3,0.7-2.9,0.7-4.1c0-0.5,0-1-0.1-1.3l0,0l-2.6,0l0.9-1.3l-0.6-0.4V153c0,0,0,0,0-0.1   c0-0.5,0-1.1-0.1-1.6l0-0.1l0.1-1.2l0.1-0.2c0.1-0.2,1.1-2.5,3.4-3.9c1.3-0.9,2.3-1.7,2.9-2.4V146.9L250.8,146.9z M247.4,164.2   L247.4,164.2L247.4,164.2z M239,108.8c0,0,0.1,0,0.1,0.1v0.8c0,0,0,0,0-0.1c0,0,0,0,0,0.1v0.4l0,0l0,0l0,0v1.8   c0-0.1-0.1-0.1-0.1-0.1v-2.5c0,0,0,0,0,0c0,0,0,0.1,0.1,0.2c0-0.1,0-0.1-0.1-0.2c0,0,0,0,0,0V108.8L239,108.8z M239.1,196.9   c0,0.1-0.1,0.2-0.1,0.4v-6.8c0-0.1,0.1-0.2,0.1-0.4V196.9L239.1,196.9z M239,109.3C239,109.3,239,109.3,239,109.3L239,109.3   C239,109.3,239,109.3,239,109.3L239,109.3z M238.4,108.7c0.1,0,0.2,0,0.4,0.1c0.1,0,0.1,0,0.2,0v0.5c-0.1,0-0.1-0.1-0.1-0.1   c0,0,0,0.1,0,0.1c0.1,0,0.1,0,0.1,0v2.5c-0.2-0.1-0.4-0.2-0.6-0.3V108.7L238.4,108.7L238.4,108.7L238.4,108.7L238.4,108.7z    M239,197.3c-0.2,0.6-0.4,1.1-0.6,1.6v-7c0,0,0-0.1,0-0.1c0.2-0.4,0.4-0.8,0.6-1.2V197.3L239,197.3z M239,109.3   C239,109.3,239,109.3,239,109.3C239,109.3,239,109.3,239,109.3L239,109.3z M236.4,109.5c0-0.1,0.1-0.1,0.1-0.2l0,0   c0-0.1,0.1-0.2,0.2-0.3c0.2-0.2,0.6-0.4,1-0.4l0,0l0,0c0.1,0,0.1,0,0.1,0c0,0,0.1,0,0.1,0s0,0,0,0h0c0,0,0.1,0,0.2,0   c0,0,0.1,0,0.1,0v0l0,0l0,0v2.8c0,0,0,0,0,0c-0.2,0.3-0.4,0.6-0.6,1c-0.5,1-1.1,2.2-1.3,3.4v-6.3l0,0l0,0l0,0V109.5L236.4,109.5z    M238.4,198.8c-0.4,1.2-0.8,2.2-1.2,3.2c-0.2,0.6-0.5,1.3-0.7,1.9v-7.7c0.5-1.3,1.2-2.8,1.9-4.5V198.8z M236.4,109.5   C236.4,109.5,236.4,109.5,236.4,109.5l0.1,0.1l0,0l0,0l0,0v6.3c0,0-0.1,0.1-0.1,0.2v-6.2l0,0l0,0l0,0V109.5L236.4,109.5z    M236.4,203.9L236.4,203.9l-0.1-7.6c0,0,0.1,0,0.1-0.1V203.9z M228.6,144.6c0.4-0.4,0.9-0.6,1.2-0.6c0.1,0,0.2,0,0.3,0   c-0.1-0.7-0.3-1.3-0.4-1.4l0,0c-0.3-0.3-0.6-0.7-1.1-1.3V120c0,0,0,0,0,0c0.4-0.1,0.6-0.1,0.7-0.1c0.1-0.1,0.3-0.3,0.4-0.6   c0.3-0.5,0.7-1.1,1-1.7c0.3-0.3,0.4-0.6,1.1-1c0.6-0.3,0.9-0.2,1.2-0.3c0.3,0,0.5,0,0.6-0.1v0c0,0,0-0.1,0-0.2   c0.4-3,2.1-5.6,2.8-6.5v0.4v0c0,0,0,0,0,0l0,0v6.2c0,0.1,0,0.2,0,0.3c0,0.6-0.3,1.2-0.6,1.6c-0.4,0.4-0.8,0.7-1.2,0.8   c-0.6,0.2-1.1,0.2-1.4,0.2c-0.1,0.1-0.2,0.3-0.4,0.6c-0.3,0.5-0.7,1.1-1.1,1.7c-0.3,0.4-0.5,0.7-1.2,1.1c-0.5,0.1-0.8,0.2-0.9,0.2   c0,0-0.1,0.1-0.1,0.2c-0.1,0.3-0.2,0.5-0.3,0.7c-0.1,0.3-0.2,0.7-0.2,1.3c0,0.9,0.2,2,1.2,3.6c0.5,0.7,0.8,1.5,0.8,2.2   c0,1.1-0.6,1.8-0.7,1.9c-0.5,0.8-0.9,1-1.1,1.3c-0.2,0.2-0.4,0.5-0.6,1.1c0.3,3.3,1.9,4.6,3.1,6c0.5,0.5,0.6,1,0.8,1.7   c0.2,0.6,0.3,1.4,0.3,2.2l0,0.3l-0.1,0.3c-0.3,0.8-1.2,1.3-1.7,1.4c-0.3,0.1-0.5,0.1-0.6,0.1c0,0.3-0.1,0.6-0.2,0.9   c-0.1,0.4-0.3,0.8-0.7,1.1c-0.3,0.2-0.6,0.4-1,0.4c0,0,0,0-0.1,0V144.6L228.6,144.6z M236.4,204c-0.7,1.7-1.7,3.3-3.2,4.9   c-1.4,1.5-2.9,2.7-4.6,3.6v-3.2c1-0.6,1.8-1.4,2.7-2.3c1.7-1.7,2.5-3.5,3.4-5.9c0.5-1.4,1.1-2.9,1.7-4.7V204L236.4,204z    M228.6,171.7v-1.4c0-0.1,0-0.1,0.1-0.1l0,0c0,0,0,0-0.1,0.1v-2.9c0.2,0.5,0.3,0.7,0.4,0.8c0,0.1,0,0.1,0,0.1   c0.1,0.1,0.1,0.1,0.1,0.1c0,0,0,0.1,0,0.1c0,0.1,0.1,0.1,0.1,0.1c0,0,0,0,0,0c0,0,0,0,0,0.1c0,0,0,0.1,0,0.2   c0.1,0.2,0.2,0.5,0.3,0.9l0.2,0.9l-0.8,0.5C228.9,171.5,228.7,171.6,228.6,171.7L228.6,171.7z M228.6,162.3v-6.1c0,0,0,0.1,0.1,0.1   c1.1,1.4,1.4,2.9,1.4,4c0,0.3,0,0.6-0.1,0.9c-0.2,0.5-0.5,0.7-0.6,0.8c-0.2,0.1-0.3,0.2-0.5,0.2   C228.7,162.3,228.6,162.3,228.6,162.3z M228,145.4L228,145.4c0.1-0.4,0.4-0.6,0.6-0.8v4.5c-0.1,0-0.2,0-0.2,0c0,0-0.2,0-0.4-0.1   V145.4L228,145.4z M228.6,141.3c-0.2-0.2-0.4-0.5-0.6-0.7V131c0.2-0.4,0.3-0.5,0.2-0.5c0,0,0-0.1-0.2-0.5v-9.7   c0.2-0.1,0.4-0.3,0.6-0.3V141.3L228.6,141.3z M228.6,212.5c-0.2,0.1-0.4,0.2-0.6,0.3v-3.1c0.2-0.1,0.4-0.3,0.6-0.4V212.5   L228.6,212.5z M228.6,156.3v6.1c-0.2,0.1-0.3,0.1-0.5,0.2c0,0-0.1,0-0.1,0v-7.2C228.2,155.6,228.3,155.9,228.6,156.3L228.6,156.3z    M228.6,167.4v2.9c0,0-0.1,0-0.1,0c0,0,0.1,0,0.1,0v1.4c-0.2,0.1-0.4,0.3-0.6,0.4v-1.6c0,0,0.1,0,0.1,0c0,0-0.1,0-0.1,0v-4.6   C228.2,166.5,228.4,167,228.6,167.4z M227.1,159.9c0,0,0.1,0,0.2,0c0-0.2-0.1-0.5-0.2-0.7v-5.8c0.2,0.6,0.5,1.3,0.9,1.9v7.2   c-0.4,0.1-0.7,0.3-0.8,0.4c0,0-0.1,0.1-0.1,0.1c0.3,1.1,0.6,2,0.9,2.8v4.6c0,0-0.1,0-0.1,0c0,0,0,0,0,0s0,0,0,0c0,0,0,0,0.1,0v1.6   c-0.3,0.2-0.6,0.4-0.9,0.6V159.9L227.1,159.9z M227.1,146.1c0.2,0,0.5,0,0.7,0.1c0-0.1,0-0.2,0-0.3l0-0.3l0.1-0.2v3.5   c0,0-0.1,0-0.2,0c-0.2,0-0.5-0.1-0.7-0.1V146.1L227.1,146.1z M228,140.6c-0.3-0.4-0.6-0.8-0.9-1.4v-7.3c0.4-0.5,0.7-0.7,0.8-0.8   c0,0,0-0.1,0.1-0.1V140.6L228,140.6z M228,130C227.9,130,227.9,129.9,228,130L228,130l-0.1-0.1c-0.3-0.5-0.6-0.9-0.8-1.4v-7.2   c0.2-0.4,0.6-0.7,0.9-1V130L228,130z M228,212.8c-0.3,0.1-0.6,0.3-0.9,0.4v-3c0.3-0.2,0.6-0.4,0.9-0.5V212.8z M212.7,195.3   c1.1-0.6,2.3-1.2,3.6-1.8c0-0.4-0.1-0.8-0.1-1.3v-0.3l0-0.2c0.2-0.6,0.4-1.1,0.7-1.5c0.3-0.4,0.8-0.7,1.1-0.8   c0.7-0.3,0.7-0.2,0.9-0.4c0.6-0.6,0.6-0.9,0.6-1c0-0.1,0-0.3-0.3-0.8v0l0-0.1c-1.3-2.8-1.8-5.1-1.8-7c0-1.2,0.2-2.3,0.7-3.1   c0.6-1.2,1.7-1.9,2.5-2.5c0.5-0.3,0.9-0.5,1.2-0.6c0.3-0.4,0.7-1.1,1.5-1.7c0.6-0.5,2-1.6,3.4-2.5c0,0-0.1-0.1-0.1-0.2   c-0.1-0.2-0.3-0.5-0.5-1.1c-0.4-1-0.9-2.5-1.6-4.9l-0.1-0.3l0-0.3c0.1-1.3,1.1-2.3,1.8-2.6c0.3-0.2,0.6-0.3,0.9-0.4v12.8   c-0.9,0.6-1.8,1.2-2,1.5c-0.7,0.7-1.1,1.3-1.2,1.4l-0.2,0.5l-0.5,0.2c0,0-0.1,0-0.4,0.2c-0.2,0.1-0.6,0.3-0.9,0.5   c-0.7,0.4-1.4,1-1.5,1.4c-0.2,0.4-0.4,1-0.4,1.9c0,1.3,0.4,3.3,1.6,5.8c0.4,0.7,0.6,1.4,0.6,2.1c0,1.2-0.7,2.1-1.3,2.8   c-0.5,0.6-1.2,0.9-1.5,1c-0.4,0.1-0.3,0.1-0.3,0.1c0,0-0.1,0.1-0.1,0.3c0,0.7,0.1,1.3,0.2,1.9l0.1,1.1l-0.9,0.4   c-2.2,1-4.1,1.9-5.7,2.9V195.3L212.7,195.3z M227.1,159.2c-0.1-0.4-0.4-0.8-0.6-1.1v0l0-0.1c-2.3-3.4-2.9-6.9-2.9-8.9   c0-0.3,0-0.6,0-0.8c0-0.2,0-0.4,0.2-0.8c0.4-0.7,1-1,1.5-1.2c0.5-0.1,1-0.2,1.4-0.2c0.1,0,0.3,0,0.4,0v2.8c-0.1,0-0.3,0-0.4,0   c-0.2,0-0.3,0-0.4,0c0,0.1,0,0.1,0,0.2c0,0.9,0.2,2.5,0.8,4.3V159.2L227.1,159.2z M227.1,139.2c-0.6-1.1-1.2-2.6-1.2-4.4v-0.1v-0.1   c0.2-1.2,0.7-2.1,1.2-2.6V139.2L227.1,139.2z M227.1,128.5c-0.7-1.4-1-2.7-1-3.8c0-0.9,0.2-1.6,0.4-2.2c0.2-0.5,0.4-1,0.4-1l0,0   l0-0.1c0,0,0-0.1,0.1-0.1V128.5L227.1,128.5z M227.1,213.2c-0.2,0.1-0.4,0.2-0.6,0.2c-0.1,0.6-0.3,1.3-0.6,2.1   c-0.6,1.8-1.3,3.9-2.6,5.6c0.1,0.1,0.3,0.3,0.6,0.6c0.2,0.3,0.5,0.7,0.5,1.3c0,0.5-0.2,0.9-0.5,1.2c-0.2,0.3-0.3,0.5-0.4,0.7   c0.1,0.1,0.2,0.3,0.3,0.5c0.4,0.6,0.8,1.4,0.8,2.5c0,0.3,0,0.6-0.1,0.9l0,0.1l0,0.1c-1.1,1.7-2.9,2.9-4.8,3.9c-1.9,1-3.8,1.7-4.9,2   c-0.4,0.1-0.5,0.3-0.6,0.4c0,0.1-0.1,0.2-0.2,0.5c-0.1,0.5,0,1.3-0.2,2.3c-0.1,0.6-0.4,1.3-1,1.9v-7.1c0.3-0.2,0.7-0.5,1.2-0.6   c1-0.3,2.8-1,4.5-1.9c1.6-0.8,3-1.9,3.6-2.7c0-0.2-0.2-0.7-0.5-1.1c-0.2-0.4-0.5-0.7-0.5-0.7c0,0,0,0,0,0c0,0,0,0-0.1-0.2l-0.2-0.3   l0-0.4c0-0.2,0.1-1,0.8-2.1c-0.3-0.3-0.9-0.9-0.9-1.9c0-0.6,0.2-1.2,0.6-1.6c0.8-1.1,1.6-3,2.1-4.6c0-0.1,0.1-0.2,0.1-0.4   c-1.1,0.4-2.3,0.6-3.5,0.9h-0.1h-0.1c0,0,0,0,0,0c-0.3,0-0.5-0.1-0.6-0.1c-0.5,0.2-1,0.4-1.4,0.3c-0.5,0-0.9-0.1-1.1-0.2   c-0.2-0.1-0.3-0.1-0.4-0.1c0,0-0.1,0-0.4,0.1c-0.6,0.3-0.8,0.5-0.9,0.5c-0.1,0.1-0.2,0.2-0.6,0.6l-0.2,0.2l-0.3,0.1   c-0.4,0.1-0.5,0.1-0.7,0.1c-0.1,0-0.2,0-0.2,0v-3.5c1.4-0.6,2.8-1.1,4.2-1.4c0.6-0.1,1.1-0.2,1.6-0.3l0.4-0.1h0c0,0,0,0,0.1,0   c0.3,0,0.5,0.1,0.6,0.2c2.5-1.2,5.1-1.2,5.8-1.2h0c0,0,0.1,0,0.2,0c0,0,0,0,0.3,0l0,0c0.4-0.2,0.8-0.4,1.2-0.5V213.2z M196.1,224.9   c0.3,0.1,0.6,0.2,0.8,0.4l0.9-2.5c0,0,5.9-15.9,8.6-21.5c1.2-2.5,3.5-4.4,6.2-5.9v3.2c-1.8,1.2-3.1,2.4-3.8,3.9   c-1.3,2.7-3.5,8.1-5.2,12.7c-0.6,1.6-1.2,3.2-1.7,4.5c0.5-0.3,1-0.6,1.6-1l3-1.9h-0.3l4.7-2.3c0.6-0.3,1.2-0.6,1.8-0.8v3.5   c-0.4,0-0.8,0-1.3,0l-4.8-0.3l-1.1,3.5c-0.2,0.6-0.3,1.3-0.3,2.1c0,0,0,0,0,0l0.2,3.4l-2.5-2.3c-0.1-0.1-0.2-0.2-0.3-0.3   c-0.3,0.2-0.6,0.5-0.9,0.8c-0.9,0.8-1.8,2-2.3,3.2c-0.2,0.4-0.4,0.7-0.7,1c-0.3,0.3-0.8,0.5-1.2,0.5c-0.7-0.1-1.1-0.3-1.3-0.5   V224.9L196.1,224.9z M212.7,240.1c-0.1,0-0.2,0.1-0.3,0.2c-0.7,0.5-1.4,0.9-2.1,1.2c-0.3,1.6-1,2.8-1.8,3.7c-1,1.1-2.2,1.7-3.2,2.1   l-0.1,0h0c-0.2,0-0.5,0.1-0.7,0.1c-0.1,0-0.3,0-0.5,0c0.1,0.3,0.2,0.7,0.2,1.1c0,0.3,0,0.7-0.1,1.1l0,0.1v0c-0.3,0.7-0.4,1-0.6,1.4   c-0.1,0.3-0.3,0.5-0.5,0.7c0,0.3,0.1,0.9,0.2,1.5c0.1,0.9,0.3,1.9,0.3,2.9c0,0.6,0,1.1-0.3,1.7c-0.3,0.7-0.8,1.2-1.4,1.7   c-0.6,0.5-1.4,1-2.2,1.5c-1.1,0.6-2.3,1.2-3.4,1.5v-2.9c0.3-0.1,0.6-0.2,0.9-0.4c1-0.5,2.1-1.2,2.8-1.7c0.5-0.4,0.7-0.7,0.8-0.8   c0,0,0,0,0-0.2c0-0.1,0-0.3,0-0.5c0-0.7-0.1-1.6-0.2-2.5c-0.1-0.9-0.3-1.6-0.3-2.2c0-0.1,0-0.2,0.1-0.5l0-0.2l0.1-0.2   c0.4-0.5,0.5-0.6,0.6-0.8c0-0.1,0.1-0.4,0.4-1c0-0.1,0-0.2,0-0.3c0-0.1,0-0.1-0.2-0.4c-0.1-0.3-0.5-0.9-0.5-1.7   c0-0.5,0.2-1.1,0.4-1.7c0.1-0.3,0.2-0.6,0.3-0.9l0-0.6l0.6-0.4c0.1-0.1,0.4-0.2,0.8-0.2c0.5,0,0.9,0.3,1.1,0.5   c0.2,0.2,0.2,0.3,0.3,0.5c0.1,0.2,0.1,0.3,0.2,0.5c0.1,0.3,0.1,0.5,0.2,0.6c0.7-0.3,1.4-0.7,1.9-1.3c0.6-0.7,1.1-1.5,1.2-2.9   l0.1-0.9l0.8-0.3c0.7-0.3,1.4-0.6,2.3-1.2c0,0,0,0,0.1-0.1c0-0.1,0.1-0.4,0.1-0.8c0.1-0.7,0-1.7,0.6-2.9c0.2-0.4,0.6-0.8,1-1.1   V240.1z M180.3,251.6c0-0.3,0.1-0.6,0.1-0.9v0h0c0.5-4.5,3.1-7.4,4.6-8.7c1.1-1.7,2.5-2.2,2.7-2.3l0.2-0.1h0.2c0,0,0,0,0.1,0   c0,0,0.2,0,0.3,0c0-0.2,0.1-0.5,0.1-0.8c0-0.4-0.1-0.9-0.2-1.4v0h0c-0.5-2.2-0.7-3.6-0.7-4.7c0-0.6,0.1-1.1,0.3-1.6   c0.1-0.5,0.5-0.8,0.7-1.1c1.1-1.1,2.8-1.7,3.9-2c0-0.1,0.1-0.2,0.1-0.3c0.2-0.4,0.4-1.1,0.8-1.7c0.3-0.4,0.8-0.9,1.5-1.1   c0.2,0,0.3,0,0.5,0c0.3,0,0.5,0,0.7,0.1v3.1l0,0c-0.2-0.1-0.4-0.3-0.6-0.4c0,0,0,0,0,0.1c-0.2,0.4-0.4,0.9-0.6,1.5   c-0.2,0.3-0.5,0.9-1.3,1.2c-0.6,0.1-2.6,1-3,1.4c0,0.1,0,0,0,0.1c0,0,0,0.2,0,0.6c0,0.7,0.1,2,0.6,4c0.2,0.7,0.3,1.5,0.3,2.1   c0,0.6-0.1,1.2-0.2,1.6c-0.2,0.5-0.4,1-1,1.5c-0.7,0.4-1.3,0.5-1.7,0.5c0,0-0.1,0.1-0.2,0.1c-0.2,0.2-0.6,0.5-1,1l-0.1,0.2   l-0.2,0.1c-1.1,0.9-3.4,3.5-3.8,7c-0.2,2.1-1.1,3.7-1.2,3.8l-0.6,1l-1.1-0.3c0,0,0,0-0.1,0l0,0V251.6L180.3,251.6z M196.1,262.6   c-0.6,0.1-1.1,0.2-1.6,0.3h0h0l0,0c0,0,0,0-0.1,0c-0.9,0-1.1,0.1-1.4,0.3c-0.3,0.2-0.7,0.6-1.5,1.2c-0.9,1.3-2.4,2.9-4.7,4.4   l-0.2,0.1l-0.2,0c-3.7,0.8-4.9,0.9-5.5,0.9c0,0.2,0.1,0.3,0.1,0.5l0.1,0.6l-0.4,0.5c-0.1,0.1-0.2,0.3-0.3,0.4v-2.8   c0,0.1,0.1,0.2,0.2,0.4v-0.8l0,0h-0.2v-1.7c0.2,0,0.5,0.1,0.8,0.2c0.6-0.1,1.9-0.3,4.3-0.8c1.9-1.2,3.1-2.6,3.9-3.7l0.1-0.2   l0.2-0.1c0.7-0.5,1.1-0.9,1.8-1.3c0.7-0.5,1.7-0.7,2.9-0.7c0,0,0.1,0,0.1,0c0,0,0,0,0,0c0.3,0,0.9-0.1,1.6-0.4V262.6z M175.4,253.3   c1.1-0.8,2.3-0.9,3.2-0.9c0.6,0,1.1,0,1.5,0.1c0.1-0.2,0.2-0.5,0.3-0.9v3.7c-0.1-0.1-0.3-0.1-0.4-0.1c-0.4-0.1-0.9-0.1-1.3-0.1   c-0.6,0-1.1,0.1-1.4,0.3c-1.4,2.9-1.7,4.4-1.8,4.9V253.3L175.4,253.3z M180.3,271.7c-0.4,0.4-0.9,0.7-1.4,0.7   c-0.6,0.1-1.1,0.1-1.8,0.2H177h-0.1c-0.4,0-0.9-0.1-1.5-0.2v-2.8c0.7,0.1,1.2,0.2,1.7,0.3c0.2,0,0.5,0,0.6-0.1   c-0.1-0.2-0.3-0.5-0.3-0.9c0-0.8,0.5-1.2,0.8-1.5l0.1-0.1l0.1,0c0.8-0.4,1.2-0.6,1.9-0.6c0,0,0,0,0,0v1.7h0l-0.2,0.2l0.2-0.2v0.4   c0,0,0,0.1,0,0.1V271.7L180.3,271.7z M175.4,260.8v-0.3c0,0.1,0,0.1,0,0.1C175.4,260.7,175.4,260.8,175.4,260.8L175.4,260.8z    M175.4,260.5c0,0.1,0,0.1,0,0.1C175.4,260.6,175.4,260.5,175.4,260.5L175.4,260.5L175.4,260.5z M179.5,269L179.5,269L179.5,269z    M174.8,254c0-0.1,0.1-0.1,0.1-0.2l0.1-0.2l0.2-0.2c0,0,0.1-0.1,0.2-0.1v6.9c0,0,0,0.1,0,0.1c0-0.1,0-0.1,0-0.2c0,0,0,0.1,0,0.2   l0,0c0,0,0,0,0,0.1v0.3l0,0c0,0,0,0,0,0.1c0,0,0,0,0,0v0.1c0,0.1-0.1,0.1-0.1,0.2c0,0.1-0.1,0.4-0.2,0.6c-0.1,0.2-0.2,0.4-0.3,0.6   v-2.9c0,0,0.1,0,0.1,0.1h0c0,0-0.1-0.1-0.2-0.1V254L174.8,254z M175.4,272.5c-0.2,0-0.4,0-0.6,0v-2.8c0.2,0,0.4,0,0.6,0V272.5   L175.4,272.5z M175.4,260.4C175.4,260.4,175.4,260.4,175.4,260.4L175.4,260.4C175.4,260.4,175.4,260.4,175.4,260.4L175.4,260.4z    M163.2,272.4L163.2,272.4l-0.6-1.3l-0.6-1.5l1.5-0.5l0.1,0c0.9-0.3,1.7-0.6,2.6-0.9c1.1-0.8,1.6-1.8,1.9-2.9   c0.4-1.1,0.4-2.3,1-3.4l0-0.1l0.1-0.1c0.5-0.6,0.5-0.8,1.3-1.2c0.2-0.1,0.4-0.1,0.5-0.1l0,0l0,0l0,0c0,0,0,0,0.1,0l0.5-0.2l0.5,0.1   c0.3,0.1,0.5,0.2,0.7,0.3v0c0-0.1,0-0.1,0-0.1c0-0.9,0.3-2.7,2.2-6.4v5.4c0,0-0.1,0-0.1,0c0,0,0.1,0,0.1,0.1v2.9   c-0.1,0.3-0.4,0.6-0.8,1c-0.3,0.2-0.7,0.3-1.1,0.3c-0.6,0-1-0.3-1.2-0.5c0,0-0.1-0.1-0.1-0.1c0,0-0.1,0.1-0.2,0.2   c-0.1,0.4-0.3,1.6-0.7,2.9c-0.3,1-0.8,2.3-1.8,3.4c0.8-0.1,1.7-0.1,2.4-0.1l0,0c1.4,0,2.6,0.1,3.6,0.2v2.8c-1-0.1-2.2-0.3-3.6-0.3   c-1.7,0-3.7,0.2-5.8,0.9c-0.1,0-0.2,0.1-0.4,0.1l-1.2,0.4L163.2,272.4L163.2,272.4z M125.7,265.9v-1.2l0.6-0.5h-0.1l-0.5,0.1v-5.2   c1,2.2,1.6,3.6,1.8,4.2c0.1,0.2,0.1,0.2,0.2,0.4l0,0v0c0,0,0,0,0,0c0,0.1,0.1,0.3,0,0.4c0,0,0,0,0,0c0,0,0,0.1,0,0.1   c0,0.1,0,0.2-0.1,0.2c0,0,0,0,0,0l0,0l0,0l-1-0.5h-0.2v0l0.4,1.2l-0.1-0.4l0.1,0.4c0,0,0,0-0.1,0c-0.1,0.1-0.2,0.1-0.4,0.1   C126.2,265.8,126,265.9,125.7,265.9z M125.7,259.3v5.2l-0.3,0.1l-0.3,0.1c0.1,0.1,0.1,0.3,0.2,0.4l0.4-0.3v1.2   c-0.2,0-0.5,0.1-0.9,0.2c-1.3,0.3-3.2,0.6-5.5,0.6c-4.4,0-15.3-3.6-18.4-6.6c-2.7-2.5-9.3-9.7-13.6-13.9v-3.8   c3.9,3.5,11.6,10.6,16.1,16.6c6.5,3.9,12,4.8,15.9,4.8c2.3,0,4.1-0.3,5.2-0.6c-0.2-0.4-0.4-0.8-0.6-1.4c-0.8-1.7-1.9-4.1-3.2-7.1   c-3-3.6-6.3-6.3-9.7-8.3l0.7-1.2l1.3-0.5l-1.3,0.5l-0.7,1.2l-0.5-0.2l-0.2-0.5c-0.2-0.7-0.5-1.5-0.8-2.4l-0.1-0.1v-0.1   c-0.2-1.4-0.5-2.8-1-4.2c-6.8-7.6-10-16.8-11.2-21.5l-1.2,1.9l-1-2.5c-1.9-5-4.5-11.3-5.8-14.4c-0.5-1-1.1-1.9-2-2.7v-5.1   c0.2,0.7,0.5,1.4,0.7,2.1c1.6,1.2,2.9,2.7,3.8,4.6c1.2,2.7,3.2,7.7,5,12.2c0.1-0.1,0.1-0.1,0.1-0.1l1.9-2.3l0.5,2.9   c0,0,0,0.2,0.1,0.6c0,0.4,0.2,0.9,0.4,1.6c0.4,1.4,1,3.4,1.8,5.8c1.7,4.6,4.6,10.5,9.2,15.5l0.2,0.2l0.1,0.3c0.6,1.6,1,3.3,1.2,4.8   c0.2,0.6,0.5,1.3,0.6,1.8c3.6,2.1,7,5,10.2,8.8l0.1,0.1l0.1,0.2C124.2,255.8,125,257.8,125.7,259.3L125.7,259.3z M87.3,242.1   c0.1,0,0.1,0,0.2,0l2.2-0.4l-1.3-1.8c-0.4-0.5-0.7-1-1.1-1.5V242.1z M87.3,194.6v5.1c-0.4-0.3-0.8-0.7-1.2-1l-0.3-0.2l-0.2-0.4   c-2.5-6.7-3.7-14.7-4.1-18.8c-0.9,0.8-1.9,2-3.1,3.5l-2.4-1.1c0.1-0.8,0.2-1.6,0.3-2.3c-0.4-1.5-0.7-3-1-4.6l0-0.1v0   c-1-5.3-1.6-11-1.6-15.7c0-1.1,0-2.1,0.1-3c-0.4,0.3-0.8,0.6-1.2,0.9l-1.8,1.5l-0.4-2.4c-0.8-5.1-1.6-10.6-1.6-15.9   c0-2.6,0.2-5.2,0.7-7.6c-0.8,0.5-1.7,1.2-2.8,2.1l-1.1,0.9l-0.8-1.2c-4.3-6.1-6.9-12.5-8-16.1c-0.2,0.3-0.3,0.6-0.5,0.8   c-1.1,2.1-2.5,5.1-3.4,8.7c-0.6,2.2-0.9,4.7-0.9,7.4c0,4.4,1,9.2,3.9,13.9l0.3,0.5l-0.1,0.6c0,0.2-0.1,0.3-0.1,0.5l-0.4,1.6   l-1.5-0.7c-1.5-0.6-2.8-1.2-3.9-1.6c1.9,4.4,5.6,13.5,7.5,23.4l2.3,3l-3.3-0.9c1,1.8,2.3,4.4,3.8,7.3l-2.1,1.7   c-0.2-0.2-0.4-0.4-0.6-0.6c0,0.2,0,0.3,0,0.5c0,1.6,0.4,4,2.3,7.3c2.2,3.9,3.1,7,4,9.4c0.9,2.5,1.6,4.2,3.2,6   c1.3,1.3,2.6,2.2,4.3,2.8l0.5,0.1l0.2,0.4c2.1,3.4,4.1,7.1,5.5,10.6c0.1,0.1,0.2,0.1,0.3,0.2l3.1,2.7l-4.1-0.3c-0.4,0-0.8,0-1.2,0   c2.6,3.2,7.6,9.3,11.8,14.9v3.7c-0.2,0-0.3,0-0.5,0c0.1,0.1,0.3,0.3,0.5,0.4v3.8c-0.9-0.8-1.6-1.5-2.3-2.1c-1.2-1.2-2-1.8-2-1.8   l-1.9-1.6l2.4-0.7c0,0,0.5-0.1,1.4-0.4c-2.8-3.7-5.8-7.5-8.4-10.7c-2.9-3.6-5-6.2-5-6.2l-1.8-2.1l2.8-0.1c0,0,0.3,0,0.9,0   c0.3,0,0.6,0,0.9,0c-1.2-2.8-2.9-5.7-4.5-8.5c-1.8-0.7-3.4-1.8-4.9-3.3c-2-2.2-2.9-4.4-3.8-6.9c-0.9-2.5-1.8-5.3-3.8-9   c-2-3.7-2.6-6.5-2.6-8.6c0-2.3,0.8-3.6,0.9-3.8l0.2-0.3c-0.6-1.2-1.2-2.3-1.7-3.3c-1-1.7-1.6-2.8-1.6-2.8l-1.5-2.5l2.9,0.5   c0,0,0.2,0,0.6,0.1c-2-9.5-5.5-18.1-7.2-21.9c-0.6-1.3-1-2.1-1-2.1l-1.3-2.7l2.9,0.7c0,0,1.6,0.4,4.1,1.3c-2-4.3-2.8-8.6-2.8-12.6   c0-2.9,0.4-5.7,1-8.1c1.9-7.8,5.8-12.7,5.9-12.8l1.7-2.2l0.7,2.7c0,0,0.1,0.6,0.5,1.6c0.3,1,0.8,2.4,1.5,4.2   c1.2,3.1,3.1,7.1,5.7,11c2.8-2.1,5-3.1,5.2-3.3l3.1-1.3l-1.3,3.1c-1.2,2.9-1.7,6.3-1.7,10c0,4.2,0.6,8.8,1.2,13.2   c0.8-0.5,1.4-0.9,1.9-1.2l2.6-1.7l-0.5,3c-0.2,1.5-0.4,3.4-0.4,5.6c0,4.5,0.6,10.1,1.6,15.3c0,0,0,0,0,0.1l0,0.1   c0.2,1.2,0.5,2.5,0.8,3.7c1.7-1.7,2.9-2.6,2.9-2.7l2-1.6l0.2,2.5c0,0,0.1,0.7,0.2,2c0.1,1.2,0.4,3,0.7,5   C85.3,186.7,86.1,190.8,87.3,194.6z"/>
	<path class="st1" d="M135.5,38.2C133,38.4,101,42,101,42s23.9,21.2,25.8,22.8c-0.5,2.5-7.3,34.1-7.3,34.1s27.8-16.4,30-17.7   c2.2,1.3,29.9,17.7,29.9,17.7s-6.8-31.6-7.3-34.1c1.9-1.7,25.8-22.8,25.8-22.8s-31.9-3.5-34.4-3.8c-1-2.3-14-32.2-14-32.2   S136.5,35.9,135.5,38.2z"/>
	<path class="st1" d="M103.8,66.5C87.2,75.1,70,84,56.7,85.5l-2.1,0.2l0,2.1C55,146,65.3,189.1,86.7,223.7   c18,29.1,37.5,51.1,61.4,69.2l1.5,1.1l1.4-1.1c23.9-18.2,43.3-40.1,61.4-69.2c21.4-34.6,31.6-77.7,32.1-135.8v-2.1l-2.1-0.2   c-13.4-1.5-30.5-10.4-47.1-19c-16.8-8.8-34.3-17.9-45.7-17.9C138.1,48.6,120.6,57.6,103.8,66.5z"/>
	<path class="st2" d="M104.9,70c-16.4,8.4-33.3,17.1-47.5,19.4c0.8,56.3,10.9,98.3,32.1,131.9c17.6,28.1,36.7,49.4,59.8,67.1   c23.1-17.7,42.1-39.1,59.7-67.1c21.1-33.5,31.3-75.5,32.1-131.9c-14.2-2.3-31-11-47.5-19.4c-16.7-8.6-33.9-17.4-44.3-17.4   C138.8,52.5,121.6,61.4,104.9,70z"/>
	<path class="st0" d="M149.6,61c8.5,0,25.2,8.7,40.1,16.4c14.3,7.5,29.1,15.2,42.5,18.7c-1.3,51.6-10.9,90.3-30.1,121.3   c-15.6,25.2-32.4,44.8-52.4,61.1c0,0,0,0-0.1,0v-1.3c0.1,0,0.1,0,0.1,0c19.8-16.2,36.2-35.5,51.6-60.3c19-30.7,28.6-68.9,29.9-120   c-13.3-3.6-27.8-11.2-41.9-18.5c-14.7-7.6-31.4-16.3-39.6-16.3c0,0,0,0-0.1,0L149.6,61C149.6,61,149.6,61,149.6,61z M149.6,278.5   c-20-16.3-36.8-35.9-52.4-61.1c-19.2-31-28.8-69.6-30.1-121.3c13.4-3.5,28.1-11.2,42.5-18.7l0,0c14.8-7.7,31.6-16.4,40.1-16.4v1   c-8.2,0-24.9,8.7-39.6,16.3l0,0c-14.1,7.4-28.6,14.9-41.9,18.5c1.3,51.1,10.6,89.5,29.6,120.2c15.4,24.9,32.1,44,51.9,60.2V278.5z"/>
	<path class="st3" d="M135.5,138.4v113.2c4.5,4.8,9.2,9.3,14,13.6c4.9-4.3,9.5-8.8,14-13.6V138.4H135.5z"/>
	<path class="st3" d="M163.5,138.4V76.2c-6.1-2.7-11.4-4.7-14-4.7c-2.7,0-8,2-14,4.7v62.2H163.5z"/>
	<path class="st3" d="M107.4,90c-10.2,5.2-20.6,10.3-30.8,13.8c0.6,12.3,1.7,23.7,3.2,34.5h27.6V90z"/>
	<path class="st3" d="M79.8,138.4c4.4,29.4,12.7,53.5,25.6,74c0.7,1.1,1.3,2.1,2,3.1v-77H79.8z"/>
	<path class="st3" d="M191.6,138.4v77c0.6-1,1.3-2,2-3.1c12.9-20.5,21.2-44.5,25.6-74H191.6z"/>
	<path class="st3" d="M219.2,138.4c1.6-10.8,2.7-22.2,3.2-34.5c-10.3-3.6-20.6-8.6-30.8-13.8v48.3H219.2z"/>
	<path class="st2" d="M107.4,138.4v77c8.9,13.8,18.1,25.7,28.1,36.2V138.4H107.4z"/>
	<path class="st2" d="M135.5,138.4V76.2c-7.5,3.3-16,7.7-21.8,10.7l0,0c-2.1,1.1-4.2,2.1-6.3,3.2v48.3H135.5z"/>
	<path class="st2" d="M163.5,138.4v113.2c10-10.5,19.2-22.4,28.1-36.2v-77H163.5z"/>
	<path class="st2" d="M191.6,138.4V90.1c-2.1-1.1-4.2-2.2-6.3-3.2c-5.8-3-14.4-7.4-21.8-10.7v62.2H191.6z"/>
	<path class="st1" d="M136.2,39.1c-1.5,0.1-32.8,3.6-32.8,3.6s23.5,20.7,24.6,21.7c-0.3,1.5-7,32.5-7,32.5s27.2-16,28.6-16.9   c1.3,0.8,28.5,16.9,28.5,16.9s-6.6-31-6.9-32.5c1.2-1,24.6-21.7,24.6-21.7s-31.3-3.5-32.8-3.6c-0.6-1.4-13.4-30.6-13.4-30.6   S136.8,37.6,136.2,39.1z"/>
	<path class="st1" d="M149.5,292.8L149.5,292.8l0.8-0.6c23.8-18.1,43.2-40,61.1-69c21.3-34.4,31.5-77.4,32-135.3l0-1.2l-1.3-0.1   C228.7,85,211.4,76,194.8,67.3c-16.7-8.7-34.1-17.8-45.3-17.8l0,0v5.6l0,0c9.8,0,26.5,8.7,42.7,17.2c15.6,8.1,31.8,16.5,45.6,19.1   c-0.8,55-10.7,96-31,128.8c-16.9,27.3-35.1,48.1-57.2,65.4l0,0V292.8z M104.2,67.3C87.6,76,70.3,85,56.8,86.5l-1.2,0.1v1.2   c0.5,57.9,10.7,100.9,32,135.3c17.9,29,37.4,50.9,61.1,69l0.9,0.6v-7.1c-22.1-17.3-40.3-38.1-57.3-65.4   c-20.3-32.8-30.2-73.8-31-128.8c13.8-2.6,29.9-11,45.6-19.1c16.1-8.4,32.8-17.2,42.7-17.2v-5.6C138.3,49.6,121,58.6,104.2,67.3z"/>
	<path class="st0" d="M242.1,87.9c-0.5,54.8-9.8,99-31.8,134.5c-18.8,30.3-38.5,51.7-60.8,68.6l0,0v-3.6l0,0   c22.5-17.5,41.2-38.7,58.4-66.5c20.6-33.2,30.5-74.9,31.3-130.7C225.4,88,208.8,79.4,192.8,71c-16.3-8.5-33.2-17.3-43.3-17.3l0,0   v-2.8l0,0c10.9,0,28,9,44.6,17.6C211,77.3,228.3,86.3,242.1,87.9z M149.5,291c-22.3-16.9-42-38.3-60.8-68.6   c-22-35.5-31.3-79.7-31.8-134.5c13.8-1.6,31.1-10.6,47.9-19.3c16.6-8.6,33.8-17.6,44.7-17.6v2.8c-10.2,0-27.1,8.8-43.4,17.3l0,0   c-16,8.3-32.5,16.9-46.4,19.2c0.7,55.8,10.7,97.4,31.3,130.7c17.2,27.8,35.9,49,58.5,66.5V291z"/>
	<path class="st1" d="M149.5,269.4L149.5,269.4l0.9-0.8c17.2-15,31.7-32.5,45.6-55c17.8-28.7,27-64.2,28.9-111.6l0-1l-1-0.4   c-12.4-4.1-25.3-10.9-37.6-17.3c-15.9-8.3-30.6-15.7-36.9-15.7l0,0v5.6l0,0c5.4,0,24.9,10.1,34.3,15c11,5.7,23.4,12.2,35.4,16.6   c-2.1,44.9-11,78.5-27.9,105.8c-12.8,20.7-26.2,37-41.8,51.2l0,0V269.4z M112.6,83.4L112.6,83.4c-12.4,6.4-25.2,13.2-37.6,17.3   l-1,0.4l0.1,1c1.9,47.4,11,82.8,28.9,111.6c13.9,22.4,28.4,39.9,45.7,55l0.9,0.8v-7.5c-15.7-14.2-29-30.4-41.9-51.2   c-16.9-27.3-25.8-60.9-27.9-105.8c12-4.4,24.4-10.8,35.4-16.6c9.4-4.9,28.9-15,34.4-15v-5.6C143.3,67.7,128.5,75.1,112.6,83.4z"/>
	<path class="st0" d="M149.5,69.1c6.4,0,24.4,9.3,36.2,15.5c12.6,6.5,25.4,13.2,37.8,17.4c-1.9,47-11,82.5-28.7,110.9   c-13.8,22.2-28.4,39.8-45.3,54.7l0,0v-3.8l0,0c16.1-14.4,29.8-31.1,43-52.4c17.2-27.7,26.1-61.9,28.1-107.5   c-12-4.3-24.3-10.7-36.2-16.9c-10.2-5.3-29.2-15.2-35-15.2l0,0V69.1L149.5,69.1z M149.5,267.6c-17-14.9-31.6-32.5-45.4-54.7   C86.5,184.5,77.3,148.9,75.4,102c12.4-4.2,25.3-10.9,37.8-17.4v0c11.9-6.2,29.8-15.5,36.3-15.5v2.8c-5.7,0-24.8,9.8-35,15.2l0,0   c-11.9,6.2-24.1,12.6-36.2,16.9c2,45.6,11,79.8,28.1,107.5c13.2,21.3,26.9,38,43,52.4V267.6z"/>
	<ellipse class="st1" cx="68.2" cy="96.8" rx="3.9" ry="3.9"/>
	<path class="st0" d="M65.3,96.8c0,1.6,1.3,2.9,2.9,2.9c1.6,0,2.9-1.3,2.9-2.9c0-1.7-1.3-2.9-2.9-2.9C66.6,93.9,65.3,95.2,65.3,96.8   z"/>
	<path class="st1" d="M96.8,82.5c0,2.2,1.7,3.9,3.9,3.9c2.2,0,3.9-1.7,3.9-3.9c0-2.1-1.7-3.9-3.9-3.9C98.5,78.6,96.8,80.4,96.8,82.5   z"/>
	<path class="st0" d="M97.7,82.5c0,1.7,1.3,2.9,2.9,2.9c1.6,0,2.9-1.3,2.9-2.9c0-1.6-1.3-2.9-2.9-2.9C99.1,79.6,97.7,80.9,97.7,82.5   z"/>
	<circle class="st1" cx="230.8" cy="96.8" r="3.9"/>
	<path class="st0" d="M233.8,96.8c0,1.6-1.3,2.9-2.9,2.9c-1.6,0-2.9-1.3-2.9-2.9c0-1.7,1.3-2.9,2.9-2.9   C232.4,93.9,233.8,95.2,233.8,96.8z"/>
	<path class="st1" d="M202.3,82.5c0,2.2-1.7,3.9-3.9,3.9c-2.2,0-3.9-1.7-3.9-3.9c0-2.1,1.7-3.9,3.9-3.9   C200.6,78.6,202.3,80.4,202.3,82.5z"/>
	<path class="st0" d="M201.4,82.5c0,1.7-1.3,2.9-2.9,2.9c-1.6,0-2.9-1.3-2.9-2.9c0-1.6,1.3-2.9,2.9-2.9   C200,79.6,201.4,80.9,201.4,82.5z"/>
	<g>
		<path class="st4" d="M122.5,190.6c-3.5,5.4-5.4,11.6-5.4,17.9c0,2.2,0.2,4.3,0.6,6.5c1.7,8.5,6.6,15.8,13.8,20.6    c14.9,9.9,35,5.7,44.8-9.2c4.8-7.3,6.5-16,4.7-24.5c-1.7-8.5-6.6-15.8-13.8-20.6C152.5,171.4,132.4,175.6,122.5,190.6z"/>
		<path class="st1" d="M149.5,175.3C149.6,175.3,149.6,175.3,149.5,175.3c6.3,0,12.6,1.7,18.2,5.5c7.3,4.9,12.3,12.3,14.1,21    c0.5,2.2,0.7,4.5,0.7,6.7c0,6.4-1.9,12.8-5.5,18.3c-6.3,9.6-16.8,14.9-27.5,14.9v-1.2c10.3,0,20.4-5.1,26.4-14.3    c3.5-5.3,5.3-11.4,5.3-17.6c0-2.1-0.2-4.3-0.6-6.4c-1.7-8.4-6.5-15.5-13.6-20.2c-5.3-3.6-11.4-5.3-17.4-5.3c-0.1,0-0.1,0-0.1,0    V175.3z M149.4,241.6c-6.2,0-12.5-1.8-18.1-5.5c-7.4-4.9-12.4-12.3-14.1-21c-0.5-2.2-0.6-4.4-0.6-6.7c0-6.4,1.8-12.7,5.5-18.2    c6.3-9.6,16.8-14.9,27.5-14.9v1.2c-10.3,0-20.4,5.1-26.5,14.4l-0.5-0.3l0.5,0.3c-3.5,5.3-5.3,11.4-5.3,17.6c0,2.2,0.2,4.3,0.6,6.4    c1.7,8.4,6.5,15.5,13.6,20.2c5.4,3.5,11.5,5.2,17.4,5.2c0,0,0.1,0,0.1,0v1.2C149.5,241.6,149.4,241.6,149.4,241.6L149.4,241.6z"/>
	</g>
	<path class="st1" d="M158.9,179.2c-0.9-1.3-2.1-1.8-2.1-1.8c-2.3-1-5.1-1.3-7.3-1.4c-2.2,0.1-5,0.5-7.2,1.4c0,0-1.2,0.6-2.1,1.9   c-0.9,1.3-1.4,2.3-1,2.6c0.4,0.3,1.3-0.2,4.6,0.6c3.4,0.7,4.9,2.3,5.7,2.3c0.8,0,2.3-1.6,5.7-2.3c3.4-0.8,4.2-0.3,4.6-0.6   C160.2,181.5,159.7,180.5,158.9,179.2z"/>
	<path class="st1" d="M124.9,190.7c-1.5,0.4-2.4,1.4-2.4,1.4c-1.6,1.8-2.9,4.4-3.6,6.4c-0.6,2.1-1.2,4.9-1,7.3c0,0,0.1,1.4,1.1,2.6   c1,1.2,1.7,2,2.2,1.7c0.4-0.3,0.2-1.3,2-4.2c1.7-2.9,3.7-3.9,4-4.6c0.2-0.8-0.7-2.8-0.4-6.2c0.4-3.4,1.1-4.1,0.9-4.6   C127.5,190.1,126.4,190.3,124.9,190.7z"/>
	<path class="st1" d="M125,226.9c0,1.6,0.6,2.8,0.6,2.8c1.2,2.1,3.3,4,5.1,5.4c1.8,1.2,4.3,2.6,6.7,3.1c0,0,1.3,0.3,2.8-0.3   c1.5-0.5,2.5-1.1,2.3-1.5c-0.2-0.5-1.2-0.6-3.4-3.2c-2.3-2.5-2.6-4.7-3.3-5.2c-0.7-0.5-2.9-0.1-6-1.5c-3.1-1.4-3.6-2.3-4.1-2.3   C125.3,224.2,125.1,225.3,125,226.9z"/>
	<path class="st1" d="M174.3,190.7c1.5,0.4,2.4,1.4,2.4,1.4c1.6,1.8,2.9,4.4,3.6,6.4c0.6,2.1,1.2,4.9,1,7.3c0,0-0.1,1.4-1.1,2.6   c-1,1.2-1.7,2-2.1,1.7c-0.4-0.3-0.3-1.3-2.1-4.2c-1.7-2.9-3.7-3.9-4-4.6c-0.2-0.8,0.7-2.8,0.4-6.2c-0.4-3.4-1.1-4.1-0.9-4.6   C171.7,190.1,172.8,190.3,174.3,190.7z"/>
	<path class="st1" d="M174.2,226.9c0,1.6-0.6,2.8-0.6,2.8c-1.2,2.1-3.3,4-5.1,5.4c-1.8,1.2-4.3,2.6-6.7,3.1c0,0-1.3,0.3-2.8-0.3   c-1.5-0.5-2.5-1.1-2.3-1.5c0.2-0.5,1.2-0.6,3.4-3.2c2.3-2.5,2.6-4.7,3.3-5.2c0.7-0.5,2.9-0.1,6-1.5c3.1-1.4,3.6-2.3,4.1-2.3   C173.9,224.2,174.1,225.3,174.2,226.9z"/>
	<path class="st1" d="M126.6,190.7c0,0,2.6-3.5,5.9-5.9c3.4-2.4,6.8-3.7,7.3-3.8l0.2,0.8c-0.3,0-3.8,1.3-6.9,3.6   c-3.2,2.4-5.7,5.8-5.8,5.8l0,0L126.6,190.7z"/>
	<path class="st1" d="M166.3,185.5c-3.2-2.3-7.2-3.8-7.2-3.8l0.3-0.8c0,0,4.1,1.5,7.5,3.9c3.3,2.4,5.5,5.4,5.7,5.8l-0.7,0.4   C171.7,190.8,169.5,187.8,166.3,185.5z"/>
	<path class="st1" d="M172.9,224.7c0.2-0.2,2.4-3.2,3.7-6.9c1.3-3.8,1.5-8,1.5-8l0.8,0c0,0-0.2,4.3-1.6,8.2   c-1.4,3.9-3.5,6.8-3.9,7.2L172.9,224.7z"/>
	<path class="st1" d="M149.6,238.2c-4.1,0-7.6-1.1-8.1-1.2l0.4-0.8c0.2,0.1,3.7,1.2,7.7,1.2c0,0,0,0,0,0c4,0,8-1.2,8.1-1.3l0.1,0.7   l0,0.1c0,0,0,0,0,0c0,0-0.1,0-0.1,0c-0.1,0-0.3,0.1-0.5,0.2c-0.5,0.1-1.1,0.3-1.9,0.4C153.8,237.9,151.7,238.2,149.6,238.2   C149.6,238.2,149.6,238.2,149.6,238.2z"/>
	<path class="st1" d="M121.7,217.7c-1.1-3.4-1.3-6.7-1.3-7.7c0-0.2,0-0.3,0-0.4l0.8,0.1c0,0,0,0.1,0,0.3c0,1,0.2,4.2,1.2,7.5   c1.2,3.8,3.6,7.2,3.7,7.3l0,0l-0.7,0.4C125.4,225.1,122.9,221.6,121.7,217.7z"/>
	<polygon class="st1" points="163.7,229.2 164.6,228.6 156.3,216.9 155.2,217.7  "/>
	<polygon class="st1" points="173,201.5 172.7,200.6 159,205.1 159.5,206.4  "/>
	<polygon class="st1" points="126.3,200.7 126,201.6 139.7,206 140.1,204.7  "/>
	<polygon class="st1" points="135,228.8 135.8,229.3 144.1,217.7 143,216.8  "/>
	<path class="st1" d="M143,217.7c0,0-0.9-0.2-2.8-6c-2-5.9-1.3-6.6-1.3-6.6s-0.3-0.7,4.9-4.5c5.2-3.8,5.8-3.3,5.8-3.3   s0.6-0.6,5.8,3.3c5.2,3.8,4.9,4.5,4.9,4.5s0.7,0.3-1.3,6.6c-2,6.3-2.8,6-2.8,6s-0.2,0.8-6.7,0.8C143.3,218.6,143,217.7,143,217.7z"/>
	<path class="st1" d="M206.8,227.3c0.7-1.3,1.4-2.7,2.1-4.1c1.2-2.5,2.2-5.1,3-7.7c1.9-1.3,4.3-1.5,7-2.7c-2.8,1.1-4.8,0.9-6.8,2.1   c1.1-3.4,1.8-6.8,2.2-10.6c-0.6,5.2-2.1,9.7-3.9,14.1c-0.8-1.8-2.4-2.8-3.7-5.1c1.2,2.3,2.8,3.8,3.5,5.7c-0.6,1.4-1.2,2.7-1.9,4.1   c-2.9,5.6-6.3,11.1-11.4,16.4l1,0.7c3.7-4,6.4-8.2,8.7-12.4c2.5,0,3.7-0.2,6-1.3C210.3,227.3,209,227.3,206.8,227.3z"/>
	<path class="st1" d="M207.9,225.3c0.3-0.6,0.7-1.4,1-2.1c1.3-2.7,2.3-5.2,3.1-7.7l0,0c1.1-0.8,2.3-1.2,3.7-1.6   c1-0.3,2.1-0.6,3.3-1.1l-0.1-0.2c-1.2,0.5-2.3,0.7-3.4,0.9c-1.2,0.3-2.3,0.5-3.5,1.2l0.1,0.1c1.2-3.6,1.8-7,2.2-10.6h-0.2   c-0.6,4.6-1.8,9.2-3.8,14h0.2c-0.4-1-1.1-1.7-1.7-2.5c-0.3-0.3-0.6-0.6-0.8-1v0.2c0.2,0.3,0.4,0.6,0.6,0.8c0.7,1,1.4,1.9,1.7,2.9   l0,0v0c-0.6,1.3-1.2,2.7-1.9,4.1c-0.1,0.3-0.3,0.6-0.4,0.8v-0.5c0.1-0.1,0.1-0.3,0.2-0.5c0.7-1.4,1.3-2.7,1.9-4v0   c-0.4-1-1-1.9-1.7-2.9c-0.1-0.2-0.3-0.4-0.4-0.5v-0.2c0.2,0.2,0.4,0.5,0.6,0.7c0.7,0.8,1.3,1.5,1.7,2.5l0.1,0.2l0.1-0.2   c2-4.8,3.3-9.4,3.9-14.1h-0.2c-0.3,3.5-1,6.9-2.1,10.5l-0.1,0.2l0.3-0.1c1.1-0.6,2.2-0.9,3.4-1.1c1.1-0.2,2.1-0.4,3.4-0.9l0-0.2   c-1.2,0.5-2.2,0.8-3.3,1.1c-1.4,0.4-2.7,0.8-3.8,1.6l0,0l0,0c-0.8,2.5-1.8,5-3,7.8c-0.3,0.6-0.6,1.2-0.8,1.7V225.3L207.9,225.3z    M207.9,227.8c1.6-0.1,2.8-0.4,4.7-1.3l0-0.1c-1.9,0.7-3,0.8-4.6,0.9v0.2c1.6,0,2.8-0.2,4.7-0.9l-0.1-0.1c-1.9,0.8-3,1.1-4.6,1.2   V227.8z M206.9,227.4c0.4-0.6,0.7-1.3,1.1-2v-0.5c-0.4,0.8-0.8,1.7-1.2,2.4l-0.1,0.2L206.9,227.4c0.3,0.1,0.7,0.1,1.1,0v-0.2   c-0.4,0-0.7,0-1.1,0L206.9,227.4L206.9,227.4z M207.9,214.9c-0.4-0.5-0.8-1.1-1.2-1.7l-0.2,0.1c0.4,0.8,0.9,1.5,1.4,2.2v-0.2   c-0.5-0.6-0.9-1.2-1.4-2l0.2-0.1c0.4,0.7,0.8,1.3,1.2,1.9V214.9L207.9,214.9z M207.9,223.4v0.5c-2.5,4.7-5.8,10.2-11,15.6v-0.1   l1,0.7l-0.1,0c3.4-3.6,6.1-7.6,8.7-12.4l0,0h0c0.5,0,1,0,1.4,0v0.2c-0.4,0-0.9,0-1.4,0l0.1,0c-2.6,4.8-5.3,8.7-8.7,12.4l-0.1,0l0,0   l-1.1-0.8l-0.1,0l0.1-0.1C202.1,233.8,205.4,228.2,207.9,223.4z"/>
	<path class="st0" d="M230.5,154.9c2.6-4.8,6.9-6.7,8.5-7.7c0.9-1.1,1.3-1.2,1.3-2.1c-0.9-0.7-1.8-0.2-1.7-1.1c0.6-1.6,1-1,1-1   s1.2,0,4.2-3.6c0.7-2.2,0-3.6-0.1-4.9c0.5-1.6,1.1-2.6,2.5-3.2c3.3-2.5,2.8-5.7,2.8-8.2c-1.5-2.7-3.8-3.7-4-4.1c0-1.1,0-1-0.4-2.3   c-0.8-1.7-2-0.6-2.5-2.8c-0.8-3.1-4.3-3.6-4.2-3.6c0,0-2.4,3.1-2.8,6.3c-0.2,1.8-1.8,0.6-2.6,1.6c-0.9,1.1-0.9,2.5-1.6,2.6   c-3.2,0.5-5.1,4.5-2.5,8.6c1.1,1.4,0.8,1.9,0.5,2.5c-0.3,0.6-1.7,1.2-1.6,3.3c0.2,3.9,2.5,4.7,3.8,6.4c1,1.3,1.3,8.1-1.5,12.8   L230.5,154.9z"/>
	<path class="st1" d="M238.4,109.7C238.4,109.7,238.4,109.7,238.4,109.7c0.5,0.2,1,0.4,1.5,0.6c1,0.6,2.2,1.6,2.7,3.4   c0.3,0.9,0.4,0.9,0.8,1.1c0.4,0.2,1.2,0.6,1.7,1.6l0,0l0,0c0.4,1.1,0.4,1.3,0.4,2.2c0.1,0,0.1,0.1,0.2,0.2c0.3,0.2,0.6,0.5,1.1,0.8   c0.8,0.6,1.9,1.7,2.7,3.1l0.1,0.1v0.2c0,0.6,0,1.3,0,2.1c0,2.1-0.4,4.6-3,6.6l-0.1,0l-0.1,0c-1.2,0.5-1.6,1.1-2.1,2.7   c0.1,0.7,0.5,1.7,0.5,2.9c0,0.6-0.1,1.3-0.4,2.1l0,0.1l0,0.1c-1.5,1.8-2.6,2.7-3.3,3.2c-0.6,0.5-1.1,0.6-1.2,0.6c0,0,0,0,0,0l0,0   l-0.1-0.5l-0.2,0.1l0,0l0.2,0.2l0,0c0,0,0,0,0,0c0,0.1-0.1,0.2-0.3,0.5c0.3,0,0.8,0.1,1.3,0.5l0.2,0.2l0,0.3c0,0,0,0.1,0,0.2   c0,0.5-0.2,1-0.5,1.2c-0.3,0.3-0.6,0.6-1,1.1l-0.1,0l0,0.1c-0.3,0.2-0.6,0.4-0.9,0.6v-1.5c0,0,0.1,0,0.2-0.1   c0.4-0.5,0.7-0.7,0.9-0.9c0.1-0.2,0.1-0.2,0.2-0.3c-0.1,0-0.2,0-0.4-0.1c-0.2,0-0.5,0-0.9-0.3l0,0v-2c0-0.1,0.1-0.2,0.2-0.4   c0.2-0.2,0.5-0.4,0.8-0.4c0.1,0,0.2,0,0.3,0c0.1,0,0.3-0.1,0.6-0.3c0.6-0.4,1.6-1.2,3-2.9c0.2-0.6,0.2-1.1,0.2-1.6   c0-1.1-0.3-1.9-0.5-3v-0.1l0-0.1c0.5-1.7,1.2-2.9,2.8-3.5c2.2-1.7,2.5-3.6,2.5-5.6c0-0.6,0-1.3-0.1-1.9c-1.1-1.8-2.4-2.8-3.3-3.3   c-0.3-0.2-0.5-0.3-0.7-0.7l0-0.1v-0.1c0-1.1,0-0.7-0.4-2c-0.3-0.6-0.5-0.6-1.1-0.9c-0.5-0.2-1.2-0.7-1.5-2c-0.4-1.7-2-2.6-2.9-2.9   v-0.9c0,0,0,0,0,0c0,0,0,0,0,0V109.7L238.4,109.7z M240.2,142.8h-0.5H240.2z M238.2,109.6c0,0,0.1,0,0.1,0v0.4c0,0,0,0,0,0s0,0,0,0   v0.9c0,0-0.1,0-0.1,0v-1.2c0,0,0,0,0,0.1c0,0,0,0,0,0l0-0.1V109.6L238.2,109.6z M238.4,148c0,0-0.1,0-0.1,0.1v-1.5   c0,0,0.1,0,0.1-0.1V148L238.4,148z M238.4,142.9v2c0,0-0.1,0-0.1-0.1v-1.7C238.3,143,238.3,142.9,238.4,142.9L238.4,142.9z    M238.2,109.8C238.2,109.8,238.2,109.8,238.2,109.8S238.2,109.8,238.2,109.8L238.2,109.8z M238.1,109.6   C238.2,109.6,238.2,109.6,238.1,109.6l0.1,0.2C238.2,109.8,238.2,109.8,238.1,109.6L238.1,109.6L238.1,109.6z M238.2,148.1   C238.2,148.1,238.2,148.2,238.2,148.1l-0.1-1.4c0,0,0,0,0.1,0V148.1L238.2,148.1z M238.2,109.8L238.2,109.8L238.2,109.8   C238.2,109.8,238.2,109.8,238.2,109.8C238.2,109.7,238.2,109.7,238.2,109.8l-0.1,1.2c0,0,0,0,0.1,0V109.8L238.2,109.8   C238.2,109.8,238.2,109.8,238.2,109.8L238.2,109.8z M238.2,143.1v1.7c0,0,0,0-0.1-0.1v-1.4C238.2,143.2,238.2,143.2,238.2,143.1z    M238.1,109.6C238.1,109.6,238.1,109.6,238.1,109.6L238.1,109.6C238.1,109.7,238.1,109.7,238.1,109.6L238.1,109.6L238.1,109.6z    M238.1,148.2C238.1,148.2,238.1,148.2,238.1,148.2l0-1.5c0,0,0,0,0,0V148.2L238.1,148.2z M238.1,109.7   C238.1,109.7,238.1,109.7,238.1,109.7L238.1,109.7l0,1.2c0,0,0,0,0,0V109.7L238.1,109.7z M238.1,143.2v1.4c0,0,0,0,0,0L238.1,143.2   C238.1,143.3,238.1,143.3,238.1,143.2L238.1,143.2z M238.1,109.7L238.1,109.7L238.1,109.7L238.1,109.7z M238,109.6   C238,109.6,238,109.6,238,109.6C238,109.6,238.1,109.6,238,109.6L238,109.6L238,109.6C238.1,109.7,238,109.7,238,109.6   C238,109.7,238.1,109.7,238,109.6L238,109.6l0.1,1.4c0,0,0,0-0.1,0V109.6L238,109.6L238,109.6L238,109.6L238,109.6z M238.1,148.2   c0,0,0,0-0.1,0.1v-1.5c0,0,0.1,0,0.1-0.1V148.2L238.1,148.2z M238.1,109.7L238.1,109.7L238.1,109.7L238.1,109.7L238.1,109.7   L238.1,109.7z M238.1,143.3v1.3c0-0.1,0-0.1-0.1-0.2v-0.8C238,143.5,238.1,143.4,238.1,143.3z M230.6,149.2   c0.3-1.3,0.4-2.7,0.4-3.8c0-1.4-0.2-2.6-0.4-3.2V140c0.3,0.3,0.5,0.6,0.8,1c0.6,0.8,0.8,2.3,0.8,4.4c0,2.3-0.4,5.1-1.6,7.7   c2.4-3.5,5.6-5.3,7.3-6.3v1.5c-1.9,1.1-4.9,3.1-6.9,6.7l-0.3,0.6l-0.1-0.1v-1.1l0.1-0.3l-0.1,0.3V149.2L230.6,149.2z M230.6,120   C230.6,120,230.7,120,230.6,120C230.7,119.9,230.7,119.9,230.6,120c0.1-0.1,0.2-0.3,0.3-0.5c0.2-0.5,0.5-1.2,1-1.8   c0.5-0.6,1.2-0.6,1.6-0.7c0.4,0,0.7,0,0.7-0.1c0,0,0.1-0.1,0.1-0.5c0.2-1.7,0.9-3.3,1.5-4.4c0.6-1.1,1.2-1.9,1.3-2.1   c0,0,0.1-0.1,0.1-0.2c0.1-0.1,0.3-0.2,0.5-0.2c0,0,0.1,0,0.1,0c0.1,0,0.1,0,0.2,0v0.1l0,0l0,0l0,0v1.3l0,0c0,0-0.1,0.1-0.1,0.2   c-0.2,0.3-0.5,0.8-0.8,1.4c-0.6,1.1-1.3,2.6-1.4,4c-0.1,0.6-0.3,1-0.6,1.3c-0.3,0.3-0.7,0.4-1,0.4c-0.6,0-1,0-1.1,0.2   c-0.6,0.7-0.7,1.5-1.2,2.3c-0.1,0.2-0.4,0.5-0.8,0.6c-0.1,0-0.2,0-0.3,0V120L230.6,120z M238,143.6L238,143.6L238,143.6L238,143.6   c0,0.2,0,0.3,0,0.4c0,0.1,0,0.2,0,0.4V143.6z M228.5,154.4l0.4-0.6c0.8-1.4,1.4-3,1.7-4.6v5.2l-0.1,0.3l0.1-0.3v1.1L228.5,154.4   L228.5,154.4z M230.6,142.1c-0.1-0.2-0.1-0.3-0.2-0.4c-1-1.4-3.7-2.5-3.9-6.7c0-0.1,0-0.1,0-0.2c0-2.3,1.7-3.3,1.7-3.5   c0.1-0.3,0.2-0.5,0.2-0.6c0-0.2-0.1-0.5-0.6-1.3c-0.9-1.4-1.3-2.9-1.3-4.2c0-2.7,1.7-4.9,4.1-5.3v1.3c-1.7,0.4-2.9,1.9-2.9,4   c0,1.1,0.3,2.3,1.1,3.4c0.6,0.8,0.9,1.4,0.9,2c0,0.5-0.2,0.9-0.3,1.2c-0.6,1-1.6,1.2-1.6,2.9c0,0,0,0.1,0,0.1   c0.2,2.9,1.5,3.8,2.8,5.1V142.1z"/>
	<path class="st1" d="M242.5,121.9L242.5,121.9c-0.1-0.1-2.5,2.3-3.6,3.7c0.3-5.6,0.2-9.6,0.2-9.6h-0.1c0,0.1,0,5.2-0.8,11.9   c-0.1,0.6-0.1,1.2-0.2,1.9c-1.8-2.5-4.6-4.4-4.7-4.4l0,0.1c0,0,2.9,2.2,4.6,5.1c-0.1,1-0.3,1.9-0.4,2.9c0.2,0,0.5-0.1,0.7-0.1   c0.3-2.4,0.6-4.8,0.7-7C239.7,124.9,242.5,121.9,242.5,121.9z"/>
	<path class="st0" d="M234.8,170.5c0.9-4.9-0.9-8.5-1.9-10.5c-0.2-0.3-0.3-0.6-0.4-0.8v0.1c0-0.3-0.1-0.6-0.1-0.8   c-0.2-0.7-0.2-0.8,0-1.1l-0.4,0.2c0.4,0,0.6,0,0.9,0.1c0.3,0.1,1.2,0.4,1.6-0.6v0v0c0.2-0.7,0.2-1.6-0.3-1.9   c-0.3-0.2-0.6-0.2-0.9-0.1l0.6,0l0.3,0.5V155l-0.7,0c0.2,0,0.4,0.1,0.5,0.1c0,0-0.8-0.7-1.6-4.6v0.2c0.3-1.5,1-2.3,1.7-3   c0.2-0.3,0.5-0.6,0.7-0.9l0.1-0.1v-0.1l0,0c0.4-1.7,0.7-3.2-0.5-4.5l0.1,0.1c-1.5-2.9,0-6,0.2-6.6c0.7-1.6,3.4-2.2,4.4-2.5   c0.5-0.2,0.8-0.3,1.1-0.5c0.3-0.2,0.9-1.5,1.2-2c0.3-0.5,0.7-0.5,1.1-0.5c0.6-0.1,1.4-0.2,2.2-1.4c1.2-1.8,3.3-2.1,4.2-2.1   c0,0,0,0,0,0.1c0.6,2.5,0.7,4.6,0.3,6.4c-0.4,1.5,1.5,1.9,1.7,2.4c0.1,0.3-0.8,2.9-0.5,3.3c0.3,0.3,3.3,0.3,3,2   c-0.3,1.7-0.9,3.6-5,6.4c-1.7,1-2.8,3.2-2.8,3.3l-0.2,2.5c0,0,1.4,0.8,1.1,1.3c-0.3,0.6-2.6,2.8-4.1,4.2l0.1,0   c-0.2,0.1-1.4,0.8-1.6,1.7c-0.1,0.4,0,0.6,0.1,0.7c0.3,0.3-3.1,0.8-2.7,0.8c0.1,0,0.5,0,0.6,0c-0.1,0-0.1,0-0.1,0L239,161   c-0.1,0.7,3.6,0.4,2.8,1.5l-0.1,0.1l0-0.1c-0.3,0.3-0.9,0.6-1.5,0.9C238.3,164.5,235.4,166.1,234.8,170.5l0.6-0.5l-1.1-0.2   L234.8,170.5z"/>
	<g>
		<path class="st1" d="M243,129.3c0.4-0.1,0.8-0.3,1.3-1.1c1.4-2,3.7-2.3,4.6-2.3c0,0,0.1,0,0.1,0c0.3-0.1,0.6,0.2,0.6,0.3    c0,0.1,0,0.1,0.1,0.2c0.4,1.5,0.5,2.9,0.5,4.1c0,0.9-0.1,1.8-0.3,2.5c0,0.1,0,0.2,0,0.3c0,0.3,0.2,0.5,0.6,0.8    c0.4,0.3,0.9,0.4,1.2,1c0.1,0.2,0.1,0.2,0.1,0.3c0,0.4-0.2,0.9-0.3,1.5c-0.1,0.5-0.2,1-0.3,1.3c0.2,0,0.4,0.1,0.6,0.1    c0.5,0.1,1.2,0.3,1.7,0.7c0.4,0.3,0.7,0.7,0.7,1.3c0,0.1,0,0.2,0,0.3c-0.3,1.7-1,4-5.3,6.8c-1.3,0.8-2.3,2.5-2.5,2.9l-0.2,2.1    c0.1,0,0.2,0.1,0.3,0.2c0.3,0.3,0.8,0.6,0.8,1.2c0,0.1,0,0.3-0.1,0.4c-0.3,0.5-0.9,1.1-1.7,2c-0.8,0.8-1.7,1.7-2.5,2.3v0h0v-1.6    c0.6-0.6,1.2-1.1,1.7-1.7c0.6-0.6,1.2-1.3,1.4-1.5l0,0c-0.1-0.1-0.2-0.2-0.3-0.3c-0.2-0.2-0.5-0.4-0.5-0.4l-0.3-0.2l0.2-3l0-0.1    c0-0.1,1.1-2.4,3-3.6c4.1-2.7,4.5-4.4,4.7-6c0-0.1,0-0.1,0-0.1c0-0.2-0.1-0.4-0.6-0.6c-0.4-0.2-1-0.3-1.4-0.4    c-0.3-0.1-0.6,0-0.9-0.4c-0.2-0.3-0.2-0.5-0.2-0.6c0-0.5,0.1-1.1,0.3-1.7c0.1-0.5,0.2-0.9,0.3-1.1c0,0,0,0-0.1-0.1    c-0.2-0.1-0.4-0.2-0.6-0.4c-0.5-0.3-1.1-0.9-1.1-1.7c0-0.2,0-0.4,0.1-0.6c0.2-0.7,0.3-1.4,0.3-2.3c0-1-0.1-2.2-0.5-3.4    c-0.9,0-2.4,0.4-3.3,1.7c-0.7,1.2-1.7,1.6-2.3,1.7V129.3z M237.2,133c0.7-0.3,1.4-0.5,1.8-0.6c0.5-0.2,0.7-0.3,0.9-0.4l0,0    c0,0,0,0,0,0c0-0.1,0.1-0.1,0.1-0.2c0-0.1,0.2-0.3,0.3-0.5c0.2-0.4,0.4-0.8,0.6-1.1c0.5-0.7,1.2-0.8,1.6-0.8c0.2,0,0.3,0,0.5-0.1    v1.2c-0.1,0-0.2,0-0.3,0c-0.5,0-0.6,0-0.7,0.3c-0.1,0.1-0.3,0.6-0.5,1c-0.2,0.5-0.4,0.8-0.7,1.1c-0.4,0.3-0.8,0.5-1.3,0.6    c-0.5,0.1-1.3,0.4-2.2,0.7V133L237.2,133z M243,158.8L243,158.8L243,158.8c-0.3,0.2-1.2,0.9-1.3,1.3c0,0,0,0,0,0.1    c0,0.1,0,0.1,0,0.1c0,0.1,0.1,0.3,0.1,0.5c0,0.2-0.1,0.4-0.2,0.5c0.2,0.1,0.4,0.2,0.6,0.3c0.1,0.1,0.3,0.4,0.3,0.7    c0,0.3-0.1,0.5-0.2,0.7l-0.1,0.1l0,0l-0.1,0.1l0,0c-0.4,0.4-1,0.6-1.6,1c-1.1,0.6-2.3,1.2-3.3,2.3v-1.7c1-0.8,1.9-1.3,2.7-1.7    c0.5-0.2,0.9-0.5,1.1-0.6c-0.1,0-0.2,0-0.4-0.1c-0.5-0.1-1-0.1-1.4-0.3c-0.1,0-0.1,0-0.2,0v0.1c0,0,0,0-0.1,0c-0.1,0-0.2,0-0.3,0    h0l0,0c0,0,0,0,0,0c0,0-0.1,0-0.2,0c-0.1,0-0.4-0.4-0.4-0.6c0-0.5,0.2-0.5,0.3-0.5c0,0,0.1,0,0.1-0.1c0,0,0,0,0.1,0h0    c0,0,0,0,0.1,0s0.1,0,0.2,0c0.2,0,0.5,0,0.8-0.1c0.3,0,0.7-0.1,1-0.2c0,0,0-0.1,0-0.2c0-0.2,0-0.3,0-0.5c0.4-1,1.3-1.7,1.7-1.9    c0.2-0.2,0.5-0.5,0.7-0.7V158.8L243,158.8z M240.9,160.3 M234.6,171.3l-0.6,0.5l0.1-1.2l-1.1-1.6l1.4,0.2c0-0.5,0.1-0.9,0.1-1.3    c0-3.4-1.3-6-2.1-7.5c-0.1-0.3-0.3-0.6-0.4-0.8l0,0l0-0.1l0,0c0-0.3-0.1-0.5-0.1-0.7c-0.1-0.3-0.1-0.6-0.1-0.8    c0-0.2,0-0.4,0.1-0.6l0-0.2l0.4-0.2l0.1,0.1c0.4,0,0.6,0.1,0.8,0.2c0.1,0,0.3,0.1,0.5,0.1c0.2,0,0.2,0,0.4-0.3v0l0,0    c0-0.2,0.1-0.4,0.1-0.5l-0.3-0.5l-0.1-0.2l-2.5-0.1l1.9-1c-0.3-0.7-0.7-1.9-1.1-3.9h0v-0.2h0c0.3-1.6,1.2-2.4,1.8-3.2    c0.3-0.3,0.5-0.6,0.7-0.9l0,0c0.2-0.8,0.3-1.6,0.3-2.2c0-0.7-0.1-1.2-0.6-1.7l0,0l-0.1-0.1l0,0c-0.5-1-0.5-1.3-0.5-2.3l0.3-0.6    c0-2,0.2-3.8,0.4-4.2c0.6-1.2,1.8-1.9,2.9-2.3v1.3c-0.8,0.4-1.6,0.9-1.8,1.5c-0.2,0.4-0.5,2.7-0.5,4.4l-0.4-0.9    c0,0.8,0.2,1.6,0.6,2.4c0.6,0.8,0.9,1.7,0.9,2.5c0,0.8-0.2,1.7-0.3,2.4l0,0.1l0,0.2l0,0.1l-0.1,0.1c-0.3,0.4-0.6,0.6-0.8,1    c-0.6,0.7-1.1,1.3-1.5,2.5c0.5,2.1,0.9,3.2,1.1,3.7l0.6,0v0.6c0.3,0.4,0.4,0.9,0.4,1.2c0,0.4,0,0.7-0.1,1.1v0.1l0,0v0    c-0.1,0.1-0.1,0.3-0.2,0.4v0.1v-0.1c-0.4,0.5-0.9,0.7-1.3,0.6c-0.2,0-0.4,0-0.6-0.1c0,0.2,0.1,0.4,0.1,0.6c0,0.2,0.2,0.4,0.3,0.7    c0.7,1.4,1.8,3.7,2.1,6.8c0.5-0.7,1.1-1.3,1.7-1.8v1.7c-0.7,0.7-1.3,1.7-1.7,3l1.4,0.2l-1.7,1.2l-0.2,1.2L234.6,171.3z"/>
	</g>
	<path class="st0" d="M229.2,183.1c2.4-5,6.6-7,8-8.1c0.9-1.1,1.3-1.2,1.2-2.1c-0.9-0.7-1.8-0.1-1.7-1c0.6-1.7,0.9-1.1,0.9-1.1   c0,0,1.2,0,4-3.8c0.7-2.3-0.2-3.6-0.4-5c0.4-1.7,0.6-3.1,2-3.7c3.1-2.6,2.6-5.2,2.4-7.7c-1.7-2.7-3.9-3.7-4.1-4.1   c-0.1-1.1,0-1-0.5-2.2c-0.8-1.7-2-0.6-2.7-2.8c-1-3-4.5-3.5-4.5-3.5c0,0-2.1,3.1-2.3,6.3c-0.1,1.8-1.9,0.4-2.4,1.6   c-0.1,1.9-0.6,1.7-0.6,1.7s-3.1-0.7-3.6,0.4c-0.3,0.6-0.2,5.1,2.6,9.2c1.1,1.4,1.2,3.1,1.1,3.5c-0.1,0.5-2.7,0.4-2.9,2.4   c1.4,4.7,2.2,6,2.2,5.9c0,0,2.9,8.6,0.2,13.5L229.2,183.1z"/>
	<path class="st1" d="M234.6,137.5c0,0,0.1,0,0.1,0c0.4,0.1,0.9,0.3,1.4,0.6c1.1,0.6,2.3,1.5,2.9,3.2c0.3,0.9,0.5,0.9,0.9,1.2   c0.4,0.1,1.2,0.5,1.7,1.5l0,0v0c0.4,1.2,0.5,1.3,0.6,2.2c0.1,0.1,0.2,0.1,0.3,0.2c0.3,0.2,0.6,0.5,1,0.8c0.8,0.7,1.8,1.7,2.7,3.1   l0.1,0.1v0.2c0.1,0.7,0.2,1.5,0.2,2.3c0,1.9-0.6,4-2.8,5.8l-0.1,0.1h0c-0.6,0.3-0.8,0.6-1.1,1.2c-0.3,0.5-0.4,1.2-0.6,2   c0.1,0.9,0.6,1.9,0.6,3.3c0,0.6-0.1,1.1-0.3,1.8l0,0.1l0,0.1c-2.5,3.2-3.7,3.8-4.3,4l-0.4,0.3v0c0,0.1-0.1,0.2-0.1,0.3   c0.3,0,0.9,0.1,1.4,0.5l0.2,0.2v0.2c0,0.1,0,0.2,0,0.4c0,0.5-0.2,0.9-0.5,1.2c-0.2,0.3-0.6,0.6-0.9,1.1l0,0l0,0   c-0.6,0.5-1.7,1.1-3,2V176c1-0.7,1.7-1.2,2.2-1.5c0.4-0.5,0.7-0.7,0.9-0.9c0.1-0.2,0.1-0.2,0.1-0.4c-0.1,0-0.2-0.1-0.4-0.1   c-0.2-0.1-0.5-0.1-0.8-0.3c-0.3-0.1-0.5-0.5-0.5-0.8c0,0,0-0.1,0-0.2v0v0c0.2-0.5,0.4-0.9,0.6-1.1c0.2-0.2,0.5-0.5,0.8-0.5   c0.1,0,0.2,0,0.3,0c0.1,0,0.3-0.1,0.5-0.3c0.6-0.4,1.5-1.3,2.9-3.1c0.1-0.5,0.2-1,0.2-1.4c0.1-1.2-0.4-2.1-0.6-3.2v-0.1l0-0.1   c0.2-0.8,0.3-1.6,0.6-2.3c0.3-0.7,0.8-1.3,1.6-1.7c2-1.7,2.3-3.2,2.3-4.9c0-0.7,0-1.4-0.1-2.1c-1.1-1.8-2.6-2.8-3.4-3.4   c-0.3-0.2-0.5-0.3-0.6-0.6l-0.1-0.1v-0.1c-0.1-1.1,0-0.7-0.5-2c-0.4-0.7-0.5-0.7-1.1-0.9c-0.5-0.2-1.3-0.7-1.6-1.9   c-0.6-1.8-2.3-2.6-3.3-2.9v-0.9c0,0.1,0,0.1,0,0.1c0,0,0-0.1,0-0.1V137.5z M234.4,137.5c0,0,0.1,0,0.2,0v0.4c0,0,0,0,0,0v0v0.9   c-0.1,0-0.1,0-0.2,0V137.5C234.4,137.6,234.4,137.6,234.4,137.5c0,0.1,0,0.1,0,0.1c0,0,0,0,0,0   C234.4,137.6,234.4,137.6,234.4,137.5L234.4,137.5L234.4,137.5z M234.6,177.5c-0.1,0.1-0.1,0.1-0.2,0.2v-1.5c0.1,0,0.1-0.1,0.2-0.1   V177.5L234.6,177.5z M234.4,137.5C234.4,137.6,234.4,137.6,234.4,137.5C234.4,137.6,234.4,137.6,234.4,137.5L234.4,137.5z    M234.2,137.4C234.2,137.4,234.2,137.4,234.2,137.4c0.1,0,0.1,0,0.2,0v0c0,0,0,0,0,0c0,0,0,0,0,0h0v1.2h0c0,0-0.1,0.1-0.1,0.2v0   V137.4L234.2,137.4L234.2,137.4L234.2,137.4L234.2,137.4z M234.4,177.7c0,0-0.1,0.1-0.2,0.2v-1.6c0,0,0.1-0.1,0.2-0.1V177.7   L234.4,177.7z M234.4,137.5L234.4,137.5L234.4,137.5L234.4,137.5z M229.3,145c0.3-0.1,0.6-0.2,0.9-0.2c0.5,0,0.7,0,0.7,0   c0,0,0.1,0,0.1-0.4c0.1-1.7,0.7-3.2,1.2-4.4c0.5-1.1,1.1-1.9,1.2-2.1c0-0.1,0.1-0.1,0.1-0.2c0.1-0.1,0.3-0.2,0.4-0.2l0,0l0,0h0h0   c0,0,0,0,0.1,0l0,0c0,0,0,0,0,0s0,0,0,0v1.5c-0.2,0.3-0.5,0.8-0.7,1.3c-0.5,1.1-1.2,2.7-1.3,4.2c0,0-0.3,1.8-0.7,2.2l-0.3-0.8   c-0.5,0.1-0.9,0-1.1,0.1c-0.1,0-0.1,0.1-0.2,0.1c-0.1,0.8-0.2,1.2-0.3,1.6c0,0.1-0.1,0.2-0.2,0.3V145L229.3,145z M234.2,177.9   c-1.6,1.2-3.2,2.9-4.5,5.5l-0.2,0.6l-0.2-0.1v-1l0.1-0.3l-0.1,0.3v-1.2c1.5-2.4,3.3-4.1,4.9-5.2V177.9L234.2,177.9z M229.3,181.2   c0.4-1.3,0.5-2.6,0.5-3.9c0-1.7-0.2-3.4-0.5-4.8V181.2z M227.3,182.7l0.2-0.5c0.8-1.4,1.1-3.2,1.1-5.1c0-3.6-1.1-7.2-1.3-7.8v0v0   c0,0,0,0,0,0v-3c0.6,1.6,0.9,2.3,1,2.4l0,0l0,0l0,0c0,0,0.1,0.1,0.1,0.2l0,0c0,0,0,0,0,0c0,0,0,0.1,0,0.1c0,0.1,0.1,0.3,0.1,0.6   c0.1,0.5,0.3,1.1,0.5,1.8c0.1,0.3,0.1,0.6,0.2,0.9v8.8c-0.1,0.3-0.2,0.7-0.3,1c0.1-0.2,0.2-0.5,0.3-0.6v1.2l-0.1,0.3l0.1-0.3v1   L227.3,182.7L227.3,182.7L227.3,182.7z M227.3,160.7c0.3-0.1,0.6-0.2,0.7-0.2c0,0,0,0,0-0.1c0-0.5-0.2-1.5-0.7-2.4v-2.3   c0.2,0.4,0.4,0.8,0.7,1.2c1,1.2,1.2,2.6,1.2,3.5c0,0.2,0,0.4,0,0.6c-0.1,0.3-0.4,0.4-0.5,0.5c-0.2,0.1-0.3,0.1-0.5,0.2   c-0.3,0.1-0.6,0.2-0.9,0.3c0,0,0,0-0.1,0V160.7L227.3,160.7z M227.3,146.9c0.5,0,0.8,0.1,1.1,0.2c0-0.2,0.1-0.6,0.2-1.2v-0.1l0-0.1   c0.1-0.3,0.4-0.6,0.6-0.7v3c-0.1,0.2-0.4,0.3-0.6,0.3c0,0-0.1,0-0.2,0c0,0-0.3,0-0.6-0.1c-0.2,0-0.4,0-0.6,0V146.9z M227.3,182.7   L227.3,182.7L227.3,182.7L227.3,182.7L227.3,182.7L227.3,182.7z M227.3,169.4L227.3,169.4L227.3,169.4L227.3,169.4L227.3,169.4   L227.3,169.4L227.3,169.4L227.3,169.4L227.3,169.4L227.3,169.4z M227.3,160.7L227.3,160.7v1.3l0,0V160.7L227.3,160.7z M227.3,158   L227.3,158v-2.3l0,0V158L227.3,158z M227.3,146.9L227.3,146.9v1.2 M227.3,166.3C227.3,166.3,227.3,166.3,227.3,166.3v3l0,0V166.3   L227.3,166.3z M227.3,148.1v-1.2 M227.3,182.8L227.3,182.8L227.3,182.8L227.3,182.8L227.3,182.8L227.3,182.8z M227.3,169.4   L227.3,169.4L227.3,169.4L227.3,169.4L227.3,169.4L227.3,169.4z M227.3,160.7L227.3,160.7v1.3l0,0V160.7L227.3,160.7z M227.3,158   L227.3,158v-2.3c0,0,0,0,0,0V158L227.3,158z M227.3,146.9L227.3,146.9v1.2l0,0V146.9L227.3,146.9z M227.3,166.3   C227.3,166.3,227.3,166.3,227.3,166.3v3l0,0l0,0c0,0,0,0,0,0l0,0l0,0l0,0V166.3z M227.3,182.8L227.3,182.8L227.3,182.8L227.3,182.8   L227.3,182.8z M227.3,169.4L227.3,169.4c0,0-0.1-0.1-0.2-0.3c-0.1-0.2-0.2-0.5-0.4-1c-0.4-0.9-0.9-2.4-1.6-4.8l0-0.1v-0.1   c0.1-1.2,0.9-1.8,1.6-2.1c0.2-0.1,0.4-0.2,0.6-0.3v1.3c-0.6,0.3-0.9,0.6-1,1.2c0.4,1.3,0.7,2.3,1,3.1V169.4   C227.3,169.3,227.3,169.3,227.3,169.4C227.3,169.3,227.3,169.3,227.3,169.4L227.3,169.4L227.3,169.4z M227.3,157.9   c-0.1-0.1-0.2-0.2-0.3-0.4c-2.2-3.2-2.8-6.7-2.8-8.5c0-0.6,0-0.9,0.2-1.3c0.5-0.9,1.4-0.9,2.2-0.9c0.2,0,0.4,0,0.6,0v1.2   c-0.2,0-0.5,0-0.6,0c-0.3,0-0.6,0-0.8,0.1c-0.2,0.1-0.3,0.1-0.3,0.2l0,0c0,0,0,0.1,0,0.2c0,0.1,0,0.3,0,0.6c0,1.3,0.4,4,1.8,6.6   V157.9z"/>
	<path class="st0" d="M229.5,196.1c1.8-5.3-3.5-9.5-4-11.1c0-1.4-0.3-1.7,0.4-2.3c1.1,0,1.5,1,1.9,0.2c0.6-1.6-0.1-1.4,0-1.4   c0,0-0.9-0.7-1.1-5.2c0.8-2.1,2.2-2.7,3.1-3.7c0.6-1.6,1.2-2.8,0.3-4c-1.4-3.7,0.4-5.6,1.7-7.6c2.7-1.5,5.1-1.5,5.5-1.8   c0.6-1,0.5-0.8,1.5-1.8c1.5-1.2,2.1,0.3,3.6-1.4c2.2-2.4,5.6-1.6,5.6-1.6c0,0,0.7,3.9-0.6,7.1c-0.8,1.8,1.3,1.7,1.4,2.7   c0,1-0.9,2.6-0.9,2.6s2.4,1.5,2.2,2.9c-0.2,0.7-1.1,3.9-5.8,6.1c-1.7,0.7-2.9,2.5-2.9,2.7c-0.1,0.1,1.5,1.2,0.4,2.8   C240.6,182.8,229.5,196.1,229.5,196.1z"/>
	<path class="st1" d="M242.7,154.9c1.3-1.1,2.8-1.3,3.9-1.3c0.9,0,1.4,0.1,1.6,0.2c0,0,0,0,0.1,0l0,0l0.4,1c0,0.1,0,0.2,0,0.3   c0,0.5,0,1.1,0,1.8c0,1.4-0.1,3.2-0.8,4.8c-0.1,0.2-0.1,0.4-0.1,0.5c0,0.2,0,0.2,0.3,0.4c0.2,0.2,0.5,0.3,0.9,0.6   c0.2,0.2,0.4,0.5,0.4,1l0,0c0,0.9-0.4,1.8-0.7,2.4c0.2,0.1,0.4,0.3,0.7,0.5c0.5,0.6,1.2,1.2,1.2,2.3c0,0.1,0,0.2,0,0.3l0,0v0   c-0.2,0.7-1.2,4.2-6.2,6.5c-0.6,0.3-1.2,0.7-1.7,1.2v-1.7c0.4-0.3,0.8-0.5,1.2-0.7c4.5-2.1,5.2-5,5.5-5.7c0,0,0-0.1,0-0.1   c0-0.3-0.4-0.9-0.9-1.3c-0.5-0.5-1-0.7-1-0.7l-0.5-0.3l0.3-0.5c0,0,0.2-0.4,0.4-0.9c0.2-0.5,0.4-1.1,0.4-1.4l0,0c0,0,0,0-0.1-0.1   c-0.1-0.1-0.2-0.2-0.5-0.3c-0.4-0.2-1-0.7-1-1.6c0-0.3,0-0.6,0.2-0.9c0.6-1.4,0.8-3.1,0.8-4.4c0-0.7-0.1-1.2-0.1-1.7   c0-0.1,0-0.3,0-0.4c-0.2-0.1-0.5-0.1-0.9-0.1c-1.1,0-2.6,0.3-3.7,1.5c-0.1,0.1-0.1,0.2-0.2,0.3v-0.4l5.6-2.4l0,0l0,0l-5.6,2.4   V154.9z M229.8,171.2c0.2-0.5,0.3-0.9,0.3-1.3c0-0.4,0-0.6-0.3-0.9v-5.8c0.5-1,1.1-1.8,1.6-2.6l0.1-0.1l0.1,0   c1.3-0.8,2.6-1.2,3.6-1.4c0.8-0.2,1.5-0.3,1.8-0.4c0.5-0.8,0.6-0.9,1.5-1.7l0,0l0,0c0.6-0.6,1.3-0.7,1.8-0.7c0.1,0,0.3,0,0.5,0   c0.4,0,0.6,0,1.2-0.7c0.2-0.3,0.5-0.5,0.7-0.6v1.3l-5.6,2.4l5.6-2.4v0.4c-0.7,0.7-1.4,0.8-1.9,0.8c-0.2,0-0.4,0-0.5,0   c-0.4,0-0.6,0-1.1,0.4c-1,1-0.8,0.7-1.4,1.7l0,0.1l-0.1,0.1c-0.3,0.2-0.5,0.2-0.9,0.3c-0.3,0-0.7,0.1-1.2,0.2   c-1,0.2-2.1,0.6-3.4,1.2c-1,1.5-2,2.8-2,4.6c0,0.6,0.1,1.4,0.5,2.3c0.3,0.5,0.5,1.1,0.5,1.7c0,1-0.4,1.9-0.7,2.9l0,0.1l-0.1,0.1   c-0.2,0.2-0.4,0.4-0.6,0.6V171.2L229.8,171.2z M242.7,177.6c-0.3,0.3-0.6,0.6-0.7,0.8c0,0.1,0.1,0.2,0.1,0.2   c0.3,0.4,0.6,0.9,0.6,1.5c0,0.5-0.2,0.9-0.5,1.4c-1.2,1.7-12.1,14.9-12.2,14.9l-0.2-0.1v-0.2l0.3,0.1l-0.3-0.1v-5.6   c0.4,1,0.7,2.1,0.7,3.3c0,0,0,0.1,0,0.1c1.1-1.3,2.6-3.2,4.2-5.1c2.9-3.5,6-7.3,6.4-8c0.2-0.3,0.3-0.6,0.3-0.7   c0-0.5-0.4-0.9-0.6-1.3c0-0.1-0.1-0.1-0.1-0.4c0-0.1,0-0.2,0-0.3l0,0c0.1-0.1,0.1-0.3,0.3-0.5c0.1-0.2,0.4-0.5,0.6-0.8   c0.3-0.3,0.6-0.6,1.1-1V177.6z M229,195.9c0.2-0.7,0.3-1.4,0.3-2c0-1.5-0.6-2.9-1.3-4.2v-2.2c0.1,0.2,0.3,0.4,0.4,0.6   c0.6,0.7,1.1,1.6,1.4,2.5v5.6l-0.3-0.1l0.3,0.1v0.2L229,195.9L229,195.9z M228,173.5c0.5-0.5,1.1-0.9,1.4-1.2   c0.1-0.4,0.3-0.7,0.4-1.1v2.3c-0.6,0.6-1.3,1-1.8,1.8V173.5L228,173.5z M229.8,169C229.8,168.9,229.8,168.9,229.8,169l-0.1-0.2l0,0   c-0.4-1-0.5-1.9-0.5-2.8c0-1.1,0.3-2,0.6-2.8V169L229.8,169z M228,183.7v-1.8l0.1,0.2l-0.1-0.2v-0.4h0.5H228v-1.1   c0,0.2,0.1,0.4,0.2,0.5c0.1,0,0.2,0.1,0.3,0.2c0.2,0.2,0.3,0.5,0.3,0.7c0,0.3-0.1,0.7-0.3,1.2l0,0l0,0   C228.3,183.4,228.2,183.5,228,183.7z M228,189.6c-0.2-0.3-0.4-0.6-0.6-0.9c-1-1.5-2.1-2.6-2.4-3.6v-0.1V185c0-0.5-0.1-0.9-0.1-1.3   c0-0.5,0.2-1.1,0.7-1.5l0.2-0.1h0.2c0.7,0,1.2,0.3,1.4,0.5c0.1-0.2,0.1-0.4,0.1-0.5c0,0-0.1-0.1-0.1-0.1c0,0,0,0,0,0l0,0   c0-0.1-0.1-0.1-0.2-0.2c-0.1-0.2-0.2-0.5-0.4-0.9c-0.2-0.8-0.5-2.2-0.6-4.4v-0.1l0-0.1c0.5-1.2,1.1-2,1.7-2.6v1.9   c-0.2,0.3-0.4,0.7-0.6,1.1c0.1,2.2,0.3,3.4,0.6,4v1.1h0l0,0h0v0.4l-0.1-0.2v0l0,0v0l0.1,0.2v1.8c-0.1,0.1-0.3,0.1-0.5,0.1   c-0.5,0-0.6-0.2-0.9-0.3c-0.2-0.1-0.3-0.1-0.5-0.2c-0.1,0.1-0.1,0.1-0.1,0.4c0,0.2,0,0.6,0,1.2c0.1,0.4,1,1.4,1.8,2.6V189.6z"/>
	<path class="st0" d="M217.3,212.3c3.3-4.5,7.8-5.8,9.4-6.6c1.1-0.9,1.5-1,1.6-1.9c-0.8-0.8-1.8-0.4-1.5-1.2   c0.8-1.6,1.1-0.9,1.1-0.9s1.1,0.1,4.6-3c1-2.2,0.5-3.6,0.5-5c0.7-1.6,1.2-2.9,2.7-3.3c3.5-2.1,3.5-4.7,3.8-7.2   c-1.2-2.9-3.1-4.3-3.3-4.7c0.1-1.1,0.1-1-0.2-2.3c-0.5-1.8-1.9-0.9-2.1-3.1c-0.4-3.1-3.8-4.2-3.8-4.2c0,0.1-4,2.6-5.1,3.5   c-1,0.9-1.5,2.1-1.5,2.1s-3.5,1.6-4.3,3.2c-0.8,1.6-0.9,4.5,1.2,8.9c0.8,1.6,0.4,2.3-0.5,3.3c-0.9,1.1-1.8,0.3-2.3,2.2   c0.4,4.9,1,6.3,1.1,6.3c0,0,0.5,1.2,0.2,1.8c-0.2,0.6-0.9-1-1.7-0.7c-0.5,0.7-0.5,1-0.6,2.5c0.2,1.9,3.2,5.4-0.2,9.7L217.3,212.3z"/>
	<path class="st1" d="M219.1,189.8c0.1-0.1,0.2-0.2,0.3-0.3c0.6-0.6,0.8-1.1,0.8-1.5c0-0.3-0.1-0.6-0.4-1.2   c-0.3-0.6-0.5-1.2-0.7-1.8v-8.4c0.6-0.7,1.5-1.3,2.3-1.7c0.7-0.5,1.4-0.8,1.7-1c0.2-0.4,0.7-1.3,1.6-2.1c0.6-0.5,1.7-1.2,2.8-2   c1-0.6,2-1.3,2.2-1.5l0,0c0.1-0.1,0.3-0.2,0.5-0.2l0,0c0,0,0.1,0,0.2,0.1l0,0h0c0,0,0,0,0.1,0c0.1,0,0.2,0.1,0.4,0.2   c0.4,0.1,0.8,0.4,1.3,0.8c1,0.7,2.1,1.9,2.3,3.6c0.1,1,0.3,1,0.7,1.3c0.4,0.2,1.2,0.7,1.4,1.8l0,0v0c0.1,0.8,0.2,1.1,0.2,1.5   c0,0.2,0,0.4,0,0.7c0,0,0.1,0.1,0.2,0.2c0.2,0.2,0.6,0.6,0.9,1c0.7,0.8,1.5,1.9,2.1,3.5l0,0.1v0.1c-0.2,2.4-0.2,5.5-4.1,7.7l0,0.1   h-0.1c-0.6,0.2-0.9,0.5-1.2,1c-0.3,0.5-0.6,1.2-1,1.9c0,0.6,0.1,1.3,0.1,2.1c0,0.9-0.1,1.8-0.6,3l-0.1,0.1l-0.1,0.1   c-3.2,2.8-4.5,3.1-5,3.1h0v-0.5l-0.2,0l0,0l0.1,0.2c0,0.1,0,0.1,0,0.1c0,0-0.2,0.2-0.4,0.5c0,0,0,0,0,0c0.3,0.1,0.8,0.3,1.2,0.7   l0.2,0.2v0.2c0,0.6-0.3,1.1-0.6,1.4c-0.3,0.3-0.7,0.5-1.2,1l0,0h0c-1.5,0.7-4.9,1.7-7.9,4.8v-1.7c2.9-2.6,6-3.6,7.3-4.2   c0.6-0.4,0.9-0.7,1.1-0.8c0.1-0.1,0.1-0.2,0.2-0.3c-0.3-0.2-0.6-0.2-1.1-0.5c-0.2-0.1-0.4-0.5-0.4-0.8c0-0.1,0-0.3,0.1-0.5l0-0.1v0   c0.5-0.8,0.8-1.3,1.4-1.3c0.2,0,0.3,0,0.4,0.1c0.1,0,0.4-0.1,0.7-0.3c0.6-0.4,1.7-1.1,3.3-2.4c0.4-0.9,0.5-1.7,0.5-2.3   c0-0.7-0.1-1.4-0.1-2.1c0-0.1,0-0.1,0-0.2v-0.1l0-0.1c0.4-0.7,0.7-1.5,1.1-2.2c0.4-0.6,1-1.2,1.8-1.5c3.2-1.9,3.2-4,3.4-6.5   c-0.8-2-2-3.2-2.7-3.9c-0.2-0.2-0.4-0.4-0.5-0.7l0-0.1v-0.1c0-0.4,0.1-0.6,0.1-0.8c0-0.2,0-0.5-0.2-1.2c-0.3-0.7-0.5-0.8-0.9-1.1   c-0.5-0.3-1.1-0.9-1.2-2.1c-0.3-2.2-2.3-3.3-3.1-3.6c-0.1,0.1-0.3,0.2-0.4,0.3c-0.4,0.3-0.9,0.6-1.5,1c-1.1,0.7-2.4,1.6-2.9,2   c-0.5,0.4-0.8,0.9-1,1.2c-0.2,0.4-0.3,0.6-0.3,0.6l-0.1,0.2l-0.2,0.1c0,0-0.9,0.4-1.8,1c-1,0.5-2,1.4-2.3,2   c-0.3,0.5-0.5,1.2-0.5,2.2c0,1.5,0.5,3.5,1.7,6.2c0.3,0.6,0.5,1.1,0.5,1.7c0,1-0.6,1.6-1.1,2.3c-0.5,0.5-0.9,0.7-1.2,0.8V189.8   L219.1,189.8z M219.1,200.7c0.1-0.1,0.2-0.2,0.2-0.3c0.1-0.2,0.1-0.5,0.1-0.7c0-0.4-0.1-0.8-0.2-1.1c0-0.1,0-0.3-0.1-0.4   c0-0.1,0-0.1,0-0.1v-0.1c0,0,0,0,0,0c0,0,0,0,0,0v0.6c0,0,0,0,0-0.1c0,0,0,0,0,0.1V200.7z M218.8,189.9c0.1,0,0.2-0.1,0.3-0.1v1.3   c-0.1,0-0.2,0-0.3,0.1c0,0,0,0,0,0V189.9L218.8,189.9z M219.1,185.1c-0.1-0.3-0.2-0.6-0.3-0.9v-7c0.1-0.2,0.2-0.3,0.3-0.5V185.1   L219.1,185.1z M219.1,211.1c-0.1,0.1-0.2,0.2-0.3,0.4v-1.7c0.1-0.1,0.2-0.2,0.3-0.3V211.1L219.1,211.1z M219.1,198v0.6c0,0,0,0,0,0   c0,0,0,0,0,0v2c-0.1,0-0.2,0.1-0.3,0.1v-1.9c0,0,0,0,0.1,0c0,0,0,0-0.1,0v-2C218.9,197.6,219.1,197.9,219.1,198L219.1,198   L219.1,198z M218.5,190c0.1-0.1,0.2-0.1,0.3-0.1v1.3c-0.1,0.1-0.2,0.1-0.3,0.2V190L218.5,190z M218.8,184.2   c-0.1-0.4-0.2-0.7-0.3-1.1v-5.3c0.1-0.1,0.1-0.2,0.2-0.4c0-0.1,0.1-0.2,0.1-0.2V184.2L218.8,184.2z M218.8,211.4   c-0.1,0.1-0.2,0.2-0.3,0.3V210c0.1-0.1,0.2-0.2,0.3-0.3V211.4L218.8,211.4z M218.8,196.9v2l0,0l0,0v1.9c0,0.1-0.1,0.1-0.1,0.1   c-0.1-0.1-0.1-0.1-0.2-0.1v-1.9c0,0,0,0,0.1,0c0,0,0,0-0.1,0v-3.8C218.6,195.9,218.7,196.5,218.8,196.9L218.8,196.9z M218.5,208.5   V206c0.1,0.4,0.1,0.9,0.1,1.3C218.6,207.7,218.5,208.1,218.5,208.5L218.5,208.5z M218.6,197.7L218.6,197.7L218.6,197.7z    M217.4,198.8c0.3,0,0.6,0.2,0.7,0.3c0-0.2-0.1-0.4-0.1-0.5l0,0c0,0,0-0.1,0-0.1c0-0.1-0.1-0.2-0.1-0.3c-0.1-0.2-0.2-0.6-0.3-1.1   c0-0.2-0.1-0.5-0.2-0.7v-5.7c0.3-0.4,0.6-0.6,0.9-0.7c0,0,0.1,0,0.1-0.1v1.4c-0.1,0.1-0.2,0.4-0.3,0.7c0.1,1.2,0.2,2.2,0.3,2.9v3.8   c0,0,0,0,0,0l0,0c0,0,0,0,0,0v1.9c-0.4-0.1-0.5-0.3-0.6-0.4c-0.1-0.1-0.3-0.2-0.4-0.3V198.8L217.4,198.8z M218.5,183.1   c-0.3-1.1-0.4-2.1-0.4-2.9c0-0.9,0.1-1.7,0.4-2.4V183.1L218.5,183.1z M218.5,211.8c-0.2,0.3-0.5,0.6-0.7,0.9l-0.3,0.5V212l0.2-0.2   l-0.2,0.2v-1c0.4-0.4,0.7-0.7,1-1.1V211.8L218.5,211.8z M218.5,206c-0.2-1.3-0.7-2.3-1-3.2v8.2c0.6-0.8,0.9-1.7,1-2.5V206z    M215.5,211.7l0.4-0.5c1.2-1.5,1.6-2.8,1.6-4c0-2.1-1.2-3.8-1.4-5.3v0v0c0-1.4,0.1-1.9,0.6-2.8l0.1-0.2l0.2-0.1c0.1,0,0.2,0,0.3,0   c0.1,0,0.1,0,0.2,0v1.3l0,0c-0.2,0.4-0.2,0.6-0.3,1.8c0,0.2,0.1,0.5,0.3,0.9v8.2c0,0.1,0,0.1-0.1,0.2c0,0,0.1-0.1,0.1-0.1v1   l-0.2,0.3l0.2-0.3v1.1l0,0L215.5,211.7L215.5,211.7z M217.4,196.5c-0.2-1-0.4-2.4-0.5-4.3V192l0-0.1c0.1-0.5,0.3-0.9,0.5-1.2V196.5   z"/>
	<path class="st0" d="M192.2,248.4c3.3-4.5,2.7-9.2,2.7-10.9c0.3-1.3,0.2-1.7,1-2.1c1.1,0.3,1.2,1.3,1.8,0.7c1-1.4,0.3-1.3,0.3-1.3   s-0.6-0.9,0.5-5.2c1.3-1.8,2.8-2.1,4-2.8c1-1.3,1.9-2.4,1.4-3.8c-0.3-3.9,2.2-6.6,3.3-7.2c1.1-0.6,5.7,0,6.1-0.1   c0.8-0.8,0.7-0.7,1.9-1.4c1.8-0.8,2,0.8,3.9-0.5c2.7-1.9,6.6-1.8,6.5-1.8c0,0-1.1,5.6-3.3,8.4c-1.2,1.6,1.5,2,0.7,2.9   c-0.8,1-0.9,1.8-0.9,1.8s1.7,1.9,1.2,3.2c-1.5,2.6-6.8,4.7-9,5.3c-3.3,0.9-0.8,4-2.6,5.4c-1.4,1.1-4.4,2.1-6.4,2.3   c-2,0.3-9,2.8-12,7.5L192.2,248.4z"/>
	<path class="st1" d="M209,214.9L209,214.9c1.5,0,3.2,0.1,3.9,0.1c0,0,0,0,0.1,0c0.6-0.6,0.8-0.7,1.8-1.3h0v0   c0.5-0.2,0.9-0.3,1.2-0.3c0.8,0,1.2,0.3,1.5,0.3c0.2,0,0.5-0.1,1-0.4c2.6-1.8,6.1-1.9,6.8-1.9c0.1,0,0,0,0.1,0c0,0,0,0,0,0   s0,0,0.2,0v0l0,0h0l0,0l0.7,0.4l-0.5,0.5c0,0,0,0,0,0.1c0,0.1-0.1,0.4-0.2,0.7c-0.1,0.6-0.3,1.3-0.6,2.2c-0.6,1.8-1.4,3.9-2.5,5.4   c-0.2,0.2-0.2,0.3-0.2,0.4c0,0,0.1,0.3,0.4,0.6c0.2,0.3,0.7,0.5,0.7,1.2c0,0.3-0.1,0.6-0.3,0.8c-0.5,0.5-0.6,1-0.7,1.2c0,0,0,0,0,0   c0.1,0.2,0.3,0.4,0.5,0.7c0.3,0.6,0.7,1.3,0.7,2.2c0,0.2,0,0.5-0.1,0.7v0l0,0c-1.7,2.9-7.1,5-9.3,5.7c-0.8,0.2-1.1,0.5-1.2,0.8   c-0.1,0.3-0.2,0.8-0.2,1.4c0,0.1,0,0.3,0,0.4c0,0.8,0,2-1,2.7c-0.8,0.6-1.9,1.1-3,1.5v-1.3c0.9-0.3,1.8-0.7,2.3-1.1   c0.5-0.4,0.5-0.9,0.5-1.7c0-0.1,0-0.3,0-0.4c0-0.6,0-1.3,0.4-1.9c0.3-0.6,1-1.2,2-1.5c2-0.5,7.3-2.8,8.6-5c0,0,0-0.1,0-0.2   c0-0.9-1.1-2.3-1.2-2.3c0,0,0,0,0-0.1c0,0,0,0-0.1-0.3v0l0,0c0-0.1,0.1-1.1,1-2.2l0,0v0c-0.1-0.1-0.2-0.2-0.4-0.4   c-0.3-0.3-0.7-0.7-0.7-1.4c0-0.4,0.2-0.8,0.5-1.2c1.5-2,2.6-5.7,3-7.4c-1.2,0.1-3.7,0.4-5.5,1.6c-0.6,0.5-1.2,0.6-1.7,0.6   c-0.8,0-1.1-0.3-1.5-0.3c-0.2,0-0.4,0-0.7,0.2c-1.2,0.7-0.9,0.5-1.7,1.2l-0.1,0.1l-0.1,0c-0.2,0-0.3,0-0.6,0   c-0.8,0-2.4-0.2-3.8-0.2h0V214.9z M191.9,248.9l0.3-0.5l0.5,0.4l-0.5-0.4L191.9,248.9l-0.6-0.3l0.4-0.5c2.3-3.2,2.6-6.3,2.6-8.5   c0-0.7,0-1.4,0-1.8c0,0,0-0.1,0-0.1v-0.1v0c0.2-0.6,0.2-1,0.4-1.5c0.1-0.4,0.5-0.8,1-1.1l0.2-0.1l0.2,0c0.6,0.2,1.1,0.6,1.2,0.8   c0.1-0.2,0.2-0.3,0.3-0.4l0,0c-0.1,0-0.1,0-0.1-0.1c0,0,0-0.1,0-0.1c0,0,0,0,0-0.1c0-0.1-0.1-0.2-0.1-0.3c-0.1-0.2-0.1-0.6-0.1-1   c0-0.9,0.1-2.2,0.6-4.2l0-0.1l0-0.1c1.4-1.9,3.1-2.3,4.1-2.9c0.8-1.1,1.3-1.8,1.3-2.6c0-0.2,0-0.4-0.1-0.6v0l0-0.1   c0-0.2,0-0.5,0-0.7c0-3.8,2.4-6.4,3.6-7c0.6-0.3,1.3-0.3,2.2-0.3v1.2c-0.8,0-1.5,0.1-1.6,0.2c-0.8,0.4-3,2.7-3,6c0,0.2,0,0.3,0,0.5   c0.1,0.3,0.1,0.6,0.1,0.9c0,1.3-0.9,2.3-1.6,3.4l-0.1,0.1l-0.1,0c-1.3,0.8-2.5,1-3.8,2.5c-0.5,1.9-0.6,3.1-0.6,3.9   c0,0.3,0,0.5,0,0.6c0.2,0.1,0.4,0.5,0.4,0.7c0,0.5-0.2,0.8-0.7,1.5l0,0v0c-0.2,0.1-0.5,0.3-0.8,0.3c-0.6,0-0.8-0.4-1-0.5   c-0.1-0.1-0.3-0.2-0.4-0.3c-0.1,0.1-0.1,0.1-0.2,0.3c-0.1,0.2-0.1,0.6-0.3,1.3v0c0,0.4,0,1.1,0,1.8c0,2.1-0.3,5.2-2.3,8.5   c3.4-4.5,9.8-6.8,12-7c1.1-0.2,2.5-0.5,3.8-1.1v1.3c-1.2,0.4-2.6,0.7-3.7,0.9c-1.8,0.2-8.8,2.8-11.6,7.3l-0.4,0.5L191.9,248.9z"/>
	<path class="st0" d="M186.1,257.5c4.2-3.6,4.1,0,5.9-0.4c1.2-0.6,1.7-0.6,2-1.6c-0.6-0.9-1.7-0.7-1.2-1.5c1.1-1.4,1.3-0.7,1.3-0.6   c0,0,1.1,0.4,5.1-2.1c1.5-1.9,1.2-3.4,1.5-4.8c1-1.4,2.1,0.3,4-0.3c3.9-1.4,4.6-4.6,4-6.8c-0.6-2.3-3.5-2.7-3-5.1   c0.4-2,1.4-2.2,2-4c0.6-1.7-1.9-2.9-1.7-5.1c0.7-3.9-1.9-5.4-1.8-5.4c0,0.1-5.1,1.7-6,5.9c-0.7,1.7-1.8,0.2-2.9,0.5   c-1.2,0.2-1.3,2.8-2.1,3c-0.8,0.2-3,0.1-3.5,1.6c-0.4,1.5,0.3,3.4,0.5,5.7c0.3,2.2-3.3,1.8-2.8,5c0.4,2.3,1.4,13.4-2.9,16.9   L186.1,257.5z"/>
	<path class="st1" d="M204.4,219.2L204.4,219.2L204.4,219.2L204.4,219.2C204.4,219.3,204.4,219.3,204.4,219.2c0.1,0,0.1,0,0.1,0l0,0   c0,0.1,0,0.1,0.1,0.1c0.1,0,0.1,0,0.1,0.1l0.6,0.4c0.9,0.9,1.5,2.4,1.5,3.9c0,0.5,0,0.9-0.1,1.4c0,0,0,0.1,0,0.1   c0,0.7,0.4,1.3,0.8,2c0.5,0.7,1,1.4,1.1,2.3c0,0.3,0,0.5-0.1,0.8c-0.3,1-0.8,1.5-1.1,2c-0.4,0.5-0.6,0.9-0.8,1.8c0,0.1,0,0.2,0,0.4   c0,0.7,0.4,1.2,1.1,1.8c0.7,0.6,1.6,1.3,1.9,2.6c0.1,0.5,0.2,1,0.2,1.5c0,2.2-1.2,4.8-4.6,6c-0.1,0-0.3,0.1-0.5,0.1v-1.2   c0,0,0.1,0,0.1,0c2.9-1.1,3.8-3.1,3.8-4.9c0-0.4,0-0.8-0.1-1.2c-0.2-0.8-0.8-1.4-1.6-2c-0.7-0.6-1.5-1.4-1.5-2.7   c0-0.2,0-0.4,0.1-0.6c0.2-1.1,0.6-1.8,1-2.3c0.4-0.6,0.7-0.9,1-1.7c0-0.1,0-0.2,0-0.4c0-0.4-0.3-1-0.8-1.7c-0.5-0.7-1-1.6-1-2.7   c0-0.1,0-0.2,0-0.2v-0.1v0c0.1-0.5,0.1-0.9,0.1-1.2c0-1.6-0.6-2.6-1.2-3.1V219.2z M204.4,219.2L204.4,219.2L204.4,219.2   C204.4,219.2,204.4,219.2,204.4,219.2L204.4,219.2z M204.1,219.2C204.1,219.2,204.2,219.2,204.1,219.2c0.1,0,0.1,0,0.1,0   c0,0,0,0,0.1,0c0,0,0,0,0,0l0,0l0,0h0l0,0v1.5c-0.1-0.1-0.2-0.2-0.3-0.2h0V219.2L204.1,219.2z M204.4,246.7c-0.1,0-0.2,0-0.3,0   v-1.2c0.1,0,0.2,0,0.3,0V246.7L204.4,246.7z M204.4,219.2C204.4,219.2,204.4,219.2,204.4,219.2L204.4,219.2L204.4,219.2   L204.4,219.2L204.4,219.2z M204.1,219.2C204.1,219.2,204.2,219.2,204.1,219.2L204.1,219.2C204.2,219.2,204.1,219.2,204.1,219.2   L204.1,219.2z M203.6,219.4c0.1,0,0.1,0,0.2,0c0-0.1,0.1-0.1,0.1-0.1c0,0,0,0,0.1,0v1.3c-0.1,0-0.2,0.1-0.4,0.2V219.4   C203.7,219.4,203.7,219.4,203.6,219.4C203.7,219.4,203.7,219.4,203.6,219.4L203.6,219.4L203.6,219.4z M204.1,246.8c0,0-0.1,0-0.2,0   c0,0-0.1,0-0.2,0v-1.2c0.1,0,0.1,0,0.2,0c0.1,0,0.2,0,0.2,0V246.8L204.1,246.8z M204.1,219.2C204,219.2,204,219.2,204.1,219.2   C204,219.2,204,219.2,204.1,219.2L204.1,219.2z M203.6,219.4L203.6,219.4L203.6,219.4c0,0.1,0,0.1,0,0.1   C203.6,219.5,203.6,219.5,203.6,219.4C203.6,219.5,203.6,219.5,203.6,219.4l0,1.3l0,0c0,0,0,0,0,0v-1.1l0,0l0,0V219.4L203.6,219.4z    M203.6,246.8L203.6,246.8l0-1.2h0V246.8z M197.6,225.4c1-3.8,4.8-5.5,6-6v0.3c0,0,0,0,0,0.1c0-0.1,0-0.1,0-0.1v1.1   c-0.5,0.2-1.1,0.5-1.7,1c-1.3,0.9-2.7,2.3-3.1,4.1l0,0v0.1c-0.2,0.6-0.6,1-1.1,1.1V225.4L197.6,225.4z M203.6,246.8   c-0.9,0-1.6-0.4-1.8-0.4c-0.2,0-0.2,0-0.5,0.2c-0.2,1.2,0,2.9-1.6,4.9l0,0.1l-0.1,0.1c-0.7,0.4-1.4,0.8-1.9,1.1v-1.4   c0.4-0.2,0.8-0.4,1.2-0.7c1.2-1.7,1-2.9,1.3-4.5l0-0.1l0-0.1c0.4-0.6,1-0.9,1.5-0.8c0.7,0,1.2,0.3,1.8,0.4V246.8z M184.1,257.8   c2.4-1.8,3.1-6.8,3.1-10.8c0-2.5-0.2-4.7-0.4-5.6c0-0.2,0-0.5,0-0.7c0-1.1,0.6-1.8,1.1-2.3c0.6-0.5,1.2-0.8,1.5-1.1   c0.2-0.2,0.3-0.4,0.3-0.6c0-0.1,0-0.1,0-0.1c-0.2-1.7-0.6-3.3-0.6-4.7c0-0.4,0-0.8,0.1-1.2c0.3-1.1,1.2-1.6,2-1.7   c0.7-0.2,1.5-0.2,1.8-0.3c0,0,0,0,0,0c0,0,0.1-0.1,0.1-0.2c0.1-0.2,0.2-0.5,0.4-0.9c0.3-0.7,0.6-1.6,1.6-1.8c0.1,0,0.3,0,0.4,0   c0.8,0,1.4,0.4,1.7,0.4c0.1,0,0.2,0,0.4-0.4c0,0,0-0.1,0-0.1v1.7c-0.1,0.1-0.3,0.1-0.5,0.1c-0.7-0.1-1.3-0.4-1.7-0.4   c0,0-0.1,0-0.2,0.1c-0.1,0-0.3,0.2-0.5,0.6c-0.2,0.4-0.4,1-0.6,1.5c-0.2,0.3-0.4,0.6-0.9,0.8c-0.5,0.1-1.2,0.1-1.9,0.3   c-0.6,0.1-1,0.4-1.2,0.8c0,0.3-0.1,0.6-0.1,0.9c0,1.2,0.4,2.7,0.6,4.6c0,0.1,0,0.2,0,0.3c0,0.6-0.3,1.1-0.6,1.5   c-0.3,0.4-0.7,0.6-1.1,0.9c-0.7,0.5-1.2,0.9-1.2,1.7c0,0.2,0,0.3,0,0.6c0.2,0.9,0.4,3.1,0.4,5.7c0,2.9-0.3,6.4-1.5,9   c0.9-0.6,1.6-0.9,2.3-0.9h0c0.8,0,1.4,0.5,1.7,0.8c0.4,0.3,0.6,0.5,0.8,0.5c0,0,0,0,0.1,0c0.6-0.3,1.1-0.5,1.2-0.6   c0.1-0.1,0.2-0.1,0.2-0.3c-0.2-0.2-0.5-0.3-0.8-0.6c-0.2-0.1-0.4-0.4-0.4-0.7c0-0.2,0.1-0.4,0.2-0.6l0,0l0,0c0.6-0.7,0.9-1,1.5-1.1   c0.2,0,0.4,0.1,0.5,0.2c0.4,0,1.3-0.2,3.2-1.2v1.4c-1.8,0.9-2.8,1.1-3.3,1.1c-0.1,0.1-0.2,0-0.3,0l0,0l0,0l0.1-0.5l-0.2,0.2l0,0   l0.1,0.2c0,0,0,0-0.1,0.1c-0.1,0.1-0.2,0.2-0.4,0.5h0c0.3,0.2,0.7,0.5,1,1l0.1,0.2l0,0.2c-0.1,0.6-0.5,1-0.9,1.3   c-0.4,0.2-0.8,0.4-1.4,0.7l-0.1,0h0c-0.1,0-0.3,0.1-0.5,0.1c-0.8,0-1.2-0.5-1.6-0.8c-0.4-0.3-0.6-0.5-1-0.5c-0.4,0-1.2,0.3-2.6,1.5   l0,0l-1.7,0.9L184.1,257.8z"/>
	<path class="st0" d="M164.7,271.8c5.6-1.8,10.4-0.6,12.3-0.5c1.5-0.1,2,0,2.6-0.8c-0.2-1.1-1.3-1.3-0.6-1.9   c1.7-0.9,1.6-0.2,1.6-0.2c0,0,0.4,0.1,5.4-0.9c2.2-1.4,3.6-3,4.5-4.2c1.5-1.1,1.8-1.9,4-1.8c2.2,0,6.9-2.8,7.4-4   c0.6-1.3-0.5-5.5-0.3-6c0.7-1,0.6-0.9,1.1-2.2c0.5-2-1.2-1.7-0.2-3.9c1.3-3.1-0.2-5.5-1.2-5.7c-1.1-0.2-2.5,0.5-4.9,3   c-1.4,1.4-3.1-1.5-5-0.7c-1.9,0.8-2.1,2.5-3.7,2.8c-1.7,0.2-4-1.1-5.3,1.9c-1.3,3-1.2,4.8-1.8,6.3c-0.6,1.5-3.4-0.6-4.7,1.1   c-1.8,2.4-1.8,6.6-1.7,6.6c0,0-0.3,1.3-0.9,1.7c-0.6,0.4-0.8-0.3-1.6-0.5c-0.9,0.4-0.5-0.4-1.4,0.8c-0.9,1.7-0.2,6.4-5.9,8.1   L164.7,271.8z"/>
	<path class="st1" d="M183.8,244.2c0.4-0.2,0.9-0.2,1.3-0.2c0.7,0,1.4,0.1,2,0.1c0.1,0,0.3,0,0.4,0c0.6-0.1,0.9-0.4,1.4-1   c0.5-0.6,1.1-1.3,2.1-1.7c0.3-0.1,0.7-0.2,1-0.2c0.8,0,1.5,0.4,2.1,0.7c0.5,0.3,1.1,0.6,1.3,0.6c0.1,0,0.2,0,0.4-0.2   c2.2-2.3,3.7-3.1,5.1-3.2c0.1,0,0.3,0,0.4,0c1.2,0.3,2.3,1.7,2.3,3.8c0,0.8-0.1,1.7-0.5,2.7c-0.2,0.4-0.3,0.7-0.3,0.9   c0,0.3,0.1,0.4,0.3,0.7c0.1,0.3,0.4,0.8,0.4,1.4c0,0.3,0,0.6-0.1,0.9v0h0c-0.5,1.2-0.5,1.4-1.1,2.2c0,0.6,0.5,3,0.5,4.6   c0,0.5,0,1-0.2,1.4c-0.5,1-1.7,1.9-3.3,2.8c-1.5,0.9-3.3,1.6-4.6,1.6c0,0,0,0-0.1,0c0,0,0,0-0.1,0c-1,0-1.4,0.2-1.8,0.4   c-0.4,0.3-0.9,0.7-1.6,1.2c-0.9,1.2-2.3,2.9-4.6,4.3l-0.1,0.1h-0.1c-0.9,0.2-1.7,0.3-2.3,0.5v-1.2c0.6-0.1,1.2-0.2,1.9-0.4   c2.1-1.3,3.4-2.9,4.2-4l0-0.1l0.1,0c0.7-0.5,1.1-1,1.7-1.3c0.6-0.4,1.4-0.6,2.5-0.6c0,0,0.1,0,0.1,0h0c0.9,0,2.6-0.6,4-1.5   c1.4-0.8,2.7-1.9,2.8-2.3c0-0.1,0.1-0.5,0.1-0.9c0-1.6-0.5-3.9-0.5-4.7c0-0.1,0-0.1,0-0.3l0,0l0-0.1c0.7-1,0.6-0.7,1.1-2   c0-0.2,0-0.4,0-0.5c0-0.3-0.1-0.5-0.2-0.8c-0.2-0.3-0.4-0.7-0.4-1.3c0-0.4,0.1-0.8,0.3-1.4c0.4-0.8,0.5-1.5,0.5-2.2   c0-0.8-0.2-1.5-0.5-1.9c-0.3-0.5-0.6-0.7-0.7-0.7c-0.1,0-0.1,0-0.2,0c-0.7,0-2.1,0.6-4.2,2.8c-0.4,0.4-0.8,0.5-1.3,0.5   c-0.8,0-1.3-0.4-1.9-0.7c-0.6-0.3-1.1-0.5-1.5-0.5c-0.1,0-0.3,0-0.5,0.1c-0.8,0.4-1.2,0.9-1.7,1.4c-0.5,0.6-1.1,1.2-2.2,1.4   c-0.2,0-0.3,0-0.5,0c-0.7,0-1.4-0.1-2-0.1c-0.5,0-0.9,0-1.3,0.3V244.2z M174.6,254.8c0.2-0.4,0.4-0.8,0.7-1.2c0.6-0.7,1.4-1,2.1-1   c0.8,0,1.5,0.2,2,0.2c0.4,0,0.4,0,0.5-0.2c0.6-1.3,0.5-3.2,1.8-6.3c0.5-1.2,1.3-1.9,2.1-2.2v1.3c-0.4,0.2-0.7,0.6-1,1.3   c-1.3,2.9-1.1,4.6-1.8,6.3c-0.3,0.7-1.1,1-1.6,1c-0.7-0.1-1.4-0.2-2-0.2c-0.5,0-0.9,0.1-1.1,0.5c-1.3,1.7-1.6,4.4-1.7,5.6V254.8   L174.6,254.8z M183.8,268.6c-2.2,0.4-2.9,0.5-3.2,0.5c-0.1,0-0.1,0-0.1,0v-0.6l0,0h-0.3l0,0v0.3c0,0,0,0,0,0c0,0-0.3,0-0.8,0.3   c0,0,0.1,0.1,0.1,0.1c0.2,0.2,0.5,0.6,0.6,1.2l0,0.3l-0.2,0.2c-0.3,0.5-0.8,0.8-1.3,0.9c-0.5,0.1-0.9,0.1-1.7,0.2h0h-0.1   c-0.6-0.1-1.3-0.2-2.3-0.3v-1.2c1,0.1,1.8,0.3,2.4,0.3c0.7-0.1,1.2-0.1,1.5-0.1c0.2-0.1,0.3-0.1,0.4-0.2c-0.1-0.1-0.1-0.3-0.3-0.4   c-0.1-0.2-0.4-0.4-0.5-0.9c0-0.4,0.3-0.7,0.5-0.9l0,0h0c0.7-0.4,1.1-0.5,1.6-0.5c0.2,0,0.5,0,0.6,0.2c0.4,0,1.2-0.1,2.9-0.5V268.6   L183.8,268.6z M174.6,260.7v-0.1V260.7C174.6,260.7,174.6,260.7,174.6,260.7L174.6,260.7z M174.6,260.6L174.6,260.6   C174.6,260.6,174.6,260.6,174.6,260.6L174.6,260.6z M174.4,255.4c0.1-0.2,0.2-0.4,0.3-0.6v5.2c0,0.1,0,0.3,0,0.4c0,0,0,0.1,0,0.1   c0-0.1,0-0.1,0-0.1c0,0,0,0,0,0.1c0,0,0,0,0,0v0.1c0,0.1,0,0,0,0.1c0,0,0,0,0,0.1c0,0,0,0.1,0,0.1c0,0.1-0.1,0.3-0.2,0.6l0,0v-1.4   c0,0,0,0,0.1,0.1c0,0,0,0-0.1-0.1V255.4L174.4,255.4z M174.6,271.6c-0.1,0-0.2,0-0.3,0v-1.2c0.1,0,0.2,0.1,0.3,0.1V271.6   L174.6,271.6z M174.6,260.5C174.6,260.5,174.6,260.5,174.6,260.5L174.6,260.5C174.6,260.5,174.6,260.5,174.6,260.5L174.6,260.5z    M165,269.8c4.3-1.7,3.7-5.4,4.7-7.5v0l0-0.1c0.2-0.3,0.4-0.5,0.6-0.6c0.1-0.1,0.4-0.3,0.6-0.3c0.2,0,0.2,0,0.2,0s0,0,0.2-0.1   l0.2-0.1l0.2,0.1c0.6,0.2,1,0.5,1.2,0.6l0,0c0,0,0.3-0.3,0.4-0.7c0.1-0.2,0.2-0.4,0.2-0.5l0,0c0,0,0-0.1,0-0.2c0-0.8,0.1-3,1-5v4.7   c0,0,0,0-0.1-0.1c0.1,0.1,0.1,0.1,0.1,0.1v1.4c-0.2,0.4-0.4,0.9-0.8,1.2c-0.2,0.1-0.5,0.2-0.7,0.2c-0.4,0-0.7-0.2-0.9-0.3   c-0.1-0.1-0.3-0.2-0.4-0.2c-0.2,0.1-0.4,0.1-0.5,0.1h0c-0.1,0.1-0.2,0.2-0.4,0.5c-0.6,1.2-0.3,6.1-5.4,8c2.2-0.6,4.2-0.8,5.9-0.8   c1.2,0,2.3,0.1,3.2,0.2v1.2c-0.9-0.1-2-0.2-3.2-0.2c-1.8,0-4,0.2-6.2,1v-0.6l0.3-0.1l-0.3,0.1V269.8L165,269.8z M172.8,261.8   L172.8,261.8L172.8,261.8z M163.5,270.3l0.6-0.2c0.3-0.1,0.6-0.2,0.9-0.3v1.9l-0.3,0.1l0.3-0.1v0.6c0,0,0,0-0.1,0l-0.6,0.2   L163.5,270.3z"/>
	<g>
		<path class="st0" d="M68.5,136.9c-8.3-9.5-11.4-21.9-11.4-21.9s-3.9,4.9-5.7,12.3c-1.9,7.4-1.7,17.6,6.2,26.5    c5.9,4.1,10,5.9,10,5.9C67.7,159.7,72.4,151,68.5,136.9z"/>
		<path class="st1" d="M68.2,135.6c0.3,0.3,0.6,0.6,0.8,1l-0.5,0.4l-0.3,0.1V135.6L68.2,135.6z M68.2,137v1.1    c0.9,3.6,1.2,6.8,1.2,9.6c0,3.8-0.6,6.7-1.2,8.7c0,0.1,0,0.1,0,0.2v3.3c0,0,0-0.1,0-0.1s0,0,0,0.1v0c0.5-0.8,2.4-5.2,2.4-12.2    c0-3.1-0.4-6.8-1.5-10.9l0-0.1l-0.1-0.1l-0.5,0.4L68.2,137z M68.2,135.6C68.2,135.6,68.2,135.6,68.2,135.6l0,1.5l0,0V135.6    L68.2,135.6z M68.2,137.1v0.8c0,0.1,0,0.1,0,0.2L68.2,137.1L68.2,137.1L68.2,137.1z M68.2,159.9C68.2,160,68.2,160,68.2,159.9    L68.2,159.9L68.2,159.9L68.2,159.9l0-3.2c0,0,0-0.1,0-0.2V159.9C68.2,159.9,68.2,159.9,68.2,159.9    C68.2,159.9,68.2,159.9,68.2,159.9L68.2,159.9z M68.2,159.9L68.2,159.9L68.2,159.9z M68.1,135.5C68.1,135.5,68.2,135.5,68.1,135.5    l0,1.6h0V135.5L68.1,135.5z M68.1,137.1v0.6c0,0.1,0,0.1,0,0.2L68.1,137.1L68.1,137.1L68.1,137.1z M68.2,160    C68.2,160.1,68.2,160.1,68.2,160C68.2,160.1,68.2,160.1,68.2,160C68.1,160.1,68.2,160.1,68.2,160C68.2,160.1,68.1,160.1,68.2,160    l0-3.1c0,0,0-0.1,0-0.2V160L68.2,160L68.2,160L68.2,160L68.2,160z M68.1,160.1L68.1,160.1L68.1,160.1L68.1,160.1z M67.1,160.2    L67.1,160.2c-0.1,0-0.3-0.1-0.6-0.3c-0.5-0.2-1.1-0.6-2.1-1.1c-1.7-1-4.3-2.5-7.3-4.5l0,0l0,0c-5.5-6.3-7.3-13.1-7.3-19.2    c0-2.9,0.4-5.5,1-7.9c1.8-7.6,5.7-12.5,5.7-12.5l0.8-1l0.3,1.2c0,0,0.2,0.7,0.6,2c0.4,1.3,1.1,3.1,2,5.3c1.7,3.9,4.2,8.9,7.8,13.3    v1.6l-0.1,0l0.1,0v0.6c0-0.1-0.1-0.3-0.1-0.4c-6.8-7.9-10.1-17.5-11.1-20.9c-0.4,0.6-0.9,1.3-1.4,2.3c-1.2,2.1-2.6,5.1-3.5,8.8    c-0.6,2.3-1,4.9-1,7.6c0,5.8,1.7,12.4,6.9,18.3c4.6,3.2,8,4.9,9.3,5.6c0-0.1,0.1-0.2,0.1-0.3c0.2-0.4,0.4-1,0.6-1.8v3.2    c0,0,0,0,0,0.1l0,0c0,0,0,0,0,0c0,0,0,0,0,0l-0.6,0.7L67.1,160.2L67.1,160.2z M68.1,160.1L68.1,160.1    C68.1,160.2,68.1,160.2,68.1,160.1L68.1,160.1z"/>
	</g>
	<g>
		<path class="st0" d="M71.7,155.8c-1.4-8.9,0.6-19,1.1-26.3c-0.2,0.1-6.6,2.8-11.6,8.6c-5.1,5.7-9.6,14.8-6.7,26.2    c3.5,6.2,6.3,9.6,6.3,9.7C60.8,173.8,69.8,166.4,71.7,155.8z"/>
		<path class="st1" d="M61.3,136.9c5.1-5.4,11.1-7.9,11.2-8l0.9-0.4l0,1c-0.4,5.5-1.6,12.5-1.6,19.3c0,2.3,0.1,4.6,0.5,6.9l-0.6,0.1    l0.6-0.1v0.1v0.1c-1.8,10.1-9.8,17.3-11,18.3v0c0,0,0-0.1,0-0.1c0,0.1,0,0.1,0,0.1v-1.6c0.9-0.8,2.3-2.2,3.8-4.1    c2.5-3.1,5.2-7.5,6.1-12.6c-0.4-2.3-0.5-4.6-0.5-6.9c0-6.5,1.1-13.1,1.5-18.3c-2,0.9-6.7,3.5-10.5,7.9c-0.1,0.1-0.2,0.2-0.3,0.3    V136.9z M60.8,137.4c0.1-0.1,0.3-0.3,0.4-0.5v1.8c-0.1,0.2-0.3,0.4-0.4,0.5V137.4L60.8,137.4z M61.3,174.2    c-0.1,0.1-0.1,0.1-0.1,0.1l-0.3,0.2v-0.1c0,0,0.1,0,0.1,0c0,0-0.1,0-0.1,0v-1.5c0.1-0.1,0.3-0.2,0.4-0.4V174.2    C61.3,174.1,61.3,174.2,61.3,174.2S61.3,174.1,61.3,174.2L61.3,174.2z M60.2,174.1C60.2,174.1,60.2,174.1,60.2,174.1    c-0.1-0.1-0.2-0.3-0.4-0.6c-0.3-0.4-0.8-1.1-1.3-1.8c-1.2-1.7-2.8-4.1-4.5-7.2v-0.1l0-0.1c-0.6-2.6-0.9-5-0.9-7.3    c0-8.3,3.7-14.9,7.7-19.5c0-0.1,0.1-0.1,0.2-0.2v1.8c-3.6,4.4-6.7,10.4-6.7,17.8c0,2.2,0.3,4.5,0.9,7c2.7,4.7,5,7.8,5.8,9l0,0v1.5    c0,0-0.1,0-0.1,0s0,0,0.1,0v0.1l-0.5,0.4L60.2,174.1z"/>
	</g>
	<g>
		<path class="st0" d="M56.2,173.8c-2.6-13.8-8.7-26.2-8.7-26.2s6.2,1.5,12.8,5.6c6.6,4.1,13.7,10.6,16.3,21.2    c-0.2,6.7-0.6,10.9-0.6,10.9C76,185.4,65.4,186.7,56.2,173.8z"/>
		<path class="st1" d="M76.4,171.9c0.3,0.8,0.5,1.6,0.7,2.4v0.1v0.1c-0.2,6.3-0.6,10.3-0.6,10.9v2l-0.1-0.1v-1.6c0,0,0,0,0,0l0,0    c0,0,0,0,0,0v-0.6c0,0.1,0.1,0.2,0.1,0.3c0-0.2,0-0.2,0-0.2c0,0,0-0.1,0-0.1V171.9z M76.1,170.9c0.1,0.3,0.2,0.6,0.3,1v13.2l0,0    l0,0v0.6l0,0l0,0v1.6l-0.3-0.6V186c0,0,0.1,0,0.1-0.1c0,0-0.1,0-0.1,0V170.9z M75.6,186c-0.1,0-0.2,0-0.3,0c-1.9,0-7.2-0.5-13-4.9    v-1.6c5.9,4.9,11.2,5.2,13,5.2c0,0,0,0,0.1,0c0-0.1,0-0.1,0-0.2c0-0.5,0.1-1.2,0.1-2.2c0.1-1.9,0.3-4.6,0.4-7.9    c-2.3-9.2-7.9-15.1-13.7-19.2v-1.5c5.5,3.7,10.9,9,13.8,17V186c0,0-0.1,0-0.2,0c0,0,0,0,0,0c0,0,0.1,0,0.1,0v0.7L75.6,186    L75.6,186z M75.7,186L75.7,186L75.7,186z M62.3,181.1c-2.2-1.7-4.4-4-6.6-6.9l0.5-0.4l0.6-0.1l-0.6,0.1l-0.5,0.4l-0.1-0.1v-0.1    c-1.3-6.9-3.4-13.4-5.3-18.2c-1.8-4.8-3.3-7.8-3.3-7.9l-0.6-1.1l1.3,0.3c0,0,6.2,1.6,13,5.7c0.6,0.4,1.1,0.7,1.7,1.1v1.5    c-0.8-0.6-1.5-1.1-2.3-1.5c-3.3-2-6.5-3.5-8.8-4.3c-1.1-0.4-1.9-0.7-2.6-0.9c1.6,3.5,6,13.7,8.1,25c1.8,2.5,3.7,4.5,5.6,6V181.1z"/>
	</g>
	<g>
		<path class="st0" d="M80.3,177.8c-0.2-4.3-5.9-18.6-4.9-24.7c-2.1,1.4-2.7,3.3-7.3,9.5c-4.5,6.1-10.8,15.4-6.8,26.6    c4.1,5.9,7.3,9,7.3,9C68.6,198.2,80.5,182.1,80.3,177.8z"/>
		<path class="st1" d="M69.2,160.1c3.2-4.5,3.9-6.1,5.8-7.5l1.2-0.8l-0.2,1.4c-0.1,0.4-0.1,0.9-0.1,1.5c0,3.2,1.2,8,2.4,12.4    c1.2,4.4,2.5,8.5,2.6,10.6l-0.6,0l0.6,0c0,0,0,0.1,0,0.2c0,1.3-0.8,3.2-1.9,5.3c-1.1,2.1-2.6,4.5-4,6.8c-2.6,4-5.2,7.6-5.8,8.4    v-0.1l0,0c0,0,0,0,0-0.1c0,0.1,0,0.1,0,0.1v-1.9c0.7-0.9,1.6-2.3,2.6-3.7c2.1-3,4.5-6.8,6.2-9.9c1.1-2.1,1.7-3.9,1.7-4.8    c0,0,0-0.1,0-0.1l0,0c-0.1-1.8-1.4-5.9-2.6-10.3c-1.2-4.5-2.5-9.2-2.5-12.7c0,0,0-0.1,0-0.2c-1.2,1.2-2.3,3.3-5.5,7.6V160.1z     M69.2,160.1L69.2,160.1v2.1l0,0V160.1L69.2,160.1z M69.2,198.4L69.2,198.4L69.2,198.4L69.2,198.4L69.2,198.4L69.2,198.4v-2.1l0,0    v1.9l0,0V198.4v-0.1V198.4z M68.1,198.6C68,198.5,68,198.5,68.1,198.6c-0.2-0.2-0.3-0.4-0.5-0.6c-0.4-0.4-0.9-1-1.6-1.7    c-1.3-1.5-3.1-3.8-5.2-6.7l0-0.1v0c-1-2.6-1.4-5.1-1.4-7.5c0.1-8.2,4.7-14.9,8.2-19.7c0.6-0.8,1.1-1.5,1.6-2.2v2.1    c-0.2,0.3-0.4,0.6-0.6,0.8c-3.5,4.7-8,11.3-8,18.9c0,2.2,0.4,4.6,1.2,7c3.1,4.4,5.6,7.3,6.7,8.4c0.2-0.2,0.4-0.6,0.6-0.9v2l0,0    l0,0v0.1c-0.1,0.1-0.1,0.1-0.1,0.2c0,0,0,0,0,0l-0.6,0.5L68.1,198.6z"/>
	</g>
	<g>
		<path class="st0" d="M64.6,197.3c-3.1-10.4-10.9-23.8-10.9-23.8s6.3,1,13.3,4.5c7,3.5,14.6,9.2,18.3,19.5    c0.6,6.7,0.6,10.9,0.6,10.9C86,208.2,75.2,209.2,64.6,197.3z"/>
		<path class="st1" d="M85.8,197c0,0.1,0,0.2,0.1,0.2v0.1v0.1c0.5,6.2,0.6,10.3,0.6,10.9c0,0.1,0,0,0,0.1c0,0,0,0,0,0l0,0l0,0    c0,0.1,0,0.1,0,0.2l-0.6-0.2l-0.1,0.5l0.1-0.4l0,0.4c0,0,0,0,0,0l0,0v-0.3l0.1-0.2l0,0l-0.1,0.2V197z M70.1,179    c6.2,3.6,12.4,9.1,15.7,18v11.7l-0.1,0.2l0.1-0.2v0.3c0,0-0.1,0-0.1,0c0,0,0,0-0.1,0c-1.5,0-8.1-0.2-15.5-5.8v-1.6    c7,5.5,13.3,6,15.2,6.1c0-1.4-0.2-5.1-0.6-10.1c-3-8.4-8.8-13.7-14.6-17.2V179z M64.2,197.6l0.5-0.4l0.6-0.2l-0.6,0.2L64.2,197.6    L64.2,197.6l-0.1-0.2c-1.5-5.2-4.2-11.1-6.6-15.7c-2.3-4.6-4.3-8-4.3-8l-0.7-1.1l1.3,0.2c0,0,6.3,1.1,13.5,4.6    c0.9,0.5,1.9,1,2.9,1.6v1.4c-1.2-0.7-2.3-1.3-3.4-1.8c-3.5-1.7-6.8-2.9-9.2-3.5c-1.1-0.3-2-0.5-2.6-0.7c1.9,3.5,7.7,14,10.3,22.7    c1.7,1.8,3.4,3.4,5,4.6v1.6C68.2,201.7,66.1,199.9,64.2,197.6z"/>
	</g>
	<g>
		<path class="st0" d="M88.9,202.1c-5.1-9.2-6.4-25.6-6.4-25.6s-4.9,3.8-8.6,10.5c-3.7,6.7-5.9,16.6-0.1,27.1c5,5.3,8.6,7.9,8.6,7.9    C82.5,221.9,89.6,212.7,88.9,202.1z"/>
		<path class="st1" d="M83.1,176.2v0.2c0,0.1,0.3,4.1,1.3,9.3c1,5.2,2.6,11.6,5.1,16l-0.6,0.3l-0.6,0l0.6,0l0.6-0.3l0,0.1v0.1    c0,0.6,0.1,1.1,0.1,1.7c0,9.5-5.7,17.4-6.5,18.5v-0.1c0,0,0-0.1,0-0.1s0,0,0,0.1V220c1.8-2.9,5.2-9.2,5.2-16.4c0-0.5,0-1,0-1.4    c-2.6-4.9-4.2-11.5-5.2-16.9V176.2z M82,222.4C82,222.4,82,222.4,82,222.4c-0.1-0.1-0.3-0.2-0.5-0.4c-0.5-0.3-1.1-0.8-1.8-1.5    c-1.6-1.3-3.7-3.3-6.3-6l0-0.1l0,0c-2.6-4.7-3.6-9.4-3.6-13.7c0-5.4,1.6-10.3,3.7-14c3.7-6.9,8.7-10.7,8.7-10.7l0.9-0.7l0.1,0.9    v9.2c-0.6-3.4-0.9-6.2-1.1-7.7c-0.5,0.5-1.1,1.1-2,1.9c-1.7,1.8-3.8,4.4-5.6,7.7c-2,3.6-3.5,8.3-3.5,13.4c0,4.1,1,8.5,3.4,13.1    c3.9,4,6.9,6.5,8,7.4c0.2-0.3,0.5-0.6,0.7-1.1v2.1c0,0,0,0,0,0c0,0,0,0,0,0v0.1c0,0.1-0.1,0.1-0.1,0.1l-0.6,0.9L82,222.4z"/>
	</g>
	<g>
		<path class="st0" d="M76.2,221.5c-4-10.2-13.7-22.6-13.7-22.6s6.4,0.4,13.7,3.1c7.4,2.8,15.6,7.5,20.6,17.2c1.3,6.5,2,10.7,2,10.7    C98.9,229.8,88.3,232.2,76.2,221.5z"/>
		<path class="st1" d="M98.2,230.5c0,0-0.1,0-0.2,0c-0.5,0-1.1,0.1-1.9,0.1c-3.2,0-8.8-0.7-15.2-4.7v-1.1c6.5,4.3,12.1,4.6,15.2,4.6    c0.8,0,1.4,0,1.8-0.1c0,0,0.1,0,0.1,0c0-0.1,0-0.1,0-0.2c-0.1-0.5-0.2-1.2-0.4-2.2c-0.4-1.8-0.9-4.4-1.5-7.6    c-3.8-7.3-9.5-11.7-15.2-14.6v-1.4c6.1,3,12.3,7.7,16.3,15.5l0,0l0,0.1c1,4.8,1.6,8.3,1.9,9.8c0.1,0.5,0.1,0.7,0.1,0.9l0,0l0,0    c0,0,0,0,0,0.1l0,0l0,0c0,0.1,0,0.3-0.1,0.3l-0.9,1.8L98.2,230.5z M80.9,225.9c-1.7-1.1-3.4-2.3-5.2-3.9l0.4-0.5l0.6-0.2l-0.6,0.2    l-0.4,0.5l-0.1-0.1l0-0.1c-2-5-5.4-10.7-8.3-15c-2.9-4.4-5.3-7.5-5.3-7.5l-0.8-1.1l1.3,0.1c0,0,6.5,0.4,13.9,3.2    c1.5,0.5,3,1.2,4.6,1.9v1.4c-1.7-0.8-3.4-1.6-5-2.2c-3.6-1.3-7-2.1-9.5-2.6c-1.1-0.2-2-0.3-2.7-0.4c2.4,3.3,9.2,12.5,12.6,20.9    l0.5,1.2c1.4,1.2,2.7,2.2,4,3.1V225.9z"/>
	</g>
	<path class="st1" d="M99.2,229.4c-3-3.5-6.2-6.8-9.5-10c0.1-2.8-0.2-5.4-0.9-8c0.5,2.4,0.6,5,0.4,7.4c-5.9-5.7-12.3-10.9-19.1-15.5   l0,0l0,0l-0.1,0.2c3,2.2,5.9,4.5,8.7,6.9c-2-0.9-3.8-1.3-5.7-1.4v0.2c2.4,0.3,5.3,1.4,8,3.1c2.2,2,4.4,4,6.5,6.1   c-3.7-1.2-3.1-0.7,0.6,0.8l0.1-0.2c3.4,3.5,6.8,7.3,9.9,11.1l0,0.1l0.1-0.1l1-0.7L99.2,229.4L99.2,229.4z"/>
	<g>
		<path class="st0" d="M99.3,221.7c-7.1-11.7-11.7-21.8-11.7-21.8s-0.7,1.3-3.8,8.3c-3.1,6.9-4.7,17,2.1,27c5.5,4.8,9.4,7.1,9.4,7.1    C95.3,242.3,100.9,232.2,99.3,221.7z"/>
		<path class="st1" d="M95.8,214.5c1.2,2.2,2.6,4.6,4,7l-0.5,0.3l-0.6,0.1l0.6-0.1l0.5-0.3l0.1,0.1v0.1c0.2,1.4,0.3,2.7,0.3,4    c0,8.7-4,16.2-4.4,17c0-0.1,0-0.2,0-0.3c0,0.1,0,0.2,0,0.3l0,0v-2.8c0.3-0.7,0.7-1.7,1.1-2.8c1.1-3,2.1-7.1,2.1-11.5    c0-1.2-0.1-2.4-0.3-3.7c-1-1.7-2-3.4-2.9-5V214.5L95.8,214.5z M95.8,242.6L95.8,242.6L95.8,242.6L95.8,242.6L95.8,242.6z     M94.8,242.8L94.8,242.8c-0.1-0.1-0.3-0.2-0.6-0.4c-0.5-0.3-1.1-0.7-2-1.3c-0.6-0.4-1.2-0.9-1.9-1.4v-1.5c2.2,1.7,3.9,2.8,4.7,3.3    c0.1-0.2,0.2-0.5,0.4-0.8c0.1-0.2,0.3-0.5,0.4-0.8v2.8c0,0,0,0,0,0c0,0,0,0.1-0.1,0.1c0,0,0.1,0,0.1-0.1l0,0l-0.5,0.9L94.8,242.8    L94.8,242.8z M90.3,204.2c0.3,0.6,0.6,1.2,1,2c1.2,2.3,2.7,5.1,4.5,8.3v2.5c-2.2-3.8-4-7.3-5.5-10V204.2L90.3,204.2z M95.8,242.6    C95.7,242.7,95.7,242.7,95.8,242.6L95.8,242.6C95.7,242.7,95.7,242.7,95.8,242.6L95.8,242.6z M90.3,239.7c-1.4-1-3-2.3-4.9-4l0,0    l0-0.1c-3.6-5.3-4.9-10.6-4.9-15.5c0-4.6,1.2-8.8,2.7-12.1c3.1-6.9,3.8-8.3,3.8-8.3l0.6-1.1l0.5,1.1c0,0,0.8,1.7,2.2,4.6v2.7    c-1.3-2.5-2.2-4.5-2.8-5.6c0,0.1-0.1,0.3-0.2,0.4c-0.6,1.2-1.5,3.3-3.1,6.7c-1.5,3.3-2.6,7.3-2.6,11.7c0,4.6,1.2,9.7,4.6,14.7    c1.5,1.3,2.8,2.4,4,3.3V239.7z"/>
	</g>
	<path class="st2" d="M99.1,223.3c0,0-11.3-8.3-18.1-9.8c-6.8-1.5-11.5-1.7-15.1-5.6c-3.6-3.9-3.3-8.1-7.4-15.6   c-4.1-7.5-1.7-11-1.7-11s4.6,5.1,13.6,9c8.9,3.8,17.5,5.6,20.1,11.5C93,207.4,99.1,223.3,99.1,223.3z"/>
	<path class="st1" d="M98.7,223.7c0,0-2.8-2-6.4-4.3c-3.7-2.3-8.2-4.7-11.4-5.4c-1.3-0.3-2.5-0.5-3.7-0.7v-1.3   c1.2,0.2,2.5,0.5,3.9,0.8c5.4,1.2,13.3,6.4,16.7,8.7c-0.6-1.6-1.6-4-2.6-6.8c-1.8-4.6-4-10-5.2-12.7c-1.7-4-6.7-6.2-12.7-8.5v-1.3   c6.3,2.4,11.7,4.6,13.8,9.3c2.5,5.6,8.6,21.4,8.6,21.4l-0.6,0.2l0.3-0.5l-0.3,0.5l0.6-0.2l0.7,1.9L98.7,223.7z M77.2,213.3   c-4.9-1-8.6-1.7-11.7-5c-3.9-4.1-3.4-8.3-7.5-15.7c-2-3.6-2.5-6.3-2.5-8.2c0-2.2,0.7-3.3,0.8-3.4l0.4-0.6l0.6,0.6   c0,0,0.2,0.3,0.8,0.8c0.5,0.5,1.4,1.3,2.5,2.2c2.3,1.7,5.6,4,10,5.8c2.3,1,4.5,1.8,6.6,2.6v1.3c-2.3-0.9-4.6-1.7-7.1-2.8   c-7.2-3-11.6-6.9-13.2-8.5c-0.1,0.5-0.3,1.1-0.3,2c0,1.7,0.5,4.2,2.4,7.6c4.2,7.7,3.8,11.9,7.3,15.5c2.7,2.9,6.1,3.6,10.9,4.6   V213.3z"/>
	<g>
		<path class="st0" d="M89.1,243.1c-6.2-8.7-16.6-21.1-16.6-21.1s6.4-0.3,14,1.6c7.7,1.9,16.4,5.7,22.6,14.4    c2.3,6.2,3.6,10.2,3.6,10.2C112.8,248.2,102.7,252.3,89.1,243.1z"/>
		<path class="st1" d="M113.3,248.2L113.3,248.2L113.3,248.2L113.3,248.2L113.3,248.2L113.3,248.2c0,0.1,0,0.1,0,0.2V248.2    L113.3,248.2z M113.3,248.4c0,0,0-0.1,0-0.1C113.3,248.3,113.3,248.4,113.3,248.4L113.3,248.4z M113.2,247.9c0,0.1,0,0.1,0,0.2    v0.1c0,0,0,0,0,0v0.2c0,0,0,0,0,0.1c0,0,0-0.1,0-0.1c0,0,0,0.1,0,0.1h0v0.1l0,0v0v0V247.9L113.2,247.9z M113.3,248.4L113.3,248.4    L113.3,248.4L113.3,248.4z M113.2,247.8c0,0,0,0.1,0,0.1v0.7l0,0l0,0l0,0l0,0.1v0c0,0,0,0,0,0c0,0,0,0,0,0V247.8z M92.9,225    c6,2.3,12.1,6.1,16.7,12.7l0,0l0,0.1c1.8,5.2,3.1,8.7,3.5,9.9v0.9c-0.1,0-0.1,0-0.1,0l0,0c0,0,0.1,0,0.1,0v0l-0.5,0.9l-0.3-0.6    c-0.3,0.1-0.7,0.2-1.2,0.3c-1.1,0.2-2.5,0.4-4.4,0.4c-3.5,0-8.3-0.7-13.9-3.6v-1.4c5.6,3,10.4,3.8,13.9,3.8c2.5,0,4.3-0.4,5.2-0.6    c0,0,0-0.1,0-0.1c-0.2-0.5-0.4-1.2-0.7-2c-0.6-1.8-1.5-4.3-2.6-7.3c-4.5-6.2-10.1-9.8-15.7-12.1V225z M88.8,243.6l0.3-0.5l0.5-0.3    l-0.5,0.3L88.8,243.6L88.8,243.6l-0.2-0.1c-3.1-4.3-7.2-9.6-10.6-13.8c-3.4-4.2-5.9-7.3-5.9-7.3l-0.8-1l1.2,0c0,0,0.3,0,0.9,0    c2,0,7.3,0.1,13.3,1.6c2,0.5,4.1,1.1,6.2,1.9v1.3c-2.2-0.8-4.4-1.5-6.5-2c-5.5-1.4-10.4-1.6-12.6-1.6c2.6,3.1,10.5,12.8,15.7,20    c1.2,0.7,2.3,1.4,3.4,2v1.4C91.5,245.4,90.1,244.6,88.8,243.6z"/>
	</g>
	<path class="st0" d="M98.1,214.4c-0.4,0.7-1,1.6-1.7,2.8c-1.3,2.4-2.8,5.7-3.8,9.3c-0.6,2.2-0.9,4.6-0.9,7.2   c0,5.9,1.9,12.5,7.7,18.4c4.6,2.8,8.1,4.2,9.7,4.8c0.1,0,0.2,0.1,0.3,0.1c0.1-0.1,0.1-0.2,0.2-0.4c0.2-0.6,0.5-1.4,0.8-2.4   c0.6-2,1.2-4.8,1.2-7.9c0-2.3-0.4-4.9-1.3-7.3c-1.7-4.5-3.9-7-6.1-10.4C102.1,225.5,99.9,221.5,98.1,214.4z"/>
	<path class="st1" d="M110.7,239.2c-0.1-0.3-0.3-0.6-0.4-0.9v3.2c0.6,1.7,1.2,3.1,1.2,4.8c0,3.1-0.6,5.9-1.2,7.9c0,0,0,0,0,0.1v3.5   v0v0v0.1c0.3-0.7,2.4-5.6,2.4-11.6C112.7,243.9,111.7,241.8,110.7,239.2z M110.3,238.3c-1.7-4.1-3.6-6.1-5.7-9.2   c-1.1-1.7-2.1-4-3.1-6.8v3.4c0.6,1.6,1.3,3,2.1,4.1c2.3,3.4,4.1,5.3,5.9,9.8c0.3,0.7,0.5,1.3,0.8,1.9V238.3L110.3,238.3z    M101.6,254.8c2,1.1,3.6,1.8,4.9,2.4c1,0.4,3.8,0.8,3.8,0.8l0,0v-0.1l0,0l0,0l0,0v-3.5c-0.3,1-0.6,1.7-0.8,2.3   c-0.1,0.1-0.1,0.3-0.2,0.4c-0.1,0-0.2,0-0.3-0.1c-1.3-0.5-4-1.6-7.5-3.5V254.8z M101.6,222.3c-0.9-2.7-1.7-5.8-2.7-9.6l-0.3-1.3   l-0.8,1.1c0,0-4.4,6.1-6.4,13.6c-0.6,2.3-1,4.8-1,7.5c0,6.2,2,13.2,8.1,19.3l0.1,0l0,0c1,0.6,2,1.2,2.8,1.7v-1.4   c-0.7-0.4-1.4-0.8-2.2-1.3c-5.8-5.9-7.7-12.5-7.7-18.4c0-2.6,0.4-5.1,0.9-7.2c1-3.6,2.5-6.9,3.8-9.3c0.6-1.2,1.2-2.1,1.7-2.8   c1.2,4.6,2.3,8.4,3.5,11.3V222.3z"/>
	<g>
		<path class="st0" d="M102.5,260.2c-6-8.2-18.6-18.8-18.6-18.8s7.5-2.3,15.1-0.8c7.7,1.6,16.1,5.1,22.9,13.5c2.7,6.1,4.5,10,4.4,10    C126.6,264.2,116.8,268.9,102.5,260.2z"/>
		<path class="st1" d="M127,264.1c0,0,0,0.1,0,0.1s0,0.1,0,0.2v0c0,0,0,0,0-0.1c0,0,0,0.1,0,0.1V264.1z M126.8,263.7    c0,0.1,0.1,0.2,0.1,0.3c0,0,0,0,0,0.1v0.3c0,0,0,0,0,0.1c0,0,0,0,0-0.1v0c0,0.1-0.1,0.2-0.1,0.2l0,0c0,0,0,0,0,0s0,0,0,0V263.7z     M126.6,263.1c0.1,0.3,0.2,0.5,0.3,0.6v0.9c0,0,0,0,0,0c0,0,0,0,0,0s0,0,0,0l0,0c0,0,0,0,0,0l-0.3,0.3v-0.1l0,0l0,0V263.1z     M105.4,241.8c6,2.1,12,5.8,17.1,12l0,0.1l0,0c1.9,4.4,3.4,7.6,4,9.2v1.7l0,0l0,0l0,0v0.1l-0.4,0.4L126,265    c-0.3,0.1-0.8,0.3-1.4,0.4c-1.2,0.3-3,0.6-5.3,0.6c-3.6,0-8.4-0.7-13.9-3.5v-1.4c4.3,2,10.8,3.7,13.9,3.7c3.2,0,5.3-0.6,6.3-0.9    c0-0.1,0-0.1-0.1-0.2c-0.2-0.5-0.5-1.1-0.9-2c-0.8-1.7-1.9-4.2-3.2-7.2c-4.8-5.9-10.4-9.4-16.1-11.4V241.8z M102.1,260.8l0.3-0.6    l0.5-0.3l-0.5,0.3L102.1,260.8L102.1,260.8l-0.2-0.2c-2.9-4.1-7.6-8.7-11.4-12.4c-3.9-3.7-7-6.3-7-6.3l-0.9-0.7l1.1-0.3    c0,0,4.3-1.3,9.7-1.3c1.8,0,3.8,0.1,5.8,0.5c2,0.4,4.1,1,6.2,1.7v1.3c-2.2-0.8-4.3-1.4-6.5-1.8c-1.8-0.4-3.7-0.5-5.5-0.5    c-2.6,0-4.9,0.3-6.6,0.6c-0.6,0.1-1.2,0.2-1.6,0.3c2.9,2.6,14.1,14.9,17.2,17.6c0.7,0.6,1.7,1.2,2.9,1.8v1.4    C104.4,262,103.2,261.4,102.1,260.8z"/>
	</g>
	<path class="st2" d="M189.9,263.5c-5.8,1.5-22.4-5.4-40.5-5.4c-19.7,0-37.9,8.4-42,4.9c-0.8-0.7-0.3-0.3,0.7,0.7   c1.9,1.9,6.2,5.9,10.5,9.6c3.8,3.3,7.7,6,9.4,7.2c0.7,0.3,1.5,0.5,1.5,0.5s8.3-3,19.8-3c11.5,0,19.8,3,19.8,3s0.8-0.1,1.6-0.5   c1.7-1.2,5.6-3.9,9.4-7.2c4.3-3.7,8.6-7.6,10.5-9.6C191.7,262.7,190.4,263.3,189.9,263.5z"/>
	<path class="st1" d="M189.9,262.8c0.2-0.1,0.6-0.3,1-0.3c0.1,0,0.2,0,0.4,0.1c0.2,0.1,0.4,0.4,0.3,0.6c0,0.3-0.1,0.4-0.2,0.6   c-0.1,0.1-0.2,0.2-0.4,0.4c-0.3,0.3-0.7,0.7-1.2,1.2v-1.8v0.1l0,0v-0.1V262.8z M169,281.5c0,0-2-0.7-5.5-1.4   c-3.4-0.7-8.3-1.5-14-1.5v-1.2c10.6,0,18.4,2.5,19.7,2.9c0.3,0,0.8-0.2,1.2-0.4c1.7-1.2,5.6-3.9,9.3-7.1c3.7-3.2,7.5-6.6,9.6-8.7   c-0.5,0.1-1,0.1-1.6,0.1c-7.3,0-22.2-5.6-38.3-5.6v-1.2c16.3,0,31.5,5.6,38.3,5.6c0.7,0,1.4,0,1.9-0.2l0,0c0,0,0.1,0,0.2,0v0.7   l0-0.1l0,0.1v1.8c-2.3,2.1-5.8,5.3-9.3,8.4c-3.9,3.3-7.7,6-9.5,7.2l0,0.1H171c-0.8,0.3-1.7,0.5-1.7,0.5l-0.2,0L169,281.5z    M149.6,278.6c0,0-0.1,0-0.1,0c-8.6,0-15.4,1.7-18.2,2.5c-1,0.3-1.4,0.4-1.4,0.4l-0.2,0.1l-0.1,0c0,0-0.9-0.2-1.7-0.5l0-0.1h0   c-1.7-1.2-5.6-3.9-9.5-7.2c-4.3-3.7-8.6-7.6-10.6-9.6c-0.5-0.5-0.8-0.8-1-1c-0.1-0.1,0,0-0.2-0.2c0,0,0,0,0-0.1c0-0.1,0-0.1,0-0.2   c0-0.2,0-0.3,0.2-0.5c0.1-0.1,0.3-0.2,0.4-0.2c0,0,0,0,0,0s0,0,0,0c0,0,0,0,0.1,0c0,0,0,0,0,0c0,0,0.1,0,0.1,0.1c0,0,0,0,0,0   c0,0,0,0.1,0.1,0.1c0.1,0.1,0.2,0.1,0.3,0.3c0.5,0.5,1.5,0.7,2.9,0.7c6.8,0,22.3-5.8,38.7-5.8c0,0,0.1,0,0.1,0v1.2c0,0-0.1,0-0.1,0   c-16.2,0-31.4,5.7-38.7,5.7c-0.4,0-0.7,0-1.1,0c2.2,2.1,5.8,5.4,9.4,8.5c3.8,3.2,7.6,5.9,9.3,7.1c0.5,0.2,1,0.3,1.2,0.4   c1.2-0.4,9.2-2.9,19.9-2.9c0,0,0.1,0,0.1,0V278.6z"/>
	<polygon class="st0" points="140,263.2 141.8,274.3 140,274.6 138.5,264.9 136.5,265.2 138.1,274.9 136.3,275.1 134.5,264  "/>
	<path class="st0" d="M151.1,264.2c1.7,0.1,2.5,0.8,2.5,2.2v3.4c0,1.6-0.9,2.2-2.5,2.3v-1.4c0.4,0,0.7-0.2,0.7-0.5v-3.7   c0-0.6-0.2-0.9-0.7-1V264.2z M150.4,262.6v1.6c0.2,0,0.5,0,0.6,0v1.4c-0.2-0.1-0.4-0.1-0.6-0.1v5.3c0.2,0,0.5,0,0.6-0.1v1.4   c-0.2,0-0.4,0-0.6,0v1.7h-1.8v-1.7c-0.2,0-0.5,0-0.7,0v-1.4c0.2,0.1,0.4,0.1,0.7,0.1v-5.3c-0.3,0-0.5,0-0.7,0v-1.3   c0.2,0,0.5,0,0.7,0v-1.6H150.4z M148,272.2c-1.6-0.1-2.5-0.7-2.5-2.3v-3.4c0-1.3,0.8-2,2.5-2.2v1.3c-0.4,0.1-0.6,0.4-0.6,1.1v3.7   c0,0.2,0.2,0.4,0.6,0.5V272.2z"/>
	<polygon class="st0" points="159.9,268.4 160,268.4 162.9,263.6 164.6,263.9 161.7,268.7 162.9,275 161.1,274.8 159.9,268.8    159.9,268.8 159,274.5 157.2,274.3 158.9,263.1 160.6,263.4  "/>
	<path class="st0" d="M137.1,40.4c-2.8,0.3-30.5,3.4-30.5,3.4s20.7,18.3,22.9,20.1c-0.6,2.8-6.5,30.2-6.5,30.2s24.1-14.2,26.5-15.7   C152,79.9,176,94.1,176,94.1s-5.8-27.4-6.4-30.2c2.2-1.9,22.8-20.1,22.8-20.1s-27.6-3.1-30.4-3.4c-1.2-2.6-12.4-28.4-12.4-28.4   S138.2,37.7,137.1,40.4z"/>
	<path class="st1" d="M121.4,98.3l-8.2,6.4l-1.6-4.9l-33,7.9l-18.9,63l18.6,9.4l10.3-2.2l5.8,7l20.5-1.7c0,0,0.7-8.1,1.1-12.7   c1.8,1.5,4.3,3.6,4.3,3.6l21-1c0,0,5.1-4.6,7-7.1c0,1.3,0.1,6.9,0.1,6.9l23.2,0.7c0,0,0.6-4.5,0.8-6.3c1.4,2.6,3.4,6.4,3.4,6.4   s27,2.9,30.4,3.4c3.4,0.5,18.1,3.1,18.1,3.1l16.2-9.3l-20.1-62.4l-22.7-6.7l-5.2,4.1l1.9-5l-19.5-3.4c0,0-2.7,6.8-4.5,11.4   c-0.3-4.6-0.8-11.6-0.8-11.6l-20.6-1c0,0,0,5.6,0,7.3c-3.4-2.6-9.2-7.1-9.2-7.1L121.4,98.3z"/>
	<path class="st0" d="M211.2,163.9c1.2,0.2,2.4,0.4,3.6,0.6l2.4,0.4c0,0-1.8-8.5-2.5-11.6c2,0.3,3.9,0.6,5,0.7   c0.6,1.9,3.1,11.5,3.1,11.5l1,0.2l13.9,3.2l-18.6-58.9l-7.9-2.3v13.7c1.3,4.9,4,14.5,5,17.9c-2.1-0.4-3.9-0.7-5-0.9V163.9z    M151.8,159.7h1.6c5.5,0,11,0.2,16.4,0.4l1.9,0.1c0,0-0.9-15.4-1.4-23.6c4.4,7.7,14,24.4,14,24.4l0.8,0c9,0.7,17.7,1.7,26.1,2.9   v-25.6c-0.1,0-0.1,0-0.1,0c-0.5-1.9-3.9-16.4-4.9-21c1.9,0.6,3.4,1,4.2,1.2c0.1,0.3,0.4,1.3,0.8,2.8v-13.7l-12.9-3.7l-8,6.4   c0,0,5.5,29.8,7.4,40.3c-4.8-7.7-13.8-22.4-14.6-23.6c0.6-1.7,8.3-24.6,8.3-24.6l-15.4-2.7c0,0-4.7,11.5-7.5,18.3   c-0.5-7.2-1.3-18.9-1.3-18.9l-16.4-0.7L151.8,159.7L151.8,159.7z M121.8,100.1l-11.2,9.3c0,0-5.5,35-5.9,37.8   c-0.8,0-1.3,0.1-2.5,0.2c0.8-4.4,7.8-45.3,7.8-45.3l-14.2,3.2l-10.3,44.5l-4.6,0.7l10.9-44.1l-12.1,2.7L62,168.4   c0,0,24.6-4.3,26.6-4.6c-0.4,2.9-1.4,10.4-1.4,10.4l16.8-1.7l0.2-1.5c0,0,1.6-12.3,2.2-16.8c2.7,2.3,7.9,6.8,7.9,6.8l0.6,0   c7.3-0.5,13.8-1.2,21.3-1.4l0.5,0l12.3-9.9l0.1-20.2l-1.7,0l-14.7,0.6c0,0-0.9,12.5-1.1,15.2c-1.8,0.1-6.6,0.5-8.9,0.6   c0.4-3.8,3.2-31,3.4-33.8c1.7-0.1,4.7-0.4,6.6-0.5c0,2.6-0.1,10.4-0.1,10.4l16.4-0.2l0-15.2L139,98.7L121.8,100.1z"/>
	<path class="st4" d="M211.2,162.1c1.3,0.2,2.6,0.4,3.8,0.6c-0.2-0.8-2.5-11.6-2.5-11.6l8.5,1.2c0,0,3.1,11.3,3.2,11.6   c0.3,0.1,10.1,2.3,10.9,2.5c-0.3-1-17.2-55.1-17.2-55.1l-6.7-1.8v7.5l0.5,0.1l6.9,24.5l-7.4-1.2V162.1z M153.5,157.8   c5.5,0,11,0.2,16.4,0.4c0-0.6-1.7-28.8-1.7-28.8s16.9,29.5,17.1,29.7c9,0.7,17.7,1.7,26,2.9v-21.8l-1.4-0.2l-5.9-25.3l7.4,2.2v-7.5   l-12.5-3.5c0,0-6.2,5-6.4,5.2c0,0.4,8.5,46.7,8.5,46.7l-0.5,0.2l-19-30.8l7.9-23.4l-12.1-2.2l-9.7,23.7c0,0-1.7-24-1.7-24.5   c-4.3-0.3-8.7-0.5-13.2-0.5C152.6,101.1,153.4,157.2,153.5,157.8L153.5,157.8z M122,102c-0.1,0.1-9.8,8.4-9.9,8.6   c-0.1,0.2-6.1,38.5-6.1,38.5l-5.9,0.4l7.6-44.9l-10.6,2.2L87,151.5l-8.4,1.2l11.1-44.3l-9,1.9l-16.4,55.8l26.3-4.5   c0,0-1.3,9.8-1.5,10.5c0.6,0,13-1.3,13.4-1.4c0-0.5,2.6-20,2.6-20s9.5,8.1,9.7,8.3c7.3-0.6,13.8-1.3,21.3-1.5   c0.1-0.1,11-8.8,11.2-9c0-0.3,0.1-16.7,0.1-17.3c-0.6,0-12.7,0.6-13.2,0.6c0,0.6-1.1,15.1-1.1,15.1l-12.4,0.8l3.9-37.6l9.8-0.6   c0,0-0.1,9.8-0.1,10.4c0.5,0,12.5-0.1,13-0.2c0-0.6,0.1-12,0.1-12.3c-0.2-0.2-8.9-6.9-9.1-7C132.8,100.9,127.7,101.3,122,102z"/>
	<polygon class="st2" points="185.9,45.8 160,42.9 149.5,18.9 139,42.9 113.2,45.8 132.5,62.9 127.1,88.5 149.5,75.3 172,88.5    166.5,62.9  "/>
	<polygon class="st0" points="150.8,58 170.7,51.1 170.6,50.8 150.3,56.6 150.3,56.6 149.7,35.5 149.3,35.5 148.7,56.6 128.5,50.6    128.4,50.9 148.3,58 148.3,58 136.3,75.4 136.5,75.6 149.5,58.9 149.5,58.9 162.3,75.7 162.6,75.5 150.8,58  "/>
	<path class="st2" d="M199.3,223.2c0,0,6.6-5.8,18.2-8.4c6.8-1.5,11.1-3,14.7-6.9c3.6-3.9,3.7-7.9,7.5-15.6   c3.7-7.7,1.7-10.9,1.7-10.9s-4.7,5.1-13.7,9c-8.9,3.8-16.3,4.9-19,10.4C206.1,206.2,199.3,223.2,199.3,223.2z"/>
	<path class="st1" d="M221,192.2c2.1-0.7,4.3-1.5,6.5-2.5c6.6-2.8,10.9-6.4,12.6-8c0.6-0.6,0.8-0.8,0.8-0.8l0.5-0.6l0.5,0.7   c0,0,0.6,1.1,0.6,3.1c0,1.9-0.5,4.6-2.3,8.4c-3.7,7.6-3.8,11.7-7.5,15.8c-3.1,3.3-6.7,4.9-11.7,6.3v-1.2c4.7-1.3,7.9-2.8,10.8-5.8   c3.5-3.6,3.6-7.6,7.4-15.5c1.7-3.6,2.2-6.2,2.2-7.9c0-0.7-0.1-1.3-0.2-1.7c-1.6,1.6-6,5.4-13.2,8.4c-2.5,1.1-4.8,1.9-7,2.7V192.2z    M199.3,223.2l0.4,0.5l-1-0.7c0,0,6.9-17,9.6-22.5c2.2-4.4,6.9-6.1,12.7-8.2v1.3c-5.7,2.1-9.9,3.8-11.7,7.4   c-1.3,2.7-3.7,8.4-5.7,13.3c-1.2,2.8-2.2,5.4-2.9,7.1c2.7-1.9,8.5-5.3,16.7-7.2c1.3-0.3,2.5-0.6,3.6-0.9v1.2   c-1.1,0.3-2.2,0.5-3.4,0.8c-8.6,1.9-14.4,5.6-16.8,7.3c-0.8,0.6-1.2,0.9-1.2,0.9L199.3,223.2z"/>
	<path class="st0" d="M68.9,196.2c1,0,1.6-0.2,1.3-1.2l1.5,0.2l2.8,11.4l-1.8-0.3l-2.2-8.7l-1.3-0.2L68.9,196.2z"/>
	<path class="st0" d="M80,198c1.1,0.4,1.7,1.1,2,2.2l1.8,7.2c0.1,0.2,0.1,0.5,0.1,0.7v0.1c0,0.8-0.6,1.3-1.9,1.1   c-0.9-0.1-1.5-0.4-2-0.8v-1.9l0.7,0.1l0.1,0.4c0.1,0.5,0.3,0.9,0.9,1c0.6,0.1,0.6-0.3,0.5-0.8l-0.6-2.3c-0.2,0.3-0.3,0.5-1.2,0.4   c-0.1,0-0.3,0-0.4-0.1v-1.7c0.2,0.2,0.4,0.3,0.7,0.4c0.6,0,0.6-0.4,0.5-0.8l-0.8-3.2c0-0.2-0.1-0.5-0.3-0.7V198z M77.3,199.7   c-0.3-1.2-0.2-2.2,1.8-1.9c0.4,0,0.6,0.1,0.9,0.2v1.4c-0.1-0.2-0.4-0.3-0.6-0.3c-0.6-0.1-0.6,0.4-0.4,0.8l0.8,3.2   c0.1,0.2,0.1,0.5,0.3,0.6v1.7c-0.7-0.2-1.5-0.7-1.8-2L77.3,199.7L77.3,199.7z M80,208.5c-0.5-0.5-0.8-1.1-1-1.8l0-0.2l1,0.1V208.5z   "/>
	<path class="st0" d="M225.7,197c1.1-0.4,1.9-0.9,2.2-1.9l1.6-0.4l-3.3,11.1l-1.9,0.5l2.5-8.5l-1.4,0.4L225.7,197z"/>
	<path class="st0" d="M218,200c1.1-0.4,1.9-0.9,2.2-1.9l1.6-0.4l-3.3,11.1l-1.9,0.5l2.5-8.5l-1.4,0.4L218,200z"/>
	<polygon class="st1" points="149.5,198.2 150.2,198.2 150,183.9 149.5,183.9 149,183.9 148.8,198.2 149.5,198.2 149.5,198.2  "/>
	<path class="st1" d="M113,255c-0.1-3.7-1.2-6.1-1.2-6.1h-0.1c0,0,0.3,0.9,0.5,2c0,0,0.3,1.8,0.3,3.6c-2.4-1.7-4.9-3.3-7.3-4.6l0,0   h0c-6.9-4-12.9-6.4-12.9-6.4l0,0.1c0,0,4.8,2.2,10.6,5.6c0.2,0.1,0.5,0.3,0.8,0.5c-2.5-0.4-5.4,0.1-5.4,0.1l0,0.1   c0,0,4.1-0.1,6.7,0.7c3.5,2.1,7.3,4.6,10.5,7.4c-4.2-0.5-9.1,0.3-9.1,0.3l0,0.1c0,0,5.5-0.6,10,0.4c1.3,1.2,2.6,2.3,3.7,3.6   l0.7-0.6C118.5,259.3,115.9,257.1,113,255z"/>
	<path class="st1" d="M189.1,255.9c5.9-6,10.1-11.8,10.1-11.8l-0.1,0c0,0-2.8,3.4-6.9,7.6c0.6-2.3,0.7-4.9,0.7-4.9h-0.1   c0,0-0.5,3.2-1.4,5.7c-0.1,0.1-0.2,0.3-0.4,0.4c-1.6,1.7-3.4,3.4-5.2,5.1c0.8-4.5,0.1-9.3,0.1-9.3h-0.1c0,0,0.3,5.5-0.8,9.9   c-1.4,1.3-2.9,2.6-4.5,3.7v0c0.3,0.2,0.6,0.5,0.8,0.5c2.5-2,4.9-4.2,7.1-6.4c4.4,0.2,9.3-0.5,9.3-0.5l0-0.1   C197.9,255.9,193,256.2,189.1,255.9L189.1,255.9z M180.7,262.8v-0.1C180.7,262.7,180.7,262.7,180.7,262.8L180.7,262.8z    M180.7,262.4C180.7,262.4,180.7,262.4,180.7,262.4L180.7,262.4L180.7,262.4L180.7,262.4z M180.7,262.6v0.1h-0.6   c-0.1-2.4-1.2-5.4-1.2-5.4l0.1-0.1C179,257.3,180.2,260,180.7,262.6z"/>
	<path class="st1" d="M240.6,150.6L240.6,150.6c-0.1-0.1-2,2.5-2.9,4.1c-0.5-6.6-1.6-11.6-1.6-11.7l-0.1,0c0,0,0.9,5.3,1.1,12.1   c0,1.3,0.1,2.6,0.1,3.9c0.2,0,0.5-0.1,0.7-0.1c0-1.2-0.1-2.4-0.2-3.5C238.3,154.2,240.6,150.6,240.6,150.6z"/>
	<path class="st1" d="M243.8,138.4c1.4-4,2.5-6.8,2.5-6.8l-0.1,0c0,0-1.1,2.3-2.4,5.7V138.4L243.8,138.4z M243.8,145v-0.4   c2.1-0.9,4-2,3.9-2l0.1,0C247.7,142.7,246,143.9,243.8,145z M241.6,145.2c0.2-0.7,0.4-1.5,0.6-2.2c0.5-1.7,1-3.2,1.5-4.6v-1.1   c-0.3,0.7-0.6,1.6-0.9,2.4c-0.6-1.7-1.6-3.2-1.6-3.2h-0.1c0,0,1,2,1.5,3.9c-0.6,1.5-1.1,3.1-1.6,4.8   C241.2,145.2,241.4,145.2,241.6,145.2L241.6,145.2z M243.8,144.6v0.4c-0.6,0.3-1.4,0.6-2.1,1c-0.1-0.1-0.2-0.3-0.5-0.5   C242.1,145.3,242.9,145,243.8,144.6z"/>
	<path class="st1" d="M58.6,129.5L58.6,129.5c-0.1,0-1.2,2.1-1.8,4.4c-0.8-5.8-0.9-10.2-0.9-10.3h-0.1c0,0.1-0.6,9.5,1.9,18.3   c0.2-0.3,0.4-0.6,0.6-0.8c-0.4-1.8-0.9-3.6-1.2-5.3C57.3,133.1,58.6,129.5,58.6,129.5z"/>
	<path class="st1" d="M90.9,231.6c-5.6-3.5-10.2-5.7-10.2-5.8l0,0.1c0,0,5,2.9,10.2,6.4C91,232.5,91.1,231.7,90.9,231.6L90.9,231.6z    M91.2,234.4c-2.6-0.4-4.8,0-4.8,0l0,0.1c0,0,3.1,0,4.8,0.6C91.2,234.9,91.2,234.7,91.2,234.4z"/>
	<path class="st1" d="M240.2,174.4c-1.2,0.2-2.8,0.3-4.5,0.3c0,0,0,0.1,0,0.2c0.3,0.1,0.5,0.2,0.4,0.5c1.6-0.2,3-0.4,4.1-0.6   c2.8-0.5,4.3-1.1,4.4-1.1l0-0.1C244.5,173.5,243,173.9,240.2,174.4L240.2,174.4z M246,160.6L246,160.6c-0.1,0-3.1,2.5-7.4,7.5   c0.1,0.1,0.3,0.3,0.4,0.5C243.2,163.4,246,160.6,246,160.6z"/>
	<path class="st1" d="M194.1,233.5c0,0,1.7,5.1,1.5,9.4h0.6l0,0C196.4,238.5,194.2,233.5,194.1,233.5L194.1,233.5L194.1,233.5z    M204,230.3c0,0-1.4,0.6-2.9,1.6c1.2-4,1.8-6.7,1.8-6.7l0,0c0,0-1.5,5-3.9,11.3c-0.6,1.5-1.2,3.1-1.9,4.8c0.3,0,0.5,0,0.8,0.1   c1.2-3.2,2.3-6.3,3-8.8c1.8-1.3,3.2-2,3.2-2L204,230.3z"/>
	<path class="st1" d="M218,228.6L218,228.6c0-0.1-5.6,0.1-8.9,0.8c1.5-2,2.8-4,3.9-5.9c1.8-1.1,4.2-1.7,4.2-1.7l0-0.1   c0,0-1.7,0.3-3.8,1.2c2.7-4.5,4.4-7.9,4.4-7.9l-0.2-0.1c0,0-2.4,4.6-6.2,10.2c-0.1,0.2-0.2,0.3-0.3,0.5c-0.5-2.8-1.8-5.4-1.8-5.4   l-0.1,0c0,0,1.2,3.4,1.4,6c-1.3,1.9-2.8,4-4.4,6c0.4,1.1-1.2,1.2-0.7,2.3c1.1-1.4,2.2-2.8,3.2-4.2C212.3,229.2,218,228.6,218,228.6   z"/>
	<path class="st1" d="M233.8,182.6c0,0-1.2,1-3.6,2.7c-0.8,0.6-1.9,1.3-3.1,2c0.6-2.3,1.1-4.4,1.6-6.3c1.1-1.5,2.7-3,2.7-3l-0.1-0.1   c0,0.1-1.5,1.2-2.4,2.2c0.8-3.8,1.1-6.4,1.1-6.4l-0.2,0c0,0-0.9,4.9-2.6,11.1c-1.5-2.4-4.4-4.7-4.4-4.7l-0.1,0.1   c0,0,3.1,2.9,4.2,5.4c-0.6,1.9-1.1,3.9-1.8,5.8c0.3,0,0.6,0,0.8-0.2c0.3-1,0.6-2,0.9-3c1.4-0.9,2.7-1.7,3.6-2.5   C232.9,183.9,233.9,182.7,233.8,182.6L233.8,182.6z"/>
	<path class="st1" d="M63.2,164.1c-5.5-6.9-10.1-11-10.1-11l-0.1,0c0,0,3.4,3.6,7.5,8.6c-0.1-0.1-0.3-0.1-0.4-0.2   c-2.7-1.2-4.5-1.6-4.6-1.6v0.1c0,0,1.6,0.4,4.2,1.7c0.6,0.3,1,0.6,1.5,0.9c0.9,1.1,0.8,1,1.7,2.1C63.1,164.6,63.1,164.3,63.2,164.1   z"/>
	<path class="st1" d="M101.5,231.6c0,0-1.4,1.7-2.6,5.7c-1.9-8.2-1.7-15.3-1.7-15.4h-0.1c0,0-0.9,9.4,2,18.9c0.2,0,0.5,0,0.7,0   c-0.3-0.9-0.5-1.7-0.7-2.6C100.1,233.8,101.6,231.6,101.5,231.6L101.5,231.6L101.5,231.6z M106.1,238.3c0,0-1.1,0.9-2.3,2.9   c0.1,0.1,0.2,0.2,0.4,0.3C105.2,239.4,106.2,238.4,106.1,238.3L106.1,238.3z"/>
	<path class="st1" d="M75.6,177.3c0,0-1.1,1.1-2.9,3.6c0,0.1-0.1,0.1-0.2,0.2c0.1,0.2,0.2,0.3,0.2,0.5c0.1-0.1,0.2-0.3,0.3-0.4   C74.8,178.7,75.7,177.4,75.6,177.3L75.6,177.3L75.6,177.3z M71.7,171.8c-0.8,2.1-1.6,4.5-2.3,7.1c0.2,0.2,0.5,0.5,0.6,0.8   c0.6-2.9,1.4-5.6,2.2-7.8C72,171.8,71.8,171.9,71.7,171.8z"/>
	<path class="st1" d="M61.7,180.1c0,0,4.1,3.2,9.1,7.7c0.6,0.5,1.2,1.1,1.8,1.7c0.1-0.2,0.1-0.7,0.3-0.8   C67.1,183.3,61.7,180,61.7,180.1L61.7,180.1L61.7,180.1z M79.8,184c0,0-1.4,4-2,9.2h0.5C78.8,187.9,79.9,184.1,79.8,184L79.8,184z"/>
	<path class="st1" d="M88,218.2c0-0.7-0.1-1.5-0.1-2.2c-0.2,0-0.4,0.1-0.5,0.1c0,2.3,0.1,5,0.4,7.7c0.3,0,0.4,0,0.7,0   C88.3,221.8,88.1,220,88,218.2z"/>
	<path class="st1" d="M68,136.3c-1.2,2.2-4.5,8.9-5.7,13.7c-0.4-2.3-1.9-4.8-2.6-5.7l0,0.1c1.3,2.2,2.1,5.2,2.3,7.1   c-0.2,0.8-0.4,1.7-0.6,2.5l0.7,0.6C63.1,148.5,65.5,141.6,68,136.3L68,136.3z"/>
</g>
</svg>