<?xml version="1.0" encoding="UTF-8"?>
<!-- Generator: Adobe Illustrator 21.1.0, SVG Export Plug-In . SVG Version: 6.00 Build 0)  -->
<svg version="1.1" id="zenit" xmlns="http://www.w3.org/2000/svg" xmlns:xlink="http://www.w3.org/1999/xlink" x="0px" y="0px" viewBox="0 0 300 300" style="enable-background:new 0 0 300 300;" xml:space="preserve">
<style type="text/css">
	.st0{fill:#FFFFFF;}
	.st1{fill:#00AFEF;}
	.st2{fill:#D2A85A;}
</style>
<g>
	<g>
		<g>
			<path class="st0" d="M63,117.2c6.7,0,12.3,2.6,12.3,10.5c0,9.5-8.2,19.3-20.4,26.7c2.8,3.2,4.7,6.8,5.7,10.8c2.9-1.5,6-3,9.2-4.6     c3.5-17.2,15.8-30.4,26.7-30.4c5.5,0,8,3.3,8,7.7c0,10.3-9.5,18.3-22.8,25.3c-0.4,2.4-0.4,3.7-0.4,5.2c0,4.7,1,6.9,2.8,6.9     c1.2,0,2.6-1.1,4.2-2.9l18-21.3l5.9-20.4h10.5l-5.3,18.1l8.2-2.1l4.7-16h9.8l-8,27.3l13.1-17.4l2.9-9.8h9.4l-5.6,19.3     c-0.2,0.7-1.4,4.8-0.5,4.8c1.1,0,3.5-4.5,6.3-9.5c3-5.5,5.7-11.4,6.9-14.6h9.6l-4.7,16.4l12.2-16.4h84.3L62.9,217.5l4-13.7     l159.7-65.3h-31.1l-3.1,10.2l-10,3.2l4-13.3h-4.9l-13.8,17.9l-8.7,2.9c0.5-4.3,1.2-8.7,2.2-12.9l-4,7.5     c-3.2,5.9-5.9,10.5-10.7,10.5c-3.5,0-5.1-3.3-5.1-7.6c0-1.5,0.2-3.2,0.6-4.8l-13,17.3l-10.8,3.5l5.4-18.8l-8.2,2.1l-5.6,19.7     l-11.7,3.9l5.3-18.1l-11.8,15.1c-5,6.4-10.2,9.9-14.3,9.9c-8,0-9-13.1-8.3-18.4c-4.3,2-5.8,2.7-7.3,3.5     c1.9,28.1-26.7,66.8-44.8,66.8c-5.6,0-10-4.3-10-14.2c0-14.5,10.9-35.7,40.2-52.3c-0.8-5.7-2.8-10.5-6.3-13.6v-0.6     c9.9-7.6,17.4-16.2,17.4-23.9c0-3.5-2.7-4.9-5.6-4.9c-5.5,0-12.8,6.8-16.7,12.5h-2l3.2-11C44.5,120.7,56.4,117.2,63,117.2      M83,155.6c7.4-4.8,10.5-10.9,10.5-15.7c0-1.6-0.6-2.7-1.6-2.7C89.2,137.2,85.2,145.7,83,155.6 M47.3,179.3     c-17.7,12-26.7,29.5-26.7,41.8c0,2.2,0.7,5.9,3.3,5.9C34,227,46.7,200.2,47.3,179.3 M63,110.3c-7.2,0-21.9,3.4-31.5,16.2l-0.8,1     l-0.4,1.2l-3.2,11l-2.6,8.8h9.2h2h3.6l2.1-3c3-4.4,6.8-7.5,9.2-8.9c-1.6,4.3-6.7,9.9-14.2,15.7l-2.7,2.1v3.4v0.6v3.2l2.4,2.1     c1.4,1.2,2.4,3.1,3,5c-12.3,7.6-22,16.5-28.9,26.4C3.7,204.7,0,215.1,0,224.4c0,15.6,9.1,21.1,16.9,21.1     c5.8,0,15.3-2.7,27.1-15.3c4.9-5.3,9.5-11.5,13.3-18.1l-1,3.5l-4.1,14l13.4-5.7L268.9,137l31.1-13.3h-33.8h-82.6h-9.2h-7.5h-9.2     h-8.2h-9.2H132h-9.2h-10.5h-5.2l-0.8,2.6c-2.5-2-5.8-3.1-9.7-3.1c-4.9,0-9.9,1.8-14.4,4.9c0-0.2,0-0.3,0-0.5     C82.2,117,74.8,110.3,63,110.3L63,110.3z"/>
		</g>
		<path class="st0" d="M249,199.7v-4.8v-4.7v-6.9h-6.9h-12.6h-6.2l-0.1,0.8c-2-0.8-4.3-1.3-6.7-1.3c-3.6,0-6.8,1-9.3,2.8    c-2.6-1.8-5.8-2.8-9.5-2.8c-1.5,0-2.9,0.2-4.2,0.5h-6.9h-8h-4.2l-1.9,3.7l-2.7,5.2l-5.2,10.1h9.4v10.7v6.9h5.7h1.2h5.8h5.7h0.4    h0.8h5.6h3.7h4.3h17.7h4.5c1.5,0.4,3.1,0.6,4.7,0.6c9.5,0,16.3-6.3,16.3-15.1C250.3,203.4,249.8,201.5,249,199.7z"/>
	</g>
	<g>
		<path class="st1" d="M112.3,130.6h10.5l-5.3,18.1l8.2-2.1l4.7-16h9.8l-8,27.3l13.1-17.4l2.9-9.8h9.4l-5.6,19.3    c-0.2,0.7-1.4,4.8-0.5,4.8c1.1,0,3.5-4.5,6.3-9.5c3-5.5,5.7-11.4,6.9-14.6h9.6l-4.7,16.4l12.2-16.4h84.3L62.9,217.5l4-13.7    l159.7-65.3h-31.1l-3.1,10.2l-10,3.2l4-13.3h-4.9l-13.8,17.9l-8.7,2.9c0.5-4.3,1.2-8.7,2.2-12.9l-4,7.5    c-3.2,5.9-5.9,10.5-10.7,10.5c-3.5,0-5.1-3.3-5.1-7.6c0-1.5,0.2-3.2,0.6-4.8l-13,17.3l-10.8,3.5l5.4-18.8l-8.2,2.1l-5.6,19.7    l-11.7,3.9l5.3-18.1l-11.8,15.1c-5,6.4-10.2,9.9-14.3,9.9c-8,0-9-13.1-8.3-18.4c-4.3,2-5.8,2.7-7.3,3.5    c1.9,28.1-26.7,66.8-44.8,66.8c-5.6,0-10-4.3-10-14.2c0-14.5,10.9-35.7,40.2-52.3c-0.8-5.7-2.8-10.5-6.3-13.6v-0.6    c9.9-7.6,17.4-16.2,17.4-23.9c0-3.5-2.7-4.9-5.6-4.9c-5.5,0-12.8,6.8-16.7,12.5h-2l3.2-11c7.5-9.9,19.4-13.5,26-13.5    c6.7,0,12.3,2.6,12.3,10.5c0,9.5-8.2,19.3-20.4,26.7c2.8,3.2,4.7,6.8,5.7,10.8c2.9-1.5,6-3,9.2-4.6c3.5-17.2,15.8-30.4,26.7-30.4    c5.5,0,8,3.3,8,7.7c0,10.3-9.5,18.3-22.8,25.3c-0.4,2.4-0.4,3.7-0.4,5.2c0,4.7,1,6.9,2.8,6.9c1.2,0,2.6-1.1,4.2-2.9l18-21.3    L112.3,130.6z M20.6,221.1c0,2.2,0.7,5.9,3.3,5.9c10.1,0,22.8-26.8,23.4-47.6C29.6,191.4,20.6,208.8,20.6,221.1L20.6,221.1z     M93.5,139.9c0-1.6-0.6-2.7-1.6-2.7c-2.7,0-6.7,8.5-8.9,18.4C90.4,150.8,93.5,144.7,93.5,139.9z"/>
		<path class="st1" d="M233.3,198.3l0.4-3.5h8.4v-4.7h-12.6l-1.4,12.9c1.5-0.6,3.2-0.7,4.4-0.7c3.2,0,5.1,1.5,5.1,3.4    c0,1.5-1.4,3-4,3c-2,0-4.1-0.8-5.9-2.2l-0.7,5.1c1.7,1.1,4.2,2.1,6.9,2.1c6,0,9.4-3.6,9.4-8.2    C243.4,200.1,238.2,197.3,233.3,198.3z"/>
		<path class="st1" d="M225,197c0-3.9-3.1-7.4-8.5-7.4c-5.2,0-8.6,3.2-8.6,8.5v0.1h5.6V198c0-2.4,1.2-3.7,3.1-3.7    c1.7,0,2.7,1.1,2.7,2.8c0,1.1-0.6,2.2-1.8,3.7l-10.4,12.3h17.7v-4.9h-7.1l4.2-4.6C223.9,201.3,225,199.5,225,197z"/>
		<polygon class="st1" points="175.8,195.4 180.8,195.4 180.8,213.1 186.5,213.1 186.5,190.2 178.5,190.2   "/>
		<path class="st1" d="M197.6,189.7c-5.5,0-8.9,3.7-8.9,8.5c0,4.3,3.3,7.3,7.1,7.3c0.9,0,1.3,0,2.1-0.2l-5.3,7.9h6.4l3.2-4.9    c2.5-3.8,4.1-6.8,4.1-10.2C206.4,193.1,203.2,189.7,197.6,189.7z M197.6,201.4c-2,0-3.5-1.4-3.5-3.6c0-1.9,1.4-3.6,3.5-3.6    c2.2,0,3.6,1.6,3.6,3.6C201.1,200,199.7,201.4,197.6,201.4z"/>
	</g>
	<polygon class="st2" points="150,54.5 157.4,77.2 181.3,77.2 161.9,91.3 169.3,114 150,100 130.7,114 138,91.3 118.7,77.2    142.6,77.2  "/>
</g>
</svg>