<?xml version="1.0" encoding="UTF-8"?>
<!-- Generator: Adobe Illustrator 21.1.0, SVG Export Plug-In . SVG Version: 6.00 Build 0)  -->
<svg version="1.1" id="rubin" xmlns="http://www.w3.org/2000/svg" xmlns:xlink="http://www.w3.org/1999/xlink" x="0px" y="0px" viewBox="0 0 300 300" style="enable-background:new 0 0 300 300;" xml:space="preserve">
<style type="text/css">
	.st0{fill:#FFFFFF;}
	.st1{fill:#010101;}
	.st2{fill:#C01F4B;}
	.st3{fill:#04A75E;}
	.st4{fill:#CE1F3E;}
	.st5{fill:#D51E3F;}
</style>
<g>
	<path class="st0" d="M149.9,24c-37.7,0-88.4,12-88.4,12s0,97.1,0,140.5c0,21.2,4.8,37.5,15.8,51.2c24.4,30.8,68.8,47,69.2,47.1   l3.3,1.2l3.3-1.2c0.4-0.2,44.8-16.4,69.2-47.1c10.9-13.8,16.1-30,16.1-51.2c0-43.4,0-140.5,0-140.5C209.6,29.3,179.5,24,149.9,24"/>
	<path class="st1" d="M83,42.9c-3.3,0.7-6.7,1.4-10,2.2v0l-1.8,0.4v1.4V48v26.6v0.6v1.4l1.3-0.3c1.5-0.4,3-0.7,4.6-1.1   c0.1,0,0.2-0.1,0.3-0.1l1.7-0.4l-0.7-4.8v-4.2c1.5-0.3,3-0.6,4.5-0.9c7.9-1.6,12.2-6.6,12.2-13.1C95.2,45.1,91,41.3,83,42.9    M82.9,58.4c-1.5,0.3-3,0.6-4.5,0.9v-8.8c1.5-0.3,3-0.6,4.5-0.9c3.6-0.7,5.2,1,5.2,3.4C88.2,55.3,86.6,57.6,82.9,58.4"/>
	<path class="st1" d="M149,47.7c-2,0-4.1,0-6.1,0.1v-5.1c3.2-0.1,6.4-0.1,9.6,0l5.9,1.1v-3.8l0,0v-1.6v-0.5v-1.3l-1.3,0c0,0,0,0,0,0   c0,0-0.1,0-0.1,0l-0.1,0v0c-6.6-0.1-13.2-0.1-19.8,0.1l0,0l-1.7,0v1.4v0c0,9.4,0,18.8,0,28.1v0v1.4l1.4-0.1c4-0.2,8-0.3,12-0.3   c8.1,0,12.4-2.9,12.4-9.7C161.3,50.8,157.3,47.7,149,47.7 M148.8,60.6c-2,0-4,0-6,0.1v-6.8c2,0,4.1-0.1,6.1-0.1   c3.7,0,5.1,1.1,5.1,3.4C154,59.6,152.3,60.6,148.8,60.6"/>
	<path class="st1" d="M188.9,38.6L188.9,38.6L188.9,38.6c-0.1,0-0.1,0-0.2,0c0,0-0.1,0-0.1,0l-1-0.1l-0.8,1.1   c-0.1,0.1-0.2,0.2-0.3,0.4c-3.3,4.9-6.6,9.9-10,15V43h0l0.9-5.5l-2-0.2c-0.1,0-0.2,0-0.3,0c-1.4-0.1-2.8-0.2-4.2-0.3v0l-1.7-0.1   v1.4v1.2V66v0.2v1.3l1.3,0.1c0,0,0,0,0,0c1.4,0.1,2.9,0.2,4.3,0.3c0,0,0,0,0.1,0l1,0.1l0.6-0.8c0.1-0.2,0.3-0.4,0.5-0.6   c3.3-5.1,6.6-10.1,10-15v12.2l-0.8,5.2l2.2,0.3c0,0,0,0,0,0c1.5,0.2,3.1,0.4,4.6,0.6c0,0,0,0,0,0l1.3,0.2v-1.3v-1.3V41.6v-0.9v-1.3   l-1.4-0.2C191.7,39,190.3,38.8,188.9,38.6"/>
	<path class="st1" d="M128.8,37l-1.5,0.1c0,0,0,0,0,0c0,0,0,0-0.1,0l0,0c-1.5,0.1-3,0.2-4.5,0.3l0,0l-1.8,0.1l-0.5,1.1   c0,0-0.1,0.1-0.1,0.2l-0.1,0.1l0,0c0,0,0,0.1-0.1,0.1c-1.1,2.3-2.1,4.6-3.2,6.9c-1,2.2-1.9,4.5-2.9,6.7c-0.9-2-1.9-4.1-2.8-6.1   c-1.1-2-2.1-4.1-3.2-6.1l-0.7-1.4l-1.5,0.2l0,0c-1.7,0.2-3.4,0.5-5.1,0.7l0,0l-0.1,0c0,0-0.1,0-0.1,0c0,0,0,0,0,0L99,40l0.9,1.6   c3.4,6.4,6.8,12.8,10.3,19.3c-0.9,1.9-1.8,3.8-2.6,5.7l0,0l-1.8,3.5l1.6-0.2c1.7-0.2,3.4-0.4,5.1-0.6c0.1,0,0.1,0,0.2,0h0l1.2-0.1   l0.7-1.6c4.4-9.6,8.8-19,13.2-28.4L128.8,37z"/>
	<path class="st1" d="M227.3,45.4C227.3,45.4,227.3,45.4,227.3,45.4c-0.1,0-0.1,0-0.2,0l-0.3-0.1l0,0c-1.4-0.3-2.7-0.6-4.1-0.9v0   l-1.5-0.4v1.4v1.2v9.3c-3.4-0.7-6.9-1.4-10.4-2.1v-6.4l0.9-5.3l-2.8-0.5v0c-1.3-0.2-2.7-0.5-4-0.7c-0.1,0-0.2,0-0.2,0l-1.1-0.2v2.7   l0,0v25.1l0,0v2.7l1.3,0.2c0,0,0.1,0,0.1,0c1.5,0.2,3,0.5,4.5,0.8l1.4,0.3v-1.4v-1.1v-9.4c3.5,0.6,6.9,1.3,10.4,2.1v6.8l-0.8,4.8   l1.9,0.5c0.1,0,0.2,0.1,0.3,0.1c1.5,0.3,2.9,0.7,4.4,1l1.5,0.4v-1.4v-1.7V48.6v-1.5v-1.3L227.3,45.4z"/>
	<path class="st1" d="M138.4,237.1v1.2c0,0.3-0.1,0.4-0.4,0.4h-4.4c-0.3,0-0.4-0.2-0.4-0.4v-1.2c0-0.3,0.1-0.4,0.4-0.4h1.2v-3.8   h-1.2c-0.3,0-0.4-0.1-0.4-0.4v-1.1c0-0.3,0.1-0.4,0.4-0.4h0.3c0.3,0,0.9-0.1,0.9-1.2c0-0.3,0.2-0.4,0.4-0.4h1.4   c0.2,0,0.4,0.1,0.4,0.4v0v6.9h1C138.3,236.6,138.4,236.8,138.4,237.1"/>
	<path class="st1" d="M146.9,233.7c-0.2,0.6-0.6,1.2-0.9,1.8l-1.8,2.7c-0.2,0.3-0.4,0.4-0.7,0.4h-1.8c-0.3,0-0.3-0.3-0.2-0.4   l1.9-2.7c-0.2,0-0.3,0.1-0.5,0.1c-1.6,0-3.1-1.3-3.1-3c0-1.9,1.6-3.5,3.6-3.5c1.8,0,3.6,1.2,3.6,3.3   C147.1,232.8,147.1,233.2,146.9,233.7 M143.5,231.1c-0.8,0-1.5,0.6-1.5,1.4c0,0.8,0.7,1.4,1.5,1.4c0.8,0,1.5-0.6,1.5-1.4   C145,231.7,144.3,231.1,143.5,231.1"/>
	<path class="st1" d="M155.6,235.7c0,2-1.8,3.1-3.5,3.1c-1.8,0-3.3-1.2-3.3-2.7c0-0.4,0.1-0.4,0.4-0.4h1.3c0.2,0,0.3,0,0.3,0.3   c0.2,0.6,0.7,0.9,1.4,0.9c0.9,0,1.4-0.5,1.4-1.3c0-0.7-0.6-1.3-1.4-1.3c-0.7,0-1,0.2-1.4,0.5c-0.1,0.1-0.2,0.1-0.3,0.1h-1.2   c-0.3,0-0.4-0.1-0.4-0.4l0.4-4.7c0-0.3,0.1-0.4,0.4-0.4h5c0.3,0,0.4,0.2,0.4,0.4v1.2c0,0.3-0.1,0.4-0.4,0.4h-3.5L151,233   c0.3-0.2,0.9-0.4,1.5-0.4C154.3,232.6,155.6,233.9,155.6,235.7"/>
	<path class="st1" d="M161.1,238.8c-2.4,0-3.6-1.3-3.6-2.9c0-1,0.6-1.7,1.6-2.2c-0.8-0.4-1.2-1.2-1.2-2c0-1.4,1.1-2.6,3.3-2.6   c2.2,0,3.3,1.2,3.3,2.6c0,0.8-0.5,1.5-1.2,2c1,0.5,1.6,1.2,1.6,2.2C164.7,237.5,163.5,238.8,161.1,238.8 M161.1,234.7   c-0.8,0-1.3,0.5-1.3,1.1c0,0.6,0.6,1.1,1.3,1.1c0.7,0,1.3-0.5,1.3-1.1C162.5,235.2,161.9,234.7,161.1,234.7 M161.1,232.8   c0.8,0,1.1-0.6,1.1-1c0-0.6-0.5-1-1.1-1c-0.6,0-1.1,0.4-1.1,1C160,232.1,160.3,232.8,161.1,232.8"/>
	<path class="st2" d="M228.8,161.1l-10.1,10.1c0,1.7,0,3.3,0,4.8c0,16.6-3.6,28.6-11.7,38.8c-16.9,21.3-46.8,35.1-56.9,39.4   c-10.2-4.3-40-18.1-56.9-39.4C85,204.6,81.4,192.7,81.4,176c0-1.5,0-3.2,0-4.8l-10.1-10.1c0,9,0,14.9,0,14.9   c0,21.2,5.6,34.7,13.9,45c22.6,28.4,64.8,44,64.8,44c0,0,42.2-15.6,64.8-44c8.3-10.4,13.9-23.8,13.9-45   C228.8,176,228.8,170.1,228.8,161.1"/>
	<path class="st3" d="M106.7,77.6c-20.2,2.9-35.4,6.5-35.4,6.5c0,0.4,0,31.7,0,55.2l10.1,10.1c0-19.4,0-46.7,0-57.2   c5.9-1.2,14.9-2.9,25.3-4.4V77.6z"/>
	<path class="st3" d="M228.7,84.1c0,0-15.2-3.6-35.4-6.5v10.2c10.4,1.5,19.3,3.2,25.3,4.4c0,10.5,0,37.8,0,57.2l10.1-10.1   C228.7,115.8,228.7,84.5,228.7,84.1"/>
	<path class="st3" d="M122.1,75.6c-1.2,1.5-2.5,3-3.7,4.5c1.2,1.8,2.4,3.6,3.6,5.5c0.1,0.2,0.1,0.5-0.2,0.6c-0.7,0.1-1.3,0.2-2,0.2   c-0.4,0-0.6-0.1-0.8-0.4c0,0-1.5-2.3-2.4-3.7c-0.3,0.4-0.7,0.8-1,1.2v3c0,0.4-0.2,0.5-0.5,0.5c-0.5,0.1-1.1,0.1-1.6,0.2   c-0.3,0-0.5,0-0.5-0.4v-9.9c0-0.4,0.2-0.5,0.5-0.5c0.5-0.1,1.1-0.2,1.6-0.2c0.3,0,0.5,0,0.5,0.4v3.7c1.1-1.4,2.3-2.8,3.4-4.2   c0.3-0.4,0.4-0.5,0.8-0.5c0.7-0.1,1.5-0.2,2.2-0.2C122.2,75.1,122.2,75.4,122.1,75.6"/>
	<path class="st3" d="M135.2,85c-0.6,0-1.2,0.1-1.7,0.1c-0.4,0-0.5-0.1-0.6-0.5c-0.2-0.4-0.3-0.9-0.5-1.3c-1.4,0.1-2.7,0.2-4.1,0.3   c-0.2,0.5-0.3,0.9-0.5,1.3c-0.1,0.4-0.3,0.5-0.6,0.6c-0.6,0-1.2,0.1-1.7,0.2c-0.4,0-0.4-0.2-0.3-0.4c1.2-3.4,2.5-6.8,3.7-10.3   c0.1-0.4,0.3-0.5,0.7-0.6c0.5,0,1.1-0.1,1.6-0.1c0.4,0,0.5,0.1,0.7,0.5c1.2,3.2,2.4,6.5,3.7,9.7C135.6,84.7,135.6,84.9,135.2,85    M131.6,81.1c-0.4-1.2-0.8-2.4-1.2-3.6c-0.4,1.3-0.8,2.5-1.2,3.8C130,81.2,130.8,81.1,131.6,81.1"/>
	<path class="st3" d="M141.5,78.6c0-0.2,0.2-0.4,0.4-0.4c0.3,0,0.5,0,0.7,0c1,0,1.5-0.4,1.5-1.1c0-1-0.8-1.3-1.5-1.3   c-0.6,0-1.3,0.2-1.6,1c-0.1,0.3-0.1,0.4-0.4,0.4c-0.5,0-1,0-1.4,0.1c-0.4,0-0.5,0-0.5-0.5c0-1.8,1.7-3.1,3.8-3.2   c2.2,0,4.1,1,4.1,3.4c0,1-0.6,1.9-1.3,2.1c0.9,0.3,1.6,1.2,1.6,2.3c0,2.6-2,3.5-4.2,3.6c-2.1,0.1-4-1.2-4-3c0-0.4,0.1-0.5,0.5-0.5   c0.5,0,1,0,1.5-0.1c0.3,0,0.3,0.1,0.4,0.4c0.2,0.8,1.2,0.9,1.7,0.9c0.7,0,1.6-0.4,1.6-1.3c0-0.9-0.6-1.3-1.8-1.2   c-0.3,0-0.5,0-0.8,0c-0.3,0-0.4-0.1-0.4-0.4C141.5,79.3,141.5,78.9,141.5,78.6"/>
	<path class="st3" d="M160.6,84.8c-0.6,0-1.2,0-1.7-0.1c-0.4,0-0.5-0.1-0.6-0.5c-0.2-0.4-0.3-0.9-0.5-1.3c-1.4,0-2.7-0.1-4.1-0.1   c-0.2,0.4-0.3,0.9-0.5,1.3c-0.1,0.4-0.3,0.5-0.6,0.5c-0.6,0-1.2,0-1.7,0c-0.4,0-0.4-0.3-0.3-0.5c1.2-3.3,2.5-6.6,3.7-9.9   c0.1-0.3,0.3-0.5,0.7-0.5c0.5,0,1.1,0,1.6,0c0.4,0,0.5,0.2,0.7,0.5c1.2,3.3,2.4,6.7,3.7,10.1C161,84.5,161,84.8,160.6,84.8    M157,80.5c-0.4-1.2-0.8-2.5-1.2-3.7c-0.4,1.2-0.8,2.4-1.2,3.6C155.4,80.5,156.2,80.5,157,80.5"/>
	<path class="st3" d="M173.8,75.2v10c0,0.4-0.2,0.5-0.5,0.4c-0.5,0-1.1-0.1-1.6-0.1c-0.3,0-0.5-0.1-0.5-0.5c0-1.2,0-2.5,0-3.7   c-1.2-0.1-2.5-0.2-3.7-0.3v3.7c0,0.4-0.2,0.5-0.5,0.5c-0.5,0-1.1-0.1-1.6-0.1c-0.3,0-0.5-0.1-0.5-0.5c0-3.3,0-6.6,0-10   c0-0.4,0.2-0.5,0.5-0.5c0.5,0,1.1,0.1,1.6,0.1c0.3,0,0.5,0.1,0.5,0.5v3.7c1.2,0.1,2.5,0.2,3.7,0.3c0-1.3,0-2.5,0-3.7   c0-0.4,0.2-0.5,0.5-0.4c0.5,0,1.1,0.1,1.6,0.1C173.6,74.7,173.8,74.8,173.8,75.2"/>
	<path class="st3" d="M179.2,86.2c-0.4,0-0.5-0.2-0.5-0.5c0-3.3,0-6.6,0-10c0-0.4,0.2-0.5,0.5-0.4c0.5,0.1,1.1,0.1,1.6,0.2   c0.3,0,0.5,0.2,0.5,0.5V79c0.5,0.1,1.1,0.1,1.6,0.2c2.8,0.4,4.3,1.9,4.3,4.2c0,2.3-1.5,3.5-4.3,3.1   C181.7,86.4,180.5,86.3,179.2,86.2 M181.3,81.3v2.8c0.5,0.1,1.1,0.1,1.6,0.2c1.3,0.2,1.9-0.3,1.9-1.2c0-0.8-0.6-1.5-1.9-1.7   C182.4,81.4,181.9,81.3,181.3,81.3"/>
	<path class="st4" d="M111.9,100.8c7.2,7.2,3.3,10.9,5.5,18.5c0.1,0.3-0.3,0.6-0.5,0.4C109.1,114.1,110.5,107,111.9,100.8"/>
	<path class="st1" d="M137.5,200c0-8.7,4.1-15.4,10.4-21.5c9.1-8.8,26.2-26.2,35-35c14.1-14.1,14.3-30.6,13.9-40.7   c0,0-46.3,46.3-61.7,61.7c-3.2,3.2-7.6,6.8-11.8,15c-1.9,3.7-2.7,8-2.7,12.4c0,15.7,12.1,28.6,27.4,29.9   C141.6,216.7,137.5,208.8,137.5,200"/>
	<path class="st1" d="M166.9,202c-1.1,1.1-2.8,1.1-3.9,0c-1.1-1.1-1.1-2.8,0-3.9c0,0,14.6-14.6,20-20c13.9-13.9,14.3-30.6,13.8-40.7   l-47.2,47.2c-8.5,8.5-8.5,22.3,0,30.8c8.5,8.5,22.5,8.3,30.8,0c16.6-16.6,16.9-33.2,16.5-43.4L166.9,202z"/>
	<path class="st1" d="M135.1,156.7c0.4-0.4,0.9-0.8,1.3-1.2l0,0C136,155.9,135.5,156.3,135.1,156.7"/>
	<path class="st1" d="M136.4,155.4L136.4,155.4c0.2-0.2,0.4-0.4,0.6-0.6C136.8,155,136.6,155.2,136.4,155.4"/>
	<polygon class="st5" points="151,120.4 151,113.1 143.6,120.4 150.9,127.7 158.3,120.3  "/>
	<path class="st1" d="M127.1,110.2l-6,9.6c1.6,1.6,3.5,3.5,4.3,4.3c2.9,2.9,1.3,7.4,1.3,7.4l-7.9-7.9l-4.6,7.3l6.9,2.2   c0.6,0.6,1,1,1,1c2.7,2.7,2.2,6.7-0.1,9l0.8-0.8c-2,2-3.8,3.8-5,5c-3.9,4-7.2,7.9-9.7,11.8c-5.3,8-7.8,15.7-7.8,23.7   c0,18.5,12.8,34,30.1,38.1c-9.2-6.5-15.2-17.3-15.2-29.4c0-11.3,5.8-20.6,15.4-30.1c1.2-1.2,6.3-6.2,6.5-6.4   c5.4-5.4,9-11.5,9.5-17.4h7.8L127.1,110.2z M133.2,125.5l0.7-3.2l5.5,5.5L133.2,125.5z"/>
</g>
</svg>