<?xml version="1.0" encoding="UTF-8"?>
<!-- Generator: Adobe Illustrator 21.1.0, SVG Export Plug-In . SVG Version: 6.00 Build 0)  -->
<svg version="1.1" id="Слой_2" xmlns="http://www.w3.org/2000/svg" xmlns:xlink="http://www.w3.org/1999/xlink" x="0px" y="0px" viewBox="0 0 300 300" style="enable-background:new 0 0 300 300;" xml:space="preserve">
<style type="text/css">
	.st0{fill:#E6E7E8;}
	.st1{clip-path:url(#SVGID_2_);fill:url(#SVGID_3_);}
	.st2{fill:#231F20;}
	.st3{clip-path:url(#SVGID_5_);fill:url(#SVGID_6_);}
	.st4{clip-path:url(#SVGID_8_);fill:url(#SVGID_9_);}
	.st5{clip-path:url(#SVGID_11_);fill:url(#SVGID_12_);}
	.st6{clip-path:url(#SVGID_14_);fill:url(#SVGID_15_);}
	.st7{clip-path:url(#SVGID_17_);fill:url(#SVGID_18_);}
</style>
<g>
	<path class="st0" d="M156.4,126.3c-9.4,1.3-18.4,2.4-25.3,3.4l15.7-31.8L156.4,126.3z M244.2,181.8l-17.5-51.2   c-1.2-3.6-4.2-7.3-8.8-9.4L184.6,24l-4.9,1.4c-8,2.2-17.3,4.1-26.9,5.5c-10.1,1.4-19.9,2.2-28.5,2.2l-1.3,0l-3.9,0L114,47.6l-1.7,5   l5,1.8c2.4,0.9,6.2,2.9,7.3,4.4c1,1.5,0.7,4.6-0.7,7.8L74.1,171.2c-3.7,7.7-6.9,10.7-11.8,11.1c-1.3,0.1-8,0.6-8,0.6l-3.5,0.3   l-5.7,16.2c0,0-0.3,2.2,0.2,5.5c1.1,7.2,5.8,19.5,25.1,25.3l0.9,1.1c3.4,4.2,9.3,9.4,18.3,11.4l0.9,1.1c3.4,4.2,9.3,9.4,18.3,11.4   l0.9,1.1c4.6,5.6,13,12.3,26.4,12.3h2.3c2.7,6.3,7.1,7.3,9.7,7.3h3.2c2.6,0,6.9-1.1,9.7-7.3h2.5c13.5,0,21.8-6.7,26.4-12.3l0.9-1.1   c9-2.1,14.9-7.3,18.3-11.4l0.9-1.1c9-2.1,14.9-7.3,18.3-11.4l0.9-1.1c13.2-3,20.5-13.4,23-18.8c1-2.3,1.7-4.6,2.1-6.4   c0.7-3.3,0.7-5.6,0.7-5.6L244.2,181.8z"/>
	<g>
		<defs>
			<path id="SVGID_1_" d="M153.6,36.2c-11.3,1.6-21.8,2.3-30.6,2.2l-3.8,11c0,0,7.2,2.7,9.9,6.4c2.6,3.8,1.6,9.1-0.3,13.2     L78.9,173.5c-3.5,7.3-7.8,13.5-16.2,14.2c-1.3,0.1-8,0.6-8,0.6l-3.9,11h62c-0.9-3.3-1.4-6.7-1.4-10.2c0-0.3,0-0.6,0-0.9     c-2-0.4-4.2-1-5.8-1.7c-4.8-2.2-5.9-5.4-3.5-10.3l45.6-92.5l14.1,41.9l49.6-6.4l-30.3-88.6C173.2,32.8,163.8,34.8,153.6,36.2"/>
		</defs>
		<clipPath id="SVGID_2_">
			<use xlink:href="#SVGID_1_" style="overflow:visible;"/>
		</clipPath>
		
			<linearGradient id="SVGID_3_" gradientUnits="userSpaceOnUse" x1="-270.1555" y1="449.1374" x2="-268.5074" y2="449.1374" gradientTransform="matrix(0 -102.4099 -102.4099 0 46127.2656 -27467.2344)">
			<stop offset="0" style="stop-color:#C3161C"/>
			<stop offset="1" style="stop-color:#EC1C24"/>
		</linearGradient>
		<rect x="50.8" y="30.6" class="st1" width="160.7" height="168.8"/>
	</g>
	<path class="st2" d="M185.1,204.9l-0.9,1.7c-3.4,6.7-8.6,12.2-15.1,15.9c-5.5,3.2-11.6,4.9-17.9,5.2c0,0-0.6,0-1.3,0   c-0.5,0-0.7,0-1.5,0c-13.2-0.5-25.3-7.8-31.9-19.3c-0.3-0.6-0.7-1.2-1-1.8l-0.9-1.7H50.6c0,0,0.5,3.8,4.9,9.5   c3.1,4.1,8.7,9.4,17.9,10.9l2.1,2.6c3.3,4,8.7,8.5,17.1,9.9l2.1,2.6c3.3,4,8.7,8.5,17.1,9.9l2.1,2.6c3.9,4.7,10.9,10.3,22.3,10.3   h6.1c1,4.3,2.8,7.3,5.8,7.3h3.2c3,0,4.7-3,5.8-7.3h6.4c11.4,0,18.4-5.6,22.3-10.3l2.1-2.6c8.4-1.4,13.8-6,17.1-9.9l2.1-2.6   c8.4-1.4,13.8-6,17.1-9.9l2.1-2.6c10.8-1.8,16.6-8.8,19.3-12.9c2.5-3.9,3.4-7.4,3.4-7.4H185.1z"/>
	<g>
		<defs>
			<path id="SVGID_4_" d="M116.3,250.9c3.4,4.1,9.6,9.2,19.8,9.2h5.5c-0.4-2.9-0.6-6.1-0.7-9.2H116.3z M55.3,208.1     c0,0,6,14.4,23.2,14.4h25.9c0.9,0,1.7,0.7,1.7,1.7c0,0.9-0.8,1.7-1.7,1.7H77.8c3.4,4.1,9.6,9.2,19.8,9.2H117     c0.9,0,1.7,0.7,1.7,1.7c0,0.9-0.8,1.7-1.7,1.7H97.1c3.4,4.1,9.6,9.2,19.8,9.2h29.5c0.9,0,1.7,0.7,1.7,1.7c0,0.9-0.8,1.7-1.7,1.7     h-2.2c0.2,9.3,1.8,16.5,3.9,16.5c2.1,0,3.9-8.2,3.9-18.3c0-9.8-1.6-17.8-3.7-18.2c-13.8-0.6-27-8-34.4-20.9     c-0.4-0.6-0.7-1.3-1.1-1.9H55.3z"/>
		</defs>
		<clipPath id="SVGID_5_">
			<use xlink:href="#SVGID_4_" style="overflow:visible;"/>
		</clipPath>
		
			<linearGradient id="SVGID_6_" gradientUnits="userSpaceOnUse" x1="-275.0725" y1="446.7794" x2="-273.4244" y2="446.7794" gradientTransform="matrix(58.6517 0 0 -58.6517 16188.7402 26442.1348)">
			<stop offset="0" style="stop-color:#FFFFFF"/>
			<stop offset="1" style="stop-color:#A6A8AB"/>
		</linearGradient>
		<rect x="55.3" y="208.1" class="st3" width="96.7" height="59.3"/>
	</g>
	<g>
		<defs>
			<path id="SVGID_7_" d="M187.1,208.1c-3.5,7-9.1,13-16.3,17.3c-4.9,2.8-10.2,4.6-15.5,5.3c2.3,4.1,2.9,11.8,2.9,18.5     c0,3.6-0.2,7.5-0.7,10.9h5.8c10.2,0,16.4-5.1,19.8-9.2h-13.3c-0.9,0-1.7-0.7-1.7-1.7c0-0.9,0.8-1.7,1.7-1.7h12.7     c10.2,0,16.4-5.1,19.8-9.2h-19.9c-0.9,0-1.7-0.7-1.7-1.7c0-0.9,0.8-1.7,1.7-1.7h19.3c10.2,0,16.4-5.1,19.8-9.2h-26.6     c-0.9,0-1.7-0.7-1.7-1.7c0-0.9,0.8-1.7,1.7-1.7H221c17.2,0,23.2-14.4,23.2-14.4H187.1z"/>
		</defs>
		<clipPath id="SVGID_8_">
			<use xlink:href="#SVGID_7_" style="overflow:visible;"/>
		</clipPath>
		
			<linearGradient id="SVGID_9_" gradientUnits="userSpaceOnUse" x1="-274.782" y1="446.7502" x2="-273.1339" y2="446.7502" gradientTransform="matrix(53.9329 0 0 -53.9329 14975.1211 24328.6309)">
			<stop offset="0" style="stop-color:#A6A8AB"/>
			<stop offset="1" style="stop-color:#FFFFFF"/>
		</linearGradient>
		<rect x="155.3" y="208.1" class="st4" width="88.9" height="52"/>
	</g>
	<g>
		<defs>
			<path id="SVGID_10_" d="M227.5,179c-1-2.4-0.6-4.8,0.9-5.3c1.4-0.5,3.4,1,4.3,3.4c1,2.4,0.6,4.7-0.9,5.3     c-0.2,0.1-0.4,0.1-0.6,0.1c0,0,0,0,0,0C229.9,182.6,228.3,181.1,227.5,179 M212.7,179.4c-1.1-2.7-0.6-5.4,1-5.9     c1.6-0.6,3.8,1.2,4.9,3.9c1.1,2.7,0.6,5.4-1,5.9c-0.2,0.1-0.4,0.1-0.6,0.1C215.5,183.4,213.7,181.8,212.7,179.4 M222.8,155.3     l0.7,12l-3,0.1l-12-11.2l11.3,5.2L222.8,155.3z M198.7,134.7l1.1,6.8h-58.9L198.7,134.7z M215.2,146.2c-2.2-0.1-4.9-2.7-6.3-6.2     c-1.5-3.9-0.9-7.4,1.4-7.8c2.3-0.4,5.4,2.3,7,6.2c1.5,3.9,0.9,7.4-1.4,7.8c-0.2,0-0.3,0-0.5,0     C215.3,146.2,215.2,146.2,215.2,146.2 M207.8,125.2c-7.9,0.9-58.3,7.7-79.5,10.5l-21.2,43c-0.5,1-0.6,1.6-0.6,1.8     c0.2,0.1,0.6,0.5,1.4,0.9c0.9,0.4,2.4,0.9,4.1,1.2c1.9-10.9,8.4-20.9,18.7-26.9c6-3.5,12.5-5.1,19-5.2h0.4     c13.2,0.1,26.1,7,33.2,19.3c3.5,6,5.1,12.6,5.2,19.1v0.4c0,3.4-0.5,6.8-1.4,10.1h61.6l-9.2-14.3l-18.1-52.7     c-1-2.9-4.7-7.3-11.6-7.3C209.2,125.1,208.5,125.2,207.8,125.2"/>
		</defs>
		<clipPath id="SVGID_11_">
			<use xlink:href="#SVGID_10_" style="overflow:visible;"/>
		</clipPath>
		
			<linearGradient id="SVGID_12_" gradientUnits="userSpaceOnUse" x1="-273.2174" y1="447.2452" x2="-271.5692" y2="447.2452" gradientTransform="matrix(86.255 0 0 -86.255 23672.873 38739.3789)">
			<stop offset="0" style="stop-color:#00813D"/>
			<stop offset="1" style="stop-color:#00A84F"/>
		</linearGradient>
		<rect x="106.5" y="125.1" class="st5" width="142.2" height="74.3"/>
	</g>
	<g>
		<defs>
			<path id="SVGID_13_" d="M116.2,189.1c0,18.6,15.2,33.8,33.7,33.8c18.6,0,33.8-15.2,33.8-33.8c0-18.6-15.2-33.8-33.8-33.8     C131.3,155.4,116.2,170.5,116.2,189.1"/>
		</defs>
		<clipPath id="SVGID_14_">
			<use xlink:href="#SVGID_13_" style="overflow:visible;"/>
		</clipPath>
		
			<radialGradient id="SVGID_15_" cx="-284.5844" cy="446.1627" r="1.8649" gradientTransform="matrix(18.1013 0 0 -18.1013 5301.2617 8265.2188)" gradientUnits="userSpaceOnUse">
			<stop offset="0" style="stop-color:#58595B"/>
			<stop offset="1" style="stop-color:#231F20"/>
		</radialGradient>
		<rect x="116.2" y="155.4" class="st6" width="67.5" height="67.5"/>
	</g>
	<g>
		<defs>
			<path id="SVGID_16_" d="M130.6,164.5c-2.6,2.2-3.5,3.1-6.8,7.5c-0.3,0.5-2,3.1-2.3,4.2c0.9-0.1,2.3-0.5,2.7-0.7     c5.3-2.1,8.7-5.1,8.6-12.5c0,0-0.1-0.1-0.1-0.1C132.4,163.1,131.6,163.9,130.6,164.5 M146,195.4c3.9-0.8,9.4-4.1,10-12.2     c0.1-1-0.2-3.7-0.7-4.7l4.3-0.7c2.1,4.7,4.2,6.1,8.8,7.9l-0.2,5.1c-1.8-0.5-5.3,0.1-7,0.8c-6,2.7-9,8-7.6,15.6l-4.6,0.8     c-0.8-2.4-2.7-4.8-4.4-6.2c-1.1-0.8-1.9-1.3-4-2l0.5-4.2c0.6,0,1.2,0.1,1.8,0.1C143.9,195.8,144.9,195.7,146,195.4 M139.5,159.8     c-1.2,0.4-2.7,1-3.6,1.6c1.2,2.9,2.9,4,5.6,5.5l0.2,3.2c-7.2,1.1-12.2,7.1-11.3,15.3l-2.4,0.3c-1.2-1.8-1.6-2.5-2.7-3.5     c-1.6-1.3-2.7-2.1-5.1-2.5c-1.8,5.9-2.1,12.7,0,19.1c0.5,1.4,1.6,4.2,2.1,4.7c4.7-2.3,7.3-6.2,7.2-12c-0.1-1-0.3-2.2-0.6-3.6     l2.1-0.3c1.3,2.7,2.3,4.1,4,5.5c1.1,0.9,2.3,1.5,3.6,2l-0.7,4.4c-2.3,0-4.8,0.4-6.6,1.3c-3.6,1.9-7,5.3-7,6.1     c0.6,1.4,3.5,4.3,4.6,5.3c3.5,3.2,7.2,5.6,11.9,6.9c4.2,1.2,5.9,1.2,6.4,1.3c1.6-1.6,2.8-5.7,2.7-8.7l5.5-0.8     c1.2,1.8,2.8,3,3.3,3.3c1.6,1.2,5.3,2.6,6.6,2.3c2.1-1.2,5.7-4,6.9-5.3c2.2-2.3,5.1-5.9,6.5-9.4c0-5.3-4-8.5-7.4-10l0.1-5.7     c3.3,0,6-1,9.1-3.5c0.1-0.8-0.8-3.4-1.3-4.6c-2.4-6.1-7.2-12-13.7-15.9c-2.6,0.7-5.8,4.8-6.4,7.7c-0.5,1.8-0.4,3.3-0.4,5.5     L154,176c-0.4-0.6-1.1-1.6-1.4-1.8c-1.7-2.1-4.7-3.8-8.2-4.2l-0.1-2.5c0.8,0.1,2.1,0.3,3.2,0.3c5.8-0.4,8.9-3.3,11.1-7.1     c0.8-1.5-0.6-1.8-3.3-2.2c-2.1-0.3-4-0.5-5.8-0.5C146.3,157.9,143.3,158.5,139.5,159.8"/>
		</defs>
		<clipPath id="SVGID_17_">
			<use xlink:href="#SVGID_16_" style="overflow:visible;"/>
		</clipPath>
		
			<radialGradient id="SVGID_18_" cx="-285.7996" cy="446.0919" r="1.8672" gradientTransform="matrix(16.6967 0 0 -16.8716 4921.4551 7715.3433)" gradientUnits="userSpaceOnUse">
			<stop offset="0" style="stop-color:#FFFFFF"/>
			<stop offset="1" style="stop-color:#D0D2D3"/>
		</radialGradient>
		<rect x="118.1" y="157.9" class="st7" width="62.4" height="62.3"/>
	</g>
</g>
</svg>