<?xml version="1.0" encoding="UTF-8"?>
<!-- Generator: Adobe Illustrator 21.1.0, SVG Export Plug-In . SVG Version: 6.00 Build 0)  -->
<svg version="1.1" id="krasnodar" xmlns="http://www.w3.org/2000/svg" xmlns:xlink="http://www.w3.org/1999/xlink" x="0px" y="0px" viewBox="0 0 300 300" style="enable-background:new 0 0 300 300;" xml:space="preserve">
<style type="text/css">
	.st0{fill-rule:evenodd;clip-rule:evenodd;fill:#231F20;}
	.st1{fill-rule:evenodd;clip-rule:evenodd;fill:#FFFFFF;}
	.st2{fill-rule:evenodd;clip-rule:evenodd;fill:#005F36;}
	.st3{fill-rule:evenodd;clip-rule:evenodd;fill:#1C8050;}
</style>
<g>
	<path class="st0" d="M274.1,227.5c-10-9.1-18.8-15.5-31.5-19.3c0,0,0,0,0,0l0.1-0.2c3.8-8.6,8.6-19.4,0.8-25.1   c-1.2-0.9-5.7-2.8-8.1-3.7c1.3-6,2.2-11.8,2.7-17.8c0.5-6,0.7-12.4,0.4-19.5c-0.2-5.6-0.5-10.9-0.9-16.1c-0.3-4.2-0.5-8.5-0.7-13   c-0.8-17.5,0.8-36.9,4.8-57.6l0.5-2.5l-1.1-0.5c-2.6-1.1-5.6-2.4-9.1-4c-17.7-8-44.3-20-81-20.3h-1.9c-36.7,0.3-63.3,12.3-81,20.3   c-3.5,1.6-6.5,2.9-9.1,4l-1.2,0.5l0.5,2.5c3.9,20.7,5.6,40,4.8,57.6c-0.2,4.5-0.5,8.8-0.7,13c-0.3,5.2-0.7,10.5-0.9,16.1   c-0.3,7.2-0.1,13.5,0.4,19.5c0.5,6,1.4,11.8,2.7,17.8c-2.3,0.9-6.8,2.8-8.1,3.7c-7.8,5.7-3,16.5,0.8,25.1l0.1,0.1c0,0,0,0.1,0,0.1   c-12.7,3.8-21.5,10.2-31.5,19.3l-3,2.7l4,0c7.3-0.1,14.3,0.1,21.7,0.5c-4.2,8.1-5.7,18.7-6.3,24.6l-0.4,3.8l2.9-2.5   c19.6-17,41.8-19.6,46.3-20c20,26.6,54.6,34.5,58.6,35.3l0.3,0.1l0.3-0.1c3.9-0.8,38.6-8.7,58.6-35.3c4.4,0.3,26.6,2.9,46.2,20   l2.9,2.5l-0.4-3.8c-0.6-5.9-2.1-16.5-6.3-24.6c7.4-0.4,14.4-0.6,21.7-0.5l4,0L274.1,227.5z"/>
	<path class="st1" d="M273.1,228.6c-9.7-8.8-18.9-15.7-32.5-19.4c0.2-0.5,0.5-1.1,0.7-1.6c3.7-8.4,8.2-18.4,1.3-23.4   c-1.3-0.9-7.6-3.5-8.9-4c1.4-6.3,2.4-12.5,3-18.9c0.6-6.5,0.6-12.9,0.4-19.3c-0.4-10.1-1.1-19.1-1.6-29.1   c-1.3-28.4,4.1-54.1,5-59.2c-15.9-6.4-46.2-24.1-90.4-24.2l0,0c-44.2,0.1-74.5,17.8-90.4,24.2c0.9,5,6.3,30.7,5,59.2   c-0.5,10.1-1.2,19.1-1.6,29.1c-0.2,6.5-0.2,12.9,0.4,19.3c0.6,6.4,1.6,12.6,3,18.9c-1.3,0.5-7.7,3.1-8.9,4   c-6.9,5-2.4,15.1,1.3,23.4c0.2,0.5,0.5,1.1,0.7,1.6c-13.6,3.7-22.9,10.6-32.5,19.4c8.2-0.1,16,0.1,24.2,0.6   c-4.6,7.6-6.5,18.7-7.2,26.1c22.5-19.5,48-20.4,48-20.4c19.7,26.9,55.1,34.8,58.1,35.4l0,0c3.1-0.6,38.5-8.5,58.1-35.4   c0,0,25.5,0.9,48,20.4c-0.7-7.4-2.6-18.6-7.2-26.1C257.1,228.8,264.8,228.5,273.1,228.6z"/>
	<path class="st2" d="M222.3,225.5l0.6-0.2c1.2,0,0.9,0,1.7-0.2c1-0.2,3.3-0.8,3.8-4c0.2-1.5,0.3-2.5,0.2-2.6l0-0.1l-0.6-3.1   c2.9-0.6,4.9-1.9,4.9-1.9c6.2,0.4,16.1,4.2,23.6,9.5c-7.5,0.2-13,0-18,2c4.3,4,4.1,8.4,7.5,16.2c-9.8-6.1-19.2-9.6-29.6-10.8   c-4-0.5-9.6-1.2-11.5-2c0.7-1,3.6-4.3,4.3-5.3C211.8,223.5,218.6,225.5,222.3,225.5z"/>
	<path class="st2" d="M213.5,219.3c0.3-0.4,0.5-0.9,0.8-1.3c0.8-1.4,1.5-2.8,2.3-4.2l8.1,2.2c-0.1,0-0.1,0.1-0.2,0.1   c0.1,0,0.2,0,0.3-0.1l0.8,0.2l0.6,2.9c0,0.2,0.1,1.3-0.1,2.4c-0.2,1.2-0.4,2.6-1,2.7c-0.6,0.1-1.7,0.2-2.7,0.2c-3.3,0-8-1-11-1.5   C212,221.7,212.8,220.4,213.5,219.3z"/>
	<path class="st0" d="M203.5,227.6c2.2,0.3,7.6,1,11.8,1.7c10.5,1.6,20.1,4.2,29.9,10.3c-2.3-5.8-4.5-10.7-8.3-15.5   c4.8-0.9,9.6-1.6,17.1-1.8c-7.5-5.1-15.6-7.2-21.4-7.8c0,0-1.7,0.4-4.6,1l0.6,3.1l0,0.1c0,0.1,0.2,1.5,0,3c-0.5,3.1-2.2,4-3.2,4.2   c-0.7,0.2-1.6,0.2-2.8,0.2l0,0c-3.8,0-9.4-1-12.1-1.4c0.3-0.4,0.3-0.8,0.6-1.2c0.3-0.4,0.8-0.7,1-1.1c2.8,0.5,7.3,1.2,10.4,1.2   c1,0,1.7-0.1,2.2-0.2c0.6-0.1,0.9-0.7,0.6-1.2c-0.5-0.9,0.7-2.9,0.7-3.1l-0.5-2.7l-0.8-0.2l-0.1,0L217,214c0.2-0.4,0.4-0.8,0.6-1.2   c0.2-0.4,0.4-0.8,0.6-1.2l9.5,2.5l0.1,0.5c0,0,0,0,0,0c0.9-0.5,2.2-1.3,2.9-2l0.8-0.8l1.2,0.1c16.6,1.7,29.4,12.6,29.4,12.6   s-11.6,0.2-20.1,1.6c7.1,11.8,8.3,20.2,8.3,20.2l-6.8-4.2c-9.4-5.6-17-8.3-27.5-10c-3.8-0.6-10.1-1.6-13.6-2.1   C203.1,229.2,203,228.3,203.5,227.6z"/>
	<path class="st2" d="M77.7,225.5l-0.6-0.2c-1.2,0-0.9,0-1.7-0.2c-1-0.2-3.3-0.8-3.8-4c-0.2-1.5-0.2-2.5-0.2-2.6l0-0.1l0.6-3.1   c-2.9-0.6-4.9-1.9-4.9-1.9c-6.2,0.4-16.1,4.2-23.6,9.5c7.5,0.2,13,0,18,2c-4.3,4-4.1,8.4-7.5,16.2c9.8-6.1,19.2-9.6,29.6-10.8   c4-0.5,9.6-1.2,11.5-2c-0.7-1-3.6-4.3-4.3-5.3C88.2,223.5,81.4,225.5,77.7,225.5z"/>
	<path class="st2" d="M86.5,219.3c-0.3-0.4-0.5-0.9-0.8-1.3c-0.8-1.4-1.5-2.8-2.3-4.2l-8.1,2.2c0.1,0,0.1,0.1,0.2,0.1   c-0.1,0-0.2,0-0.3-0.1l-0.8,0.2l-0.6,2.9c0,0.2-0.1,1.3,0.1,2.4c0.2,1.2,0.4,2.6,1,2.7c0.6,0.1,1.7,0.2,2.7,0.2c3.3,0,8-1,11-1.5   C88,221.7,87.2,220.4,86.5,219.3z"/>
	<path class="st0" d="M96.5,227.6c-2.2,0.3-7.6,1-11.8,1.7c-10.5,1.6-20.1,4.2-29.9,10.3c2.3-5.8,4.5-10.7,8.3-15.5   c-4.8-0.9-9.6-1.6-17.1-1.8c7.5-5.1,15.6-7.2,21.4-7.8c0,0,1.7,0.4,4.6,1l-0.6,3.1l0,0.1c0,0.1-0.2,1.5,0,3c0.5,3.1,2.2,4,3.2,4.2   c0.7,0.2,1.6,0.2,2.8,0.2l0,0c3.8,0,9.4-1,12.1-1.4c-0.3-0.4-0.3-0.8-0.6-1.2c-0.3-0.4-0.8-0.7-1-1.1c-2.8,0.5-7.3,1.2-10.4,1.2   c-1,0-1.7-0.1-2.2-0.2c-0.6-0.1-0.9-0.7-0.6-1.2c0.5-0.9-0.7-2.9-0.7-3.1l0.5-2.7l0.7-0.2l0.1,0L83,214c-0.2-0.4-0.4-0.8-0.6-1.2   c-0.2-0.4-0.4-0.8-0.6-1.2l-9.5,2.5l-0.1,0.5c0,0,0,0,0,0c-0.9-0.5-2.2-1.3-2.9-2l-0.8-0.8l-1.2,0.1c-16.6,1.7-29.4,12.6-29.4,12.6   s11.6,0.2,20.1,1.6c-7.1,11.8-8.3,20.2-8.3,20.2l6.8-4.2c9.4-5.6,17-8.3,27.5-10c3.8-0.6,10.1-1.6,13.6-2.1   C96.9,229.2,97,228.3,96.5,227.6z"/>
	<path class="st2" d="M234.4,55.7c-0.2,1.2-0.4,2.3-0.6,3.4c-0.2,1.1-0.4,2.2-0.5,3.3c-0.2,1.1-0.3,2.2-0.5,3.3l0,0   c-0.1,1.1-0.3,2.1-0.4,3.2h0c-0.1,1-0.3,2.1-0.4,3.1l0,0c-6.9,56.9,7.5,72.3-6.5,119.1c-0.3,0.8-0.5,1.7-0.8,2.5   c-0.3,0.9-0.5,1.7-0.8,2.6c-0.3,0.9-0.6,1.8-0.9,2.7c-0.3,0.6-0.6,1.2-0.9,1.9l0,0c-0.3,0.6-0.6,1.2-0.9,1.8l0,0   c-0.3,0.6-0.6,1.2-0.9,1.8l0,0c-0.3,0.6-0.6,1.2-0.9,1.8l0,0c-0.3,0.6-0.6,1.2-0.8,1.7h0c-0.3,0.6-0.6,1.1-0.8,1.7l0,0   c-11,21.8-21.9,35.3-39,45.1c-0.4,0.3-0.9,0.5-1.3,0.8l0,0c-0.4,0.2-0.9,0.5-1.4,0.7l0,0c-0.5,0.2-0.9,0.5-1.4,0.7   c-0.5,0.2-0.9,0.5-1.4,0.7c-0.5,0.2-1,0.5-1.4,0.7l0,0c-0.5,0.2-1,0.5-1.5,0.7h0c-0.5,0.2-1,0.5-1.5,0.7l0,0   c-0.5,0.2-1,0.4-1.5,0.7l0,0c-0.5,0.2-1,0.4-1.6,0.6l0,0c-0.5,0.2-1.1,0.4-1.6,0.6h0c-0.5,0.2-1.1,0.4-1.6,0.6l0,0   c-4.4,1.7-7.7,3.3-12.7,4.8l0,0l0,0c-5.7-1.7-9.6-3.5-14.4-5.4h0c-0.5-0.2-1.1-0.4-1.6-0.6l0,0c-0.5-0.2-1-0.4-1.6-0.6l0,0   c-0.5-0.2-1-0.4-1.5-0.7l0,0c-0.5-0.2-1-0.4-1.5-0.7l0,0c-0.5-0.2-1-0.5-1.5-0.7c-0.5-0.2-1-0.5-1.4-0.7c-0.5-0.2-0.9-0.5-1.4-0.7   c-0.5-0.2-0.9-0.5-1.4-0.7c-0.5-0.2-0.9-0.5-1.4-0.7c-0.4-0.3-0.9-0.5-1.3-0.8l0,0c-0.4-0.3-0.9-0.5-1.3-0.8l0,0   c-0.4-0.3-0.9-0.5-1.3-0.8l0,0c-0.4-0.3-0.8-0.5-1.3-0.8l0,0c-0.4-0.3-0.8-0.5-1.2-0.8l0,0c-0.4-0.3-0.8-0.5-1.2-0.8l0,0   c-0.4-0.3-0.8-0.6-1.2-0.8l0,0c-0.4-0.3-0.8-0.6-1.2-0.9l0,0c-0.4-0.3-0.8-0.6-1.2-0.9l0,0c-0.4-0.3-0.8-0.6-1.1-0.9l0,0   c-10.5-8.4-18.5-19.3-26.4-34.4l0,0c-0.3-0.5-0.6-1.1-0.8-1.6l0,0c-0.3-0.5-0.6-1.1-0.8-1.7l0,0c-0.3-0.6-0.6-1.1-0.8-1.7l0,0   c-0.3-0.6-0.6-1.1-0.8-1.7l0,0c-0.3-0.6-0.6-1.2-0.8-1.8l0,0c-0.3-0.6-0.6-1.2-0.9-1.8l0,0c-0.3-0.6-0.6-1.2-0.9-1.8l0,0   c-0.3-0.6-0.6-1.2-0.9-1.9c-0.3-0.9-0.6-1.8-0.9-2.7c-0.3-0.9-0.6-1.7-0.8-2.6c-0.3-0.9-0.5-1.7-0.8-2.5l0,0   c-14-46.8,0.4-62.1-6.5-119.1l0,0c-0.1-1-0.3-2-0.4-3.1l0,0c-0.1-1-0.3-2.1-0.4-3.2l0,0c-0.1-1.1-0.3-2.2-0.5-3.3   c-0.2-1.1-0.3-2.2-0.5-3.3c-0.2-1.1-0.4-2.3-0.6-3.4l0.1,0l0.2,0l0,0c3.3-1.1,11.2-5.4,14-6.7l0.1,0c23.5-10.6,46.8-15.8,70-15.7   l0,0c23.3-0.1,46.6,5,70,15.7l0.1,0c2.8,1.2,10.7,5.6,14,6.7l0,0l0.2,0L234.4,55.7L234.4,55.7z"/>
	<path class="st1" d="M218.2,185.8c0-0.5,0.1-1.1,0.1-1.6c-20.3-5.7-43.5-9-68.3-9c-24.7,0-48,3.3-68.3,9c0,0.5,0.1,1.1,0.1,1.6   c0,0-0.1,0-0.1,0c0.4,7.3,1.8,15.2,5.1,25.1c0.2,0.6,0.4,1.2,0.6,1.8c0.2,0.6,0.4,1.2,0.7,1.9c0.2,0.6,0.5,1.3,0.7,1.9   c0.2,0.5,0.5,0.9,0.7,1.3c0.2,0.4,0.5,0.9,0.7,1.3c0.2,0.4,0.5,0.9,0.7,1.3c0.2,0.4,0.5,0.9,0.7,1.3c0.2,0.4,0.5,0.8,0.7,1.2   c0.2,0.4,0.5,0.8,0.7,1.2l0,0c0.2,0.4,0.5,0.8,0.7,1.2c0.2,0.4,0.5,0.8,0.7,1.2c6.5,10.9,13.1,18.8,21.7,24.9   c0.3,0.2,0.6,0.4,0.9,0.6c0.3,0.2,0.6,0.4,0.9,0.6c0.3,0.2,0.6,0.4,1,0.6c0.3,0.2,0.6,0.4,1,0.6c0.3,0.2,0.7,0.4,1,0.6   c0.3,0.2,0.7,0.4,1,0.6c0.3,0.2,0.7,0.4,1,0.6h0c0.3,0.2,0.7,0.4,1.1,0.6h0c0.4,0.2,0.7,0.4,1.1,0.6c0.4,0.2,0.7,0.4,1.1,0.5   c0.4,0.2,0.7,0.4,1.1,0.5c0.4,0.2,0.8,0.3,1.1,0.5c0.4,0.2,0.8,0.3,1.2,0.5c0.4,0.2,0.8,0.3,1.2,0.5c0.4,0.2,0.8,0.3,1.2,0.5   c0.4,0.2,0.8,0.3,1.2,0.5c0.4,0.2,0.8,0.3,1.3,0.5c0.4,0.2,0.8,0.3,1.3,0.5c0.4,0.2,0.9,0.3,1.3,0.5l0,0c3.9,1.4,8.2,2.7,12.9,3.9   l0,0c4.2-1.1,8-2.2,11.6-3.5l0,0c0.4-0.2,0.9-0.3,1.3-0.5h0c0.4-0.2,0.9-0.3,1.3-0.5c0.4-0.2,0.9-0.3,1.3-0.5l0,0   c0.4-0.2,0.8-0.3,1.3-0.5l0,0c0.4-0.2,0.8-0.3,1.2-0.5l0,0c0.4-0.2,0.8-0.3,1.2-0.5c0.4-0.2,0.8-0.3,1.2-0.5   c0.4-0.2,0.8-0.3,1.2-0.5c0.4-0.2,0.8-0.3,1.1-0.5c0.4-0.2,0.7-0.4,1.1-0.5c0.4-0.2,0.7-0.4,1.1-0.5c14.1-7.1,23-16.9,32-32.7   c0.2-0.4,0.5-0.8,0.7-1.2l0,0c0.2-0.4,0.5-0.8,0.7-1.2c0.2-0.4,0.5-0.8,0.7-1.3c0.2-0.4,0.5-0.9,0.7-1.3c0.2-0.4,0.5-0.9,0.7-1.3   c0.2-0.4,0.5-0.9,0.7-1.3c0.3-0.7,0.5-1.3,0.7-1.9c0.2-0.6,0.5-1.3,0.7-1.9c0.2-0.6,0.4-1.2,0.6-1.8c3.3-9.8,4.7-17.8,5.1-25.1   C218.2,185.8,218.2,185.8,218.2,185.8C218.2,185.8,218.2,185.8,218.2,185.8z"/>
	<path class="st0" d="M64.2,55.7c12.7,74.2-8.3,85.6,11.3,143.1C94,239,109.3,254.8,150,267c-33.4-15.7-56.3-38.8-66.8-70.5   C69.8,155.9,91,91.4,80.6,48.7C77.5,49.9,67.2,54.8,64.2,55.7L64.2,55.7z"/>
	<path class="st0" d="M235.8,55.7c-12.7,74.2,8.3,85.6-11.3,143.1C206,239,190.7,254.8,150,267c33.4-15.7,56.3-38.8,66.8-70.5   c13.5-40.6-7.8-105.1,2.6-147.8C222.5,49.9,232.8,54.8,235.8,55.7L235.8,55.7z"/>
	<path class="st2" d="M141,262.4c2.8,1.5,5.4,3.1,9,4.6l0,0c3.5-1.4,6.2-3.1,9-4.6l-9-9L141,262.4z"/>
	<path class="st1" d="M80.3,186.4c0-0.2-2.8-15.7-3.2-33.3c-0.2-11.6,1.2-27.2,2.6-42.2c0.8-8.8,1.7-18,2.2-25.9   c1.2-21.3-1.5-37.9-1.5-38.1l4-0.7c0.1,0.7,2.8,17.3,1.5,39c-0.5,8-1.3,17.2-2.2,26c-1.4,15-2.9,30.4-2.6,41.8   c0.4,17.3,3.1,32.5,3.1,32.6L80.3,186.4z"/>
	<path class="st1" d="M219.7,186.4c0-0.2,2.8-15.7,3.2-33.3c0.2-11.6-1.2-27.2-2.6-42.2c-0.8-8.8-1.7-18-2.2-25.9   c-1.2-21.3,1.5-37.9,1.5-38.1l-4-0.7c-0.1,0.7-2.8,17.3-1.5,39c0.5,8,1.3,17.2,2.2,26c1.4,15,2.9,30.4,2.6,41.8   c-0.4,17.3-3.1,32.5-3.1,32.6L219.7,186.4z"/>
	<path class="st3" d="M217.3,186.3l-14.6,14.3l6.8,6.7C212.5,200.9,215.1,193.9,217.3,186.3L217.3,186.3z"/>
	<path class="st3" d="M209.5,207.3l-6.8-6.7l14.6-14.3C215.1,193.9,212.5,200.9,209.5,207.3L209.5,207.3z"/>
	<polygon class="st0" points="81.4,182.7 82.9,181.6 82.9,187.3 81.4,188.5  "/>
	
		<rect x="137.6" y="223.5" transform="matrix(0.7071 -0.7071 0.7071 0.7071 -122.8382 175.1445)" class="st2" width="24.8" height="24.8"/>
	
		<rect x="137.6" y="188.4" transform="matrix(0.7071 -0.7072 0.7072 0.7071 -98.0771 164.9064)" class="st2" width="24.8" height="24.8"/>
	<path class="st2" d="M121.4,246.9l11.1-11.1L115,218.3L104.3,229C109.2,235.5,114.3,240.7,121.4,246.9z"/>
	<path class="st2" d="M178.6,246.9l-11.1-11.1l17.5-17.5l10.7,10.7C190.8,235.5,185.7,240.7,178.6,246.9z"/>
	<polygon class="st2" points="132.5,200.8 115,218.3 96.5,202.6 113.7,182.9  "/>
	
		<rect x="172.6" y="188.4" transform="matrix(0.7071 -0.7072 0.7072 0.7071 -87.8184 189.6734)" class="st2" width="24.8" height="24.8"/>
	<path class="st2" d="M75.4,216.1L75.4,216.1c0,0,0.1,0.1,0.2,0.1C75.5,216.1,75.4,216.1,75.4,216.1z"/>
	<path class="st0" d="M155.7,241.4c-1.3,1.4-3.4,2.2-5.7,2.2c-2.3,0-4.4-0.8-5.7-2.2c-1.2-1.2-1.7-2.9-1.6-4.9   c0.1-1.9,0.9-4.3,2-6.2l0.3-0.5l-0.9-0.4l0.7-0.9l2.2,1.2l-0.1,0.4c-0.5,1.3-1.4,3.8-1.5,5.3c-0.1,0.9-0.1,1.6,0.3,2.6   c1.1,2.8,3.5,2.9,4.5,3c2.1-0.1,3.6-1.1,4.3-3c0.3-0.9,0.3-1.7,0.3-2.5c-0.1-1.6-1-4-1.5-5.4l-0.2-0.4l2.2-1.2l0.7,0.9l-0.9,0.4   l0.3,0.5c1.1,1.8,1.9,4.3,2,6.2C157.4,238.6,156.8,240.2,155.7,241.4L155.7,241.4z M157.3,231l-0.2-0.4l1.1-0.5l-2.5-3.5l-4.5,2.5   l0.4,0.9c0.4,1,1.6,4.1,1.7,5.7c0,0.7,0.1,1.3-0.2,1.9c-0.7,1.7-2,2-2.9,2l0,0l0,0c-1.1-0.1-2.3-0.3-2.9-2c-0.2-0.7-0.2-1.2-0.2-2   c0.1-1.8,1.5-5.3,1.7-5.7l0.3-0.9l-4.5-2.5l-2.5,3.5l1.1,0.5l-0.2,0.4c-0.9,1.8-1.4,3.8-1.5,5.5c-0.1,1.3,0.1,2.4,0.5,3.4   c0.3,1,0.9,1.8,1.6,2.6c1.6,1.7,4.1,2.6,6.8,2.6c1.2,0,2.5-0.2,3.6-0.6c1.3-0.5,2.3-1.2,3.2-2c0.7-0.7,1.2-1.6,1.6-2.6   c0.4-1,0.5-2.2,0.5-3.4C158.7,234.9,158.2,232.9,157.3,231z"/>
	<path class="st0" d="M154.9,240.7c-1.1,1.2-3,1.9-4.9,1.9c-2,0-3.8-0.7-5-1.9c-1-1-1.4-2.4-1.3-4.1c0.1-1.6,0.7-3.7,1.6-5.3   c-0.4,1.3-0.9,2.9-1,4.1c-0.1,1.1-0.1,1.9,0.3,3c1.3,3.4,4.3,3.6,5.4,3.6c2.6-0.1,4.3-1.3,5.3-3.7c0.4-1.1,0.4-2,0.3-2.9   c-0.1-1.2-0.5-2.7-1-4.1c0.9,1.6,1.5,3.7,1.6,5.3C156.4,238.3,155.9,239.7,154.9,240.7L154.9,240.7z M154.8,230.6l-0.6-0.9l0.9-0.4   l-0.1-0.1l-1.4,0.8c0.5,1.3,1.4,3.9,1.5,5.5c0.1,0.9,0.1,1.7-0.3,2.7c-0.8,2.1-2.5,3.2-4.8,3.3c-0.9,0-3.7-0.2-4.9-3.3   c-0.4-1-0.4-1.8-0.3-2.8c0.1-1.6,1-4.1,1.5-5.5l-1.4-0.8l-0.1,0.1l0.9,0.4l-0.6,0.9c-1.1,1.8-1.9,4.2-2,6c-0.1,1.9,0.4,3.4,1.5,4.5   c1.2,1.3,3.1,2,5.3,2c2.1,0,4.1-0.8,5.3-2c1.1-1.1,1.6-2.6,1.5-4.5C156.7,234.8,155.9,232.4,154.8,230.6z"/>
	<path class="st0" d="M155.3,241.1c-1.2,1.3-3.2,2-5.3,2c-2.2,0-4.1-0.7-5.3-2c-1.1-1.1-1.6-2.6-1.5-4.5c0.1-1.8,0.9-4.2,2-6   l0.6-0.9l-0.9-0.4l0.1-0.1l1.4,0.8c-0.5,1.3-1.4,3.9-1.5,5.5c-0.1,1-0.1,1.8,0.3,2.8c1.2,3.1,4,3.3,4.9,3.3c2.4-0.1,4-1.2,4.8-3.3   c0.4-1,0.3-1.9,0.3-2.7c-0.1-1.6-1-4.2-1.5-5.5l1.4-0.8l0.1,0.1l-0.9,0.4l0.6,0.9c1.1,1.8,1.9,4.2,2,6   C156.9,238.4,156.4,240,155.3,241.1L155.3,241.1z M155.2,230.4l-0.3-0.5l0.9-0.4l-0.7-0.9l-2.2,1.2l0.2,0.4   c0.5,1.3,1.4,3.8,1.5,5.4c0,0.8,0.1,1.6-0.3,2.5c-0.8,1.9-2.2,2.9-4.3,3c-0.9,0-3.4-0.1-4.5-3c-0.3-1-0.3-1.7-0.3-2.6   c0.1-1.6,1-4,1.5-5.3l0.1-0.4l-2.2-1.2l-0.7,0.9l0.9,0.4l-0.3,0.5c-1.1,1.8-1.9,4.3-2,6.2c-0.1,2,0.4,3.7,1.6,4.9   c1.3,1.4,3.4,2.2,5.7,2.2c2.2,0,4.4-0.8,5.7-2.2c1.2-1.2,1.7-2.9,1.6-4.8C157.2,234.7,156.4,232.2,155.2,230.4z"/>
	<path class="st0" d="M158.3,239.9c-0.3,1-0.9,1.8-1.6,2.6c-0.8,0.9-1.9,1.6-3.2,2c-1.1,0.4-2.3,0.6-3.6,0.6c-2.7,0-5.2-1-6.8-2.6   c-0.7-0.7-1.2-1.6-1.6-2.6c-0.4-1-0.5-2.2-0.5-3.4c0.1-1.6,0.6-3.6,1.5-5.5l0.2-0.4l-1.1-0.5l2.5-3.5l4.5,2.5l-0.3,0.9   c-0.2,0.4-1.5,3.9-1.7,5.7c-0.1,0.8-0.1,1.3,0.2,2c0.6,1.6,1.8,1.9,2.9,2l0,0l0,0c0.9-0.1,2.3-0.3,2.9-2c0.2-0.6,0.2-1.2,0.2-1.9   c-0.1-1.6-1.3-4.7-1.7-5.7l-0.4-0.9l4.5-2.5l2.5,3.5l-1.1,0.5l0.2,0.4c0.8,1.8,1.4,3.8,1.5,5.5   C158.9,237.7,158.7,238.9,158.3,239.9L158.3,239.9z M157.8,230.8l1.2-0.5l-3.1-4.4l-5.3,2.9l0.5,1.3c0.5,1.2,1.6,4.1,1.6,5.5   c0,0.7,0.1,1.2-0.1,1.7c-0.6,1.4-1.6,1.6-2.5,1.7c-1.1-0.1-2-0.4-2.5-1.6c-0.2-0.6-0.2-1-0.2-1.7c0.1-1.4,1.1-4.1,1.6-5.5l0.5-1.3   l-5.3-2.9l-3.1,4.4l1.2,0.5c-0.9,1.9-1.4,3.9-1.5,5.6c-0.1,1.3,0.1,2.5,0.5,3.6c0.4,1,0.9,2,1.7,2.7c1.7,1.8,4.3,2.8,7.1,2.8   c1.3,0,2.6-0.2,3.7-0.6c1.3-0.5,2.5-1.2,3.4-2.2c0.7-0.8,1.3-1.7,1.7-2.7c0.4-1.1,0.6-2.3,0.5-3.6   C159.2,234.8,158.6,232.7,157.8,230.8z"/>
	<path class="st1" d="M157.8,236.6c-0.1-2.1-1-4.6-2.1-6.4l0.9-0.4l-1.3-1.8l-2.9,1.6c0,0,1.6,3.9,1.8,6c0.1,0.9,0.1,1.5-0.2,2.4   c-1,2.4-3,2.6-3.9,2.7c-1,0-3-0.2-3.9-2.7c-0.3-0.8-0.3-1.5-0.2-2.4c0.2-2.1,1.8-6,1.8-6l-2.9-1.6l-1.3,1.8l0.9,0.4   c-1.1,1.8-2,4.3-2.1,6.4c-0.3,5.4,4,7.5,7.8,7.5C153.7,244.1,158,242,157.8,236.6z"/>
	<path class="st0" d="M144.8,233.3l-0.6-0.2c0,0,0.2-0.6,0.4-1.1c0.1-0.3,0.3-0.6,0.4-0.9l-1.2-0.6l0.3-0.6l1.7,0.8l-0.1,0.3   c0,0-0.3,0.7-0.5,1.2C145,232.7,144.8,233.3,144.8,233.3z"/>
	<path class="st0" d="M143.8,238c0,0-0.1-0.4-0.1-1.3c0-0.8,0.1-1.4,0.1-1.4l0.6,0.1c0,0-0.1,0.6-0.1,1.3c0,0.8,0.1,1.1,0.1,1.1   L143.8,238z"/>
	<path class="st0" d="M150,242.7c-0.4,0-1.6-0.1-2.8-0.6c-1.4-0.6-2.4-2-2.4-2l0.5-0.4c0,0,0.9,1.3,2.2,1.8c1.5,0.6,2.7,0.6,2.7,0.6   l0,0.6C150.2,242.7,150.1,242.7,150,242.7z"/>
	<path class="st0" d="M155.2,233.3l0.6-0.2c0,0-0.2-0.6-0.4-1.1c-0.1-0.3-0.3-0.6-0.4-0.9l1.2-0.6l-0.3-0.6l-1.7,0.8l0.1,0.3   c0,0,0.3,0.7,0.5,1.2C155,232.7,155.2,233.3,155.2,233.3z"/>
	<path class="st0" d="M156.2,238l-0.6-0.1c0,0,0.1-0.4,0.1-1.1c0-0.7-0.1-1.3-0.1-1.3l0.6-0.1c0,0,0.1,0.7,0.1,1.4   C156.3,237.6,156.2,238,156.2,238z"/>
	<path class="st0" d="M150,242.7c-0.1,0-0.1,0-0.2,0l0-0.6c0,0,1.3,0.1,2.7-0.6c1.3-0.5,2.2-1.8,2.2-1.8l0.5,0.4c0,0.1-1,1.4-2.4,2   C151.5,242.6,150.4,242.7,150,242.7z"/>
	<path class="st1" d="M205.2,151.2c-1.1-2.4-3.4-6.8-4.2-13.2c0-0.2,0-0.3,0-0.4c-0.1-1-0.4-1.9-1-2.4c-0.6-0.6-1.4-1-2.5-0.9h0   h-0.1c-1.9,0-3.7-1.5-4.6-2.8c-0.9-1.3-1.5-3.1-1-4.6c1.2-2.8,1.5-5.4,1.1-7.7c-0.3-1.7-0.9-3.4-1.9-4.8c3.9-1,6.8-2.6,8.6-4.6   c1.9-2.1,2.5-4.6,2-7.3v0c0-0.2-0.2-0.8-0.2-0.8c-1.3-3.6-4.5-5-8.4-5.4c-3.4-0.4-7.7,0-11.6,0.8c-1.9-2.3-4.4-2.8-6.8-3.1   c-2.3-0.3-5-0.7-5.5-3.5c0,0-0.3-1.1,0-2.7c-0.8,0.6-1.8,2.3-1.8,2.3c-1.3,2.5-1.5,4.7-1.1,6.5c0.4,1.8,1.2,3.3,2.5,4.4   c1.3,1,2.9,1.7,4.9,1.8c2.2,0.1,4.7-0.4,7.5-1.7l0.9-0.2h0c4.6-0.7,12.8-1.8,14.4,2.4c0.6,1.7-0.8,3.8-1.9,4.6   c-1.1,0.7-2.7,1.1-4.3,1.2c-1,0-2,0-3.1-0.2c-2.5-0.4-4.7-1.1-6.6-1.7c-2.2-0.7-3.4-1-5.3-1.2c-5.2-0.7-10.1-0.5-15.1-0.2   c-5.5,0.2-11,0.5-16.3-0.6c-0.9-0.4-1.9-0.9-2.9-1.4c-4.7-2.4-9.6-4.9-17.2,0.3c-4.7,1-9.2,3.5-13.4,7.8   c-4.1,4.3-7.9,10.6-11.1,19.1c-0.8,1.5-1.3,3-1.3,4.4c0,1.2,0.3,2.2,1,3.2c-1.8,1.8-3.8,3.3-5.9,4.7l-3.9,2.7   c3.4-0.2,6.8-0.2,10-1.3c1.4-0.5,2.7-1.1,3.9-1.9c0.7,0.7,1.2,1.5,1.7,2.2h0c0.9,1.5,3.2,6.1,4.5,6.3c1.3,0.7,4.6-2,5-2.3   c-1.1,2-2.2,3.3-3.5,5.1c-0.7,0.8-1.5,1.8-1.9,2.6c-0.6,1.1-1.5,3.8-1.7,5.2c0.3-0.1-0.5,0.8,0,0.8c0.1,0.5,1.5-1.3,1.7-0.8   c2.8-0.2,7.1-2.1,7.5-0.6c1.1-0.6,1.5-3.1,1.4-4.9l0-0.1l0.1,0h0c0.4-0.1,0.8-0.4,1.1-0.8c0.3-0.4,0.5-0.9,0.8-1.6   c0.4-1.3,0.6-1.7,1.2-2.8c0.5-1,1.1-1.9,1.4-2.3c0.9,0.8,2.3,0.3,3,1.1c0.9,0.8,0.9,1.3,1.5,2.4c1.5,2.5,2.7,5.2,7.1,5.8   c1.2,0.9,2.5,1.6,3.9,1.9c3,0.7,6.6-0.3,6.6-0.3l-5.5-9.2l-2,1.2c0.1-0.7-0.1-1.1-0.7-1.6c-0.6-0.5-2.7-1.8-3.6-2.5   c-0.8-0.7-1.7-1.7-2.5-2.6c0,0-1.1-1.1-1.6-1.4c1.3-2,5.5-2.3,6.4-2.5c4.7-0.8,11.7-1,13.4-1.2c1.6-0.2,3-0.3,4.8-0.1l0,0   c0.3,0,0.5,0.3,0.7,0.5h0c1,1.1,1.7,2,4.8,0.1c2.1-1,3.8-1.7,5.4-2c1.3-0.2,2.5-0.2,4,0c0,0.9,0.2,1.7,0.7,2.6   c0.6,1.2,1.5,2.4,2.8,3.6c0.3,0.3,0.5,0.5,0.5,0.9c0,0.4,0,0.6-0.3,0.9l-6.7,6l-0.3,0.3l-0.1,0.4c-0.1,0.7-0.8,1.4-1.6,2.1   c-1.1,1-2.1,2-2.6,3.5c-0.6,1.5-0.4,1.8-0.4,1.8l10.1,0.4l0.4,0.1l0.8-3l1,1l0.6-2.1c1.2-4.5,2.9-5.2,5.6-7.1h0   c1.8-1.2,3.9-2.1,5.1-3.8l0.3-0.4c0.8-1.2,0.6-2.7-0.1-4l-0.2-0.3l-0.2-0.2c3.1,1.9,6.2,2.1,7.9,2.2c1,0,2-0.1,2.5,0.5   c1.9,2.8,3,8,3.2,11.2c-0.7,0.6-1.6,1.8-2,2.6c-1.4,2.6-1.7,4.9-1.7,4.9l9.6,1.4l1.6-2.8c0,0-0.6-3.1,0.1-2.7   c0.6,0.4,0.9,0.7,0.9,0.7l0.6-1.1C207.1,154.3,206.1,153.4,205.2,151.2L205.2,151.2z M118.4,134.7c1.5-0.5,2.2,0.5,2.3,1   c-1.1,2-2.1,4.1-3.2,6.3l0,0.1c0-0.3-0.1-0.6-0.1-0.9c0-0.2,0-0.3,0-0.4l0-0.3c0.9-1.6,1.3-3.2,1.2-4.8   C118.5,135.4,118.4,135.1,118.4,134.7L118.4,134.7z M204.6,156.5l-1.4-0.3c-0.7,0-0.9,1.2-0.4,2.9l-1.3,2.6l-6.7-0.9   c0.6-2.2,1.5-4.3,3.2-5.6c0,0,0.7-0.8,0.6-1.7c0.2-1.6-1.9-7.7-4.3-11.3c-1.3-1.8-4.6,0-11-3c-1.7-1-2.3-2.9-2.2-3.7   c-1.8,0.5-1.2,3.3,0.9,6c0.7,1,0.7,2.1,0.1,3.2c-2.9,4.1-8.8,3.5-10.9,11.3l-1.5-1.5l-0.6,1.9l-2.2,3.1l2-0.8l-7.4-0.3   c0.7-2.6,3.7-3.4,4-5.7l6.7-6c1.1-1,1.1-2.2-0.2-3.5c-2.5-2.2-3.5-4.4-3.1-6.4c-4.3-0.9-6.9-0.2-11.4,2c-3.2,2-2.6-0.5-4.7-0.8   c-3.9-0.5-5.9-0.8-12-1.1c-15.7-1.3-15.9,5.2-15.2,6.8c0.3,0.5,2.2,0.5,3.2,1.6c1.6,1.9,2.9,3.3,4.8,4.2c1.9,1.1,1.8,2,0.6,2.6   c1.1,0.8,1.8,0.9,2.7,0.3l1.1-0.7l3.8,6.5c-3.2,0.4-5.6-0.2-8-1.9c-5.9-0.7-5.8-5.7-8.9-8.5c-0.9-1-1.8-2.4-3.7-0.8   c-1.5,2.1-2.2,3.5-3.3,6c-0.3,0.7-0.7,1.7-1.7,1.1c-0.2,2.1-0.6,5.1-1.4,5.7l-6.3,0.4c-0.1-1.8,2.1-3.4,2.7-5.7   c4.5-5.7,6.8-11.9,10.4-18.2c0.6-0.9-0.8-4-1.8-4.4c-0.6,0.3-2.8,1.6-3.3,2.4c0.7,2,0.4,4-0.8,6c-0.2,1.4,0,2.7,0.6,3.7l-1,1.5   c-1.3-0.4-0.8-2.4-1.5-3.5c-1.5,1,0.7,3.6-0.3,5.3c-0.4,0.7-1.3,0.8-2,1.1c-0.5,1.3-1.6,0.8-2.4,1.4c-0.7-0.8-1.2-2-1.6-3.3   c-1.8-1.2-2.5-3.6-4.9-5.5c-2.8,2-5.9,3.1-9.4,3.3c2.7-1.8,5.2-3.7,7-5.8c-2.1-1.8-1.8-4.3-0.3-7c6.3-16.7,14.6-24.4,23.8-26.2   c8.7-6.1,13.6-1.2,19.2,1.1c10.5,2.2,20.6,3.4,30.7,5.2c2.2-0.4,7.3-2.2,12.8-1.4c3.6,0.6,7.2,0.2,9.2-1.9c1.1-1.2,2.2-3.2,1.6-5.3   c-2.1-5.8-12.2-3.8-16.9-3.1c-9.3,4.5-13.4-2.3-12.7-7.8c1.4,7.2,9.2,1.1,12.8,6.5c8.2-1.7,17.6-2.1,19.5,3.6   c1.4,5-2.4,9.8-11.5,11.5c3.1,3.5,4,7.8,1.8,13.1c-1.4,3.7,2.3,9.1,6.8,9c1.5-0.1,2,1,2.2,2.6C202,151.1,206.4,152.5,204.6,156.5z"/>
	<path class="st0" d="M93.7,144c2.7-1.8,5.2-3.7,7-5.8c-2.1-1.8-1.8-4.3-0.3-7c6.3-16.7,14.6-24.4,23.8-26.2   c8.7-6.1,13.6-1.2,19.2,1.1c10.5,2.2,21.6-0.9,31.8,0.9c3.3,0.3,6.3,1.9,11.7,2.9c3.6,0.6,7.2,0.2,9.2-1.9c1.1-1.2,2.2-3.2,1.6-5.3   c-2.1-5.8-12.2-3.8-16.9-3.1c-9.3,4.5-15-0.5-12.7-8.9c1.4,7.2,9.2,2.2,12.8,7.5c8.2-1.7,17.6-2.1,19.5,3.6   c1.4,5-2.4,9.8-11.5,11.5c3.1,3.5,4,7.8,1.8,13.1c-1.4,3.7,2.3,9.1,6.8,9c1.5-0.1,2,1,2.2,2.6c2.3,12,6.6,14.2,5.8,17.7   c-0.1,0.3-0.4,1.2-0.4,1.2c-0.5-0.6-1.3-0.7-1.3-0.7c-0.7-0.2-0.9,2.2-0.7,3.8l-1.3,2.2l-7.1-1c0.5-1.9,1.6-4.6,3.4-6.4   c0,0-0.1-1.1-0.1-2.1c-0.1-2.2-1.2-7.1-3.5-10.7c-1.3-1.8-4.6,0-11-3c-1.7-1-2.1-1.9-2.7-3.3c-0.7,0.5-0.7,2.9,1.4,5.6   c0.7,1,0.7,2.1,0.1,3.2c-2.9,4.1-8.8,3.5-10.9,11.3l-1.2-1.1l-1.2,4.1l0,0l-7.4-0.4c0.7-2.6,3.7-3.5,4-5.8l6.7-6   c1.1-1,1.1-2.2-0.2-3.5c-2.5-2.2-3.5-4.4-3.1-6.4c-4.3-0.9-6.9-0.2-11.4,2c-3.2,2-2.6-0.5-4.7-0.8c-4.5-0.4-17.7,1.1-21.1,1.8   c-2.9,0.6-5,2.2-5.3,3.6c0.5,0.3,1.5,0.8,2.4,1.9c1.6,1.9,2.9,3.3,4.8,4.2c1.9,1.1,1.8,2,0.6,2.6c1.1,0.8,1.8,0.9,2.7,0.3l1.1-0.7   l3.8,6.5c-3.2,0.4-5.6-0.2-8-1.9c-5.9-0.7-5.7-5.3-8.8-8.1c-0.9-0.8-2,0-3.6-1.5c-1.5,2.1-2.4,3.7-3.5,6.2   c-0.3,0.7-0.7,1.7-1.7,1.1c-0.2,2.1-0.5,5.4-1.3,5.9l-6.8,0.7c0.3-1.5,1.2-4.4,3.1-6.3c4.5-5.7,6.8-11.9,10.4-18.2   c0.3-0.7-0.6-2.1-1.6-2.5c-0.9-0.4-3.1-0.3-3.6,0.4c0.7,2,0.4,4-0.8,6c-0.2,1.4,0,2.7,0.6,3.7l-1,1.5c-1.3-0.4-0.8-2.4-1.5-3.5   c-1.5,1,0.7,3.6-0.3,5.3c-0.4,0.7-4,3.3-4.8,2.3c-1.9-1.9-3.7-6.7-6.1-8.7C100.2,142.7,97.1,143.8,93.7,144z"/>
	<path class="st1" d="M101.7,137.1c-1.9-2.9,3.3-4.1,2.8-0.3c-0.8,2.7-3,4.4-7.8,5.9c3.9-2.7,6.4-5,5.9-6.5   C102.5,135.4,101.3,136,101.7,137.1L101.7,137.1z"/>
	<path class="st1" d="M116.6,133.5c-1.3-5.2-2.7-5.3-6.2-7.2c2.4,0.2,3.7,0.4,4.9,1.6C116,128.8,117.3,130.4,116.6,133.5   L116.6,133.5z"/>
	<path class="st1" d="M121.6,115.9c0.1-2.8,0.3-6.7,2.1-9.2c-8.1,2.1-12.4,7-15.9,12.6c4.3-5.3,9.5-9,13.3-9.9   C119.8,111.8,121.3,113.7,121.6,115.9L121.6,115.9z"/>
	<path class="st1" d="M112.4,67.8l4,4.1l-2,5.4c2,0,4.6-0.3,7.2-0.8c0.5-0.1,0.9-0.2,1.4-0.3c0.9-0.2,1.7-0.4,2.4-0.7l0.1,0l2.1-0.3   l2.5-2l2.5,0.7c1.6-2,2.7-2.8,5.2-3.7c2.5-0.9,5.2-1.2,7.8-0.8l-0.6-1.5l1.2,0.1c0.4,0,0.8,0.1,1.2,0.1l-2.9-7.8   c-0.5-0.1-1.1-0.1-1.8-0.1c-2,0-5.1,0.3-8,1.2c-2.3,0.7-4.7,2.4-6.6,4.7l-0.6,0.7l-0.6-0.6c-0.6-0.6-1.4-1-2.1-1.2   c-0.2,0-0.4,0-0.6,0l-0.2,0l-0.4-0.2l-2.1,1.1c-0.9,0.3-1.8,0.6-2.8,0.8c-0.4,0.1-0.8,0.2-1.3,0.3   C115.5,67.5,113.7,67.7,112.4,67.8L112.4,67.8z M114.2,78.9c-0.4,0-0.7,0-1.1,0l-1.1-0.1l2.5-6.5l-5.8-6l1.9,0c0,0,3,0,6.6-0.8   c0.4-0.1,0.8-0.2,1.2-0.3c0.9-0.2,1.7-0.5,2.6-0.8l2.7-1.4l0.8,0.4l0,0c0.3,0,0.5,0,0.8,0.1c0.8,0.2,1.5,0.5,2.3,1.1   c2-2.2,4.4-3.8,6.8-4.5c3.1-1,6.4-1.3,8.5-1.3c0.9,0,1.7,0.1,2.3,0.2l0.7,0.1l4.2,11.3l-2.2-0.4c-0.1,0-0.2,0-0.3-0.1l0.7,1.8   l-2.3-0.4c-2.5-0.5-5.1-0.3-7.5,0.6c-2.3,0.9-3.1,1.6-4.8,3.6l-0.3,0.4l-2.8-0.8l-2.2,1.8l-2.4,0.3c-0.8,0.2-1.6,0.5-2.5,0.7   c-0.5,0.1-0.9,0.2-1.4,0.3C119.1,78.6,116.4,78.9,114.2,78.9z"/>
	<path class="st1" d="M134.8,77.5c-0.3,0.1-0.5,0.2-0.7,0.3C134.3,77.7,134.6,77.6,134.8,77.5z"/>
	<path class="st0" d="M124.4,75.8L124.4,75.8C124.4,75.8,124.4,75.8,124.4,75.8L124.4,75.8z"/>
	<path class="st0" d="M124.6,75.5L124.6,75.5L124.6,75.5C124.5,75.5,124.6,75.5,124.6,75.5z"/>
	<path class="st0" d="M127.7,67.9L127.7,67.9c0.1,0.2,0.2,0.4,0.4,0.6C127.9,68.2,127.8,68,127.7,67.9z"/>
	<path class="st1" d="M134.1,61.8L134.1,61.8c-0.8,0.3-1.5,0.7-2.1,1c-0.7,0.4-1.2,0.7-1.7,1.1l2.3,1L134.1,61.8L134.1,61.8z    M137,70.3L137,70.3l-2.7-0.9l-1.4,2.9c0.2,0.1,0.4,0.1,0.6,0.1c0,0,0.1,0,0.1,0c0.3,0,0.6-0.1,0.8-0.2c0,0,0,0,0.1,0c0,0,0,0,0,0   c0.2-0.1,0.3-0.1,0.5-0.2l0.1,0c-0.1-0.6,1-1,1.6-1.3c0.2-0.1,0.3,0,0.5-0.1l0.1,0L137,70.3L137,70.3z M134.1,61.8L134.1,61.8   c0.2-0.1,0.3-0.2,0.5-0.2c0.4-0.2,0.8-0.3,1.2-0.5c1-0.4,2-0.7,3-1.1l-1.5,3.1L134.1,61.8L134.1,61.8z M139.5,64.1l-2.2-0.9   l-1.5,3.1l3.2,1.4l0.9-1.9l-0.8-0.4L139.5,64.1L139.5,64.1z M137.4,70.5l1.6-2.8l3,1.7c-0.4,0.1-1.2,0.2-1.5,0.3   c-0.3,0.1-0.9,0-1.2,0.2c-0.2,0.1-0.6,0-1,0.2c-0.2,0.1-0.3,0.2-0.5,0.2C137.6,70.3,137.5,70.4,137.4,70.5L137.4,70.5L137.4,70.5z    M135.8,66.3l-1.5,3.1l-3.2-1.4l1.5-3.1L135.8,66.3L135.8,66.3z M133.8,71.9l-2.5-7l-0.2-0.9c1.6-1.9,3.9-2.7,6.2-3.5   c2.3-0.9,4.7-1.1,7.1-0.6l0.2,0l2.8,9l-0.7-0.1c4.2,0.9-7.2,1.1-6.7,0.9c2.1-0.8-4.1,1.1-5.8,2.3L133.8,71.9z"/>
	<path class="st0" d="M128.6,69.6C128.6,69.6,128.6,69.6,128.6,69.6C128.6,69.6,128.6,69.6,128.6,69.6z"/>
	<path class="st0" d="M128.3,69C128.3,69,128.3,69,128.3,69C128.3,69,128.3,69,128.3,69z"/>
	<path class="st0" d="M128.6,66.2l3,8.1c1.7-1.9,3.9-3.4,6.3-4.2c2.4-0.9,5-1.2,7.5-0.8l-3-8.1c-2.5-0.4-5.1-0.2-7.6,0.7   C132.4,62.7,130.2,64.2,128.6,66.2L128.6,66.2z M131.2,76.2L127.4,66l0.2-0.2c1.8-2.2,4.1-3.9,6.8-4.9c2.7-1,5.6-1.2,8.4-0.7   l0.3,0.1l3.7,10.2l-0.8-0.2c-2.6-0.5-5.3-0.3-7.9,0.6c-2.5,0.9-4.7,2.5-6.4,4.6L131.2,76.2z"/>
	<path class="st1" d="M123.7,71c-1.3-2.3-1.3-4.1,0-4.9c1-0.6,2.8-0.1,4.2,2.3c1.4,2.4,0.9,4.2-0.1,4.8C126.4,74,125,73.3,123.7,71   L123.7,71z M141.7,80.1c0.2-0.6,0-1.1-0.1-1.3c-0.3-0.6-1-0.9-1.9-0.9l-0.3,0l-5.1-8.1l0-0.1c-0.5-2.4-2.2-6.1-3.6-8.7   c-0.3-0.6-0.5-1.1-0.8-1.6c-1.5-3.1-3-6-4-9.1c-0.1-0.2,0-0.6,0.1-1.2c0.2-0.7,0.3-1.5,0-2.2l-0.1-0.1c-1-1.7-3.8-1.7-7.2,0.2   c-2.8,1.5-5.7,4.1-4.5,6.6l0,0.1c0.6,1,1.5,1.3,2.3,1.5c0.2,0.1,0.4,0.1,0.6,0.2l0.1,0l0.8,0.9c1.6,1.8,2.8,3.1,4,4.6l0.4,0.5   l-0.6,0.3c-3.6,2.1-4.2,6.6-1.5,11.2c2.7,4.7,6.9,6.4,10.5,4.4c0.5-0.3,1-0.6,1.4-1l0.5-0.4l0.3,0.5c0.9,1.6,1.6,2.8,2,3.7l0.1,0.3   l-0.2,0.2c-0.5,0.8-0.6,1.5-0.2,2.1c0.7,1.2,2.5,1.2,4.5,0C140.5,82,141.5,81,141.7,80.1z"/>
	<polygon class="st0" points="123.9,63.9 129.8,66.7 131.2,73.4 128.1,75.9 125.1,76.3 119.7,67.5 121.1,65.4  "/>
	<path class="st0" d="M138.6,80.5c-0.5,0.3-0.7,0.4-0.7,0.4c-0.1-0.4-0.1-0.8,0-1c-0.4-0.8-3.5-6.3-3.5-6.3s-0.1-0.1,0-0.2   c0.1,0,0.1,0,0.1,0l3.9,6.2c0.2,0,0.7,0.1,0.9,0.3C139.3,79.9,139.1,80.1,138.6,80.5L138.6,80.5z M132.7,71.2c0,0-0.2-1.7-1.4-4   c0,0-8.2-14.8-9-16.3c-0.8-1.5,0.5-2.2-1.8-2.6c1.1-0.6,2.8-1.1,3.5-0.9c0.4,0.1-0.1,0.9-0.3,1.3c-0.3,0.7-0.3,1.3,0.2,2.4   c0,0.1,0.1,0.2,0.1,0.3c2.6,5.7,5.8,11.3,7.7,15.3C132.6,69,132.9,70.3,132.7,71.2L132.7,71.2z M128.4,74.1   c1.6-0.9,2.1-3.3,0.5-6.1c-1.6-2.8-4-3.6-5.6-2.7c-1.6,0.9-2.3,3-0.4,6.3C124.7,74.7,126.8,75,128.4,74.1L128.4,74.1z M140.7,79.2   c-0.2-0.4-0.9-0.5-1.8-0.3l-5.5-8.8c-0.3-2.3-2.2-6.1-3.5-8.8c-1.8-3.6-3.6-7.1-4.9-10.9c-0.3-1.1,0.6-2.4,0.1-3.2   c-1.5-2.9-11.6,2.5-10,5.8c0.6,1.1,2,0.9,2.8,1.5c2.6,2.9,8.7,10.2,8.7,10.2l-3.3-2.8c-0.3,0.1-0.5,0.2-0.9,0.5   c-3.1,1.8-3.5,5.8-1.1,9.9c2.4,4.1,5.9,5.8,9.1,4c2.3-1.3,2.9-3.2,2.9-3.2c0.3,0.6,0,1.6,0,1.6c1,1.7,2.4,4.4,3.1,5.7   c-0.7,0.6-1,1.3-0.7,1.7c0.4,0.6,1.8,0.5,3.2-0.3C140.2,81,141.1,79.9,140.7,79.2z"/>
	<path class="st1" d="M128,73.9C128,73.9,128,73.9,128,73.9c1.1-0.8,1.6-2.5,0.6-5c-0.9-2.3-2.2-3.4-3.4-3.6c0,0-0.1,0-0.1,0   c-0.3-0.1-0.6-0.1-0.9,0c0,0,0,0-0.1,0c0,0,0,0,0,0c-0.2,0.1-0.4,0.2-0.6,0.3l-0.1,0c-0.7,0.3-1.3,0.5-2,0.7   c-0.9,0.3-1.7,0.5-2.6,0.7c-0.4,0.1-0.8,0.2-1.2,0.3c-1.4,0.3-2.7,0.5-3.7,0.6l2.4,4.3l-0.9,4.5c1.7-0.1,3.7-0.3,5.6-0.6   c0.4-0.1,0.9-0.2,1.3-0.3c1.1-0.2,2-0.5,2.9-0.7C126.5,74.8,127.5,74.4,128,73.9z"/>
	<polygon class="st2" points="122.4,70.7 126.1,72.6 128.1,69.4 124.4,67.4  "/>
	<path class="st2" d="M120.8,65.8L120.8,65.8c-0.2,0.1-0.3,0.1-0.5,0.2c-0.2,0.1-0.4,0.1-0.6,0.2c-0.4,0.1-0.8,0.3-1.1,0.4   c-0.4,0.1-0.9,0.3-1.3,0.4c-0.5,0.1-0.9,0.2-1.4,0.4l2.8,1.4L120.8,65.8z"/>
	<polygon class="st2" points="120.1,74.1 122.4,70.7 118.7,68.8 116.4,72.4  "/>
	<path class="st2" d="M123.4,76.1l-3.4-2l-1.8,3.2c1.2-0.2,2.5-0.5,3.7-0.8C122.5,76.3,122.9,76.2,123.4,76.1   c0.2-0.1,0.4-0.1,0.6-0.2L123.4,76.1z"/>
	<path class="st2" d="M120.8,65.8L120.8,65.8l3.6,1.6l1.7-2.5c-0.3-0.1-0.2-0.1-0.5-0.2c0,0-0.8,0.5-0.6,0c0.1-0.4-0.2-0.3-0.6-0.4   c0,0,0,0-0.1,0c0,0,0,0-0.1,0c-0.3,0.1-0.4,0-0.6,0.2l-0.1,0c-0.7,0.4-1.5,0.7-2.2,1C121.3,65.7,121,65.7,120.8,65.8L120.8,65.8   L120.8,65.8z"/>
	<path class="st2" d="M124.1,75.9L124.1,75.9c1-0.3,1.9-0.6,2.6-0.9c0.8-0.3,1.5-0.6,2.1-0.9l-2.7-1.5L124.1,75.9z"/>
	<path class="st2" d="M129.6,70.1L129.6,70.1c0-0.4,0-0.4-0.1-0.8c0,0-0.2,0-0.2,0c-0.1-0.2,0-0.3-0.1-0.6c0,0-0.2-0.3-0.2-0.4   c-0.1-0.2,0,0-0.1-0.2c-0.1-0.3-0.2-0.1-0.3-0.3l-0.6,1.5L129.6,70.1z"/>
	<path class="st0" d="M128,73.9C128,73.9,128,73.9,128,73.9c-0.2,0.3-0.5,0.4-0.9,0.6c-0.5,0.2-1.1,0.5-1.9,0.7   c-0.7,0.2-1.5,0.4-2.3,0.6c0,0,0,0,0,0c-0.2,0-0.4,0.1-0.5,0.1c-0.4,0.1-0.8,0.2-1.3,0.3c-1.1,0.2-2.2,0.4-3.3,0.5   c-0.8,0.1-1.6,0.1-2.3,0.2l1.8-4.9L114,68c0.7-0.1,1.6-0.2,2.5-0.4c0.4-0.1,0.8-0.1,1.2-0.2c0.4-0.1,0.8-0.2,1.2-0.3   c0.3-0.1,0.6-0.2,1-0.3c0.2-0.1,0.4-0.1,0.5-0.1c0.1,0,0.3-0.1,0.4-0.1c0.2-0.1,0.4-0.1,0.6-0.2c0.6-0.2,1.3-0.5,2-0.7l0.1,0   c0.6-0.3,1.3-0.4,1.6-0.4c0,0,0.1,0,0.1,0c0.2,0,0.4,0.1,0.7,0.2c0.9,0.4,1.8,1.2,2.5,2.7c0.1,0.2,0.2,0.4,0.3,0.7   c0.1,0.2,0.2,0.5,0.2,0.7c0,0,0,0.1,0,0.1c0.1,0.2,0.1,0.4,0.1,0.6c0,0,0,0,0,0.1c0.1,0.4,0.1,0.8,0.1,1.2l0,0   C129,72.7,128.6,73.4,128,73.9L128,73.9z M129.7,68.7C129.7,68.7,129.7,68.7,129.7,68.7C129.7,68.6,129.7,68.6,129.7,68.7   c-1-2.7-2.8-4.1-4.4-4.5c-0.6-0.1-1.1-0.1-1.6,0.1l0,0c-0.3,0.1-0.5,0.2-0.8,0.4l0,0c-1.3,0.5-2.6,1-3.9,1.3   c-0.4,0.1-0.8,0.2-1.2,0.3c-3.7,0.8-6.7,0.8-6.7,0.8l4.8,5.1l-2.2,5.8c2.2,0.1,5.4-0.2,8.4-0.8c0.5-0.1,0.9-0.2,1.4-0.3   c2.5-0.6,4.7-1.4,5.5-2.2l0,0C129.8,73.7,130.7,71.5,129.7,68.7z"/>
	<path class="st1" d="M172.7,75.2l2.2,0.3c0.7,0.2,1.5,0.5,2.4,0.7c0.4,0.1,0.9,0.2,1.4,0.3c2.5,0.5,5.1,0.8,7.2,0.8l-2-5.4l4-4.1   c-1.3-0.1-3.1-0.3-5.1-0.8c-0.4-0.1-0.8-0.2-1.3-0.3c-0.9-0.2-1.8-0.5-2.7-0.8l-0.1-0.1l-2-1.1l-0.4,0.2l-0.2,0c-0.2,0-0.4,0-0.6,0   c-0.7,0.1-1.4,0.6-2.1,1.2l-0.6,0.6l-0.6-0.7c-1.9-2.2-4.2-3.9-6.6-4.7c-2.9-0.9-6-1.2-8-1.2c-0.7,0-1.3,0-1.8,0.1l-2.9,7.8   c0.4-0.1,0.8-0.1,1.2-0.1l1.2-0.1l-0.6,1.5c2.6-0.4,5.3-0.1,7.8,0.8c2.5,0.9,3.5,1.8,5.2,3.7l2.5-0.7L172.7,75.2L172.7,75.2z    M186,78.9c-2.2,0-4.9-0.3-7.6-0.8c-0.5-0.1-1-0.2-1.4-0.3c-0.9-0.2-1.7-0.4-2.5-0.7l-2.4-0.3l-2.2-1.8l-2.8,0.8l-0.3-0.4   c-1.7-2.1-2.5-2.8-4.8-3.6c-2.4-0.9-5-1.1-7.5-0.6l-2.3,0.4l0.7-1.8c-0.1,0-0.2,0-0.3,0.1l-2.2,0.4l4.2-11.3l0.7-0.1   c0.6-0.1,1.4-0.2,2.3-0.2c2.1,0,5.5,0.3,8.5,1.3c2.4,0.8,4.8,2.4,6.8,4.5c0.7-0.5,1.5-0.9,2.2-1.1c0.3,0,0.5-0.1,0.8-0.1l0,0   l0.8-0.4l2.7,1.4c0.8,0.3,1.7,0.6,2.6,0.8c0.4,0.1,0.8,0.2,1.2,0.3c3.6,0.8,6.6,0.8,6.6,0.8l1.9,0l-5.8,6l2.5,6.5l-1.1,0.1   C186.7,78.9,186.3,78.9,186,78.9z"/>
	<path class="st1" d="M165.3,77.5c0.3,0.1,0.5,0.2,0.7,0.3C165.8,77.7,165.6,77.6,165.3,77.5z"/>
	<path class="st0" d="M175.8,75.8L175.8,75.8C175.7,75.8,175.7,75.8,175.8,75.8L175.8,75.8z"/>
	<path class="st0" d="M175.6,75.5L175.6,75.5L175.6,75.5C175.6,75.5,175.6,75.5,175.6,75.5z"/>
	<path class="st0" d="M172.5,67.9L172.5,67.9c-0.1,0.2-0.2,0.4-0.4,0.6C172.3,68.2,172.4,68,172.5,67.9z"/>
	<path class="st1" d="M167.5,64.9l2.3-1c-0.4-0.3-1-0.7-1.7-1.1c-0.6-0.3-1.3-0.7-2.1-1l0,0L167.5,64.9L167.5,64.9z M162.9,70.4   l0.1,0c0.2,0.1,0.3,0,0.5,0.1c0.6,0.3,1.7,0.7,1.6,1.3l0.1,0c0.2,0.1,0.3,0.1,0.5,0.2c0,0,0,0,0,0c0,0,0,0,0.1,0   c0.2,0.1,0.5,0.2,0.8,0.2c0,0,0.1,0,0.1,0c0.2,0,0.4,0,0.6-0.1l-1.4-2.9l-2.7,0.9l0,0L162.9,70.4L162.9,70.4z M166,61.8L166,61.8   l-3.2,1.4l-1.5-3.1c1,0.3,2,0.7,3,1.1c0.4,0.2,0.8,0.3,1.2,0.5C165.7,61.6,165.8,61.7,166,61.8L166,61.8z M161.1,65.3l-0.8,0.4   l0.9,1.9l3.2-1.4l-1.5-3.1l-2.2,0.9L161.1,65.3L161.1,65.3z M161.2,67.6l1.6,2.8l0,0c-0.1-0.1-0.3-0.1-0.4-0.2   c-0.2-0.1-0.3-0.2-0.5-0.2c-0.3-0.2-0.7-0.1-1-0.2c-0.4-0.2-0.9-0.1-1.2-0.2c-0.4-0.2-1.2-0.2-1.5-0.3L161.2,67.6L161.2,67.6z    M165.9,69.4l-1.5-3.1l3.2-1.4L169,68L165.9,69.4L165.9,69.4z M165.9,72c-1.8-1.2-8-3.1-5.8-2.3c0.6,0.2-10.9-0.1-6.7-0.9l-0.7,0.1   l2.8-9l0.2,0c2.3-0.5,4.8-0.3,7.1,0.6c2.3,0.9,4.7,1.6,6.2,3.5l-0.2,0.9l-2.5,7L165.9,72z"/>
	<path class="st0" d="M171.6,69.6C171.6,69.6,171.6,69.6,171.6,69.6C171.6,69.6,171.6,69.6,171.6,69.6z"/>
	<path class="st0" d="M171.9,69C171.9,69,171.8,69,171.9,69C171.8,69,171.9,69,171.9,69z"/>
	<path class="st0" d="M165.4,61.8c-2.4-0.9-5-1.1-7.6-0.7l-3,8.1c2.6-0.3,5.1-0.1,7.5,0.8c2.4,0.9,4.5,2.3,6.3,4.2l3-8.1   C170,64.2,167.8,62.7,165.4,61.8L165.4,61.8z M168.4,75.5c-1.7-2.1-3.9-3.7-6.4-4.6c-2.5-0.9-5.2-1.1-7.9-0.6l-0.9,0.2l3.7-10.2   l0.3-0.1c2.8-0.5,5.7-0.3,8.4,0.7c2.7,1,5,2.7,6.8,4.9l0.2,0.2L169,76.2L168.4,75.5z"/>
	<path class="st1" d="M172.3,73.2c-1.1-0.6-1.5-2.4-0.1-4.8c1.4-2.5,3.2-2.9,4.2-2.3c1.4,0.8,1.4,2.6,0,4.9   C175.1,73.3,173.7,74,172.3,73.2L172.3,73.2z M160.8,82.7c2,1.1,3.8,1.1,4.5,0c0.3-0.6,0.3-1.4-0.2-2.1l-0.2-0.2l0.1-0.3   c0.5-0.9,1.2-2.1,2-3.7l0.3-0.5l0.5,0.4c0.4,0.4,0.9,0.7,1.4,1c3.6,2.1,7.8,0.3,10.5-4.4c2.7-4.7,2.1-9.2-1.5-11.2l-0.6-0.3   l0.4-0.5c1.2-1.5,2.5-2.8,4-4.6l0.8-0.9l0.1,0c0.2-0.1,0.4-0.1,0.6-0.2c0.7-0.2,1.7-0.5,2.3-1.5l0-0.1c1.2-2.5-1.6-5.1-4.5-6.6   c-3.4-1.8-6.2-1.9-7.2-0.2l-0.1,0.1c-0.4,0.7-0.2,1.5-0.1,2.2c0.1,0.6,0.2,0.9,0.1,1.2c-1,3.2-2.5,6.1-4,9.1   c-0.3,0.5-0.5,1.1-0.8,1.6c-1.3,2.7-3.1,6.3-3.6,8.7l0,0.1l-5.1,8.1l-0.3,0c-0.9,0-1.5,0.3-1.9,0.9c-0.2,0.3-0.3,0.7-0.1,1.3   C158.7,81,159.6,82,160.8,82.7z"/>
	<polygon class="st0" points="176.2,63.9 170.4,66.7 169,73.4 172.1,75.9 175.1,76.3 180.5,67.5 179,65.4  "/>
	<path class="st0" d="M160.9,79.9c0.2-0.2,0.7-0.3,0.9-0.3l3.9-6.2c0,0,0.1-0.1,0.1,0c0.1,0.1,0,0.2,0,0.2s-3,5.6-3.5,6.3   c0,0.2,0.1,0.5,0,1c0,0-0.3-0.1-0.8-0.4C161.1,80.1,160.9,79.9,160.9,79.9L160.9,79.9z M168.5,66.9c1.9-4,5.1-9.7,7.7-15.3   c0-0.1,0.1-0.2,0.1-0.3c0.5-1.1,0.5-1.7,0.2-2.4c-0.2-0.4-0.7-1.2-0.2-1.3c0.7-0.2,2.4,0.3,3.5,0.9c-2.3,0.4-1,1.1-1.8,2.6   c-0.8,1.5-9,16.3-9,16.3c-1.2,2.3-1.4,4-1.4,4C167.3,70.3,167.5,69,168.5,66.9L168.5,66.9z M171.3,67.9c-1.6,2.8-1.1,5.2,0.5,6.1   c1.6,0.9,3.6,0.6,5.5-2.6c1.9-3.2,1.2-5.3-0.4-6.3C175.3,64.3,172.9,65.1,171.3,67.9L171.3,67.9z M161.3,81.8   c1.4,0.8,2.8,0.9,3.2,0.3c0.2-0.4-0.1-1.1-0.7-1.7c0.7-1.3,2.2-4,3.1-5.7c0,0-0.3-1,0-1.6c0,0,0.7,1.9,2.9,3.2   c3.2,1.8,6.7,0.1,9.1-4c2.4-4.1,2-8.1-1.1-9.9c-0.4-0.2-0.6-0.3-0.9-0.5l-3.3,2.8c0,0,6-7.3,8.7-10.2c0.8-0.6,2.1-0.4,2.8-1.5   c1.6-3.2-8.5-8.6-10-5.8c-0.4,0.8,0.5,2.2,0.1,3.2c-1.3,3.8-3.1,7.3-4.9,10.9c-1.3,2.6-3.2,6.5-3.5,8.8l-5.5,8.8   c-0.8-0.2-1.5-0.1-1.8,0.3C159.1,79.9,159.9,81,161.3,81.8z"/>
	<path class="st1" d="M172.2,73.9C172.2,73.9,172.2,73.9,172.2,73.9c-1.1-0.8-1.6-2.5-0.6-5c0.9-2.3,2.2-3.4,3.4-3.6c0,0,0,0,0.1,0   c0.3-0.1,0.6-0.1,0.9,0c0,0,0,0,0.1,0c0,0,0,0,0,0c0.2,0.1,0.4,0.2,0.6,0.3l0.1,0c0.7,0.3,1.3,0.5,2,0.7c0.9,0.3,1.7,0.5,2.6,0.7   c0.4,0.1,0.8,0.2,1.2,0.3c1.4,0.3,2.7,0.5,3.7,0.6l-2.4,4.3l0.9,4.5c-1.7-0.1-3.7-0.3-5.6-0.6c-0.4-0.1-0.9-0.2-1.3-0.3   c-1.1-0.2-2-0.5-2.9-0.7C173.6,74.8,172.6,74.4,172.2,73.9z"/>
	<polygon class="st2" points="177.8,70.7 174.1,72.6 172,69.4 175.7,67.4  "/>
	<path class="st2" d="M179.4,65.8L179.4,65.8c0.2,0.1,0.3,0.1,0.5,0.2c0.2,0.1,0.4,0.1,0.6,0.2c0.4,0.1,0.8,0.3,1.1,0.4   c0.4,0.1,0.9,0.3,1.3,0.4c0.5,0.1,0.9,0.2,1.4,0.4l-2.8,1.4L179.4,65.8z"/>
	<polygon class="st2" points="180.1,74.1 177.8,70.7 181.5,68.8 183.8,72.4  "/>
	<path class="st2" d="M176.7,76.1l3.4-2l1.8,3.2c-1.2-0.2-2.5-0.5-3.7-0.8C177.7,76.3,177.2,76.2,176.7,76.1   c-0.2-0.1-0.4-0.1-0.6-0.2L176.7,76.1z"/>
	<path class="st2" d="M179.4,65.8L179.4,65.8l-3.6,1.6l-1.7-2.5c0.3-0.1,0.2-0.1,0.5-0.2c0,0,0.8,0.5,0.6,0   c-0.1-0.4,0.2-0.3,0.6-0.4c0,0,0,0,0.1,0c0,0,0,0,0.1,0c0.3,0.1,0.4,0,0.6,0.2l0.1,0c0.7,0.4,1.5,0.7,2.2,1   C178.9,65.7,179.1,65.7,179.4,65.8L179.4,65.8L179.4,65.8z"/>
	<path class="st2" d="M176.1,75.9L176.1,75.9c-1-0.3-1.9-0.6-2.6-0.9c-0.8-0.3-1.5-0.6-2.1-0.9l2.7-1.5L176.1,75.9z"/>
	<path class="st2" d="M170.6,70.1L170.6,70.1c0-0.4,0-0.4,0.1-0.8c0,0,0.2,0,0.2,0c0.1-0.2,0-0.3,0.1-0.6c0,0,0.2-0.3,0.2-0.4   c0.1-0.2,0,0,0.1-0.2c0.1-0.3,0.2-0.1,0.3-0.3l0.6,1.5L170.6,70.1z"/>
	<path class="st0" d="M171.1,71.6L171.1,71.6c0-0.4,0-0.8,0.1-1.2c0,0,0,0,0-0.1c0-0.2,0.1-0.4,0.1-0.6c0,0,0-0.1,0-0.1   c0.1-0.2,0.1-0.4,0.2-0.7c0.1-0.2,0.2-0.5,0.3-0.7c0.7-1.5,1.6-2.4,2.5-2.7c0.2-0.1,0.4-0.2,0.7-0.2c0,0,0,0,0.1,0   c0.3-0.1,1,0.1,1.6,0.4l0.1,0c0.7,0.3,1.3,0.5,2,0.7c0.2,0.1,0.4,0.1,0.6,0.2c0.1,0,0.3,0.1,0.4,0.1c0.2,0,0.3,0.1,0.5,0.1   c0.3,0.1,0.6,0.2,1,0.3c0.4,0.1,0.8,0.2,1.2,0.3c0.4,0.1,0.8,0.2,1.2,0.2c0.9,0.2,1.8,0.3,2.5,0.4l-3.3,3.9l1.8,4.9   c-0.7,0-1.5-0.1-2.3-0.2c-1.1-0.1-2.2-0.3-3.3-0.5c-0.4-0.1-0.9-0.2-1.3-0.3c-0.2,0-0.4-0.1-0.5-0.1c0,0,0,0,0,0   c-0.8-0.2-1.6-0.4-2.3-0.6c-0.7-0.2-1.4-0.5-1.9-0.7c-0.4-0.2-0.7-0.4-0.8-0.6c0,0,0,0-0.1-0.1C171.6,73.4,171.2,72.7,171.1,71.6   L171.1,71.6z M171.3,74.7L171.3,74.7c0.8,0.8,3,1.6,5.5,2.2c0.4,0.1,0.9,0.2,1.4,0.3c2.9,0.6,6.1,0.9,8.4,0.8l-2.2-5.8l4.8-5.1   c0,0-3,0-6.7-0.8c-0.4-0.1-0.8-0.2-1.2-0.3c-1.3-0.3-2.6-0.8-3.9-1.3l0,0c-0.3-0.1-0.6-0.2-0.8-0.4l0,0c-0.5-0.2-1.1-0.2-1.6-0.1   c-1.6,0.3-3.4,1.8-4.4,4.4c0,0,0,0,0,0c0,0,0,0.1,0,0.1C169.4,71.5,170.3,73.7,171.3,74.7z"/>
	<path class="st1" d="M162.3,57c2.2,6.8-1.5,14-8.3,16.2c-6.8,2.2-14-1.5-16.2-8.3c-2.2-6.8,1.5-14,8.3-16.2   C152.8,46.5,160.1,50.2,162.3,57L162.3,57z"/>
	<path class="st0" d="M161.2,57.4c-2-6.1-8.6-9.5-14.7-7.5c-6.1,2-9.5,8.6-7.5,14.7s8.6,9.5,14.7,7.5   C159.8,70.1,163.2,63.5,161.2,57.4z"/>
	<ellipse transform="matrix(0.9511 -0.309 0.309 0.9511 -11.5037 49.3501)" class="st1" cx="150.1" cy="61" rx="10.5" ry="10.5"/>
	<path class="st0" d="M154.3,50.4c-2.6-1.1-5.7-1.2-8.4,0l4.2,2.7L154.3,50.4z"/>
	<polygon class="st0" points="152.7,64.6 154.3,59.6 150.1,56.6 145.8,59.6 147.5,64.6  "/>
	<path class="st0" d="M161.5,61.7c0.3-2.9-0.6-5.8-2.6-8l-1.3,4.8L161.5,61.7z"/>
	<path class="st0" d="M152.9,72.1c2.8-0.6,5.3-2.4,6.8-5l-5,0.3L152.9,72.1z"/>
	<polygon class="st0" points="145.8,59.6 147.4,64.6 152.7,64.6 154.3,59.6 150,56.5  "/>
	<path class="st0" d="M140.4,67.1c1.5,2.5,3.9,4.3,6.8,4.9l-1.8-4.7L140.4,67.1z"/>
	<path class="st0" d="M138.6,61.7c-0.3-2.9,0.6-5.8,2.6-8l1.3,4.8L138.6,61.7z"/>
	<rect x="149.8" y="51.9" class="st0" width="0.5" height="5.9"/>
	<polygon class="st0" points="153.2,60.3 153,59.8 158.7,58 158.8,58.4  "/>
	<rect x="153.4" y="63" transform="matrix(0.8073 -0.5902 0.5902 0.8073 -9.3178 103.423)" class="st0" width="0.5" height="5.9"/>
	<polygon class="st0" points="144.9,68.5 144.5,68.2 148,63.4 148.4,63.7  "/>
	<polygon class="st0" points="146.9,60.3 141.3,58.4 141.4,58 147.1,59.8  "/>
	<ellipse transform="matrix(0.7231 -0.6907 0.6907 0.7231 -0.5851 120.5436)" class="st1" cx="150.1" cy="61" rx="10.5" ry="10.5"/>
	<path class="st0" d="M142.9,53.5c-4.1,3.9-4.3,10.5-0.3,14.6c3.9,4.1,10.5,4.3,14.6,0.3c4.1-3.9,4.3-10.5,0.3-14.6   C153.6,49.7,147,49.6,142.9,53.5L142.9,53.5z M157.5,68.7c-4.3,4.1-11.1,3.9-15.1-0.3c-4.1-4.3-3.9-11.1,0.3-15.1   c4.3-4.1,11.1-3.9,15.1,0.3C161.9,57.9,161.7,64.7,157.5,68.7z"/>
	<rect x="141.5" y="54.9" transform="matrix(0.1611 -0.9869 0.9869 0.1611 64.2741 186.2977)" class="st0" width="0.4" height="1"/>
	<path class="st0" d="M141.3,55.3l0.7,0.1l0-0.1l-0.7-0.1L141.3,55.3L141.3,55.3z M142.3,55.7l-1.2-0.2l0.1-0.6l1.2,0.2L142.3,55.7z   "/>
	<path class="st0" d="M151,65.2l3.2-3l-1-4.1l-4.1-1.3l-3.1,3l1,4.3L151,65.2L151,65.2z M154.6,62.3l-3.5,3.3l-4.5-1.3l-1.1-4.7   l3.4-3.3l4.5,1.4L154.6,62.3z"/>
	<path class="st0" d="M147,63.9l4,1.1l3.1-2.9l-1-4l-4-1.2l-3,2.9L147,63.9L147,63.9z M151.1,65.3l-4.2-1.2l-1.1-4.4l3.2-3.1   l4.3,1.3l1.1,4.3L151.1,65.3L151.1,65.3z M146.7,64.2l-1.1-4.5l3.3-3.2l4.4,1.3l1.1,4.4l-3.4,3.2L146.7,64.2L146.7,64.2z    M151.2,65.7l-4.6-1.3l-1.2-4.8l3.5-3.4l4.7,1.4l1.2,4.7L151.2,65.7z"/>
	<path class="st0" d="M142.5,58.9l3.1,0.6l1.5-1.5l1.2-1.1l0.4-0.4l-0.5-3.1c-0.4-0.1-2-0.6-3.4-0.3c-0.4,0.2-0.9,0.5-1.3,0.9   c0,0-0.1,0.1-0.1,0.1c0,0-0.1,0.1-0.1,0.1c-0.4,0.4-0.7,0.8-1,1.2C142,56.9,142.4,58.5,142.5,58.9L142.5,58.9z M149.2,56.6   l-0.6,0.5l-1.2,1.1l-1.7,1.6l-3.5-0.7l0-0.1c0-0.1-0.6-2-0.2-3.7l0,0l0,0c0.3-0.5,0.6-0.9,1.1-1.3c0,0,0.1-0.1,0.1-0.1   c0,0,0.1-0.1,0.1-0.1c0.4-0.4,0.9-0.8,1.4-1l0,0l0,0c1.7-0.4,3.6,0.3,3.7,0.3l0.1,0L149.2,56.6z"/>
	<path class="st0" d="M142.6,58.8l3,0.6l3-2.9l-0.5-3c-0.4-0.1-1.3-0.4-2.3-0.4c-0.3,0-0.7,0-1,0.1c-0.4,0.2-0.8,0.5-1.2,0.9   c0,0-0.1,0.1-0.1,0.1c-0.1,0-0.1,0.1-0.1,0.1c-0.4,0.4-0.7,0.8-1,1.2C142.2,56.8,142.5,58.3,142.6,58.8L142.6,58.8z M145.7,59.6   l-3.3-0.6l0-0.1c-0.1-0.5-0.5-2.1-0.1-3.5l0,0c0.3-0.4,0.6-0.9,1-1.3c0,0,0.1-0.1,0.1-0.1c0,0,0.1-0.1,0.1-0.1   c0.4-0.4,0.9-0.7,1.3-1l0,0c0.3-0.1,0.7-0.1,1-0.1c1.1,0,2.1,0.3,2.4,0.4l0.1,0l0.5,3.3l-0.5,0.4L145.7,59.6L145.7,59.6z    M142.3,59.1L142.3,59.1c0-0.1-0.6-2-0.2-3.7c0.3-0.5,0.6-0.9,1-1.3c0,0,0.1-0.1,0.1-0.1c0,0,0.1-0.1,0.1-0.1   c0.4-0.4,0.9-0.7,1.4-1c0.3-0.1,0.7-0.1,1.1-0.1c1.3,0,2.5,0.4,2.5,0.4l0,0l0.5,3.4l-0.5,0.5l-2.8,2.7L142.3,59.1L142.3,59.1z    M145.8,60l-3.7-0.7l-0.1-0.2c0-0.1-0.6-2.1-0.2-3.8l0,0c0.3-0.5,0.7-1,1.1-1.4c0,0,0.1-0.1,0.1-0.1c0,0,0.1-0.1,0.1-0.1   c0.4-0.4,0.9-0.8,1.4-1l0,0c0.4-0.1,0.8-0.1,1.2-0.1c1.4,0,2.6,0.4,2.6,0.5l0.2,0.1l0.6,3.7l-0.6,0.6L145.8,60z"/>
	<path class="st0" d="M153.3,57.9l-4.4-1.3c0,0-0.4-1.7-0.5-3.3c2-0.9,4.3-1,4.3-1s1.4,0.9,2.9,3C155,56,153.3,57.9,153.3,57.9z"/>
	<path class="st0" d="M149.1,56.5l4.2,1.3c0.3-0.3,1.6-1.8,2.2-2.4c-1.4-1.8-2.6-2.8-2.8-2.9c-0.3,0-2.3,0.1-4.1,0.9   C148.7,54.7,149,56.1,149.1,56.5L149.1,56.5z M153.4,58l-4.5-1.4l0-0.1c0,0-0.4-1.7-0.5-3.4l0-0.1l0.1,0c2-0.9,4.3-1,4.3-1h0l0,0   c0.1,0,1.4,1,3,3.1l0.1,0.1l-0.1,0.1C155.1,56.1,153.4,58,153.4,58L153.4,58z"/>
	<path class="st0" d="M149.1,56.4l4.2,1.2c0.3-0.4,1.5-1.7,2.1-2.4c-1.3-1.8-2.5-2.7-2.7-2.8c-0.4,0-2.3,0.1-4,0.9   C148.7,54.7,149.1,56.1,149.1,56.4L149.1,56.4z M153.4,58.1l-4.6-1.4l0-0.1c0,0-0.4-1.7-0.5-3.4l0-0.1l0.1-0.1c2-1,4.3-1,4.4-1h0.1   l0,0c0.1,0,1.4,1,3,3.1l0.1,0.1l-0.1,0.1C155.1,56.1,153.5,58,153.4,58.1L153.4,58.1z"/>
	<path class="st0" d="M149.2,56.3l4,1.2c0.4-0.4,1.4-1.6,2-2.2c-1.2-1.6-2.3-2.5-2.6-2.7c-0.4,0-2.2,0.1-3.9,0.8   C148.9,54.7,149.1,55.9,149.2,56.3L149.2,56.3z M153.3,57.8l-4.3-1.3l0-0.1c-0.1-0.4-0.4-1.7-0.5-3.1l0-0.1l0.1,0   c1.8-0.8,3.7-0.9,4.1-0.9l0,0l0,0c0.2,0.2,1.4,1.1,2.8,2.9l0.1,0.1l-0.1,0.1c-0.6,0.6-1.7,1.9-2.1,2.3L153.3,57.8L153.3,57.8z    M148.9,56.6L148.9,56.6c-0.1-0.2-0.4-1.8-0.5-3.4l0,0l0,0c2-0.9,4.2-1,4.3-1l0,0c0.1,0,1.4,1,2.9,3l0,0l0,0   c-0.6,0.7-2.2,2.4-2.3,2.6l0,0L148.9,56.6L148.9,56.6z M153.4,58.2l-4.7-1.4l0-0.2c0-0.2-0.4-1.8-0.5-3.4l0-0.2l0.2-0.1   c2-1,4.3-1,4.4-1h0.1l0.1,0.1c0.1,0,1.4,1,3,3.1l0.1,0.2l-0.2,0.2c-0.6,0.7-2.2,2.4-2.3,2.6L153.4,58.2z"/>
	<polygon class="st0" points="152.9,52.3 152.6,52.2 153,50.9 153.3,51  "/>
	<path class="st0" d="M152.7,52.1l0.1,0l0.3-1.1l-0.1,0L152.7,52.1L152.7,52.1z M153,52.5l-0.6-0.2l0.5-1.6l0.6,0.2L153,52.5z"/>
	<rect x="144.6" y="51.9" transform="matrix(0.9932 -0.1167 0.1167 0.9932 -5.1265 17.2519)" class="st0" width="0.4" height="1"/>
	<path class="st0" d="M144.7,52.1l0.1,0.7l0.1,0l-0.1-0.7L144.7,52.1L144.7,52.1z M144.6,53.1l-0.1-1.2l0.6-0.1l0.1,1.2L144.6,53.1z   "/>
	<polygon class="st0" points="158.9,57.1 158.6,56.8 159.3,56.1 159.5,56.3  "/>
	<path class="st0" d="M158.8,56.8L158.8,56.8l0.6-0.5l-0.1-0.1L158.8,56.8L158.8,56.8z M158.9,57.2l-0.5-0.4l0.8-1l0.5,0.4   L158.9,57.2z"/>
	<path class="st0" d="M151,65.2l3.2-3l-1-4.1l-4.1-1.3l-3.1,3l1,4.3L151,65.2L151,65.2z M154.6,62.3l-3.5,3.3l-4.5-1.3l-1.1-4.7   l3.4-3.3l4.5,1.4L154.6,62.3z"/>
	<path class="st0" d="M147,63.9l4,1.1l3.1-2.9l-1-4l-4-1.2l-3,2.9L147,63.9L147,63.9z M151.1,65.3l-4.2-1.2l-1.1-4.4l3.2-3.1   l4.3,1.3l1.1,4.3L151.1,65.3L151.1,65.3z M146.7,64.2l-1.1-4.5l3.3-3.2l4.4,1.3l1.1,4.4l-3.4,3.2L146.7,64.2L146.7,64.2z    M151.2,65.7l-4.6-1.3l-1.2-4.8l3.5-3.4l4.7,1.4l1.2,4.7L151.2,65.7z"/>
	<path class="st0" d="M157.5,63.2c0,0,0.1-0.1,0.2-0.2c0.4-0.4,1.4-1.4,1.8-2.6c0-0.6,0-1.1-0.2-1.7v0c-0.1-0.6-0.3-1.2-0.6-1.6   c-1-1-2.5-1.4-2.9-1.5l-2.2,2.4l0.1,0.6l0.9,3.6L157.5,63.2L157.5,63.2z M157.9,63.3L157.9,63.3c-0.2,0.2-0.3,0.2-0.3,0.2l-0.1,0.1   l-3.3-1.3l-0.9-3.7l-0.2-0.8l2.5-2.7l0.1,0c0.1,0,2,0.4,3.2,1.7l0,0l0,0c0.3,0.5,0.5,1.1,0.7,1.8c0.2,0.6,0.3,1.3,0.2,1.9l0,0l0,0   C159.4,61.8,158.5,62.8,157.9,63.3z"/>
	<path class="st0" d="M154.7,62l2.8,1.1c0,0,0.1-0.1,0.1-0.1c0.4-0.4,1.4-1.4,1.7-2.6c0-0.5-0.1-1.1-0.2-1.7   c-0.1-0.6-0.3-1.1-0.6-1.6c-0.9-0.9-2.3-1.3-2.8-1.5l-2.1,2.3l0.1,0.5L154.7,62L154.7,62z M157.5,63.4l-3.1-1.2l-1-4.2l2.3-2.5   l0.1,0c0.4,0.1,2,0.6,3,1.6l0,0c0.3,0.5,0.5,1.1,0.6,1.7c0.2,0.6,0.2,1.2,0.2,1.8l0,0c-0.4,1.2-1.4,2.3-1.8,2.7   C157.7,63.2,157.6,63.3,157.5,63.4L157.5,63.4L157.5,63.4z M154.4,62.2l-0.9-3.7l-0.2-0.7l2.4-2.6l0,0c0.1,0,2,0.4,3.2,1.7   c0.3,0.5,0.5,1.1,0.7,1.7c0.2,0.6,0.2,1.3,0.2,1.9c-0.4,1.2-1.3,2.2-1.8,2.7c-0.2,0.1-0.3,0.2-0.3,0.2l0,0L154.4,62.2L154.4,62.2z    M157.6,63.8l-3.5-1.4l-1.1-4.6l2.5-2.8l0.2,0c0.1,0,2,0.5,3.3,1.7l0,0c0.3,0.5,0.5,1.2,0.7,1.8c0.2,0.7,0.3,1.3,0.2,1.9l0,0.1   c-0.4,1.3-1.4,2.4-1.9,2.9c-0.2,0.2-0.3,0.2-0.3,0.2L157.6,63.8z"/>
	<path class="st0" d="M151.1,65.4l3.3-3.2c0,0,1.7,0.5,3.2,1.3c-0.2,2.2-1.2,4.1-1.2,4.1s-1.7,0.8-4.3,1.1   C151.7,67.7,151.1,65.4,151.1,65.4z"/>
	<path class="st0" d="M151.2,65.4c0.1,0.4,0.6,2.3,0.9,3.1c2.3-0.3,3.9-1,4.1-1.1c0.1-0.3,1-2,1.2-3.9c-1.3-0.6-2.7-1.1-3-1.2   L151.2,65.4L151.2,65.4z M151.9,68.8L151.9,68.8c-0.3-1-1-3.4-1-3.4l0-0.1l3.4-3.3l0.1,0c0,0,1.7,0.5,3.2,1.3l0.1,0l0,0.1   c-0.2,2.2-1.2,4.1-1.2,4.2l0,0l0,0c0,0-1.8,0.8-4.3,1.1L151.9,68.8z"/>
	<path class="st0" d="M152.2,68.5c2.2-0.3,3.7-0.9,4-1.1c0.2-0.3,1-2,1.2-3.9c-1.2-0.6-2.5-1-2.9-1.2l-3.2,3   C151.4,65.9,151.9,67.6,152.2,68.5L152.2,68.5z M156.5,67.7L156.5,67.7c-0.1,0.1-1.8,0.9-4.4,1.2l-0.1,0l0-0.1   c-0.3-0.9-0.9-3.3-0.9-3.3l0-0.1l3.5-3.3l0.1,0c0,0,1.7,0.5,3.2,1.3l0.1,0.1l0,0.1C157.6,65.7,156.5,67.6,156.5,67.7L156.5,67.7z"/>
	<path class="st0" d="M151.4,65.5c0.1,0.6,0.6,2,0.8,2.9c2.1-0.3,3.5-0.9,3.9-1c0.2-0.4,0.9-1.9,1.1-3.7c-1.1-0.5-2.3-0.9-2.7-1.1   L151.4,65.5L151.4,65.5z M152.1,68.6L152.1,68.6c-0.3-1-0.8-2.7-0.9-3.2l0-0.1l3.3-3.1l0.1,0c0.4,0.1,1.7,0.6,2.9,1.2l0.1,0l0,0.1   c-0.2,1.9-1,3.6-1.2,3.9l0,0l0,0c-0.3,0.1-1.9,0.8-4.1,1.1L152.1,68.6L152.1,68.6z M151,65.3l3.4-3.2l0,0c0,0,1.7,0.5,3.2,1.3l0,0   l0,0c-0.2,2.2-1.2,4.1-1.2,4.1l0,0c-0.1,0-1.8,0.8-4.3,1.1l0,0l0,0C151.7,67.8,151,65.4,151,65.3L151,65.3L151,65.3z M151.8,69   l-0.1-0.2c-0.3-0.9-0.9-3.3-0.9-3.3l0-0.2l3.6-3.4l0.2,0.1c0,0,1.7,0.5,3.2,1.3l0.2,0.1l0,0.2c-0.2,2.3-1.3,4.2-1.3,4.2l0,0.1   l-0.1,0c-0.2,0.1-1.8,0.9-4.4,1.1L151.8,69z"/>
	<polygon class="st0" points="157.4,68.5 157.2,68.7 156.2,67.7 156.5,67.4  "/>
	<path class="st0" d="M156.4,67.7l0.8,0.8l0.1-0.1L156.4,67.7L156.4,67.7L156.4,67.7z M157.2,68.9l-1.1-1.2l0.4-0.4l1.1,1.2   L157.2,68.9z"/>
	<rect x="159.9" y="60.2" transform="matrix(0.3942 -0.919 0.919 0.3942 41.2167 183.8925)" class="st0" width="0.4" height="1"/>
	<path class="st0" d="M159.7,60.6l0.7,0.3l0-0.1l-0.7-0.3L159.7,60.6L159.7,60.6z M160.5,61.2l-1.1-0.5l0.2-0.6l1.1,0.5L160.5,61.2z   "/>
	<path class="st0" d="M146.8,64.1l-1.1-4.5c0,0-1.7-0.4-3.3-0.6c-1,2-1.2,4.2-1.2,4.2s0.9,1.4,2.9,3.1   C144.9,65.7,146.8,64.1,146.8,64.1z"/>
	<path class="st0" d="M141.3,63.2c0.1,0.2,1,1.5,2.8,2.9c0.7-0.6,2.2-1.8,2.5-2.1l-1.1-4.3c-0.3-0.1-1.8-0.4-3.2-0.6   C141.5,60.9,141.4,62.9,141.3,63.2L141.3,63.2z M144.1,66.5L144.1,66.5c-2.1-1.7-3-3.1-3-3.2l0,0l0,0c0,0,0.1-2.3,1.2-4.3l0-0.1   l0.1,0c1.6,0.2,3.3,0.6,3.4,0.6l0.1,0l1.1,4.6l-0.1,0C146.9,64.2,144.9,65.8,144.1,66.5L144.1,66.5z"/>
	<path class="st0" d="M144.1,66.1c0.7-0.6,2.1-1.7,2.5-2l-1-4.2c-0.4-0.1-1.7-0.4-3.1-0.6c-0.9,1.7-1,3.6-1.1,4   C141.6,63.5,142.4,64.7,144.1,66.1L144.1,66.1z M147,64.2L147,64.2c-0.1,0.1-2,1.6-2.8,2.3l-0.1,0.1l-0.1-0.1c-2-1.6-2.9-3-2.9-3.1   l0,0l0-0.1c0-0.1,0.1-2.4,1.2-4.3l0.1-0.1l0.1,0c1.6,0.2,3.3,0.6,3.4,0.6l0.1,0L147,64.2z"/>
	<path class="st0" d="M141.5,63.2c0.2,0.3,1,1.4,2.6,2.7c0.7-0.6,1.9-1.6,2.3-1.9l-1-4.1c-0.4-0.1-1.7-0.4-2.9-0.6   C141.8,61,141.6,62.8,141.5,63.2L141.5,63.2z M144.1,66.3L144.1,66.3c-1.8-1.5-2.7-2.7-2.8-3l0,0l0,0c0-0.4,0.2-2.3,1.1-4l0-0.1   l0.1,0c1.3,0.2,2.7,0.5,3.1,0.6l0.1,0l1.1,4.4l-0.1,0C146.3,64.5,144.9,65.6,144.1,66.3L144.1,66.3L144.1,66.3z M141.2,63.3   L141.2,63.3c0-0.1,0.1-2.3,1.2-4.3l0,0l0,0c1.6,0.2,3.3,0.6,3.3,0.6l0,0l1.1,4.5l0,0c0,0-1.9,1.6-2.7,2.2l0,0l0,0   C142.1,64.8,141.2,63.4,141.2,63.3L141.2,63.3L141.2,63.3z M144.1,66.7l-0.2-0.2c-2-1.7-2.9-3.1-3-3.1l-0.1-0.1l0-0.1   c0-0.1,0.1-2.4,1.2-4.4l0.1-0.2l0.2,0c1.7,0.2,3.4,0.6,3.4,0.6l0.2,0l1.2,4.8l-0.1,0.1c0,0-1.9,1.6-2.7,2.2L144.1,66.7z"/>
	<polygon class="st0" points="141.3,63.5 139.9,63.8 139.8,63.4 141.2,63.1  "/>
	<path class="st0" d="M140,63.5l0,0.1l1.1-0.3l0-0.1L140,63.5L140,63.5z M139.8,63.9l-0.1-0.6l1.6-0.4l0.1,0.6L139.8,63.9z"/>
	<rect x="144.7" y="69.6" transform="matrix(0.8025 -0.5967 0.5967 0.8025 -12.9768 100.443)" class="st0" width="1" height="0.4"/>
	<path class="st0" d="M144.9,70L144.9,70l0.7-0.3l-0.1-0.1L144.9,70L144.9,70z M144.9,70.4l-0.4-0.5l1-0.7l0.4,0.5L144.9,70.4z"/>
	<path class="st0" d="M149.1,70.4c1.2-0.3,2.3-1.3,2.7-1.7c0.1-0.1,0.1-0.1,0.2-0.2l-1-3l-0.5-0.1l-3-0.8l-0.6-0.2l-2.5,2.1   c0.1,0.4,0.5,1.9,1.4,3c0.5,0.3,1,0.5,1.6,0.7C147.9,70.3,148.5,70.4,149.1,70.4L149.1,70.4z M152,69c-0.5,0.5-1.6,1.4-2.9,1.7l0,0   h0c-0.6,0-1.2-0.1-1.9-0.3c-0.6-0.2-1.2-0.4-1.7-0.7l0,0l0,0c-1.2-1.3-1.5-3.2-1.5-3.3l0-0.1l2.8-2.3l0.7,0.2l3,0.8l0.7,0.2   l1.1,3.4l-0.1,0.1C152.3,68.7,152.2,68.8,152,69z"/>
	<path class="st0" d="M145.8,69.3c0.4,0.3,1,0.5,1.6,0.7c0.6,0.2,1.2,0.3,1.7,0.3c1.2-0.3,2.2-1.2,2.6-1.6c0,0,0.1-0.1,0.1-0.1   l-1-2.9l-0.5-0.1l-3.5-1l-2.4,2C144.6,67,144.9,68.3,145.8,69.3L145.8,69.3z M149.1,70.5L149.1,70.5c-0.6,0-1.2-0.1-1.8-0.3   c-0.6-0.2-1.2-0.4-1.6-0.7l0,0c-1-1.1-1.3-2.6-1.4-3l0-0.1l2.6-2.2l0.6,0.2l3.6,1l1,3.2l-0.1,0.1c0,0-0.1,0.1-0.2,0.2   C151.5,69.2,150.4,70.2,149.1,70.5L149.1,70.5L149.1,70.5z M144.1,66.3l2.7-2.2l0.7,0.2l3,0.8l0.6,0.2l1.1,3.3l0,0   c0,0-0.1,0.1-0.2,0.2c-0.5,0.5-1.6,1.4-2.8,1.7l0,0v0c-0.6,0-1.2-0.1-1.8-0.3c-0.6-0.2-1.2-0.4-1.7-0.7   C144.4,68.3,144.1,66.4,144.1,66.3L144.1,66.3L144.1,66.3z M149.1,70.9L149.1,70.9c-0.6,0-1.3-0.1-1.9-0.3   c-0.7-0.2-1.2-0.4-1.8-0.8l0,0c-1.2-1.3-1.6-3.3-1.6-3.4l0-0.2l2.9-2.4l0.8,0.2l3.8,1.1l1.2,3.6l-0.1,0.1c0,0-0.1,0.1-0.3,0.3   C151.6,69.6,150.5,70.5,149.1,70.9L149.1,70.9z"/>
	<rect x="149.1" y="70.5" transform="matrix(0.9357 -0.3529 0.3529 0.9357 -15.4563 57.2431)" class="st0" width="0.4" height="1"/>
	<path class="st0" d="M149.1,70.7l0.3,0.7l0.1,0l-0.3-0.7L149.1,70.7L149.1,70.7z M149.2,71.7l-0.4-1.2l0.6-0.2l0.4,1.1L149.2,71.7z   "/>
	<path class="st0" d="M144.8,52.9c0,0-1.8,0.9-2.7,2.5c-0.5,0-0.6-0.2-0.9-0.2c1.2-2,3.4-3.2,3.4-3.2L144.8,52.9z"/>
	<path class="st0" d="M141.5,55.1c0.1,0,0.1,0,0.2,0c0.1,0,0.2,0.1,0.4,0.1c0.8-1.4,2.2-2.2,2.6-2.4l-0.1-0.6   C144.1,52.5,142.5,53.5,141.5,55.1L141.5,55.1z M142.2,55.5L142.2,55.5c-0.3,0-0.5-0.1-0.6-0.1c-0.1,0-0.2-0.1-0.3-0.1h-0.2   l0.1-0.2c1.2-2,3.3-3.2,3.4-3.2l0.1-0.1L145,53l-0.1,0C144.9,53,143.1,53.9,142.2,55.5L142.2,55.5z"/>
	<path class="st0" d="M159.7,60.5c0,0,0.1-2-0.8-3.5c0.3-0.4,0.4-0.4,0.6-0.7c1.1,2,1.1,4.5,1.1,4.5L159.7,60.5z"/>
	<path class="st0" d="M159.8,60.4l0.6,0.2c0-0.6-0.1-2.4-1-4.1c0,0.1-0.1,0.1-0.1,0.1c-0.1,0.1-0.2,0.2-0.3,0.3   C159.8,58.4,159.8,60,159.8,60.4L159.8,60.4z M160.7,60.9l-1.1-0.3l0-0.1c0,0,0.1-1.9-0.8-3.5l0-0.1l0-0.1c0.1-0.2,0.3-0.3,0.4-0.4   c0.1-0.1,0.2-0.2,0.2-0.3l0.1-0.2l0.1,0.2c1.1,2,1.1,4.4,1.1,4.6L160.7,60.9z"/>
	<path class="st0" d="M145.6,69.6c0,0,1.6,1.1,3.5,1.1c0.2,0.4,0.1,0.6,0.3,0.9c-2.3,0-4.4-1.3-4.4-1.3L145.6,69.6z"/>
	<path class="st0" d="M145.2,70.1c0.5,0.3,2.2,1.1,4,1.2c0-0.1,0-0.1-0.1-0.2c0-0.1-0.1-0.2-0.1-0.4c-1.6,0-3-0.8-3.4-1.1   L145.2,70.1L145.2,70.1z M149.6,71.6l-0.2,0c-2.3,0-4.4-1.3-4.5-1.3l-0.1-0.1l0.9-0.8l0.1,0.1c0,0,1.6,1.1,3.4,1.1l0.1,0l0,0.1   c0.1,0.2,0.1,0.4,0.2,0.5c0,0.1,0.1,0.2,0.1,0.3L149.6,71.6z"/>
	<path class="st1" d="M106.3,139.7c-0.1-0.3-0.9,1-0.8,1.3c0.4,0.7,1.3,2.3,1.8,3c0.3-0.2-0.2-1.4-0.2-1.7c0.4-0.7,0.4-1.6-0.5-1.9   L106.3,139.7z"/>
	<path class="st1" d="M150,158L150,158L150,158c-16.2,0-42.3,1.1-70.9,8.6l1.8,0.3c0.3-0.1,0.6-0.1,0.9-0.2l14.2,16l-11.4,16.2   c1.1,0.3,2.2,0.8,3.4,1.4c5.6-1.8,11.4-3.3,17.3-4.6l-7.4-9.6l0.1-4.1l15.7-20.4c0-0.2,0,0,0,0l18.1,19.1l18.2-21.2l0,0   c0,0,0,0,0,0l0,0l0,0c0,0,0,0,0,0l0,0l18.2,21.2l18.1-19.1c0,0,0-0.2,0,0l15.7,20.4l0.1,4.1l-7.4,9.6c5.9,1.3,11.7,2.9,17.3,4.6   c1.1-0.6,2.2-1.1,3.4-1.4L204,182.7l14.2-16c0.3,0,0.6,0.1,0.9,0.2l1.8-0.3C192.3,159.2,166.2,158.1,150,158z"/>
	<path class="st2" d="M240.5,189.2c-1.1-2-9-5.6-26.3-9.9c-26.4-6.6-48-7.4-64.1-7.4c-16.2,0-37.8,0.8-64.2,7.4   c-17.4,4.3-25.3,7.9-26.3,9.9c-1.9,3.6,2.2,12.8,4.2,17.8c3,7.4,9.4,16.1,9.4,16.1s-1.2-3.3,8.1-6.1c35.1-10.8,68.6-9.9,68.8-9.9   c0.3,0,33.6-0.9,68.7,9.9c9.3,2.8,8.1,6.1,8.1,6.1s6.4-8.7,9.4-16.1C238.3,202,242.5,192.8,240.5,189.2z"/>
	<path class="st0" d="M150,173.3c-7.2,0-16.8,0.1-28.2,1.2c-12.2,1.2-23.9,3.2-35.7,6.1c-8,2-14.5,3.9-19.1,5.8   c-5.7,2.2-6.3,3.4-6.4,3.5c-0.4,0.8-0.7,2.6,0.5,6.6c0.9,3,2.2,6.2,3.3,8.8c0.2,0.5,0.4,0.9,0.5,1.3c2.1,5,5.7,10.7,7.8,13.7   c1.3-1.7,4.1-3.3,8.1-4.5c30.2-9.3,59.2-10,67.3-10c0.5,0,1.2,0,1.9,0h0c0.5,0,1.2,0,1.9,0c8.1,0,37,0.7,67.2,10   c4,1.2,6.8,2.7,8.1,4.5c2.1-3,5.7-8.7,7.8-13.7c0.2-0.4,0.3-0.8,0.5-1.3c1.1-2.6,2.4-5.8,3.3-8.8c1.2-4,0.9-5.8,0.5-6.6   c0-0.1-0.7-1.2-6.4-3.5c-4.6-1.8-11.1-3.8-19.1-5.8c-11.9-3-23.6-5-35.7-6.1C166.9,173.4,157.2,173.3,150,173.3L150,173.3   L150,173.3z M227.9,223.8l-2.3-1.2c0,0.1,0,0.1,0,0.1c0,0,0.1-2.3-7.2-4.5c-29.8-9.2-58.4-9.9-66.4-9.9c-0.7,0-1.3,0-1.8,0   c0,0-0.1,0-0.1,0c0,0,0,0-0.1,0c-0.6,0-1.3,0-1.8,0c-8.1,0-36.7,0.7-66.5,9.9c-7.3,2.2-7.2,4.5-7.2,4.5c0,0,0.2,0.9,0.2,0.9   l-2.2,0.8c-0.3-0.4-6.8-9.5-9.9-16.9c-0.2-0.4-0.3-0.8-0.5-1.3c-3-7.2-5.6-14-3.7-17.6c0.5-0.9,1.8-2.3,7.7-4.7   c4.7-1.9,11.3-3.8,19.4-5.9c12-3,23.8-5,36.1-6.2c11.4-1.1,21.2-1.2,28.4-1.2h0c7.2,0,17,0.1,28.3,1.2c12.3,1.2,24.1,3.2,36.1,6.2   c8.2,2,14.7,4,19.4,5.9c5.9,2.3,7.3,3.8,7.7,4.7c1.9,3.6-0.6,10.4-3.7,17.6c-0.2,0.4-0.4,0.9-0.5,1.3   C234.4,214.9,228.2,223.5,227.9,223.8z"/>
	<path class="st1" d="M182.6,199.9c-0.1,0-0.1-0.1-0.2-0.1c-1.2-0.4-2.5-0.6-3.8-0.4c-0.8,0.1-1.5,0.3-2.1,0.7   c-0.5,0.3-0.9,0.6-1.2,1c-0.6,0.8-0.8,1.8-0.7,2.8c0,0.3,0.2,0.7,0.4,1c0.2,0.3,0.5,0.5,0.9,0.7c0.3,0.1,0.6,0.1,0.9,0.1   c0.7-0.1,1.3-0.3,1.9-0.8c0.4-0.3,0.7-0.6,1-1c1.1-1.2,2-2.5,2.9-3.9C182.6,200,182.6,199.9,182.6,199.9L182.6,199.9z M111.6,186   c0-0.1,0-0.4-0.1-0.6c-0.1-0.4-0.3-0.6-0.7-0.5c-0.1,0-0.2,0-0.2,0c-0.2,0.1-0.5,0.2-0.7,0.3c-0.4,0.2-0.8,0.6-1.1,0.9   c-0.4,0.4-0.7,0.8-1.1,1.3c-1,1.4-1.8,2.9-2.4,4.6c-0.2,0.7-0.4,1.4-0.5,2.1c0,0.3,0,0.6,0,0.9c0.1,0.4,0.5,0.6,0.9,0.6   c0.1,0,0.1,0,0.1,0c0.4-0.1,0.7-0.3,1-0.5c0.5-0.4,1-0.8,1.4-1.3c1.4-1.7,2.4-3.6,3-5.6C111.4,187.5,111.5,186.8,111.6,186   L111.6,186z M127.2,184.2c0-0.1,0-0.4-0.1-0.6c-0.1-0.4-0.4-0.6-0.8-0.5c-0.2,0-0.4,0.1-0.5,0.2c-0.3,0.1-0.6,0.3-0.9,0.5   c-0.8,0.6-1.5,1.4-2.1,2.3c-0.8,1.2-1.5,2.5-2,3.8c-0.3,0.8-0.5,1.6-0.6,2.4c0,0.3,0,0.5,0,0.7c0.1,0.3,0.2,0.5,0.4,0.6   c0.1,0,0.2,0.1,0.3,0.1c0.4,0,0.7-0.1,1-0.3c0.4-0.2,0.8-0.5,1.1-0.8c0.5-0.5,0.9-1,1.3-1.5c1.2-1.5,2-3.2,2.5-5.1   C127.1,185.5,127.2,184.9,127.2,184.2L127.2,184.2z M174.3,184.3c0-0.2,0-0.4-0.1-0.6c-0.1-0.2-0.2-0.3-0.4-0.4   c-0.2-0.1-0.4-0.1-0.6-0.1c-0.2,0.1-0.4,0.1-0.7,0.2c-0.4,0.1-0.7,0.4-1.1,0.6c-0.7,0.5-1.4,1.1-1.9,1.8c-1,1.2-1.7,2.5-2.3,3.9   c-0.2,0.5-0.3,0.9-0.4,1.4c-0.1,0.3-0.1,0.6,0,1c0.1,0.5,0.4,0.8,0.9,0.8c0.3,0,0.6-0.1,0.9-0.2c0.5-0.2,1-0.6,1.5-0.9   c1.9-1.7,3.3-3.7,4-6.2C174.2,185.2,174.3,184.8,174.3,184.3L174.3,184.3z M182.7,193.3c0,0.2,0,0.3,0.1,0.5   c0.1,0.3,0.3,0.5,0.6,0.7c0.2,0.1,0.5,0.1,0.7,0.1c0.4-0.1,0.8-0.2,1.1-0.4c0.5-0.3,0.9-0.6,1.3-0.9c1.6-1.4,2.8-3.1,3.5-5   c0.2-0.6,0.4-1.1,0.4-1.7c0-0.2,0-0.5,0-0.7c-0.1-0.3-0.2-0.5-0.5-0.5c-0.2-0.1-0.4-0.1-0.6,0c-0.4,0.1-0.7,0.2-1,0.3   c-0.6,0.3-1.1,0.6-1.6,1.1c-1.2,1-2.1,2.3-2.9,3.6c-0.4,0.7-0.7,1.4-0.9,2.2C182.8,192.7,182.7,193,182.7,193.3L182.7,193.3z    M183.4,198.7c0.4-0.7,0.7-1.3,1.1-2c-0.1,0-0.2,0-0.2,0c-0.7,0.2-1.4,0.3-2.1,0.2c-0.5,0-0.9-0.1-1.3-0.3   c-0.8-0.3-1.4-0.9-1.8-1.6c-0.3-0.5-0.5-1.1-0.5-1.7c-0.1-1.2,0.1-2.3,0.5-3.5c0.2-0.4,0.4-0.9,0.6-1.3c0.1-0.2,0.2-0.3,0.3-0.4   c0.1-0.1,0.1-0.2,0.2-0.3c-1.2,0.3-1.5,0.2-2.2,0c0,0.1-0.1,0.2-0.1,0.3c-0.5,1.5-1.3,2.9-2.4,4c-0.2,0.2-0.3,0.3-0.5,0.5   c-1.2,1.2-2.7,2-4.3,2.4c-0.8,0.2-1.6,0.3-2.4,0.3c-0.8,0-1.5-0.1-2.2-0.4c-1.5-0.5-2.5-1.5-2.9-3.1c0-0.2-0.1-0.3-0.1-0.5   c0,0,0,0-0.1-0.1c-0.1,0.1-0.2,0.2-0.3,0.2c-0.8,0.7-1.7,1.4-2.6,2c-0.6,0.4-1.1,0.7-1.8,1c-0.9,0.4-1.8,0.5-2.7,0.3   c-0.3,0-0.7-0.2-1-0.3c-0.6-0.3-0.9-0.9-1-1.5c-0.1-0.8,0.1-1.5,0.4-2.2c0.3-0.6,0.6-1.1,0.9-1.7c0.1-0.2,0.2-0.4,0.3-0.6   c-0.1-0.1-0.1-0.1-0.2,0c-0.4,0.1-0.8,0.3-1.2,0.4c-0.6,0.2-1.1,0.3-1.7,0.3c-0.4,0-0.8-0.1-1.2-0.2c-0.1,0.1-0.2,0.2-0.2,0.3   c-0.7,1.4-1.4,2.8-2.1,4.2c-0.2,0.3-0.3,0.7-0.5,1c-0.1,0.1-0.1,0.2-0.3,0.2c-0.1,0-0.2,0-0.3,0c-1,0-2.1,0-3.1,0   c-0.5,0-0.9,0-1.4,0c-0.1,0-0.2,0-0.3,0c-0.1-0.1,0-0.2,0.1-0.3c0.5-0.9,1-1.9,1.5-2.8c0.1-0.1,0.1-0.2,0.2-0.4   c-0.2,0.1-0.3,0.2-0.4,0.3c-0.6,0.6-1.3,1.1-2,1.6c-1.1,0.8-2.3,1.4-3.7,1.7c-1.2,0.3-2.3,0.3-3.4-0.1c-0.8-0.3-1.5-0.8-2-1.6   c-0.2-0.4-0.4-0.8-0.5-1.2c0-0.1,0-0.1-0.1-0.2c-0.1,0.1-0.2,0.1-0.3,0.2c-1.1,0.9-2.3,1.8-3.5,2.6c-0.4,0.3-0.9,0.6-1.4,0.8   c-0.3,0.1-0.7,0.2-1.1,0.2c-0.3,0-0.6-0.1-0.9-0.2c-0.6-0.3-1-0.7-1.1-1.3c0-0.3-0.1-0.5-0.1-0.8c-0.1,0-0.1,0.1-0.2,0.2   c-0.4,0.6-1,1.2-1.6,1.7c-0.6,0.5-1.3,0.9-2.1,1.1c-0.8,0.2-1.6,0.2-2.4,0c-0.7-0.2-1.3-0.6-1.7-1.3c-0.3-0.5-0.5-1-0.6-1.6   c-0.1-0.6-0.2-1.2-0.1-1.8c0-0.1,0-0.2,0-0.4c-0.1,0-0.1,0-0.2,0.1c-0.5,0.5-1,1-1.5,1.5c-0.1,0.1-0.2,0.3-0.3,0.4   c-0.8,1.1-1.6,2.1-2.7,2.9c-1.1,0.9-2.2,1.5-3.6,1.9c-0.7,0.2-1.5,0.2-2.2,0.2c-0.3,0-0.7-0.1-1-0.2c-0.4-0.1-0.8-0.3-1.1-0.6   c-0.1,0.1-0.1,0.2-0.2,0.3c-0.5,1.1-0.9,2.2-1.4,3.3c-0.7,1.8-1.5,3.5-2.2,5.3c-0.1,0.1-0.1,0.3-0.2,0.4c-0.9,0.2-1.8,0.3-2.7,0.5   c-0.9,0.1-1.8,0.4-2.7,0.5c0-0.2,0-0.3,0.1-0.4c0.7-1.5,1.3-3,2-4.5c0.7-1.6,1.4-3.1,2.1-4.7c0-0.1,0.1-0.2,0.1-0.3   c-0.1,0.1-0.2,0.2-0.3,0.3c-0.7,0.7-1.5,1.4-2.4,2c-0.6,0.4-1.3,0.8-2,1.1c-0.7,0.2-1.3,0.3-2,0.3c-0.3,0-0.5-0.1-0.8-0.2   c-0.8-0.3-1.2-0.9-1.4-1.7c-0.1-0.5-0.1-1,0-1.5c0.3-1.4,0.7-2.7,1.2-3.9c0.2-0.6,0.5-1.3,0.7-1.9c0.1-0.4,0.2-0.8,0-1.3   c-0.1-0.4-0.4-0.7-0.7-0.9c-0.1,0-0.2,0.1-0.2,0.1c-1.2,0.8-2.5,1.5-3.8,2.2c-0.2,0.1-0.4,0.3-0.5,0.5c-1.1,2.6-2.2,5.2-3.3,7.7   c-0.3,0.7-0.6,1.5-0.9,2.2c-0.1,0.2-0.2,0.3-0.4,0.3c-2,0.5-4,1-6,1.5c-0.2,0-0.3,0.1-0.5,0.1c0-0.1,0-0.2,0.1-0.3   c0.7-1.5,1.4-3.1,2-4.6c1.1-2.4,2.2-4.9,3.3-7.3c0.8-1.6,1.5-3.3,2.3-5c0.3-0.7,0.6-1.4,0.9-2.2c0.8-1.8,0.8-3.7,0.2-5.6   c-0.2-0.6-0.5-1.2-0.9-1.8c-0.7-1-1.7-1.5-2.9-1.7c-1.1-0.1-2.1,0-3,0.4c-1.4,0.5-2.6,1.3-3.5,2.5c-0.7,0.9-1.2,1.8-1.5,2.9   c-0.4,1.1-0.5,2.3-0.4,3.5c0.1,1.1,0.4,2.1,1,3c0.3,0.4,0.5,0.8,0.9,1c0.2,0.2,0.5,0.3,0.8,0.4c0.4,0.1,0.8,0.1,1.2-0.1   c0.8-0.3,1.3-0.9,1.6-1.7c0.2-0.5,0.3-1,0.4-1.6c0.1-1.3-0.1-2.5-0.5-3.8c-0.3-1-0.7-2-1.1-3c0-0.1-0.1-0.1-0.1-0.2   c0.1,0,0.2,0,0.2,0c1,0.3,2.1,0.5,3.1,0.8c0.6,0.2,1.3,0.3,1.9,0.5c0,0,0.1,0,0.2,0.1c0,0.1,0.1,0.2,0.1,0.3   c0.1,0.8,0.2,1.7,0.1,2.6c-0.1,1.3-0.5,2.6-1.1,3.7c-0.6,1-1.4,1.8-2.3,2.5c-1.2,0.8-2.5,1.3-4,1.6c-0.9,0.1-1.8,0.1-2.6-0.2   c-1.4-0.5-2.4-1.4-3-2.8c-0.3-0.7-0.5-1.5-0.5-2.3c-0.1-2,0.4-3.8,1.5-5.5c0.8-1.3,1.8-2.4,3.1-3.3c2.1-1.6,4.4-2.6,6.9-3.1   c0.9-0.2,1.8-0.3,2.8-0.3c1.1,0,2.3,0.2,3.3,0.6c1.3,0.5,2.3,1.3,3.1,2.4c0.6,0.8,1,1.6,1.2,2.6c0.1,0.7,0.2,1.3,0.2,2   c0,1.1-0.2,2.2-0.4,3.3c-0.3,1.1-0.6,2.2-1.1,3.3c0,0,0,0,0,0.1c0.1,0.1,0.1,0,0.2,0c2.2-1.1,4.1-2.7,5.7-4.6   c0.9-1.1,1.7-2.2,2.4-3.3c0.8-1.3,1.5-2.7,2-4.2c0.2-0.7,0.4-1.3,0.4-2.1c0,0,0-0.1,0-0.2c0.6-0.1,1.2-0.2,1.8-0.3   c0.6-0.1,1.2-0.2,1.8-0.3c0.6-0.1,1.2-0.2,1.8-0.3c0.1,0.1,0.1,0.2,0,0.2c-0.2,1-0.5,2.1-0.9,3.1c-0.4,1.1-0.9,2.2-1.5,3.3   c-1,1.8-2.2,3.3-3.7,4.7c-0.8,0.8-1.7,1.5-2.6,2.3c-0.1,0.1-0.2,0.1-0.2,0.2c0.1,0.1,0.2,0.2,0.3,0.3c0.6,0.4,1,0.9,1.3,1.6   c0.3,0.7,0.4,1.4,0.1,2.1c-0.1,0.4-0.3,0.9-0.4,1.3c-0.3,0.9-0.6,1.9-0.9,2.8c-0.1,0.4-0.2,0.9-0.3,1.3c0,0.2,0,0.5,0,0.7   c0,0.2,0.1,0.3,0.2,0.4c0.3,0.2,0.6,0.3,0.9,0.2c0.2-0.1,0.4-0.2,0.6-0.4c0.6-0.5,1.2-1.1,1.7-1.8c0.9-1.2,1.6-2.4,2.2-3.7   c0.6-1.3,1.2-2.6,1.8-3.9c0.4-0.9,0.8-1.8,1.2-2.6c0.1-0.1,0.1-0.2,0.2-0.4c0.8-0.2,1.6-0.3,2.4-0.4c0.8-0.1,1.6-0.3,2.5-0.4   c0,0.1,0,0.1,0,0.2c-0.1,0.2-0.1,0.3-0.2,0.5c0,0.1,0,0.1-0.1,0.2c0.3-0.2,0.6-0.4,0.8-0.6c0.6-0.5,1.3-0.7,2.1-0.9   c0.9-0.1,1.8-0.1,2.5,0.5c0.6,0.4,1,1,1.2,1.8c0.2,0.8,0.3,1.5,0.2,2.3c-0.1,0.7-0.2,1.5-0.5,2.2c0,0,0,0.1,0,0.1c0,0,0,0,0,0.1   c0.1,0,0.1-0.1,0.2-0.1c0.1-0.1,0.1-0.1,0.2-0.2c0.4-0.3,0.6-0.7,0.8-1.1c0.5-1.3,1.3-2.4,2.2-3.4c0.9-1,1.8-1.8,3-2.5   c0.9-0.6,1.8-1,2.9-1.2c0.6-0.1,1.2-0.2,1.8-0.2c0.9,0,1.6,0.3,2.2,0.9c0,0,0.1,0.1,0.1,0.1c0.3-0.4,0.4-0.8,0.7-1.2   c0.5-0.1,4.5-0.4,4.9-0.3c0,0.1,0,0.1-0.1,0.2c-0.2,0.4-0.4,0.7-0.5,1.1c-0.9,1.9-1.8,3.7-2.7,5.6c-0.3,0.7-0.6,1.4-0.9,2.1   c-0.1,0.2-0.2,0.4-0.2,0.6c0,0.2-0.1,0.3-0.1,0.5c0,0.5,0.3,0.7,0.8,0.6c0.1,0,0.2-0.1,0.4-0.1c0.2-0.1,0.4-0.2,0.6-0.4   c0.4-0.3,0.7-0.6,1.1-0.9c0.1-0.1,0.2-0.2,0.2-0.3c0.3-1.4,0.8-2.6,1.5-3.9c0.4-0.8,0.9-1.5,1.5-2.2c1.3-1.5,2.9-2.6,4.8-3.1   c1-0.3,2.1-0.4,3.2-0.3c0.4,0,0.8,0.1,1.3,0.3c1.1,0.4,1.7,1.2,1.8,2.4c0,0.2,0,0.5,0,0.7c0,0.2-0.1,0.4-0.1,0.6   c-0.1,0.1-0.1,0.1-0.2,0.1c-1.3,0.7-2.6,1.4-3.9,2.1c-0.1,0.1-0.2,0.1-0.3,0.1c-0.1-0.1,0-0.2,0-0.2c0.2-0.4,0.4-0.9,0.5-1.3   c0.2-0.6,0.4-1.2,0.5-1.9c0-0.3,0-0.5,0-0.7c-0.1-0.3-0.4-0.5-0.7-0.5c-0.3,0-0.6,0.2-0.8,0.3c-0.5,0.3-1,0.7-1.4,1.2   c-0.8,0.9-1.4,1.9-1.9,3c-0.2,0.5-0.4,1-0.6,1.5c-0.3,0.8-0.3,1.5-0.2,2.3c0,0.2,0.1,0.4,0.1,0.6c0.2,0.6,0.6,1,1.4,1.1   c0.5,0,1-0.1,1.4-0.2c0.6-0.2,1.2-0.5,1.8-0.8c1.3-0.8,2.5-1.8,3.5-2.9c0.3-0.4,0.6-0.8,0.9-1.3c1-1.8,2.1-3.6,3.1-5.4   c0.1-0.2,0.3-0.5,0.4-0.7c0.1-0.1,0.1-0.2,0.2-0.3c1.7,0,3.5,0,5.2,0.1c0,0.1,0,0.1-0.1,0.2c-0.9,1.5-1.7,3-2.6,4.6   c-0.3,0.5-0.6,1.1-0.9,1.7c0,0.1-0.1,0.2-0.1,0.3c0.2,0,0.3,0.1,0.5,0.1c1.2,0.1,2.3-0.2,3.3-0.8c0.3-0.2,0.5-0.4,0.7-0.7   c0.9-1.6,1.9-3.1,2.9-4.7c0.1-0.2,0.2-0.3,0.3-0.5c0.8,0,1.6,0.1,2.5,0.1c0.8,0,1.6,0.1,2.5,0.1c-0.1,0.1-0.1,0.2-0.1,0.3   c-0.3,0.5-0.6,1-0.8,1.5c-1,1.7-1.8,3.3-2.7,5c-0.5,0.9-0.9,1.8-1.4,2.6c-0.1,0.3-0.2,0.5-0.3,0.8c0,0.2,0,0.3,0,0.4   c0.1,0.3,0.3,0.4,0.6,0.4c0.2,0,0.3-0.1,0.5-0.2c0.2-0.1,0.4-0.2,0.6-0.4c0.3-0.2,0.5-0.5,0.8-0.7c0.3-0.4,0.7-0.8,1-1.1   c0.1-0.1,0.2-0.3,0.2-0.4c0.4-1.5,1.1-2.8,2.1-4c0.6-0.7,1.3-1.4,2.2-2c1.1-0.7,2.3-1.2,3.6-1.5c0.8-0.2,1.6-0.3,2.4-0.2   c0.9,0,1.8,0.2,2.7,0.6c0.4,0.2,0.7,0.4,1,0.7c0.6,0.5,0.9,1.2,1.1,1.9c0.1,0.3,0.1,0.7,0.1,1c0,0.1,0,0.3,0,0.5   c0.7,0.4,1.4,0.5,2.1,0.3c0.3-0.1,0.6-0.3,0.9-0.5c0.4-0.3,0.9-0.6,1.3-0.9c1.1-0.8,2.3-1.3,3.6-1.6c0.9-0.2,1.7-0.2,2.6-0.2   c1,0.1,2,0.4,2.8,1.1c0.2,0.2,0.4,0.4,0.6,0.7c0,0,0.1-0.1,0.1-0.1c0.2-0.3,0.5-0.6,0.7-0.9c0.4,0,0.8,0.1,1.2,0.2   c0.4,0.1,0.8,0.1,1.2,0.2c0.4,0.1,0.8,0.1,1.2,0.2c0.4,0.1,0.8,0.1,1.2,0.2c-0.3,0.4-0.6,0.8-0.8,1.2c-0.3,0.4-0.5,0.8-0.8,1.2   c-0.3,0.4-0.5,0.8-0.8,1.2c-0.3,0.4-0.5,0.8-0.8,1.2c-0.3,0.4-0.5,0.8-0.8,1.2c-0.3,0.4-0.5,0.8-0.8,1.2c-0.3,0.4-0.5,0.8-0.8,1.2   c-0.3,0.4-0.5,0.8-0.8,1.2c-0.3,0.4-0.5,0.8-0.8,1.2c-0.3,0.4-0.5,0.8-0.8,1.2c-0.2,0.4-0.5,0.8-0.7,1.2c-0.3,0.4-0.5,0.8-0.8,1.2   c-0.3,0.4-0.5,0.8-0.8,1.2c0,0,0.1,0.1,0.1,0.1c0.8,0.3,1.6,0.4,2.5,0.4c1.1-0.1,2.1-0.5,2.8-1.4c0.1-0.1,0.1-0.1,0.2-0.2   c0.1,0,0.1,0,0.2,0c1.6,0.8,3.1,1.6,4.7,2.3c0,0,0,0,0,0.1c-0.1,0.1-0.2,0.2-0.3,0.2c-0.7,0.4-1.4,0.7-2.2,0.9   c-1.1,0.3-2.3,0.4-3.4,0.3c-1.3-0.1-2.6-0.4-3.9-0.8c-0.4-0.1-0.8-0.3-1.2-0.5c-0.1,0-0.2-0.1-0.4-0.1c-0.1,0.1-0.2,0.2-0.2,0.4   c-0.4,0.6-0.8,1.2-1.3,1.8c-1.4,1.6-3.2,2.7-5.3,3c-1.1,0.2-2.2,0.3-3.3,0.2c-0.7-0.1-1.4-0.1-2-0.3c-0.6-0.2-1.3-0.4-1.8-0.8   c-1.1-0.7-1.7-1.7-1.8-3c-0.1-0.6,0.1-1.2,0.2-1.8c0.5-1.5,1.6-2.5,3-3c0.7-0.2,1.4-0.4,2.1-0.4c0.7,0,1.4,0,2.1,0   c1.3,0.1,2.5,0.3,3.8,0.7c0.3,0.1,0.7,0.2,1,0.3C183.2,198.7,183.2,198.7,183.4,198.7z"/>
	<path class="st0" d="M100.3,175.8c-0.1,0.4-0.2,0.8-0.3,1.1c-0.4,1.3-1,2.5-1.7,3.8c0.5-0.7,1-1.3,1.4-2.1c0.5-0.9,1-1.9,1.4-3   c-0.1,0-0.2,0-0.3,0.1C100.6,175.8,100.4,175.8,100.3,175.8L100.3,175.8z M78.6,182.8c0.1,0.3,0.1,0.5,0.2,0.8c0-0.2,0-0.5,0-0.7   C78.7,182.8,78.7,182.8,78.6,182.8L78.6,182.8z M129.2,185.1c-0.1,0.5-0.1,0.9-0.3,1.4c-0.1,0.2-0.1,0.4-0.2,0.7c0,0,0,0,0,0   c0.6-1.3,1.2-2.6,1.8-3.8c0,0-0.1,0-0.1,0c-0.1,0.1-0.2,0.3-0.3,0.4L129.2,185.1L129.2,185.1z M73.9,181.9   c-0.1,0.3-0.3,0.6-0.4,0.9c-0.3,0.8-0.4,1.7-0.3,2.7c0.1,0.8,0.1,1.4,0.5,2c0.1,0.2,0.3,0.5,0.5,0.6c0.3,0,0.4-0.2,0.5-0.5   c0.1-0.2,0.2-0.5,0.2-0.9c0.1-0.9-0.1-1.9-0.4-3.1C74.3,183.1,74.1,182.5,73.9,181.9L73.9,181.9z M175.9,186.8   c-0.5,1.4-1.2,2.8-2,4c0.9-0.9,1.5-1.9,1.8-3.1c0-0.1,0.1-0.3,0.1-0.4l0.1-0.2V186.8L175.9,186.8z M164.6,190.5   c0.1,0.1,0.1,0.2,0.2,0.3c0,0,0-0.1,0-0.1c0.1-0.6,0.3-1.2,0.5-1.8c0.3-0.7,0.6-1.4,1-2c-0.7,0.9-1.2,1.8-1.4,2.9   C164.9,190,164.8,190.3,164.6,190.5L164.6,190.5z M112.9,189.7c-0.3,0.8-0.6,1.5-0.9,2.2c0.1-0.1,0.1-0.2,0.2-0.3   c0.2-0.2,0.5-0.5,0.7-0.7c-0.1-0.3-0.1-0.5-0.1-0.8C112.9,190,112.9,189.9,112.9,189.7L112.9,189.7z M148.4,188.2l-2.1,4.4   c-0.1,0.1-0.1,0.2-0.1,0.3l0,0.1c0.1,0,0.3,0,0.4,0h0.1l0.2-0.4c0.7-1.3,1.3-2.6,2-3.9c0.1-0.2,0.3-0.7,0.9-1.1l0.4-0.9   c0.1-0.1,0.1-0.3,0.2-0.4l0.2-0.4c0.2-0.4,0.4-0.9,0.7-1.3c0.3-0.6,0.7-1.2,1-1.8c-0.2,0-0.4,0-0.6,0l0,0.1   C150.3,184.8,149.3,186.5,148.4,188.2C148.4,188.1,148.4,188.2,148.4,188.2L148.4,188.2z M155.6,193c0.1,0,0.1,0.1,0.2,0.1   c0.6,0.1,1.1,0,1.6-0.2c0,0,0.1,0,0.1,0c-0.1-0.2-0.1-0.3-0.2-0.5c-0.1-0.4-0.2-0.9-0.1-1.4c0.1-0.5,0.2-1,0.5-1.5l0.4-0.7   c0.3-0.6,0.7-1.3,1-1.9c0.8-1.5,1.4-2.8,2.1-3.9c0,0,0,0,0,0c-0.1,0-0.2,0-0.3,0l-0.4,0.6c-0.7,1.2-1.5,2.4-2.2,3.6   c-0.3,0.5-0.6,0.8-1,1.2l0.3,0.5l-1.2,2.2c-0.2,0.4-0.4,0.7-0.6,1.1C155.6,192.5,155.6,192.8,155.6,193   C155.6,193,155.6,193,155.6,193L155.6,193z M134.3,191.2l0.1,0.3c0.1,0.1,0.1,0.3,0.2,0.4c0.1,0.2,0.2,0.5,0.3,0.6   c0.1,0.2,0.3,0.4,0.8,0.6c0.2,0.1,0.3,0.1,0.5,0.1c-0.3-0.3-0.5-0.7-0.7-1.2c-0.1-0.4-0.2-0.7-0.2-1.1c-0.1-1.2,0-2.2,0.3-3.2   c0-0.1,0.1-0.2,0.1-0.3c-0.6,1.1-0.9,2.1-1.1,3.1C134.5,190.8,134.4,191,134.3,191.2L134.3,191.2z M181.4,189.6l-0.1,0.2   c-0.1,0.3-0.3,0.6-0.4,0.9c-0.3,1-0.5,1.8-0.4,2.5c0,0.1,0,0.1,0,0.2l0-0.3l0.1-0.5c0-0.3,0.1-0.5,0.2-0.8c0.2-0.9,0.6-1.8,1.1-2.7   c0.5-0.8,1-1.6,1.5-2.3c-0.1,0.1-0.2,0.1-0.3,0.2l-1.5,2.2c0,0.1-0.1,0.1-0.1,0.1L181.4,189.6C181.5,189.5,181.4,189.6,181.4,189.6   L181.4,189.6z M126.1,192.3l0.1,1.3c0,0.1,0,0.1,0,0.2c0.1,0,0.2,0,0.3-0.1c0.3-0.1,0.6-0.3,1-0.5c0.1-0.1,0.3-0.2,0.4-0.3   c-0.3-0.4-0.5-1-0.6-1.6c0-0.4,0-0.7,0.1-1C127.1,191,126.6,191.7,126.1,192.3L126.1,192.3z M117.5,190.7v1.2c0,0.5,0,1,0.1,1.3   c0.1,0.4,0.2,0.7,0.3,1c0.1,0.2,0.2,0.3,0.4,0.3c0.1,0,0.2,0,0.3,0.1c-0.2-0.3-0.4-0.7-0.5-1.1c-0.1-0.5-0.1-1-0.1-1.4   c0.1-1,0.3-2,0.7-2.9c0.3-0.8,0.7-1.6,1-2.3c-0.8,0.9-1.4,1.8-1.8,2.8C117.9,190,117.7,190.4,117.5,190.7L117.5,190.7z    M176.5,194.1l-0.1,0.1c-0.6,0.6-1.2,1.1-1.9,1.5c0.5-0.1,1-0.2,1.6-0.2c0.3,0,0.5,0,0.8,0C176.7,195.1,176.6,194.6,176.5,194.1   L176.5,194.1z M91.1,199.4c0.1,0,0.2,0,0.2,0.1c0.4,0,0.8,0,1.1-0.2c0.5-0.2,0.9-0.4,1.3-0.7c-0.4-0.4-0.6-0.8-0.7-1.3   c-0.1-0.4-0.1-0.9-0.1-1.4c0.1-0.6,0.2-1.2,0.4-1.7c0.3-0.8,0.6-1.7,0.8-2.5l0.1-0.3c0.1-0.2,0.1-0.4,0.2-0.5   c0.1-0.2,0.2-0.5,0.2-0.7c0-0.1,0.1-0.3-0.1-0.6c-0.1-0.3-0.3-0.5-0.6-0.7c-0.1-0.1-0.1-0.1-0.2-0.2l-1.1-0.8   c-0.3,0.3-0.7,0.6-1,0.8c0.5,0.3,1,0.9,1.3,1.8c0.3,0.8,0.3,1.7,0,2.6c-0.2,0.7-0.5,1.3-0.7,2c-0.6,1.5-0.9,2.6-1.1,3.6   c-0.1,0.3-0.1,0.4,0,0.6C91.1,199.3,91.1,199.3,91.1,199.4L91.1,199.4z M84.3,176.9c0.7,0.3,1.4,0.9,1.9,1.6   c0.5,0.6,0.7,1.2,0.8,1.8c0.1,0.4,0.1,0.9,0.2,1.6c0,0.8-0.1,1.6-0.4,2.7c-0.3,1-0.5,2-1,3c-0.1,0.3-0.2,0.5-0.2,0.7l-0.1,0.9   l0.6,0.7c0.1,0.1,0.1,0.1,0.2,0.2c-0.4,0.2-0.8,0.4-1.2,0.6c-0.7,0.3-1.2,0.9-1.5,1.5c-0.8,1.9-1.6,3.8-2.4,5.6l-1,2.2   c-0.2,0.4-0.4,0.9-0.6,1.3c-0.6,0.1-1.1,0.3-1.7,0.4c0.2-0.4,0.3-0.7,0.5-1.1c1-2.2,2.1-4.7,3.3-7.3c0.8-1.7,1.5-3.3,2.3-5   c0.3-0.7,0.6-1.4,1-2.2c0.9-2.3,1-4.7,0.2-7C85.2,178.3,84.8,177.6,84.3,176.9L84.3,176.9z M184.4,201.1L184.4,201.1l3.6-6.5   c1.7-1.5,3.1-3.4,3.9-5.7c0.2-0.4,0.3-0.8,0.4-1.2l1.1-0.9c0.1-0.1,0.3-0.2,0.4-0.4c0.1,0,0.2,0,0.4,0.1l-0.8,1.2   c-0.2,0.3-0.4,0.5-0.6,0.8c-0.2,0.4-0.5,0.7-0.7,1.1l-0.1,0.1c-0.3,0.4-0.5,0.8-0.8,1.2c-0.3,0.4-0.5,0.8-0.8,1.2   c-0.3,0.4-0.5,0.8-0.8,1.2l-3.6,5.6l-1.2,1.7c-0.1,0.1-0.1,0.2-0.2,0.3c-0.3,0.4-0.7,1-1.1,1.5c-0.1,0.1-0.2,0.3-0.3,0.4   C183.6,202.2,184,201.7,184.4,201.1C184.3,201.1,184.4,201.1,184.4,201.1L184.4,201.1z M99.9,196.9l0.1,0.8c0,0.4,0,0.9-0.2,1.3   l-0.3,0.8c-0.6,1.3-1.1,2.6-1.7,3.9l-0.6,1.4c0.2,0,0.3-0.1,0.5-0.1l2.4-5.9c0.3-0.7,0.6-1.4,0.9-2c0.3-1,1-1.4,1.4-1.5l0.5-0.2   c-0.1-0.5-0.1-1-0.1-1.5c0.1-0.8,0.3-1.7,0.6-2.5c0.6-1.9,1.5-3.6,2.6-5.1l0,0c-0.2,0-0.3,0.1-0.5,0.1l0,0c-0.3,0.7-0.6,1.3-0.9,2   c-0.2,0.5-0.5,1.1-0.7,1.6c-0.3,0.8-0.7,1.5-1,2.3c-0.7,1.5-1.5,2.9-2.4,4.1C100.1,196.6,100,196.7,99.9,196.9L99.9,196.9z    M90.1,210.6l3.1-7.2c-0.7,0.2-1.5,0.2-2.3,0.2c-0.5,0-0.9-0.1-1.3-0.3c-1.4-0.5-2.4-1.6-2.7-3.2c-0.2-0.7-0.1-1.5,0-2.3   c0.3-1.2,0.6-2.4,1.2-3.9c-0.2,0.1-0.4,0.2-0.7,0.4c-0.7,1.8-4.6,10.8-4.6,10.8s-4.3,1-5.8,1.4l-6.1,1.4c0,0,3.4-7.6,3.9-8.7   c0.9-2,1.9-4.2,3-6.6c-1.2,0.7-2.6,1.1-4,1.4c-1.3,0.2-2.5,0.1-3.6-0.2c-1.9-0.6-3.4-2-4.3-3.9c-0.4-0.9-0.6-1.9-0.7-3   c-0.1-2.4,0.5-4.6,1.8-6.7c0.9-1.5,2.1-2.8,3.6-3.9c2.3-1.7,4.9-2.9,7.7-3.5c1.1-0.2,2.2-0.4,3.2-0.4l0.2,0c1.4,0,2.8,0.2,4,0.7   c1.6,0.6,2.9,1.7,4,3.2c0.8,1.1,1.3,2.2,1.5,3.4c0.2,0.9,0.2,1.8,0.2,2.4c0,0.5,0,0.9-0.1,1.4c0.2-0.2,0.4-0.5,0.6-0.7   c0.8-1,1.6-2,2.2-3.1c0.8-1.3,1.4-2.6,1.8-3.8c0.6-1.8,0.5-3.3,0.5-3.3l10.3-1.7c0,0-0.5,2-0.8,3.2c-0.2,1-0.5,2.1-1,3.3   c-0.5,1.3-1,2.5-1.7,3.6c-1.1,2-2.5,3.7-4.1,5.2c-0.4,0.4-0.8,0.8-1.2,1.1c0.2,0.3,0.3,0.5,0.5,0.8c0.4,0.9,0.5,1.8,0.4,2.7   c0.3-0.7,0.7-1.5,1-2.2c0.2-0.5,0.5-1.1,0.7-1.6c0.3-0.7,0.6-1.3,0.9-2l0.3-0.6c0-0.1,0.1-0.2,0.1-0.3l0.5-1l1-0.2   c0.6-0.1,1.3-0.2,1.9-0.3c0,0,1-0.2,1.2-0.2c0.6-0.1,4.1-0.7,4.5-0.7c1.6-0.3,3,0,4.1,0.9c0.7,0.5,1.2,1.1,1.6,1.9   c1.1-1.2,2.2-2.1,3.4-2.8c1.2-0.8,2.4-1.2,3.6-1.5c1.9-0.5,13.2-0.8,13.2-0.8l-0.7,1.6c1-0.7,2.1-1.2,3.3-1.5   c1.3-0.3,2.6-0.5,3.9-0.4c0.6,0,1.3,0.2,1.9,0.4c1,0.4,1.8,1,2.4,1.9c0-0.1,0.1-0.2,0.1-0.2l0.2-0.3c0.1-0.1,0.2-0.3,0.3-0.4   c0.1-0.1,0.1-0.2,0.2-0.3l0.7-1l1.1,0c0.4,0,0.7,0,1.1,0c1.5,0,2.9,0,4.2,0.1c0,0,6.2,0.2,6.5,0.2c0.4,0,0.9,0,1.3,0.1   c0.4,0,0.8,0,1.2,0.1l3.2,0.1l-0.9,1.9c1-0.5,2.1-0.9,3.3-1.2c1-0.2,2-0.3,2.9-0.3c1.3,0,2.4,0.3,3.5,0.8c0.6,0.3,1.1,0.6,1.6,1   c0.9,0.8,1.4,1.7,1.7,2.9c0.2-0.1,0.3-0.2,0.5-0.4c0.2-0.2,0.5-0.3,0.7-0.5c1.3-0.9,2.8-1.5,4.4-1.9c1.1-0.2,2.1-0.3,3.2-0.2   c1.1,0.1,5.1,0.9,5.5,0.9l1.9,0.3c0.2,0,0.5,0.1,0.7,0.1c0.3,0,0.6,0.1,0.8,0.1l3.4,0.6l-1.5,2.6c-0.2,0.4-0.4,0.7-0.6,0.9   c-0.1,0.1-0.2,0.2-0.3,0.4c-0.2,0.3-0.3,0.5-0.5,0.8l-1.3,2c-0.2,0.3-0.4,0.5-0.5,0.8c-0.2,0.3-0.5,0.7-0.7,1l-0.1,0.1   c-0.3,0.4-0.5,0.8-0.8,1.2c-0.3,0.4-0.5,0.8-0.8,1.2c-0.3,0.4-0.5,0.8-0.8,1.2l0.5,1.8c0.1,0,0.3,0.1,0.6,0.2   c1.6,0.8,3.1,1.6,4.7,2.3l0.6,0.3l0.3,0.6l2.5-0.1c0,0-1.1,1.7-3.7,3.1c-0.8,0.4-1.6,0.8-2.6,1.1c-1.4,0.4-2.8,0.5-4.2,0.4   c-1.6-0.1-3.1-0.5-4.5-1c0,0,0,0,0,0c-0.2,0.3-0.5,0.6-0.8,0.9c-1.8,2-4,3.2-6.5,3.7c-1.3,0.2-2.6,0.3-3.9,0.2   c-0.6-0.1-1.5-0.2-2.4-0.4c-0.9-0.3-1.7-0.6-2.4-1.1c-1.6-1.1-2.5-2.6-2.7-4.5c-0.1-0.8,0-1.7,0.3-2.7c0.4-1.3,1.2-2.5,2.3-3.3   c-0.1,0-0.3,0.1-0.4,0.1c-0.9,0.2-1.9,0.3-2.9,0.3h-0.1c-1.1,0-2-0.2-2.9-0.5c-1.3-0.5-2.4-1.2-3.1-2.2c-0.3,0.2-0.6,0.5-1,0.7   c-0.8,0.5-1.4,0.9-2.1,1.1c-1.2,0.5-2.5,0.7-3.8,0.5c-0.6-0.1-1.2-0.3-1.7-0.6c-1.1-0.7-1.8-1.7-2-3c0-0.3-0.1-0.5-0.1-0.8   c-0.3,0.5-0.5,1-0.8,1.6l-0.2,0.5c-0.1,0.3-0.3,0.5-0.4,0.8c-0.4,0.8-1.2,1.4-2.1,1.4l-1.2,0c-0.7,0-1.4,0-2.1,0   c-0.3,0-0.6,0-0.8,0l-0.6,0c-0.1,0-0.2,0-0.2,0l-1.5,0l-0.3-0.7c-0.7,0.3-1.4,0.6-2.1,0.7c-1.6,0.4-3.1,0.3-4.6-0.2   c-1.1-0.4-1.9-0.9-2.6-1.7c-0.6,0.5-1.3,0.9-1.9,1.4c-0.5,0.4-1.1,0.8-1.9,1c-0.6,0.2-1.2,0.3-1.8,0.3h-0.1c-0.6,0-1.1-0.1-1.7-0.4   c-0.3-0.1-0.6-0.3-0.9-0.5c-0.9,0.7-1.8,1.1-2.7,1.4c-1.1,0.3-2.3,0.3-3.5,0c-1.3-0.3-2.3-1.1-3-2.2c-0.1-0.1-0.2-0.3-0.2-0.4   c-0.7,0.8-1.3,1.5-2,2c-1.4,1.1-2.9,1.9-4.4,2.3c-0.9,0.2-1.9,0.3-2.9,0.2c-0.3,0-0.6-0.1-0.8-0.1c-0.1,0.1-0.1,0.3-0.2,0.4l-3.4,8   L90.1,210.6z"/>
	<path class="st1" d="M224.4,193.2c0-0.1,0-0.1,0-0.2c0-0.4-0.3-0.7-0.7-0.8c-0.1,0-0.3,0-0.4,0c-0.3,0-0.6,0.1-1,0.2   c-0.6,0.2-1.2,0.6-1.8,1c-1.4,1-2.5,2.4-3.4,3.9c-0.3,0.5-0.5,1-0.7,1.5c-0.1,0.3-0.1,0.6-0.1,0.9c0,0.4,0.3,0.8,0.8,0.9   c0.3,0.1,0.7,0,1,0c0.6-0.2,1.2-0.5,1.8-0.8c1.2-0.8,2.2-1.8,3.1-2.9c0.5-0.8,1-1.6,1.3-2.5C224.3,194,224.4,193.6,224.4,193.2   L224.4,193.2z M199,195.8c0,0.1,0,0.1,0,0.2c0,0.5,0.4,0.9,0.9,0.9c0.3,0,0.5,0,0.8-0.1c0.4-0.1,0.8-0.3,1.1-0.5   c0.7-0.4,1.3-0.9,1.8-1.4c1.1-1,1.9-2.2,2.6-3.6c0.3-0.7,0.5-1.3,0.6-2c0-0.3,0-0.5,0-0.7c-0.1-0.3-0.3-0.5-0.5-0.5   c-0.1,0-0.3-0.1-0.4-0.1c-0.2,0-0.5,0.1-0.7,0.1c-0.7,0.2-1.4,0.6-2,1.1c-1.2,0.9-2.1,2-2.9,3.2c-0.5,0.7-0.9,1.5-1.1,2.3   C199.1,195.1,199,195.4,199,195.8L199,195.8z M208.5,187.9c0.2-0.3,0.4-0.6,0.6-0.8c0.5,0.1,1.1,0.2,1.6,0.4   c0.5,0.1,1.1,0.2,1.6,0.4c0.5,0.1,1.1,0.2,1.6,0.4c0,0.1-0.1,0.2-0.2,0.3c-0.8,1-1.5,2-2.3,3c-1,1.3-2,2.7-3,4.1   c-0.2,0.2-0.3,0.5-0.4,0.7c-0.1,0.5,0.2,1.1,0.9,1.1c0.3,0,0.6-0.1,0.8-0.1c0.7-0.2,1.4-0.6,1.9-1.1c0.5-0.4,0.8-0.9,1.2-1.4   c0.8-1.2,1.7-2.4,2.6-3.5c0.5-0.6,1-1.2,1.4-1.8c0.1-0.1,0.2-0.3,0.4-0.4c0.1,0,0.3,0.1,0.4,0.1c1.3,0.3,2.5,0.6,3.8,1   c0.3,0.1,0.6,0.1,0.8,0.2c0,0.2-0.3,0.4-0.3,0.6c0.1,0,0.3,0,0.4,0c0.3-0.1,0.6-0.1,0.9-0.2c2.4-0.2,4.2,1.3,4.6,3.4   c0.2,1,0,1.9-0.3,2.8c-0.4,1.1-1,2-1.7,2.9c-1.3,1.5-2.8,2.6-4.7,3.2c-0.7,0.3-1.5,0.4-2.3,0.5c-0.6,0-1.2-0.1-1.8-0.2   c-0.3-0.1-0.7-0.1-1-0.3c-0.9-0.3-1.7-0.9-2.1-1.8c-0.1,0-0.1,0.1-0.2,0.1c-0.7,0.9-1.3,1.8-2,2.7c-1,1.3-2,2.7-3,4   c-0.1,0.1-0.1,0.1-0.2,0.2c-0.1,0-0.1,0-0.2,0c-1.6-0.3-3.1-0.6-4.7-0.9c-0.1,0-0.1,0-0.2-0.1c0.2-0.3,0.4-0.6,0.6-0.9   c0.2-0.3,0.4-0.6,0.6-0.8c0.2-0.3,0.4-0.6,0.6-0.9c0.2-0.3,0.4-0.6,0.6-0.8c0.2-0.3,0.4-0.6,0.6-0.9c0.2-0.3,0.4-0.6,0.6-0.9   c0.2-0.3,0.4-0.6,0.6-0.9c0.2-0.3,0.4-0.6,0.6-0.9c0.2-0.3,0.4-0.6,0.6-0.9c0.2-0.3,0.4-0.6,0.6-0.9c-0.1-0.1-0.2,0-0.2,0   c-0.6,0.4-1.3,0.8-2,1.1c-0.5,0.2-1,0.5-1.6,0.6c-0.9,0.2-1.7,0.1-2.4-0.5c-0.7-0.6-1-1.3-0.9-2.2c0,0,0,0,0-0.1   c-0.1,0-0.1,0.1-0.2,0.1c-0.8,0.7-1.7,1.2-2.8,1.5c-1.6,0.4-2.9,0-4.1-1.1c-0.4-0.3-0.6-0.7-0.8-1.1c-0.3-0.6-0.4-1.3-0.4-1.9   c-0.1-1.2,0.1-2.3,0.6-3.3c0.5-1.1,1.1-2.1,1.9-2.9c0.7-0.7,1.5-1.2,2.3-1.7c0.7-0.4,1.5-0.7,2.3-1c1.2-0.3,2.4-0.3,3.7,0   c0.2,0,0.3,0.1,0.5,0.1c1,0.2,1.8,0.7,2.5,1.5C208.4,187.8,208.4,187.9,208.5,187.9z"/>
	<path class="st0" d="M208.6,191.1c-0.1,0.4-0.3,0.8-0.5,1.2c-0.1,0.3-0.2,0.5-0.4,0.8l0.1-0.1c0.7-0.9,1.3-1.8,2-2.7   c0.2-0.2,0.4-0.5,0.5-0.7l-0.1,0c-0.1,0-0.2,0-0.3-0.1L208.6,191.1L208.6,191.1L208.6,191.1z M200.4,189c-0.7,0.4-1.3,0.9-1.8,1.3   c-0.6,0.6-1.1,1.3-1.5,2.3c-0.3,0.8-0.5,1.6-0.4,2.4c0,0.4,0.1,0.8,0.3,1.2c0,0,0,0,0,0c0,0,0-0.1,0-0.1c0-0.1,0-0.2,0-0.4   c0-0.7,0.2-1.3,0.3-1.8c0.3-0.9,0.7-1.8,1.4-2.8C199.2,190.5,199.7,189.7,200.4,189L200.4,189z M205,197.5c0,0.1,0,0.4,0,0.6   c0,0.1,0,0.2,0.2,0.4c0.1,0.1,0.2,0.1,0.3,0.1c0.1,0,0.2,0,0.3,0c0.3-0.1,0.6-0.2,0.9-0.3c-0.5-0.7-0.7-1.6-0.5-2.5   c0-0.2,0.1-0.4,0.2-0.5c-0.4,0.5-0.8,0.9-1.2,1.3c-0.1,0.1-0.2,0.1-0.2,0.2L205,197.5L205,197.5z M225.9,195.7   c-0.3,0.8-0.7,1.5-1.3,2.3c-0.4,0.6-0.9,1.2-1.5,1.8c0.5-0.4,0.9-0.8,1.3-1.2c0.6-0.7,1.1-1.5,1.3-2.2   C225.8,196.1,225.9,195.9,225.9,195.7L225.9,195.7z M207.3,206.1l0.2-0.3c0.1-0.2,0.2-0.3,0.3-0.5c0.1-0.2,0.2-0.3,0.4-0.5l4.4-6   l-0.3-0.3c0.3-0.2,0.6-0.5,0.9-0.7c0.6-0.5,1-1.1,1.5-1.8c0.8-1.2,1.8-2.4,2.5-3.4c0.3-0.4,0.6-0.8,0.9-1.2   c0.4,0.1,0.8,0.2,1.1,0.3c0,0,0,0-0.1,0.1c-1.6,1.2-2.9,2.6-4,4.5c-0.4,0.7-0.7,1.3-0.9,2c-0.1,0.4-0.2,0.7-0.2,1.1H214   c-0.4,0-1.3,0.1-1.9,1.1l-0.7,1c-0.4,0.6-0.8,1.1-1.2,1.7c-0.7,1-1.4,2-2.2,2.9l-0.2,0.2C207.7,206.1,207.5,206.1,207.3,206.1   L207.3,206.1z M200.2,208.9l4-5.6c0.1-0.1,0.2-0.3,0.3-0.4c0-0.1,0.1-0.1,0.1-0.2c-0.8-0.1-1.6-0.5-2.2-1.1   c-0.3-0.2-0.5-0.5-0.7-0.7c-0.4,0.2-0.9,0.3-1.3,0.4c-2.2,0.5-4.3,0-6-1.5c-0.6-0.5-1-1.1-1.3-1.9c-0.4-0.8-0.6-1.7-0.6-2.6   c-0.1-1.5,0.2-2.9,0.7-4.3c0.6-1.5,1.4-2.6,2.4-3.6c0.8-0.8,1.7-1.4,2.8-2.1c0.9-0.5,1.8-0.9,2.7-1.2c1.5-0.4,3.1-0.4,4.7-0.1   c0,0,6.6,1.6,7,1.7c0.2,0,0.3,0.1,0.5,0.1c0.4,0.1,4.7,1.1,4.7,1.1c0.1,0,2.9,0.7,4.2,1.1c0.2,0.1,0.4,0.1,0.6,0.2l1.7,0.4   c3.6,0.9,5.1,2.3,5.6,5.1c0.2,1.2,0.1,2.5-0.4,3.9c-0.4,1.2-1.1,2.4-2.1,3.5c-1.5,1.7-3.3,3-5.5,3.9c-0.9,0.3-1.9,0.6-2.9,0.6   c-0.9,0-1.7-0.1-2.3-0.2c-0.5-0.1-0.9-0.2-1.3-0.3c-0.5-0.2-0.9-0.4-1.3-0.6c-0.2,0.3-0.4,0.6-0.6,0.9c-0.7,1-1.5,2-2.2,3l-1.6,2.3   L200.2,208.9z"/>
	<path class="st1" d="M182.6,199.9c-0.1,0-0.1-0.1-0.2-0.1c-1.2-0.4-2.5-0.6-3.8-0.4c-0.8,0.1-1.5,0.3-2.1,0.7   c-0.5,0.3-0.9,0.6-1.2,1c-0.6,0.8-0.8,1.8-0.7,2.8c0,0.3,0.2,0.7,0.4,1c0.2,0.3,0.5,0.5,0.9,0.7c0.3,0.1,0.6,0.1,0.9,0.1   c0.7-0.1,1.3-0.3,1.9-0.8c0.4-0.3,0.7-0.6,1-1c1.1-1.2,2-2.5,2.9-3.9C182.6,200,182.6,199.9,182.6,199.9L182.6,199.9z M111.6,186   c0-0.1,0-0.4-0.1-0.6c-0.1-0.4-0.3-0.6-0.7-0.5c-0.1,0-0.2,0-0.2,0c-0.2,0.1-0.5,0.2-0.7,0.3c-0.4,0.2-0.8,0.6-1.1,0.9   c-0.4,0.4-0.7,0.8-1.1,1.3c-1,1.4-1.8,2.9-2.4,4.6c-0.2,0.7-0.4,1.4-0.5,2.1c0,0.3,0,0.6,0,0.9c0.1,0.4,0.5,0.6,0.9,0.6   c0.1,0,0.1,0,0.1,0c0.4-0.1,0.7-0.3,1-0.5c0.5-0.4,1-0.8,1.4-1.3c1.4-1.7,2.4-3.6,3-5.6C111.4,187.5,111.5,186.8,111.6,186   L111.6,186z M127.2,184.2c0-0.1,0-0.4-0.1-0.6c-0.1-0.4-0.4-0.6-0.8-0.5c-0.2,0-0.4,0.1-0.5,0.2c-0.3,0.1-0.6,0.3-0.9,0.5   c-0.8,0.6-1.5,1.4-2.1,2.3c-0.8,1.2-1.5,2.5-2,3.8c-0.3,0.8-0.5,1.6-0.6,2.4c0,0.3,0,0.5,0,0.7c0.1,0.3,0.2,0.5,0.4,0.6   c0.1,0,0.2,0.1,0.3,0.1c0.4,0,0.7-0.1,1-0.3c0.4-0.2,0.8-0.5,1.1-0.8c0.5-0.5,0.9-1,1.3-1.5c1.2-1.5,2-3.2,2.5-5.1   C127.1,185.5,127.2,184.9,127.2,184.2L127.2,184.2z M174.3,184.3c0-0.2,0-0.4-0.1-0.6c-0.1-0.2-0.2-0.3-0.4-0.4   c-0.2-0.1-0.4-0.1-0.6-0.1c-0.2,0.1-0.4,0.1-0.7,0.2c-0.4,0.1-0.7,0.4-1.1,0.6c-0.7,0.5-1.4,1.1-1.9,1.8c-1,1.2-1.7,2.5-2.3,3.9   c-0.2,0.5-0.3,0.9-0.4,1.4c-0.1,0.3-0.1,0.6,0,1c0.1,0.5,0.4,0.8,0.9,0.8c0.3,0,0.6-0.1,0.9-0.2c0.5-0.2,1-0.6,1.5-0.9   c1.9-1.7,3.3-3.7,4-6.2C174.2,185.2,174.3,184.8,174.3,184.3L174.3,184.3z M182.7,193.3c0,0.2,0,0.3,0.1,0.5   c0.1,0.3,0.3,0.5,0.6,0.7c0.2,0.1,0.5,0.1,0.7,0.1c0.4-0.1,0.8-0.2,1.1-0.4c0.5-0.3,0.9-0.6,1.3-0.9c1.6-1.4,2.8-3.1,3.5-5   c0.2-0.6,0.4-1.1,0.4-1.7c0-0.2,0-0.5,0-0.7c-0.1-0.3-0.2-0.5-0.5-0.5c-0.2-0.1-0.4-0.1-0.6,0c-0.4,0.1-0.7,0.2-1,0.3   c-0.6,0.3-1.1,0.6-1.6,1.1c-1.2,1-2.1,2.3-2.9,3.6c-0.4,0.7-0.7,1.4-0.9,2.2C182.8,192.7,182.7,193,182.7,193.3L182.7,193.3z    M183.4,198.7c0.4-0.7,0.7-1.3,1.1-2c-0.1,0-0.2,0-0.2,0c-0.7,0.2-1.4,0.3-2.1,0.2c-0.5,0-0.9-0.1-1.3-0.3   c-0.8-0.3-1.4-0.9-1.8-1.6c-0.3-0.5-0.5-1.1-0.5-1.7c-0.1-1.2,0.1-2.3,0.5-3.5c0.2-0.4,0.4-0.9,0.6-1.3c0.1-0.2,0.2-0.3,0.3-0.4   c0.1-0.1,0.1-0.2,0.2-0.3c-1.2,0.3-1.5,0.2-2.2,0c0,0.1-0.1,0.2-0.1,0.3c-0.5,1.5-1.3,2.9-2.4,4c-0.2,0.2-0.3,0.3-0.5,0.5   c-1.2,1.2-2.7,2-4.3,2.4c-0.8,0.2-1.6,0.3-2.4,0.3c-0.8,0-1.5-0.1-2.2-0.4c-1.5-0.5-2.5-1.5-2.9-3.1c0-0.2-0.1-0.3-0.1-0.5   c0,0,0,0-0.1-0.1c-0.1,0.1-0.2,0.2-0.3,0.2c-0.8,0.7-1.7,1.4-2.6,2c-0.6,0.4-1.1,0.7-1.8,1c-0.9,0.4-1.8,0.5-2.7,0.3   c-0.3,0-0.7-0.2-1-0.3c-0.6-0.3-0.9-0.9-1-1.5c-0.1-0.8,0.1-1.5,0.4-2.2c0.3-0.6,0.6-1.1,0.9-1.7c0.1-0.2,0.2-0.4,0.3-0.6   c-0.1-0.1-0.1-0.1-0.2,0c-0.4,0.1-0.8,0.3-1.2,0.4c-0.6,0.2-1.1,0.3-1.7,0.3c-0.4,0-0.8-0.1-1.2-0.2c-0.1,0.1-0.2,0.2-0.2,0.3   c-0.7,1.4-1.4,2.8-2.1,4.2c-0.2,0.3-0.3,0.7-0.5,1c-0.1,0.1-0.1,0.2-0.3,0.2c-0.1,0-0.2,0-0.3,0c-1,0-2.1,0-3.1,0   c-0.5,0-0.9,0-1.4,0c-0.1,0-0.2,0-0.3,0c-0.1-0.1,0-0.2,0.1-0.3c0.5-0.9,1-1.9,1.5-2.8c0.1-0.1,0.1-0.2,0.2-0.4   c-0.2,0.1-0.3,0.2-0.4,0.3c-0.6,0.6-1.3,1.1-2,1.6c-1.1,0.8-2.3,1.4-3.7,1.7c-1.2,0.3-2.3,0.3-3.4-0.1c-0.8-0.3-1.5-0.8-2-1.6   c-0.2-0.4-0.4-0.8-0.5-1.2c0-0.1,0-0.1-0.1-0.2c-0.1,0.1-0.2,0.1-0.3,0.2c-1.1,0.9-2.3,1.8-3.5,2.6c-0.4,0.3-0.9,0.6-1.4,0.8   c-0.3,0.1-0.7,0.2-1.1,0.2c-0.3,0-0.6-0.1-0.9-0.2c-0.6-0.3-1-0.7-1.1-1.3c0-0.3-0.1-0.5-0.1-0.8c-0.1,0-0.1,0.1-0.2,0.2   c-0.4,0.6-1,1.2-1.6,1.7c-0.6,0.5-1.3,0.9-2.1,1.1c-0.8,0.2-1.6,0.2-2.4,0c-0.7-0.2-1.3-0.6-1.7-1.3c-0.3-0.5-0.5-1-0.6-1.6   c-0.1-0.6-0.2-1.2-0.1-1.8c0-0.1,0-0.2,0-0.4c-0.1,0-0.1,0-0.2,0.1c-0.5,0.5-1,1-1.5,1.5c-0.1,0.1-0.2,0.3-0.3,0.4   c-0.8,1.1-1.6,2.1-2.7,2.9c-1.1,0.9-2.2,1.5-3.6,1.9c-0.7,0.2-1.5,0.2-2.2,0.2c-0.3,0-0.7-0.1-1-0.2c-0.4-0.1-0.8-0.3-1.1-0.6   c-0.1,0.1-0.1,0.2-0.2,0.3c-0.5,1.1-0.9,2.2-1.4,3.3c-0.7,1.8-1.5,3.5-2.2,5.3c-0.1,0.1-0.1,0.3-0.2,0.4c-0.9,0.2-1.8,0.3-2.7,0.5   c-0.9,0.1-1.8,0.4-2.7,0.5c0-0.2,0-0.3,0.1-0.4c0.7-1.5,1.3-3,2-4.5c0.7-1.6,1.4-3.1,2.1-4.7c0-0.1,0.1-0.2,0.1-0.3   c-0.1,0.1-0.2,0.2-0.3,0.3c-0.7,0.7-1.5,1.4-2.4,2c-0.6,0.4-1.3,0.8-2,1.1c-0.7,0.2-1.3,0.3-2,0.3c-0.3,0-0.5-0.1-0.8-0.2   c-0.8-0.3-1.2-0.9-1.4-1.7c-0.1-0.5-0.1-1,0-1.5c0.3-1.4,0.7-2.7,1.2-3.9c0.2-0.6,0.5-1.3,0.7-1.9c0.1-0.4,0.2-0.8,0-1.3   c-0.1-0.4-0.4-0.7-0.7-0.9c-0.1,0-0.2,0.1-0.2,0.1c-1.2,0.8-2.5,1.5-3.8,2.2c-0.2,0.1-0.4,0.3-0.5,0.5c-1.1,2.6-2.2,5.2-3.3,7.7   c-0.3,0.7-0.6,1.5-0.9,2.2c-0.1,0.2-0.2,0.3-0.4,0.3c-2,0.5-4,1-6,1.5c-0.2,0-0.3,0.1-0.5,0.1c0-0.1,0-0.2,0.1-0.3   c0.7-1.5,1.4-3.1,2-4.6c1.1-2.4,2.2-4.9,3.3-7.3c0.8-1.6,1.5-3.3,2.3-5c0.3-0.7,0.6-1.4,0.9-2.2c0.8-1.8,0.8-3.7,0.2-5.6   c-0.2-0.6-0.5-1.2-0.9-1.8c-0.7-1-1.7-1.5-2.9-1.7c-1.1-0.1-2.1,0-3,0.4c-1.4,0.5-2.6,1.3-3.5,2.5c-0.7,0.9-1.2,1.8-1.5,2.9   c-0.4,1.1-0.5,2.3-0.4,3.5c0.1,1.1,0.4,2.1,1,3c0.3,0.4,0.5,0.8,0.9,1c0.2,0.2,0.5,0.3,0.8,0.4c0.4,0.1,0.8,0.1,1.2-0.1   c0.8-0.3,1.3-0.9,1.6-1.7c0.2-0.5,0.3-1,0.4-1.6c0.1-1.3-0.1-2.5-0.5-3.8c-0.3-1-0.7-2-1.1-3c0-0.1-0.1-0.1-0.1-0.2   c0.1,0,0.2,0,0.2,0c1,0.3,2.1,0.5,3.1,0.8c0.6,0.2,1.3,0.3,1.9,0.5c0,0,0.1,0,0.2,0.1c0,0.1,0.1,0.2,0.1,0.3   c0.1,0.8,0.2,1.7,0.1,2.6c-0.1,1.3-0.5,2.6-1.1,3.7c-0.6,1-1.4,1.8-2.3,2.5c-1.2,0.8-2.5,1.3-4,1.6c-0.9,0.1-1.8,0.1-2.6-0.2   c-1.4-0.5-2.4-1.4-3-2.8c-0.3-0.7-0.5-1.5-0.5-2.3c-0.1-2,0.4-3.8,1.5-5.5c0.8-1.3,1.8-2.4,3.1-3.3c2.1-1.6,4.4-2.6,6.9-3.1   c0.9-0.2,1.8-0.3,2.8-0.3c1.1,0,2.3,0.2,3.3,0.6c1.3,0.5,2.3,1.3,3.1,2.4c0.6,0.8,1,1.6,1.2,2.6c0.1,0.7,0.2,1.3,0.2,2   c0,1.1-0.2,2.2-0.4,3.3c-0.3,1.1-0.6,2.2-1.1,3.3c0,0,0,0,0,0.1c0.1,0.1,0.1,0,0.2,0c2.2-1.1,4.1-2.7,5.7-4.6   c0.9-1.1,1.7-2.2,2.4-3.3c0.8-1.3,1.5-2.7,2-4.2c0.2-0.7,0.4-1.3,0.4-2.1c0,0,0-0.1,0-0.2c0.6-0.1,1.2-0.2,1.8-0.3   c0.6-0.1,1.2-0.2,1.8-0.3c0.6-0.1,1.2-0.2,1.8-0.3c0.1,0.1,0.1,0.2,0,0.2c-0.2,1-0.5,2.1-0.9,3.1c-0.4,1.1-0.9,2.2-1.5,3.3   c-1,1.8-2.2,3.3-3.7,4.7c-0.8,0.8-1.7,1.5-2.6,2.3c-0.1,0.1-0.2,0.1-0.2,0.2c0.1,0.1,0.2,0.2,0.3,0.3c0.6,0.4,1,0.9,1.3,1.6   c0.3,0.7,0.4,1.4,0.1,2.1c-0.1,0.4-0.3,0.9-0.4,1.3c-0.3,0.9-0.6,1.9-0.9,2.8c-0.1,0.4-0.2,0.9-0.3,1.3c0,0.2,0,0.5,0,0.7   c0,0.2,0.1,0.3,0.2,0.4c0.3,0.2,0.6,0.3,0.9,0.2c0.2-0.1,0.4-0.2,0.6-0.4c0.6-0.5,1.2-1.1,1.7-1.8c0.9-1.2,1.6-2.4,2.2-3.7   c0.6-1.3,1.2-2.6,1.8-3.9c0.4-0.9,0.8-1.8,1.2-2.6c0.1-0.1,0.1-0.2,0.2-0.4c0.8-0.2,1.6-0.3,2.4-0.4c0.8-0.1,1.6-0.3,2.5-0.4   c0,0.1,0,0.1,0,0.2c-0.1,0.2-0.1,0.3-0.2,0.5c0,0.1,0,0.1-0.1,0.2c0.3-0.2,0.6-0.4,0.8-0.6c0.6-0.5,1.3-0.7,2.1-0.9   c0.9-0.1,1.8-0.1,2.5,0.5c0.6,0.4,1,1,1.2,1.8c0.2,0.8,0.3,1.5,0.2,2.3c-0.1,0.7-0.2,1.5-0.5,2.2c0,0,0,0.1,0,0.1c0,0,0,0,0,0.1   c0.1,0,0.1-0.1,0.2-0.1c0.1-0.1,0.1-0.1,0.2-0.2c0.4-0.3,0.6-0.7,0.8-1.1c0.5-1.3,1.3-2.4,2.2-3.4c0.9-1,1.8-1.8,3-2.5   c0.9-0.6,1.8-1,2.9-1.2c0.6-0.1,1.2-0.2,1.8-0.2c0.9,0,1.6,0.3,2.2,0.9c0,0,0.1,0.1,0.1,0.1c0.3-0.4,0.4-0.8,0.7-1.2   c0.5-0.1,4.5-0.4,4.9-0.3c0,0.1,0,0.1-0.1,0.2c-0.2,0.4-0.4,0.7-0.5,1.1c-0.9,1.9-1.8,3.7-2.7,5.6c-0.3,0.7-0.6,1.4-0.9,2.1   c-0.1,0.2-0.2,0.4-0.2,0.6c0,0.2-0.1,0.3-0.1,0.5c0,0.5,0.3,0.7,0.8,0.6c0.1,0,0.2-0.1,0.4-0.1c0.2-0.1,0.4-0.2,0.6-0.4   c0.4-0.3,0.7-0.6,1.1-0.9c0.1-0.1,0.2-0.2,0.2-0.3c0.3-1.4,0.8-2.6,1.5-3.9c0.4-0.8,0.9-1.5,1.5-2.2c1.3-1.5,2.9-2.6,4.8-3.1   c1-0.3,2.1-0.4,3.2-0.3c0.4,0,0.8,0.1,1.3,0.3c1.1,0.4,1.7,1.2,1.8,2.4c0,0.2,0,0.5,0,0.7c0,0.2-0.1,0.4-0.1,0.6   c-0.1,0.1-0.1,0.1-0.2,0.1c-1.3,0.7-2.6,1.4-3.9,2.1c-0.1,0.1-0.2,0.1-0.3,0.1c-0.1-0.1,0-0.2,0-0.2c0.2-0.4,0.4-0.9,0.5-1.3   c0.2-0.6,0.4-1.2,0.5-1.9c0-0.3,0-0.5,0-0.7c-0.1-0.3-0.4-0.5-0.7-0.5c-0.3,0-0.6,0.2-0.8,0.3c-0.5,0.3-1,0.7-1.4,1.2   c-0.8,0.9-1.4,1.9-1.9,3c-0.2,0.5-0.4,1-0.6,1.5c-0.3,0.8-0.3,1.5-0.2,2.3c0,0.2,0.1,0.4,0.1,0.6c0.2,0.6,0.6,1,1.4,1.1   c0.5,0,1-0.1,1.4-0.2c0.6-0.2,1.2-0.5,1.8-0.8c1.3-0.8,2.5-1.8,3.5-2.9c0.3-0.4,0.6-0.8,0.9-1.3c1-1.8,2.1-3.6,3.1-5.4   c0.1-0.2,0.3-0.5,0.4-0.7c0.1-0.1,0.1-0.2,0.2-0.3c1.7,0,3.5,0,5.2,0.1c0,0.1,0,0.1-0.1,0.2c-0.9,1.5-1.7,3-2.6,4.6   c-0.3,0.5-0.6,1.1-0.9,1.7c0,0.1-0.1,0.2-0.1,0.3c0.2,0,0.3,0.1,0.5,0.1c1.2,0.1,2.3-0.2,3.3-0.8c0.3-0.2,0.5-0.4,0.7-0.7   c0.9-1.6,1.9-3.1,2.9-4.7c0.1-0.2,0.2-0.3,0.3-0.5c0.8,0,1.6,0.1,2.5,0.1c0.8,0,1.6,0.1,2.5,0.1c-0.1,0.1-0.1,0.2-0.1,0.3   c-0.3,0.5-0.6,1-0.8,1.5c-1,1.7-1.8,3.3-2.7,5c-0.5,0.9-0.9,1.8-1.4,2.6c-0.1,0.3-0.2,0.5-0.3,0.8c0,0.2,0,0.3,0,0.4   c0.1,0.3,0.3,0.4,0.6,0.4c0.2,0,0.3-0.1,0.5-0.2c0.2-0.1,0.4-0.2,0.6-0.4c0.3-0.2,0.5-0.5,0.8-0.7c0.3-0.4,0.7-0.8,1-1.1   c0.1-0.1,0.2-0.3,0.2-0.4c0.4-1.5,1.1-2.8,2.1-4c0.6-0.7,1.3-1.4,2.2-2c1.1-0.7,2.3-1.2,3.6-1.5c0.8-0.2,1.6-0.3,2.4-0.2   c0.9,0,1.8,0.2,2.7,0.6c0.4,0.2,0.7,0.4,1,0.7c0.6,0.5,0.9,1.2,1.1,1.9c0.1,0.3,0.1,0.7,0.1,1c0,0.1,0,0.3,0,0.5   c0.7,0.4,1.4,0.5,2.1,0.3c0.3-0.1,0.6-0.3,0.9-0.5c0.4-0.3,0.9-0.6,1.3-0.9c1.1-0.8,2.3-1.3,3.6-1.6c0.9-0.2,1.7-0.2,2.6-0.2   c1,0.1,2,0.4,2.8,1.1c0.2,0.2,0.4,0.4,0.6,0.7c0,0,0.1-0.1,0.1-0.1c0.2-0.3,0.5-0.6,0.7-0.9c0.4,0,0.8,0.1,1.2,0.2   c0.4,0.1,0.8,0.1,1.2,0.2c0.4,0.1,0.8,0.1,1.2,0.2c0.4,0.1,0.8,0.1,1.2,0.2c-0.3,0.4-0.6,0.8-0.8,1.2c-0.3,0.4-0.5,0.8-0.8,1.2   c-0.3,0.4-0.5,0.8-0.8,1.2c-0.3,0.4-0.5,0.8-0.8,1.2c-0.3,0.4-0.5,0.8-0.8,1.2c-0.3,0.4-0.5,0.8-0.8,1.2c-0.3,0.4-0.5,0.8-0.8,1.2   c-0.3,0.4-0.5,0.8-0.8,1.2c-0.3,0.4-0.5,0.8-0.8,1.2c-0.3,0.4-0.5,0.8-0.8,1.2c-0.2,0.4-0.5,0.8-0.7,1.2c-0.3,0.4-0.5,0.8-0.8,1.2   c-0.3,0.4-0.5,0.8-0.8,1.2c0,0,0.1,0.1,0.1,0.1c0.8,0.3,1.6,0.4,2.5,0.4c1.1-0.1,2.1-0.5,2.8-1.4c0.1-0.1,0.1-0.1,0.2-0.2   c0.1,0,0.1,0,0.2,0c1.6,0.8,3.1,1.6,4.7,2.3c0,0,0,0,0,0.1c-0.1,0.1-0.2,0.2-0.3,0.2c-0.7,0.4-1.4,0.7-2.2,0.9   c-1.1,0.3-2.3,0.4-3.4,0.3c-1.3-0.1-2.6-0.4-3.9-0.8c-0.4-0.1-0.8-0.3-1.2-0.5c-0.1,0-0.2-0.1-0.4-0.1c-0.1,0.1-0.2,0.2-0.2,0.4   c-0.4,0.6-0.8,1.2-1.3,1.8c-1.4,1.6-3.2,2.7-5.3,3c-1.1,0.2-2.2,0.3-3.3,0.2c-0.7-0.1-1.4-0.1-2-0.3c-0.6-0.2-1.3-0.4-1.8-0.8   c-1.1-0.7-1.7-1.7-1.8-3c-0.1-0.6,0.1-1.2,0.2-1.8c0.5-1.5,1.6-2.5,3-3c0.7-0.2,1.4-0.4,2.1-0.4c0.7,0,1.4,0,2.1,0   c1.3,0.1,2.5,0.3,3.8,0.7c0.3,0.1,0.7,0.2,1,0.3C183.2,198.7,183.2,198.7,183.4,198.7z"/>
	<path class="st1" d="M224.4,193.2c0-0.1,0-0.1,0-0.2c0-0.4-0.3-0.7-0.7-0.8c-0.1,0-0.3,0-0.4,0c-0.3,0-0.6,0.1-1,0.2   c-0.6,0.2-1.2,0.6-1.8,1c-1.4,1-2.5,2.4-3.4,3.9c-0.3,0.5-0.5,1-0.7,1.5c-0.1,0.3-0.1,0.6-0.1,0.9c0,0.4,0.3,0.8,0.8,0.9   c0.3,0.1,0.7,0,1,0c0.6-0.2,1.2-0.5,1.8-0.8c1.2-0.8,2.2-1.8,3.1-2.9c0.5-0.8,1-1.6,1.3-2.5C224.3,194,224.4,193.6,224.4,193.2   L224.4,193.2z M199,195.8c0,0.1,0,0.1,0,0.2c0,0.5,0.4,0.9,0.9,0.9c0.3,0,0.5,0,0.8-0.1c0.4-0.1,0.8-0.3,1.1-0.5   c0.7-0.4,1.3-0.9,1.8-1.4c1.1-1,1.9-2.2,2.6-3.6c0.3-0.7,0.5-1.3,0.6-2c0-0.3,0-0.5,0-0.7c-0.1-0.3-0.3-0.5-0.5-0.5   c-0.1,0-0.3-0.1-0.4-0.1c-0.2,0-0.5,0.1-0.7,0.1c-0.7,0.2-1.4,0.6-2,1.1c-1.2,0.9-2.1,2-2.9,3.2c-0.5,0.7-0.9,1.5-1.1,2.3   C199.1,195.1,199,195.4,199,195.8L199,195.8z M208.5,187.9c0.2-0.3,0.4-0.6,0.6-0.8c0.5,0.1,1.1,0.2,1.6,0.4   c0.5,0.1,1.1,0.2,1.6,0.4c0.5,0.1,1.1,0.2,1.6,0.4c0,0.1-0.1,0.2-0.2,0.3c-0.8,1-1.5,2-2.3,3c-1,1.3-2,2.7-3,4.1   c-0.2,0.2-0.3,0.5-0.4,0.7c-0.1,0.5,0.2,1.1,0.9,1.1c0.3,0,0.6-0.1,0.8-0.1c0.7-0.2,1.4-0.6,1.9-1.1c0.5-0.4,0.8-0.9,1.2-1.4   c0.8-1.2,1.7-2.4,2.6-3.5c0.5-0.6,1-1.2,1.4-1.8c0.1-0.1,0.2-0.3,0.4-0.4c0.1,0,0.3,0.1,0.4,0.1c1.3,0.3,2.5,0.6,3.8,1   c0.3,0.1,0.6,0.1,0.8,0.2c0,0.2-0.3,0.4-0.3,0.6c0.1,0,0.3,0,0.4,0c0.3-0.1,0.6-0.1,0.9-0.2c2.4-0.2,4.2,1.3,4.6,3.4   c0.2,1,0,1.9-0.3,2.8c-0.4,1.1-1,2-1.7,2.9c-1.3,1.5-2.8,2.6-4.7,3.2c-0.7,0.3-1.5,0.4-2.3,0.5c-0.6,0-1.2-0.1-1.8-0.2   c-0.3-0.1-0.7-0.1-1-0.3c-0.9-0.3-1.7-0.9-2.1-1.8c-0.1,0-0.1,0.1-0.2,0.1c-0.7,0.9-1.3,1.8-2,2.7c-1,1.3-2,2.7-3,4   c-0.1,0.1-0.1,0.1-0.2,0.2c-0.1,0-0.1,0-0.2,0c-1.6-0.3-3.1-0.6-4.7-0.9c-0.1,0-0.1,0-0.2-0.1c0.2-0.3,0.4-0.6,0.6-0.9   c0.2-0.3,0.4-0.6,0.6-0.8c0.2-0.3,0.4-0.6,0.6-0.9c0.2-0.3,0.4-0.6,0.6-0.8c0.2-0.3,0.4-0.6,0.6-0.9c0.2-0.3,0.4-0.6,0.6-0.9   c0.2-0.3,0.4-0.6,0.6-0.9c0.2-0.3,0.4-0.6,0.6-0.9c0.2-0.3,0.4-0.6,0.6-0.9c0.2-0.3,0.4-0.6,0.6-0.9c-0.1-0.1-0.2,0-0.2,0   c-0.6,0.4-1.3,0.8-2,1.1c-0.5,0.2-1,0.5-1.6,0.6c-0.9,0.2-1.7,0.1-2.4-0.5c-0.7-0.6-1-1.3-0.9-2.2c0,0,0,0,0-0.1   c-0.1,0-0.1,0.1-0.2,0.1c-0.8,0.7-1.7,1.2-2.8,1.5c-1.6,0.4-2.9,0-4.1-1.1c-0.4-0.3-0.6-0.7-0.8-1.1c-0.3-0.6-0.4-1.3-0.4-1.9   c-0.1-1.2,0.1-2.3,0.6-3.3c0.5-1.1,1.1-2.1,1.9-2.9c0.7-0.7,1.5-1.2,2.3-1.7c0.7-0.4,1.5-0.7,2.3-1c1.2-0.3,2.4-0.3,3.7,0   c0.2,0,0.3,0.1,0.5,0.1c1,0.2,1.8,0.7,2.5,1.5C208.4,187.8,208.4,187.9,208.5,187.9z"/>
</g>
</svg>