<?xml version="1.0" encoding="utf-8"?>
<!-- Generator: Adobe Illustrator 21.1.0, SVG Export Plug-In . SVG Version: 6.00 Build 0)  -->
<svg version="1.1" id="dinamo_x5F_wt" xmlns="http://www.w3.org/2000/svg" xmlns:xlink="http://www.w3.org/1999/xlink" x="0px"
	 y="0px" viewBox="0 0 300 300" style="enable-background:new 0 0 300 300;" xml:space="preserve">
<style type="text/css">
	.st0{fill:#A29061;}
	.st1{fill-rule:evenodd;clip-rule:evenodd;fill:#0054A5;}
	.st2{fill:#FFFFFF;}
</style>
<g>
	<g>
		<polygon class="st0" points="122.2,10 128.3,29.1 148.3,29.1 132.1,40.9 138.3,60 122.2,48.2 106,60 112.2,40.9 96,29.1 116,29.1 
					"/>
		<polygon class="st0" points="177.8,10 184,29.1 203.9,29.1 187.8,40.9 194,60 177.8,48.2 161.7,60 167.9,40.9 151.7,29.1 
			171.7,29.1 		"/>
	</g>
	<g>
		<path class="st1" d="M96.9,293c-9.8,0-18.8-3.7-24.2-9.9c-4.1-4.7-5.7-10.6-4.8-17c1.7-11.5,12.7-16.8,22.2-16.8
			c0.4,0,0.9,0,1.3,0c7.2,0.1,16,3.6,25.3,7.2c1.1,0.4,2.3,0.9,3.5,1.3c2-4.4,3.4-9.4,4-14.2c3.4-25.7,4-44.1,2-65.4
			c-0.1-1.6-0.3-3.1-0.4-4.7c-5.7,3.8-11.2,6.8-16.1,9l-4.1,1.8l-0.2-25.6l1.7-0.8c2-1,4-2,5.9-3c3.7-1.8,7.1-3.6,10.5-5.4
			c-0.4-4.1-0.9-8.4-1.3-12.9c-0.1-0.7-0.1-1.4-0.2-2l-0.1-1c-0.1-0.6-0.1-1.2-0.2-1.9c-15.2,6.8-24.6,20.8-24.7,37.3
			c0,4.2,0.7,10,4,13.4c2.1,2.1,5.1,3.2,9,3.2c1,0,2.1-0.1,3.2-0.2l3.6-0.4l-0.3,3.7c-1.1,14.8-13.4,25.5-29.2,25.5
			c-5.7,0-11.7-1.3-17.8-4l-0.4-0.2l-0.3-0.3c-12.3-10.3-16.4-27.5-11.2-46c6.1-21.4,26.9-48.4,65.7-54.9c5-26.1,18.4-41.6,36-41.7
			l0.2,0c13.3,0.8,20.3,15.8,20.3,30.3c0,5-0.9,10.4-2.8,16c18.6,6.4,34.6,17.4,46.6,32.1c12.8,15.7,20,34.5,20.8,54.4
			c1.6,51-32.5,90.7-79.2,92.3c-0.5,0-0.9,0-1.4,0c-12.3,0-25.4-5.7-35.9-11.1c-6.5,5.3-13.4,8.9-20.7,10.7c-2.5,0.6-5,1-7.5,1.2
			C98.9,293,97.9,293,96.9,293z M92.5,270.4c0.4,3.6,2.2,4.1,5.2,4.6c0.4,0.1,0.8,0.1,1.2,0.2c1.1,0,2.2-0.1,3.2-0.3
			c2.8-0.5,5.5-1.7,7.9-3.4c-3.8-2-8.2-4.1-10.4-4.1l-0.1,0C94.2,267.6,92.9,269.4,92.5,270.4z M142.7,264.9
			c3.1,0.6,6.1,0.9,8.8,0.9c3.5,0,6.7-0.5,9.7-1.4c33.7-10.6,41.5-40.2,42-63.2c0.9-33.8-11.9-58-36.1-68.2
			c-3.8,5.8-8.5,11.6-13.9,17.4c-2.1,2.3-4.4,4.5-6.6,6.7c5.8,9.6,15.6,15.7,29.2,18.1l3.3,0.6l-0.9,3.2
			C170.4,206.8,159.5,241.4,142.7,264.9z M140.7,127.6c-0.1,1.3-0.1,2.6-0.2,3.9l0,0.1c0,0.5,0,1,0,1.5c0,1.9,0.1,3.7,0.3,5.5
			c0.6-0.5,1.1-0.9,1.7-1.4c3.2-2.8,5.9-5.7,8.1-8.8c-1-0.2-2-0.3-3.1-0.4c-2-0.2-4-0.3-6-0.3C141.3,127.6,141,127.6,140.7,127.6z
			 M145.4,107.4c4.4,0.2,8.7,0.6,12.9,1.3c0.7-8.9,0.2-13.7-1.7-14.3c-0.2-0.1-0.4-0.1-0.6-0.1C153.2,94.3,148.9,98.8,145.4,107.4z"
			/>
		<path class="st2" d="M159.4,70c10.9,0.6,17.5,13.5,17.5,27.4c0,5.8-1.3,11.8-3.7,17.8c38.9,12.1,66.7,45.3,68.3,84.7
			c1.5,48.5-30.5,87.6-76.3,89.2c-0.4,0-0.9,0-1.3,0c-11.9,0-24.9-5.7-36.3-11.7c-6.3,5.5-13.3,9.5-21,11.3c-2.3,0.5-4.6,0.9-7,1.1
			c-0.9,0.1-1.8,0.1-2.6,0.1c-13.9,0-28.2-8.5-26-23.4c1.5-10.3,11.6-14.2,19.2-14.2c0.4,0,0.8,0,1.1,0c8.2,0.2,18.9,5,30.5,9.3
			c2.9-5.7,4.7-12,5.5-17.6c3.7-27.6,3.9-45.8,2-66.1c-0.3-3.3-0.6-6.5-0.9-9.8c-7,5-13.8,9-19.8,11.6l-0.2-19.3
			c6.3-3.2,12.5-6.2,18.3-9.3c-0.5-4.8-1-9.7-1.5-14.9c-0.1-1-0.2-2-0.3-3c-0.2-1.8-0.3-3.8-0.3-5.9C107,133.5,94.1,149,94,169.1
			c-0.1,10.9,4,19.5,16,19.5c1.1,0,2.3-0.1,3.5-0.2c-1,12.7-11.3,22.7-26.2,22.7c-5.1,0-10.6-1.1-16.6-3.7
			c-29.1-24.5-5.1-87.2,55.2-96C129.3,91.7,139.2,70.1,159.4,70 M161,112.2c1.4-13.4,0.6-19.4-3.5-20.6c-0.5-0.2-1-0.2-1.5-0.2
			c-5.3,0-11.2,7.9-14.9,19C147.9,110.3,154.6,110.9,161,112.2 M138.6,143.9c2-1.4,4-2.9,5.9-4.5c4.3-3.8,8.1-8.1,11.1-13.2
			c-2.5-0.5-5-1-7.7-1.3c-2.1-0.2-4.2-0.4-6.3-0.4c-1.2,0-2.5,0-3.7,0.1c-0.3,2.2-0.4,4.5-0.4,6.7c0,0.5,0,1.1,0,1.6
			C137.6,136.7,137.9,140.4,138.6,143.9 M151.5,268.7c3.6,0,7.2-0.5,10.6-1.5c29.8-9.4,43.4-34.2,44.2-66
			c0.9-34.2-12.1-61.3-40.3-72c-4.2,6.6-9.3,13.1-15,19.1c-2.7,2.8-5.4,5.5-8.2,8.1c5.4,10.4,15.3,18.6,32.4,21.6
			c-9.6,34.6-21.2,67.7-37.7,88.8C142.2,268,146.9,268.7,151.5,268.7 M98.6,278.2c1.4,0,2.8-0.1,4.1-0.4c5-0.9,9.2-3.5,12.6-7
			c-6.8-3.7-12.3-6.5-15.6-6.5c-0.1,0-0.1,0-0.2,0c-4.6,0.2-8.8,1.4-10,5.7C90,277.9,96,277.5,98.6,278.2 M159.6,64l-0.2,0
			c-18.7,0.1-32.9,15.7-38.5,42.1c-16.1,3.1-30.6,10-42.3,20.3c-11.4,10-19.8,22.9-23.7,36.4c-5.6,19.7-1.1,38,12.1,49.2l0.7,0.6
			l0.8,0.3c6.4,2.8,12.8,4.2,19,4.2c17.4,0,30.9-11.9,32.2-28.2l0.6-7.3l-1.8,0.2c1.6-0.9,3.3-1.9,5-2.9c1.9,21,1.4,39.1-2,64.5
			c-0.5,3.6-1.4,7.3-2.7,10.7c-0.2-0.1-0.5-0.2-0.7-0.3c-9.6-3.7-18.6-7.2-26.4-7.4c-0.4,0-0.9,0-1.3,0c-10.7,0-23.2,6.1-25.2,19.3
			c-1.1,7.3,0.8,14,5.5,19.4c5.9,6.8,15.8,10.9,26.4,10.9c1,0,2.1,0,3.1-0.1c2.7-0.2,5.3-0.6,7.9-1.3c7.1-1.7,13.9-5.1,20.3-10
			c10.5,5.2,23.3,10.5,35.5,10.5c0.5,0,1,0,1.5,0c48.4-1.7,83.7-42.7,82.1-95.3l0,0l0,0c-0.8-20.5-8.2-39.9-21.5-56.1
			c-11.7-14.4-27.3-25.4-45.2-32.1c1.4-4.9,2.1-9.6,2.1-14.1c-0.1-18.5-9.8-32.5-23.1-33.3L159.6,64L159.6,64z M149.9,104.6
			c2.1-4,4.1-6.1,5.3-7c0.2,1.1,0.5,3.3,0.3,7.6C153.7,105,151.8,104.8,149.9,104.6L149.9,104.6z M143.5,132.1c0-0.2,0-0.3,0-0.5
			l0-0.1c0-0.3,0-0.6,0-0.9c0.4,0,0.9,0,1.3,0.1C144.4,131.1,144,131.6,143.5,132.1L143.5,132.1z M102.6,179.6
			c-2.1-2.8-2.6-7.2-2.6-10.6c0.1-13.9,7.2-25.8,19.1-32.6c0,0.1,0,0.3,0,0.4l0,0.1l0,0.1c0.4,3.7,0.8,7.4,1.1,10.8
			c-2.8,1.5-5.7,2.9-8.7,4.4c-2,1-4,2-6,3l-3.3,1.7l0,3.7L102.6,179.6L102.6,179.6z M150.5,157.4c1.7-1.6,3.3-3.3,4.9-5
			c4.9-5.2,9.2-10.5,12.8-15.7c21.5,10.3,32.8,33,32,64.4c-0.6,22-7.9,50.3-39.9,60.4c-2.7,0.8-5.6,1.2-8.8,1.2
			c-1.2,0-2.4-0.1-3.6-0.2c15.5-23.6,25.7-56.3,33.1-82.9l1.8-6.4l-6.5-1.1C164.6,170.1,155.9,165.1,150.5,157.4L150.5,157.4z
			 M95.7,271.2c0.8-0.5,2.5-0.7,4-0.8c0.7,0,2,0.5,3.6,1.1c-0.6,0.2-1.1,0.3-1.7,0.4c-0.8,0.2-1.6,0.3-2.4,0.3
			c-0.3-0.1-0.7-0.1-1-0.2C96.6,271.8,96,271.7,95.7,271.2L95.7,271.2z"/>
	</g>
</g>
</svg>
