<?xml version="1.0" encoding="utf-8"?>
<!-- Generator: Adobe Illustrator 22.1.0, SVG Export Plug-In . SVG Version: 6.00 Build 0)  -->
<svg version="1.1" id="Layer_1" xmlns="http://www.w3.org/2000/svg" xmlns:xlink="http://www.w3.org/1999/xlink" x="0px" y="0px"
	 viewBox="0 0 178.5 50.7" style="enable-background:new 0 0 178.5 50.7;" xml:space="preserve">
<style type="text/css">
	.st0{fill:#006046;}
	.st1{fill:#FFFFFF;}
</style>
<g>
	<rect x="0.4" y="0.4" class="st0" width="177.7" height="50.2"/>
	<g>
		<polygon class="st1" points="144,41.9 138.2,41.9 138.2,14.7 40.3,14.7 40.3,41.9 34.5,41.9 34.5,8.9 144,8.9 		"/>
		<path class="st1" d="M128.8,32.5h-2.6v9.3h2.6v-3l0.4-0.6l1.6,3.7h2.7l-2.6-5.7l2.5-3.7h-3l-1.6,3V32.5z M121.2,34.4
			c0.5,0,0.8,0.3,0.8,1v3.9c0,0.6-0.3,0.9-0.8,0.9c-0.5,0-0.8-0.3-0.8-1v-3.8C120.4,34.7,120.6,34.4,121.2,34.4 M121.2,32.3
			c-2,0-3.4,0.9-3.4,3.6v2.7c0,2.7,1.5,3.6,3.4,3.6c2,0,3.4-0.9,3.4-3.6v-2.7C124.6,33.2,123.1,32.3,121.2,32.3 M109.8,41.9h4
			c1.8,0,2.5-1.3,2.5-2.5c0-1.3-0.5-1.9-1.6-2.3c0.9-0.3,1.4-0.9,1.4-2.2c0-1.5-1.1-2.3-2.5-2.3h-3.8V41.9z M112.3,38h0.6
			c0.7,0,0.9,0.4,0.9,1.1c0,0.6-0.3,1-0.9,1h-0.6V38z M112.3,34.4h0.5c0.6,0,0.9,0.3,0.9,1c0,0.7-0.3,1-0.9,1h-0.5V34.4z
			 M103.8,35.6v-0.3c0-0.7,0.3-1.1,0.8-1.1c0.6,0,0.8,0.4,0.8,0.7c0,0.6-0.2,0.8-0.8,1.1l-1.8,0.9c-1.1,0.6-1.7,1.4-1.7,2.8
			c0,1.8,0.9,2.5,2.3,2.5c1.3,0,1.8-0.7,2.2-1.4l0.2,1.2h2.5c-0.2-0.4-0.2-0.7-0.2-1.6V35c0-1.7-1-2.7-3.4-2.7
			c-2.4,0-3.4,1.4-3.4,3.3H103.8z M105.4,37.2v1.5c0,1-0.3,1.4-0.9,1.4c-0.5,0-0.7-0.3-0.7-0.9c0-0.5,0.1-0.9,0.5-1.2
			C104.7,37.8,105.4,37.3,105.4,37.2 M93.9,32.5v2.1h1.8v7.2h2.6v-7.2h1.8v-2.1H93.9z M90,36.9v1.6c0,0.9-0.4,1.3-1.1,1.3
			c-0.6,0-1-0.4-1-1.3v-6.2c0-0.6,0.5-0.9,1-0.9c0.5,0,1.1,0.3,1.1,1v1.1h3v-0.9c0-1.9-1.2-3.5-4.1-3.5c-2.8,0-4.1,1.6-4.1,3.5v5.4
			c0,2.9,1.3,4.1,4.1,4.1c2.8,0,4.1-1.2,4.1-4.1v-1.2H90z M74.4,35.6v-0.3c0-0.7,0.3-1.1,0.9-1.1c0.6,0,0.8,0.4,0.8,0.7
			c0,0.6-0.2,0.8-0.8,1.1l-1.8,0.9c-1.1,0.6-1.7,1.4-1.7,2.8c0,1.8,0.9,2.5,2.3,2.5c1.3,0,1.8-0.7,2.2-1.4l0.2,1.2h2.5
			c-0.2-0.4-0.2-0.7-0.2-1.6V35c0-1.7-1-2.7-3.4-2.7c-2.4,0-3.4,1.4-3.4,3.3H74.4z M76.1,37.2v1.5c0,1-0.3,1.4-0.9,1.4
			c-0.5,0-0.7-0.3-0.7-0.9c0-0.5,0.1-0.9,0.5-1.2C75.3,37.8,76,37.3,76.1,37.2 M65,32.5v9.3h2.6v-7.2h3.2v-2.1H65z M56.3,32.5v9.3
			h2.6l2.3-6.1v0l-0.3,1.9v4.1h2.4v-9.3h-2.6l-2.3,6v-0.1l0.3-1.9v-4.1H56.3z M46.6,29.4v5.9c0,3.8-0.1,4.4-0.9,4.4
			c-0.3,0-0.6,0-0.7-0.1v2.1c0.5,0.2,1,0.4,1.6,0.4c2,0,2.9-1.2,2.9-5.9v-4.3h2v10.1h3V29.4H46.6z"/>
	</g>
</g>
</svg>
